# Blender 4.3.2
# www.blender.org
mtllib 1.mtl
o Number
v 0.520462 0.677901 0.000000
v 0.520462 0.063553 0.000000
v 0.224362 0.063553 0.000000
v 0.224362 0.449206 0.000000
v 0.207093 0.442692 0.000000
v 0.190111 0.436474 0.000000
v 0.173417 0.430549 0.000000
v 0.157011 0.424918 0.000000
v 0.140892 0.419582 0.000000
v 0.125060 0.414540 0.000000
v 0.109516 0.409792 0.000000
v 0.094260 0.405339 0.000000
v 0.079291 0.401180 0.000000
v 0.064610 0.397314 0.000000
v 0.050216 0.393744 0.000000
v 0.036110 0.390467 0.000000
v 0.036110 0.542128 0.000000
v 0.068107 0.555061 0.000000
v 0.097978 0.567699 0.000000
v 0.125722 0.580043 0.000000
v 0.151340 0.592093 0.000000
v 0.174831 0.603849 0.000000
v 0.196196 0.615311 0.000000
v 0.215435 0.626478 0.000000
v 0.232547 0.637351 0.000000
v 0.247533 0.647930 0.000000
v 0.260392 0.658214 0.000000
v 0.271124 0.668205 0.000000
v 0.279730 0.677901 0.000000
vn -0.0000 -0.0000 1.0000
vt 0.964286 0.000000
vt 0.000000 0.000000
vt 1.000000 0.000000
vt 0.035714 0.000000
vt 0.928571 0.000000
vt 0.892857 0.000000
vt 0.857143 0.000000
vt 0.821429 0.000000
vt 0.785714 0.000000
vt 0.750000 0.000000
vt 0.714286 0.000000
vt 0.678571 0.000000
vt 0.642857 0.000000
vt 0.107143 0.000000
vt 0.607143 0.000000
vt 0.571429 0.000000
vt 0.535714 0.000000
vt 0.142857 0.000000
vt 0.071429 0.000000
vt 0.178571 0.000000
vt 0.214286 0.000000
vt 0.250000 0.000000
vt 0.285714 0.000000
vt 0.321429 0.000000
vt 0.357143 0.000000
vt 0.392857 0.000000
vt 0.428571 0.000000
vt 0.464286 0.000000
vt 0.500000 0.000000
s 0
f 28/1/1 1/2/1 29/3/1
f 28/1/1 2/4/1 1/2/1
f 27/5/1 2/4/1 28/1/1
f 26/6/1 2/4/1 27/5/1
f 25/7/1 2/4/1 26/6/1
f 24/8/1 2/4/1 25/7/1
f 23/9/1 2/4/1 24/8/1
f 22/10/1 2/4/1 23/9/1
f 21/11/1 2/4/1 22/10/1
f 20/12/1 2/4/1 21/11/1
f 19/13/1 4/14/1 20/12/1
f 4/14/1 2/4/1 20/12/1
f 18/15/1 4/14/1 19/13/1
f 17/16/1 4/14/1 18/15/1
f 16/17/1 4/14/1 17/16/1
f 16/17/1 5/18/1 4/14/1
f 3/19/1 2/4/1 4/14/1
f 16/17/1 6/20/1 5/18/1
f 16/17/1 7/21/1 6/20/1
f 16/17/1 8/22/1 7/21/1
f 16/17/1 9/23/1 8/22/1
f 16/17/1 10/24/1 9/23/1
f 16/17/1 11/25/1 10/24/1
f 16/17/1 12/26/1 11/25/1
f 16/17/1 13/27/1 12/26/1
f 16/17/1 14/28/1 13/27/1
f 16/17/1 15/29/1 14/28/1
o Cube
v -1.000000 0.031818 1.000000
v -1.000000 2.031818 1.000000
v -1.000000 0.031818 -1.000000
v -1.000000 2.031818 -1.000000
v 1.000000 0.031818 1.000000
v 1.000000 2.031818 1.000000
v 1.000000 0.031818 -1.000000
v 1.000000 2.031818 -1.000000
v -0.035882 1.305705 -0.893232
v 0.204850 1.305705 -0.893232
v 0.204850 0.691358 -0.893232
v -0.091251 0.691358 -0.893232
v -0.091251 1.077010 -0.893232
v -0.108520 1.070497 -0.893232
v -0.125501 1.064278 -0.893232
v -0.142195 1.058353 -0.893232
v -0.158602 1.052723 -0.893232
v -0.174721 1.047387 -0.893232
v -0.190552 1.042345 -0.893232
v -0.206096 1.037597 -0.893232
v -0.221353 1.033143 -0.893232
v -0.236322 1.028984 -0.893232
v -0.251003 1.025119 -0.893232
v -0.265397 1.021548 -0.893232
v -0.279503 1.018272 -0.893232
v -0.279503 1.169933 -0.893232
v -0.247506 1.182865 -0.893232
v -0.217635 1.195504 -0.893232
v -0.189890 1.207848 -0.893232
v -0.164273 1.219898 -0.893232
v -0.140781 1.231654 -0.893232
v -0.119416 1.243115 -0.893232
v -0.100178 1.254282 -0.893232
v -0.083066 1.265156 -0.893232
v -0.068080 1.275734 -0.893232
v -0.055221 1.286019 -0.893232
v -0.044488 1.296009 -0.893232
v -0.140781 1.231654 1.000000
v -0.164273 1.219898 1.000000
v -0.083066 1.265156 1.000000
v -0.100178 1.254282 1.000000
v -0.119416 1.243115 1.000000
v -0.044488 1.296009 1.000000
v -0.055221 1.286019 1.000000
v 0.204850 1.305705 1.000000
v -0.068080 1.275734 1.000000
v -0.035882 1.305705 1.000000
v -0.279503 1.018272 1.000000
v -0.279503 1.169933 1.000000
v -0.265397 1.021548 1.000000
v -0.251003 1.025119 1.000000
v -0.206096 1.037597 1.000000
v -0.247506 1.182865 1.000000
v -0.236322 1.028984 1.000000
v -0.221353 1.033143 1.000000
v -0.217635 1.195504 1.000000
v -0.142195 1.058353 1.000000
v -0.189890 1.207848 1.000000
v 0.204850 0.691358 1.000000
v -0.091251 1.077010 1.000000
v -0.091251 0.691358 1.000000
v -0.125501 1.064278 1.000000
v -0.108520 1.070497 1.000000
v -0.190552 1.042345 1.000000
v -0.174721 1.047387 1.000000
v -0.158602 1.052723 1.000000
vn -1.0000 -0.0000 -0.0000
vn -0.0000 -0.0000 -1.0000
vn 1.0000 -0.0000 -0.0000
vn -0.0000 -0.0000 1.0000
vn -0.0000 -1.0000 -0.0000
vn -0.0000 1.0000 -0.0000
vn -0.0000 0.0001 1.0000
vn -0.0000 -0.0001 1.0000
vn -0.0000 -0.0004 1.0000
vn -0.0000 0.0006 1.0000
vn 0.4100 -0.9121 -0.0000
vn -0.7071 -0.7071 -0.0000
vn -0.7071 0.7071 -0.0000
vn 0.7071 0.7071 -0.0000
vn 0.5688 0.8225 -0.0000
vn -0.3484 0.9374 -0.0000
vn -0.3392 0.9407 -0.0000
vn -0.3295 0.9441 -0.0000
vn -0.3194 0.9476 -0.0000
vn -0.3089 0.9511 -0.0000
vn -0.2978 0.9546 -0.0000
vn -0.2862 0.9582 -0.0000
vn -0.2740 0.9617 -0.0000
vn -0.2612 0.9653 -0.0000
vn -0.2477 0.9688 -0.0000
vn -0.2335 0.9724 -0.0000
vn 0.6220 0.7830 -0.0000
vn 0.8291 -0.5591 -0.0000
vn 0.3822 -0.9241 -0.0000
vn 0.3981 -0.9173 -0.0000
vn 0.4161 -0.9093 -0.0000
vn 0.4366 -0.8997 -0.0000
vn 0.4602 -0.8878 -0.0000
vn 0.4874 -0.8732 -0.0000
vn 0.5193 -0.8546 -0.0000
vn 0.5567 -0.8307 -0.0000
vn 0.6009 -0.7993 -0.0000
vn 0.6534 -0.7570 -0.0000
vn 0.7154 -0.6987 -0.0000
vt 0.625000 0.000000
vt 0.375000 0.250000
vt 0.375000 0.000000
vt 0.625000 0.250000
vt 0.375000 0.500000
vt 0.625000 0.500000
vt 0.375000 0.750000
vt 0.457442 0.886406
vt 0.500166 0.902669
vt 0.499646 0.904540
vt 0.534236 0.849394
vt 0.457442 0.849394
vt 0.125000 0.750000
vt 0.125000 0.500000
vt 0.875000 0.500000
vt 0.625000 0.750000
vt 1.000000 0.000000
vt 0.035714 0.000000
vt 0.966717 0.000000
vt 0.071429 0.000000
vt 0.964286 0.000000
vt 0.927439 0.000000
vt 0.928571 0.000000
vt 0.888187 0.000000
vt 0.892857 0.000000
vt 0.850103 0.000000
vt 0.857143 0.000000
vt 0.813064 0.000000
vt 0.821429 0.000000
vt 0.776932 0.000000
vt 0.785714 0.000000
vt 0.741561 0.000000
vt 0.750000 0.000000
vt 0.706815 0.000000
vt 0.714286 0.000000
vt 0.672566 0.000000
vt 0.678571 0.000000
vt 0.142857 0.000000
vt 0.560969 0.000000
vt 0.642857 0.000000
vt 0.547274 0.000000
vt 0.607143 0.000000
vt 0.528228 0.000000
vt 0.571429 0.000000
vt 0.178571 0.000000
vt 0.107143 0.000000
vt 0.214286 0.000000
vt 0.250000 0.000000
vt 0.285714 0.000000
vt 0.321429 0.000000
vt 0.357143 0.000000
vt 0.392857 0.000000
vt 0.428571 0.000000
vt 0.464286 0.000000
vt 0.500000 0.000000
vt 0.535714 0.000000
vt 0.000000 0.000000
vt 0.034483 1.000000
vt 0.068966 0.000000
vt 0.034483 0.946616
vt 0.034483 0.000000
vt 0.103448 1.000000
vt 0.137931 0.000000
vt 0.103448 0.946616
vt 0.103448 0.000000
vt 0.172414 0.946616
vt 0.137931 0.946616
vt 0.172414 0.000000
vt 0.206897 0.946616
vt 0.206897 0.000000
vt 0.241379 0.946616
vt 0.241379 0.000000
vt 0.275862 0.946616
vt 0.275862 0.000000
vt 0.310345 0.946616
vt 0.310345 0.000000
vt 0.344828 0.946616
vt 0.344828 0.000000
vt 0.379310 0.946616
vt 0.379310 0.000000
vt 0.413793 0.946616
vt 0.413793 0.000000
vt 0.448276 0.946616
vt 0.448276 0.000000
vt 0.482759 0.946616
vt 0.482759 0.000000
vt 0.517241 0.946616
vt 0.517241 0.000000
vt 0.551724 0.946616
vt 0.586207 0.000000
vt 0.551724 0.000000
vt 0.620690 0.946616
vt 0.586207 0.946616
vt 0.620690 0.000000
vt 0.655172 0.946616
vt 0.655172 0.000000
vt 0.689655 0.946616
vt 0.689655 0.000000
vt 0.724138 0.946616
vt 0.724138 0.000000
vt 0.758621 0.946616
vt 0.758621 0.000000
vt 0.793103 0.946616
vt 0.793103 0.000000
vt 0.827586 0.946616
vt 0.827586 0.000000
vt 0.862069 0.946616
vt 0.862069 0.000000
vt 0.896552 0.946616
vt 0.896552 0.000000
vt 0.931035 0.946616
vt 0.931035 0.000000
vt 0.965517 0.946616
vt 0.965517 0.000000
vt 0.530490 0.883510
vt 0.531775 0.881903
vt 0.534236 0.879485
vt 0.533024 0.880561
vt 0.527808 0.887522
vt 0.529167 0.885383
vt 0.524979 0.892598
vt 0.526412 0.889927
vt 0.522004 0.898736
vt 0.523510 0.895534
vt 0.518881 0.905938
vt 0.520461 0.902204
vt 0.625000 1.000000
vt 0.517264 0.909938
vt 0.375000 1.000000
vt 0.505649 0.886406
vt 0.504835 0.888565
vt 0.498307 0.909938
vt 0.504058 0.890688
vt 0.503317 0.892774
vt 0.502613 0.894825
vt 0.501946 0.896840
vt 0.498716 0.908175
vt 0.499163 0.906375
vt 0.501316 0.898819
vt 0.500722 0.900762
vt 0.875000 0.750000
vt 0.068966 0.946616
vt 1.000000 0.946616
s 0
usemtl Material.001
f 31/30/2 32/31/2 30/32/2
f 33/33/3 36/34/3 32/31/3
f 37/35/4 34/36/4 36/34/4
f 90/37/5 84/38/5 83/39/5
f 34/36/5 74/40/5 88/41/5
f 36/34/6 30/42/6 32/43/6
f 33/44/7 35/45/7 37/35/7
f 66/46/5 39/47/5 38/48/5
f 66/46/5 40/49/5 39/49/5
f 65/50/5 40/49/5 66/51/5
f 64/52/5 40/49/5 65/53/5
f 63/54/5 40/49/5 64/55/5
f 62/56/5 40/49/5 63/57/5
f 61/58/5 40/49/5 62/59/5
f 60/60/5 40/49/5 61/61/5
f 59/62/5 40/49/5 60/63/5
f 58/64/5 40/49/5 59/65/5
f 57/66/5 42/67/5 58/68/5
f 42/67/5 40/49/5 58/64/5
f 56/69/5 42/67/5 57/70/5
f 55/71/5 42/67/5 56/72/5
f 54/73/5 42/67/5 55/73/5
f 54/73/5 43/74/5 42/67/5
f 41/75/5 40/49/5 42/75/5
f 54/73/8 44/76/8 43/74/8
f 54/73/5 45/77/5 44/76/5
f 54/73/5 46/78/5 45/77/5
f 54/73/9 47/79/9 46/78/9
f 54/73/8 48/80/8 47/79/8
f 54/73/9 49/81/9 48/80/9
f 54/73/8 50/82/8 49/81/8
f 54/73/8 51/83/8 50/82/8
f 54/73/10 52/84/10 51/83/10
f 54/73/11 53/85/11 52/84/11
s 1
f 38/86/12 74/87/13 76/86/12
f 40/88/14 74/89/13 39/90/13
f 40/88/14 90/91/15 88/88/14
f 42/92/16 90/93/15 41/94/15
f 42/92/16 92/95/17 89/96/16
f 43/97/17 91/98/18 92/95/17
f 44/99/18 86/100/19 91/98/18
f 45/101/19 95/102/20 86/100/19
f 46/103/20 94/104/21 95/102/20
f 47/105/21 93/106/22 94/104/21
f 48/107/22 81/108/23 93/106/22
f 49/109/23 84/110/24 81/108/23
f 50/111/24 83/112/25 84/110/24
f 51/113/25 80/114/26 83/112/25
f 52/115/26 79/116/27 80/114/26
f 53/117/27 77/118/28 79/116/27
f 55/119/29 77/118/28 54/120/28
f 55/119/29 82/121/30 78/122/29
f 56/123/30 85/124/31 82/121/30
f 57/125/31 87/126/32 85/124/31
f 58/127/32 68/128/33 87/126/32
f 59/129/33 67/130/34 68/128/33
f 60/131/34 71/132/35 67/130/34
f 61/133/35 70/134/36 71/132/35
f 62/135/36 69/136/37 70/134/36
f 63/137/37 75/138/38 69/136/37
f 64/139/38 73/140/39 75/138/38
f 65/141/39 72/142/40 73/140/39
f 38/46/12 72/142/40 66/143/40
s 0
f 31/30/2 33/33/2 32/31/2
f 33/33/3 37/35/3 36/34/3
f 37/35/4 35/45/4 34/36/4
f 75/144/5 73/145/5 76/146/5
f 73/145/5 72/147/5 76/146/5
f 76/146/5 74/40/5 35/45/5
f 70/148/5 69/149/5 76/146/5
f 69/149/5 75/144/5 76/146/5
f 67/150/5 71/151/5 76/146/5
f 71/151/5 70/148/5 76/146/5
f 87/152/5 68/153/5 76/146/5
f 68/153/5 67/150/5 76/146/5
f 82/154/5 85/155/5 31/156/5
f 85/155/5 87/152/5 31/156/5
f 78/157/5 82/154/5 31/156/5
f 76/146/5 35/45/5 31/156/5
f 30/158/5 34/36/5 90/37/5
f 34/36/5 88/41/5 90/37/5
f 90/37/5 89/159/5 92/160/5
f 76/146/5 31/156/5 87/152/5
f 31/156/5 30/158/5 77/161/5
f 30/158/5 90/37/5 77/161/5
f 90/37/5 92/160/5 91/162/5
f 90/37/5 91/162/5 86/163/5
f 77/161/5 78/157/5 31/156/5
f 90/37/5 86/163/5 95/164/5
f 90/37/5 95/164/5 94/165/5
f 79/166/5 77/161/5 90/37/5
f 80/167/5 79/166/5 90/37/5
f 90/37/5 94/165/5 93/168/5
f 90/37/5 93/168/5 81/169/5
f 83/39/5 80/167/5 90/37/5
f 90/37/5 81/169/5 84/38/5
f 34/36/5 35/45/5 74/40/5
f 36/34/6 34/36/6 30/42/6
f 33/44/7 31/170/7 35/45/7
s 1
f 38/86/12 39/87/13 74/87/13
f 40/88/14 88/171/14 74/89/13
f 40/88/14 41/91/15 90/91/15
f 42/92/16 89/96/16 90/93/15
f 42/92/16 43/97/17 92/95/17
f 43/97/17 44/99/18 91/98/18
f 44/99/18 45/101/19 86/100/19
f 45/101/19 46/103/20 95/102/20
f 46/103/20 47/105/21 94/104/21
f 47/105/21 48/107/22 93/106/22
f 48/107/22 49/109/23 81/108/23
f 49/109/23 50/111/24 84/110/24
f 50/111/24 51/113/25 83/112/25
f 51/113/25 52/115/26 80/114/26
f 52/115/26 53/117/27 79/116/27
f 53/117/27 54/120/28 77/118/28
f 55/119/29 78/122/29 77/118/28
f 55/119/29 56/123/30 82/121/30
f 56/123/30 57/125/31 85/124/31
f 57/125/31 58/127/32 87/126/32
f 58/127/32 59/129/33 68/128/33
f 59/129/33 60/131/34 67/130/34
f 60/131/34 61/133/35 71/132/35
f 61/133/35 62/135/36 70/134/36
f 62/135/36 63/137/37 69/136/37
f 63/137/37 64/139/38 75/138/38
f 64/139/38 65/141/39 73/140/39
f 65/141/39 66/143/40 72/142/40
f 38/46/12 76/172/12 72/142/40
