# Blender 4.3.2
# www.blender.org
mtllib Livrable.mtl
o BaseText.001
v 6.347136 0.678864 0.000000
v 6.347136 0.065961 0.000000
v 7.176216 0.065961 0.000000
v 7.176216 0.219547 0.000000
v 6.611940 0.219066 0.000000
v 6.611940 0.314877 0.000000
v 7.113144 0.313914 0.000000
v 7.113144 0.442947 0.000000
v 6.611940 0.442947 0.000000
v 6.611940 0.442947 0.000000
v 6.611940 0.443428 0.000000
v 6.611940 0.534425 0.000000
v 7.176216 0.534425 0.000000
v 7.176216 0.678864 0.000000
v 5.521425 0.065961 0.000000
v 6.274916 0.065961 0.000000
v 6.274916 0.244102 0.000000
v 5.822340 0.244102 0.000000
v 5.822340 0.678864 0.000000
v 5.521425 0.678864 0.000000
v 4.493982 0.678864 0.000000
v 4.493982 0.065961 0.000000
v 5.214733 0.065961 0.000000
v 5.252183 0.067906 0.000000
v 5.286377 0.071818 0.000000
v 5.317314 0.077696 0.000000
v 5.344995 0.085540 0.000000
v 5.369419 0.095350 0.000000
v 5.390587 0.107126 0.000000
v 5.408498 0.120867 0.000000
v 5.423152 0.136575 0.000000
v 5.434550 0.154249 0.000000
v 5.442692 0.173889 0.000000
v 5.447577 0.195494 0.000000
v 5.449205 0.219066 0.000000
v 5.447721 0.243597 0.000000
v 5.443267 0.265995 0.000000
v 5.435845 0.286260 0.000000
v 5.425453 0.304392 0.000000
v 5.412093 0.320391 0.000000
v 5.395763 0.334256 0.000000
v 5.376464 0.345988 0.000000
v 5.354197 0.355588 0.000000
v 5.328960 0.363054 0.000000
v 5.300754 0.368387 0.000000
v 5.269579 0.371586 0.000000
v 5.235435 0.372653 0.000000
v 5.235435 0.372653 0.000000
v 5.269579 0.373716 0.000000
v 5.300754 0.376906 0.000000
v 5.328960 0.382222 0.000000
v 5.354197 0.389665 0.000000
v 5.376464 0.399234 0.000000
v 5.395763 0.410929 0.000000
v 5.412093 0.424751 0.000000
v 5.425453 0.440700 0.000000
v 5.435845 0.458775 0.000000
v 5.443267 0.478976 0.000000
v 5.447721 0.501304 0.000000
v 5.449205 0.525758 0.000000
v 5.447577 0.550213 0.000000
v 5.442692 0.572541 0.000000
v 5.434551 0.592742 0.000000
v 5.423153 0.610817 0.000000
v 5.408498 0.626765 0.000000
v 5.390587 0.640587 0.000000
v 5.369420 0.652283 0.000000
v 5.344995 0.661852 0.000000
v 5.317315 0.669295 0.000000
v 5.286377 0.674611 0.000000
v 5.252183 0.677801 0.000000
v 5.214733 0.678864 0.000000
v 5.107848 0.549350 0.000000
v 5.120921 0.548832 0.000000
v 5.132857 0.547598 0.000000
v 5.143656 0.545649 0.000000
v 5.153319 0.542984 0.000000
v 5.161845 0.539604 0.000000
v 5.169234 0.535508 0.000000
v 5.175486 0.530697 0.000000
v 5.180602 0.525170 0.000000
v 5.184580 0.518928 0.000000
v 5.187422 0.511970 0.000000
v 5.189127 0.504296 0.000000
v 5.189697 0.495908 0.000000
v 5.189128 0.487519 0.000000
v 5.187423 0.479845 0.000000
v 5.184581 0.472888 0.000000
v 5.180603 0.466645 0.000000
v 5.175487 0.461118 0.000000
v 5.169235 0.456307 0.000000
v 5.161846 0.452211 0.000000
v 5.153320 0.448831 0.000000
v 5.143657 0.446166 0.000000
v 5.132858 0.444217 0.000000
v 5.120922 0.442983 0.000000
v 5.107848 0.442465 0.000000
v 4.756379 0.442465 0.000000
v 4.756379 0.549350 0.000000
v 5.107848 0.314877 0.000000
v 5.120921 0.314359 0.000000
v 5.132857 0.313125 0.000000
v 5.143656 0.311176 0.000000
v 5.153319 0.308511 0.000000
v 5.161845 0.305131 0.000000
v 5.169234 0.301035 0.000000
v 5.175486 0.296224 0.000000
v 5.180602 0.290697 0.000000
v 5.184580 0.284455 0.000000
v 5.187422 0.277497 0.000000
v 5.189127 0.269824 0.000000
v 5.189697 0.261435 0.000000
v 5.189128 0.253046 0.000000
v 5.187423 0.245373 0.000000
v 5.184581 0.238415 0.000000
v 5.180603 0.232172 0.000000
v 5.175487 0.226646 0.000000
v 5.169235 0.221834 0.000000
v 5.161846 0.217739 0.000000
v 5.153320 0.214358 0.000000
v 5.143657 0.211694 0.000000
v 5.132858 0.209744 0.000000
v 5.120922 0.208511 0.000000
v 5.107848 0.207992 0.000000
v 4.756379 0.207992 0.000000
v 4.756379 0.314877 0.000000
v 3.781897 0.298026 0.000000
v 4.031776 0.298026 0.000000
v 3.905152 0.519981 0.000000
v 3.718344 0.678864 0.000000
v 4.087145 0.678864 0.000000
v 4.421762 0.065961 0.000000
v 4.156957 0.065961 0.000000
v 4.096292 0.175734 0.000000
v 3.714011 0.175734 0.000000
v 3.653346 0.065961 0.000000
v 3.385652 0.065961 0.000000
v 2.330765 0.679345 0.000000
v 2.330765 0.065961 0.000000
v 2.592682 0.065961 0.000000
v 2.592682 0.280212 0.000000
v 2.884930 0.280212 0.000000
v 2.894720 0.279662 0.000000
v 2.903707 0.278493 0.000000
v 2.911892 0.276706 0.000000
v 2.919275 0.274301 0.000000
v 2.925855 0.271276 0.000000
v 2.931632 0.267634 0.000000
v 2.936607 0.263372 0.000000
v 2.940780 0.258492 0.000000
v 2.944150 0.252994 0.000000
v 2.946718 0.246877 0.000000
v 2.948484 0.240142 0.000000
v 2.949446 0.232788 0.000000
v 2.950038 0.225113 0.000000
v 2.950690 0.217414 0.000000
v 2.951402 0.209692 0.000000
v 2.952175 0.201947 0.000000
v 2.953007 0.194179 0.000000
v 2.953900 0.186387 0.000000
v 2.954853 0.178571 0.000000
v 2.955866 0.170732 0.000000
v 2.956939 0.162870 0.000000
v 2.958073 0.154984 0.000000
v 2.959266 0.147075 0.000000
v 2.960520 0.139143 0.000000
v 2.962292 0.131353 0.000000
v 2.965040 0.123870 0.000000
v 2.968765 0.116695 0.000000
v 2.973466 0.109827 0.000000
v 2.979143 0.103267 0.000000
v 2.985796 0.097015 0.000000
v 2.993426 0.091070 0.000000
v 3.002033 0.085433 0.000000
v 3.011615 0.080104 0.000000
v 3.022174 0.075082 0.000000
v 3.033709 0.070367 0.000000
v 3.046221 0.065961 0.000000
v 3.305248 0.065961 0.000000
v 3.301476 0.069535 0.000000
v 3.298026 0.073196 0.000000
v 3.294897 0.076944 0.000000
v 3.292088 0.080779 0.000000
v 3.289600 0.084701 0.000000
v 3.287434 0.088710 0.000000
v 3.285588 0.092805 0.000000
v 3.284064 0.096988 0.000000
v 3.282860 0.101258 0.000000
v 3.281977 0.105614 0.000000
v 3.281415 0.110058 0.000000
v 3.281175 0.114588 0.000000
v 3.284652 0.150167 0.000000
v 3.284331 0.182756 0.000000
v 3.280212 0.212356 0.000000
v 3.272295 0.238966 0.000000
v 3.260579 0.262588 0.000000
v 3.245065 0.283221 0.000000
v 3.225753 0.300865 0.000000
v 3.202643 0.315519 0.000000
v 3.175734 0.327185 0.000000
v 3.145028 0.335861 0.000000
v 3.110523 0.341548 0.000000
v 3.072220 0.344247 0.000000
v 3.072220 0.346172 0.000000
v 3.105705 0.349951 0.000000
v 3.136508 0.355507 0.000000
v 3.164631 0.362843 0.000000
v 3.190071 0.371957 0.000000
v 3.212831 0.382851 0.000000
v 3.232908 0.395522 0.000000
v 3.250304 0.409973 0.000000
v 3.265019 0.426202 0.000000
v 3.277052 0.444210 0.000000
v 3.286404 0.463997 0.000000
v 3.293074 0.485563 0.000000
v 3.297063 0.508907 0.000000
v 3.293298 0.532967 0.000000
v 3.286498 0.555235 0.000000
v 3.276661 0.575710 0.000000
v 3.263788 0.594394 0.000000
v 3.247880 0.611285 0.000000
v 3.228936 0.626384 0.000000
v 3.206956 0.639691 0.000000
v 3.181940 0.651206 0.000000
v 3.153888 0.660929 0.000000
v 3.122800 0.668860 0.000000
v 3.088676 0.674999 0.000000
v 3.051517 0.679345 0.000000
v 2.944632 0.547424 0.000000
v 2.955204 0.546943 0.000000
v 2.965094 0.545498 0.000000
v 2.974302 0.543091 0.000000
v 2.982828 0.539721 0.000000
v 2.990672 0.535388 0.000000
v 2.997833 0.530091 0.000000
v 3.004313 0.523832 0.000000
v 3.010111 0.516611 0.000000
v 3.015226 0.508426 0.000000
v 3.019660 0.499278 0.000000
v 3.023411 0.489167 0.000000
v 3.026481 0.478093 0.000000
v 3.024682 0.468096 0.000000
v 3.022014 0.458969 0.000000
v 3.018476 0.450710 0.000000
v 3.014070 0.443321 0.000000
v 3.008794 0.436801 0.000000
v 3.002648 0.431151 0.000000
v 2.995634 0.426369 0.000000
v 2.987750 0.422458 0.000000
v 2.978996 0.419415 0.000000
v 2.969374 0.417242 0.000000
v 2.958882 0.415938 0.000000
v 2.947520 0.415503 0.000000
v 2.592682 0.415503 0.000000
v 2.592682 0.547424 0.000000
v 1.924892 0.065961 0.000000
v 1.554646 0.065961 0.000000
v 1.220029 0.678864 0.000000
v 1.484834 0.678864 0.000000
v 1.740010 0.235436 0.000000
v 1.993741 0.678864 0.000000
v 2.258546 0.678864 0.000000
v 0.861820 0.678864 0.000000
v 0.861820 0.065961 0.000000
v 1.147809 0.065961 0.000000
v 1.147809 0.678864 0.000000
v 0.036110 0.065961 0.000000
v 0.789600 0.065961 0.000000
v 0.789600 0.244102 0.000000
v 0.337025 0.244102 0.000000
v 0.337025 0.678864 0.000000
v 0.036110 0.678864 0.000000
vn -0.0000 -0.0000 1.0000
vt 0.076923 0.000000
vt 0.846154 0.000000
vt 0.000000 0.000000
vt 1.000000 0.000000
vt 0.923077 0.000000
vt 0.769231 0.000000
vt 0.615385 0.000000
vt 0.384615 0.000000
vt 0.538462 0.000000
vt 0.461538 0.000000
vt 0.307692 0.000000
vt 0.153846 0.000000
vt 0.230769 0.000000
vt 0.800000 0.000000
vt 0.600000 0.000000
vt 0.400000 0.000000
vt 0.200000 0.000000
vt 0.009524 0.000000
vt 0.742857 0.000000
vt 0.485714 0.000000
vt 0.476190 0.000000
vt 0.466667 0.000000
vt 0.457143 0.000000
vt 0.447619 0.000000
vt 0.438095 0.000000
vt 0.428571 0.000000
vt 0.419048 0.000000
vt 0.409524 0.000000
vt 0.390476 0.000000
vt 0.380952 0.000000
vt 0.495238 0.000000
vt 0.504762 0.000000
vt 0.371429 0.000000
vt 0.733333 0.000000
vt 0.514286 0.000000
vt 0.523810 0.000000
vt 0.533333 0.000000
vt 0.542857 0.000000
vt 0.552381 0.000000
vt 0.561905 0.000000
vt 0.571429 0.000000
vt 0.361905 0.000000
vt 0.580952 0.000000
vt 0.590476 0.000000
vt 0.609524 0.000000
vt 0.352381 0.000000
vt 0.619048 0.000000
vt 0.628571 0.000000
vt 0.638095 0.000000
vt 0.342857 0.000000
vt 0.647619 0.000000
vt 0.657143 0.000000
vt 0.666667 0.000000
vt 0.333333 0.000000
vt 0.676190 0.000000
vt 0.685714 0.000000
vt 0.695238 0.000000
vt 0.704762 0.000000
vt 0.714286 0.000000
vt 0.723810 0.000000
vt 0.323810 0.000000
vt 0.314286 0.000000
vt 0.304762 0.000000
vt 0.295238 0.000000
vt 0.247619 0.000000
vt 0.285714 0.000000
vt 0.276190 0.000000
vt 0.266667 0.000000
vt 0.238095 0.000000
vt 0.228571 0.000000
vt 0.219048 0.000000
vt 0.209524 0.000000
vt 0.190476 0.000000
vt 0.180952 0.000000
vt 0.752381 0.000000
vt 0.171429 0.000000
vt 0.990476 0.000000
vt 0.761905 0.000000
vt 0.771429 0.000000
vt 0.780952 0.000000
vt 0.790476 0.000000
vt 0.809524 0.000000
vt 0.161905 0.000000
vt 0.819048 0.000000
vt 0.828571 0.000000
vt 0.838095 0.000000
vt 0.152381 0.000000
vt 0.847619 0.000000
vt 0.857143 0.000000
vt 0.866667 0.000000
vt 0.142857 0.000000
vt 0.876190 0.000000
vt 0.885714 0.000000
vt 0.895238 0.000000
vt 0.133333 0.000000
vt 0.904762 0.000000
vt 0.914286 0.000000
vt 0.923810 0.000000
vt 0.933333 0.000000
vt 0.123810 0.000000
vt 0.942857 0.000000
vt 0.952381 0.000000
vt 0.961905 0.000000
vt 0.971429 0.000000
vt 0.980952 0.000000
vt 0.114286 0.000000
vt 0.104762 0.000000
vt 0.095238 0.000000
vt 0.085714 0.000000
vt 0.076190 0.000000
vt 0.066667 0.000000
vt 0.057143 0.000000
vt 0.047619 0.000000
vt 0.038095 0.000000
vt 0.028571 0.000000
vt 0.019048 0.000000
vt 0.300000 0.000000
vt 0.500000 0.000000
vt 0.100000 0.000000
vt 0.700000 0.000000
vt 0.900000 0.000000
vt 0.008547 0.000000
vt 0.760684 0.000000
vt 0.752137 0.000000
vt 0.743590 0.000000
vt 0.735043 0.000000
vt 0.726496 0.000000
vt 0.717949 0.000000
vt 0.709402 0.000000
vt 0.700855 0.000000
vt 0.692308 0.000000
vt 0.683761 0.000000
vt 0.777778 0.000000
vt 0.675214 0.000000
vt 0.991453 0.000000
vt 0.786325 0.000000
vt 0.794872 0.000000
vt 0.803419 0.000000
vt 0.811966 0.000000
vt 0.820513 0.000000
vt 0.829060 0.000000
vt 0.837607 0.000000
vt 0.854701 0.000000
vt 0.658120 0.000000
vt 0.863248 0.000000
vt 0.871795 0.000000
vt 0.880342 0.000000
vt 0.649573 0.000000
vt 0.888889 0.000000
vt 0.897436 0.000000
vt 0.641026 0.000000
vt 0.905983 0.000000
vt 0.914530 0.000000
vt 0.632479 0.000000
vt 0.931624 0.000000
vt 0.940171 0.000000
vt 0.948718 0.000000
vt 0.623932 0.000000
vt 0.957265 0.000000
vt 0.965812 0.000000
vt 0.974359 0.000000
vt 0.982906 0.000000
vt 0.025641 0.000000
vt 0.606838 0.000000
vt 0.598291 0.000000
vt 0.589744 0.000000
vt 0.581197 0.000000
vt 0.564103 0.000000
vt 0.572650 0.000000
vt 0.555556 0.000000
vt 0.547009 0.000000
vt 0.529915 0.000000
vt 0.521368 0.000000
vt 0.512821 0.000000
vt 0.504274 0.000000
vt 0.034188 0.000000
vt 0.495726 0.000000
vt 0.017094 0.000000
vt 0.042735 0.000000
vt 0.051282 0.000000
vt 0.059829 0.000000
vt 0.068376 0.000000
vt 0.085470 0.000000
vt 0.094017 0.000000
vt 0.102564 0.000000
vt 0.487179 0.000000
vt 0.111111 0.000000
vt 0.119658 0.000000
vt 0.128205 0.000000
vt 0.136752 0.000000
vt 0.478632 0.000000
vt 0.145299 0.000000
vt 0.162393 0.000000
vt 0.470085 0.000000
vt 0.170940 0.000000
vt 0.179487 0.000000
vt 0.188034 0.000000
vt 0.196581 0.000000
vt 0.205128 0.000000
vt 0.213675 0.000000
vt 0.222222 0.000000
vt 0.452991 0.000000
vt 0.239316 0.000000
vt 0.247863 0.000000
vt 0.256410 0.000000
vt 0.264957 0.000000
vt 0.273504 0.000000
vt 0.444444 0.000000
vt 0.435897 0.000000
vt 0.282051 0.000000
vt 0.427350 0.000000
vt 0.290598 0.000000
vt 0.418803 0.000000
vt 0.299145 0.000000
vt 0.410256 0.000000
vt 0.401709 0.000000
vt 0.393162 0.000000
vt 0.316239 0.000000
vt 0.376068 0.000000
vt 0.324786 0.000000
vt 0.367521 0.000000
vt 0.358974 0.000000
vt 0.341880 0.000000
vt 0.350427 0.000000
vt 0.166667 0.000000
vt 0.833333 0.000000
s 0
f 2/1/1 12/2/1 1/3/1
f 12/2/1 14/4/1 1/3/1
f 12/2/1 13/5/1 14/4/1
f 2/1/1 11/6/1 12/2/1
f 2/1/1 9/7/1 11/6/1
f 2/1/1 6/8/1 9/7/1
f 6/8/1 8/9/1 9/7/1
f 6/8/1 7/10/1 8/9/1
f 2/1/1 5/11/1 6/8/1
f 5/11/1 3/12/1 4/13/1
f 2/1/1 3/12/1 5/11/1
f 15/3/1 19/14/1 20/4/1
f 15/3/1 18/15/1 19/14/1
f 15/3/1 17/16/1 18/15/1
f 15/3/1 16/17/1 17/16/1
f 22/18/1 99/19/1 21/3/1
f 99/19/1 72/20/1 21/3/1
f 99/19/1 71/21/1 72/20/1
f 99/19/1 70/22/1 71/21/1
f 99/19/1 69/23/1 70/22/1
f 99/19/1 68/24/1 69/23/1
f 99/19/1 67/25/1 68/24/1
f 99/19/1 66/26/1 67/25/1
f 99/19/1 65/27/1 66/26/1
f 99/19/1 64/28/1 65/27/1
f 99/19/1 63/16/1 64/28/1
f 99/19/1 62/29/1 63/16/1
f 99/19/1 61/30/1 62/29/1
f 99/19/1 73/31/1 61/30/1
f 73/31/1 74/32/1 61/30/1
f 74/32/1 60/33/1 61/30/1
f 22/18/1 98/34/1 99/19/1
f 75/35/1 60/33/1 74/32/1
f 76/36/1 60/33/1 75/35/1
f 77/37/1 60/33/1 76/36/1
f 78/38/1 60/33/1 77/37/1
f 79/39/1 60/33/1 78/38/1
f 80/40/1 60/33/1 79/39/1
f 81/41/1 60/33/1 80/40/1
f 81/41/1 59/42/1 60/33/1
f 82/43/1 59/42/1 81/41/1
f 83/44/1 59/42/1 82/43/1
f 84/15/1 59/42/1 83/44/1
f 85/45/1 59/42/1 84/15/1
f 85/45/1 58/46/1 59/42/1
f 86/47/1 58/46/1 85/45/1
f 87/48/1 58/46/1 86/47/1
f 88/49/1 58/46/1 87/48/1
f 88/49/1 57/50/1 58/46/1
f 89/51/1 57/50/1 88/49/1
f 90/52/1 57/50/1 89/51/1
f 91/53/1 57/50/1 90/52/1
f 91/53/1 56/54/1 57/50/1
f 92/55/1 56/54/1 91/53/1
f 93/56/1 56/54/1 92/55/1
f 94/57/1 56/54/1 93/56/1
f 95/58/1 56/54/1 94/57/1
f 96/59/1 56/54/1 95/58/1
f 97/60/1 56/54/1 96/59/1
f 22/18/1 126/4/1 98/34/1
f 126/4/1 97/60/1 98/34/1
f 126/4/1 56/54/1 97/60/1
f 126/4/1 55/61/1 56/54/1
f 126/4/1 54/62/1 55/61/1
f 126/4/1 53/63/1 54/62/1
f 126/4/1 52/64/1 53/63/1
f 126/4/1 47/65/1 52/64/1
f 47/65/1 51/66/1 52/64/1
f 47/65/1 50/67/1 51/66/1
f 47/65/1 49/68/1 50/67/1
f 126/4/1 46/69/1 47/65/1
f 126/4/1 45/70/1 46/69/1
f 126/4/1 44/71/1 45/70/1
f 126/4/1 43/72/1 44/71/1
f 126/4/1 42/17/1 43/72/1
f 126/4/1 41/73/1 42/17/1
f 126/4/1 40/74/1 41/73/1
f 126/4/1 100/75/1 40/74/1
f 100/75/1 39/76/1 40/74/1
f 22/18/1 125/77/1 126/4/1
f 101/78/1 39/76/1 100/75/1
f 102/79/1 39/76/1 101/78/1
f 103/80/1 39/76/1 102/79/1
f 104/81/1 39/76/1 103/80/1
f 105/14/1 39/76/1 104/81/1
f 106/82/1 39/76/1 105/14/1
f 106/82/1 38/83/1 39/76/1
f 107/84/1 38/83/1 106/82/1
f 108/85/1 38/83/1 107/84/1
f 109/86/1 38/83/1 108/85/1
f 109/86/1 37/87/1 38/83/1
f 110/88/1 37/87/1 109/86/1
f 111/89/1 37/87/1 110/88/1
f 112/90/1 37/87/1 111/89/1
f 112/90/1 36/91/1 37/87/1
f 113/92/1 36/91/1 112/90/1
f 114/93/1 36/91/1 113/92/1
f 115/94/1 36/91/1 114/93/1
f 115/94/1 35/95/1 36/91/1
f 116/96/1 35/95/1 115/94/1
f 117/97/1 35/95/1 116/96/1
f 118/98/1 35/95/1 117/97/1
f 119/99/1 35/95/1 118/98/1
f 119/99/1 34/100/1 35/95/1
f 120/101/1 34/100/1 119/99/1
f 121/102/1 34/100/1 120/101/1
f 122/103/1 34/100/1 121/102/1
f 123/104/1 34/100/1 122/103/1
f 124/105/1 34/100/1 123/104/1
f 22/18/1 124/105/1 125/77/1
f 22/18/1 34/100/1 124/105/1
f 22/18/1 33/106/1 34/100/1
f 22/18/1 32/107/1 33/106/1
f 22/18/1 31/108/1 32/107/1
f 22/18/1 30/109/1 31/108/1
f 22/18/1 29/110/1 30/109/1
f 22/18/1 28/111/1 29/110/1
f 22/18/1 27/112/1 28/111/1
f 22/18/1 26/113/1 27/112/1
f 22/18/1 25/114/1 26/113/1
f 22/18/1 24/115/1 25/114/1
f 22/18/1 23/116/1 24/115/1
f 137/4/1 129/17/1 130/117/1
f 129/17/1 131/16/1 130/117/1
f 129/17/1 132/118/1 131/16/1
f 137/4/1 127/3/1 129/17/1
f 128/119/1 132/118/1 129/17/1
f 137/4/1 128/119/1 127/3/1
f 137/4/1 135/14/1 128/119/1
f 135/14/1 134/120/1 128/119/1
f 134/120/1 132/118/1 128/119/1
f 137/4/1 136/121/1 135/14/1
f 133/15/1 132/118/1 134/120/1
f 139/122/1 255/4/1 138/3/1
f 255/4/1 228/6/1 138/3/1
f 255/4/1 227/123/1 228/6/1
f 255/4/1 226/124/1 227/123/1
f 255/4/1 225/125/1 226/124/1
f 255/4/1 224/126/1 225/125/1
f 255/4/1 223/127/1 224/126/1
f 255/4/1 222/128/1 223/127/1
f 255/4/1 221/129/1 222/128/1
f 255/4/1 220/130/1 221/129/1
f 255/4/1 219/131/1 220/130/1
f 255/4/1 218/132/1 219/131/1
f 255/4/1 229/133/1 218/132/1
f 229/133/1 217/134/1 218/132/1
f 139/122/1 254/135/1 255/4/1
f 230/136/1 217/134/1 229/133/1
f 231/137/1 217/134/1 230/136/1
f 232/138/1 217/134/1 231/137/1
f 233/139/1 217/134/1 232/138/1
f 234/140/1 217/134/1 233/139/1
f 235/141/1 217/134/1 234/140/1
f 235/141/1 216/53/1 217/134/1
f 236/142/1 216/53/1 235/141/1
f 237/2/1 216/53/1 236/142/1
f 238/143/1 216/53/1 237/2/1
f 238/143/1 215/144/1 216/53/1
f 239/145/1 215/144/1 238/143/1
f 240/146/1 215/144/1 239/145/1
f 241/147/1 215/144/1 240/146/1
f 241/147/1 214/148/1 215/144/1
f 242/149/1 214/148/1 241/147/1
f 243/150/1 214/148/1 242/149/1
f 243/150/1 213/151/1 214/148/1
f 244/152/1 213/151/1 243/150/1
f 245/153/1 213/151/1 244/152/1
f 245/153/1 212/154/1 213/151/1
f 246/5/1 212/154/1 245/153/1
f 247/155/1 212/154/1 246/5/1
f 248/156/1 212/154/1 247/155/1
f 249/157/1 212/154/1 248/156/1
f 249/157/1 211/158/1 212/154/1
f 250/159/1 211/158/1 249/157/1
f 251/160/1 211/158/1 250/159/1
f 252/161/1 211/158/1 251/160/1
f 253/162/1 211/158/1 252/161/1
f 139/122/1 141/163/1 254/135/1
f 141/163/1 253/162/1 254/135/1
f 141/163/1 211/158/1 253/162/1
f 141/163/1 210/7/1 211/158/1
f 141/163/1 209/164/1 210/7/1
f 141/163/1 208/165/1 209/164/1
f 141/163/1 207/166/1 208/165/1
f 141/163/1 206/167/1 207/166/1
f 141/163/1 204/168/1 206/167/1
f 204/168/1 205/169/1 206/167/1
f 141/163/1 203/170/1 204/168/1
f 141/163/1 202/171/1 203/170/1
f 141/163/1 201/9/1 202/171/1
f 141/163/1 200/172/1 201/9/1
f 141/163/1 199/173/1 200/172/1
f 141/163/1 198/174/1 199/173/1
f 141/163/1 197/175/1 198/174/1
f 141/163/1 142/176/1 197/175/1
f 142/176/1 196/177/1 197/175/1
f 139/122/1 140/178/1 141/163/1
f 143/179/1 196/177/1 142/176/1
f 144/180/1 196/177/1 143/179/1
f 145/181/1 196/177/1 144/180/1
f 146/182/1 196/177/1 145/181/1
f 147/1/1 196/177/1 146/182/1
f 148/183/1 196/177/1 147/1/1
f 149/184/1 196/177/1 148/183/1
f 150/185/1 196/177/1 149/184/1
f 150/185/1 195/186/1 196/177/1
f 151/187/1 195/186/1 150/185/1
f 152/188/1 195/186/1 151/187/1
f 153/189/1 195/186/1 152/188/1
f 154/190/1 195/186/1 153/189/1
f 154/190/1 194/191/1 195/186/1
f 155/192/1 194/191/1 154/190/1
f 156/12/1 194/191/1 155/192/1
f 157/193/1 194/191/1 156/12/1
f 157/193/1 193/194/1 194/191/1
f 158/195/1 193/194/1 157/193/1
f 159/196/1 193/194/1 158/195/1
f 160/197/1 193/194/1 159/196/1
f 161/198/1 193/194/1 160/197/1
f 161/198/1 192/10/1 193/194/1
f 162/199/1 192/10/1 161/198/1
f 163/200/1 192/10/1 162/199/1
f 164/201/1 192/10/1 163/200/1
f 165/13/1 192/10/1 164/201/1
f 165/13/1 191/202/1 192/10/1
f 166/203/1 191/202/1 165/13/1
f 167/204/1 191/202/1 166/203/1
f 168/205/1 191/202/1 167/204/1
f 169/206/1 191/202/1 168/205/1
f 170/207/1 191/202/1 169/206/1
f 170/207/1 190/208/1 191/202/1
f 170/207/1 189/209/1 190/208/1
f 171/210/1 189/209/1 170/207/1
f 171/210/1 188/211/1 189/209/1
f 172/212/1 188/211/1 171/210/1
f 172/212/1 187/213/1 188/211/1
f 173/214/1 187/213/1 172/212/1
f 173/214/1 186/215/1 187/213/1
f 173/214/1 185/216/1 186/215/1
f 174/11/1 185/216/1 173/214/1
f 174/11/1 184/217/1 185/216/1
f 175/218/1 184/217/1 174/11/1
f 175/218/1 183/8/1 184/217/1
f 175/218/1 182/219/1 183/8/1
f 176/220/1 182/219/1 175/218/1
f 176/220/1 181/221/1 182/219/1
f 177/54/1 181/221/1 176/220/1
f 177/54/1 180/222/1 181/221/1
f 178/223/1 180/222/1 177/54/1
f 178/223/1 179/224/1 180/222/1
f 257/225/1 259/118/1 258/54/1
f 257/225/1 260/53/1 259/118/1
f 260/53/1 262/4/1 261/226/1
f 260/53/1 256/3/1 262/4/1
f 257/225/1 256/3/1 260/53/1
f 264/54/1 266/4/1 263/3/1
f 264/54/1 265/53/1 266/4/1
f 267/3/1 271/14/1 272/4/1
f 267/3/1 270/15/1 271/14/1
f 267/3/1 269/16/1 270/15/1
f 267/3/1 268/17/1 269/16/1
o Livrable
v 7.176216 0.534425 0.200000
v 6.611940 0.534425 0.200000
v 6.611940 0.443428 0.200000
v 6.611940 0.442947 0.200000
v 7.113144 0.442947 0.200000
v 7.113144 0.313914 0.200000
v 6.611940 0.314877 0.200000
v 6.611940 0.219066 0.200000
v 7.176216 0.219547 0.200000
v 7.176216 0.065961 0.200000
v 6.347136 0.065961 0.200000
v 6.347136 0.678864 0.200000
v 7.176216 0.678864 0.200000
v 5.822340 0.678864 0.200000
v 5.822340 0.244102 0.200000
v 6.274916 0.244102 0.200000
v 6.274916 0.065961 0.200000
v 5.521425 0.065961 0.200000
v 5.521425 0.678864 0.200000
v 5.252183 0.677801 0.200000
v 5.286377 0.674611 0.200000
v 5.317315 0.669295 0.200000
v 5.344995 0.661852 0.200000
v 5.369420 0.652283 0.200000
v 5.390587 0.640587 0.200000
v 5.408498 0.626765 0.200000
v 5.423153 0.610817 0.200000
v 5.434551 0.592742 0.200000
v 5.442692 0.572541 0.200000
v 5.447577 0.550213 0.200000
v 5.449205 0.525758 0.200000
v 5.447721 0.501304 0.200000
v 5.443267 0.478976 0.200000
v 5.435845 0.458775 0.200000
v 5.425453 0.440700 0.200000
v 5.412093 0.424751 0.200000
v 5.395763 0.410929 0.200000
v 5.376464 0.399234 0.200000
v 5.354197 0.389665 0.200000
v 5.328960 0.382222 0.200000
v 5.300754 0.376906 0.200000
v 5.269579 0.373716 0.200000
v 5.235435 0.372653 0.200000
v 5.269579 0.371586 0.200000
v 5.300754 0.368387 0.200000
v 5.328960 0.363054 0.200000
v 5.354197 0.355588 0.200000
v 5.376464 0.345988 0.200000
v 5.395763 0.334256 0.200000
v 5.412093 0.320391 0.200000
v 5.425453 0.304392 0.200000
v 5.435845 0.286260 0.200000
v 5.443267 0.265995 0.200000
v 5.447721 0.243597 0.200000
v 5.449205 0.219066 0.200000
v 5.447577 0.195494 0.200000
v 5.442692 0.173889 0.200000
v 5.434550 0.154249 0.200000
v 5.423152 0.136575 0.200000
v 5.408498 0.120867 0.200000
v 5.390587 0.107126 0.200000
v 5.369419 0.095350 0.200000
v 5.344995 0.085540 0.200000
v 5.317314 0.077696 0.200000
v 5.286377 0.071818 0.200000
v 5.252183 0.067906 0.200000
v 5.214733 0.065961 0.200000
v 4.493982 0.065961 0.200000
v 4.493982 0.678864 0.200000
v 5.214733 0.678864 0.200000
v 4.756379 0.442465 0.200000
v 5.107848 0.442465 0.200000
v 5.120922 0.442983 0.200000
v 5.132858 0.444217 0.200000
v 5.143657 0.446166 0.200000
v 5.153320 0.448831 0.200000
v 5.161846 0.452211 0.200000
v 5.169235 0.456307 0.200000
v 5.175487 0.461118 0.200000
v 5.180603 0.466645 0.200000
v 5.184581 0.472888 0.200000
v 5.187423 0.479845 0.200000
v 5.189128 0.487519 0.200000
v 5.189697 0.495908 0.200000
v 5.189127 0.504296 0.200000
v 5.187422 0.511970 0.200000
v 5.184580 0.518928 0.200000
v 5.180602 0.525170 0.200000
v 5.175486 0.530697 0.200000
v 5.169234 0.535508 0.200000
v 5.161845 0.539604 0.200000
v 5.153319 0.542984 0.200000
v 5.143656 0.545649 0.200000
v 5.132857 0.547598 0.200000
v 5.120921 0.548832 0.200000
v 5.107848 0.549350 0.200000
v 4.756379 0.549350 0.200000
v 4.756379 0.207992 0.200000
v 5.107848 0.207992 0.200000
v 5.120922 0.208511 0.200000
v 5.132858 0.209744 0.200000
v 5.143657 0.211694 0.200000
v 5.153320 0.214358 0.200000
v 5.161846 0.217739 0.200000
v 5.169235 0.221834 0.200000
v 5.175487 0.226646 0.200000
v 5.180603 0.232172 0.200000
v 5.184581 0.238415 0.200000
v 5.187423 0.245373 0.200000
v 5.189128 0.253046 0.200000
v 5.189697 0.261435 0.200000
v 5.189127 0.269824 0.200000
v 5.187422 0.277497 0.200000
v 5.184580 0.284455 0.200000
v 5.180602 0.290697 0.200000
v 5.175486 0.296224 0.200000
v 5.169234 0.301035 0.200000
v 5.161845 0.305131 0.200000
v 5.153319 0.308511 0.200000
v 5.143656 0.311176 0.200000
v 5.132857 0.313125 0.200000
v 5.120921 0.314359 0.200000
v 5.107848 0.314877 0.200000
v 4.756379 0.314877 0.200000
v 3.905152 0.519981 0.200000
v 3.781897 0.298026 0.200000
v 4.031776 0.298026 0.200000
v 3.385652 0.065961 0.200000
v 3.718344 0.678864 0.200000
v 4.087145 0.678864 0.200000
v 4.421762 0.065961 0.200000
v 4.156957 0.065961 0.200000
v 4.096292 0.175734 0.200000
v 3.714011 0.175734 0.200000
v 3.653346 0.065961 0.200000
v 3.088676 0.674999 0.200000
v 3.122800 0.668860 0.200000
v 3.153888 0.660929 0.200000
v 3.181940 0.651206 0.200000
v 3.206956 0.639691 0.200000
v 3.228936 0.626384 0.200000
v 3.247880 0.611285 0.200000
v 3.263788 0.594394 0.200000
v 3.276661 0.575710 0.200000
v 3.286498 0.555235 0.200000
v 3.293298 0.532967 0.200000
v 3.297063 0.508907 0.200000
v 3.293074 0.485563 0.200000
v 3.286404 0.463997 0.200000
v 3.277052 0.444210 0.200000
v 3.265019 0.426202 0.200000
v 3.250304 0.409973 0.200000
v 3.232908 0.395522 0.200000
v 3.212831 0.382851 0.200000
v 3.190071 0.371957 0.200000
v 3.164631 0.362843 0.200000
v 3.136508 0.355507 0.200000
v 3.105705 0.349951 0.200000
v 3.072220 0.346172 0.200000
v 3.072220 0.344247 0.200000
v 3.110523 0.341548 0.200000
v 3.145028 0.335861 0.200000
v 3.175734 0.327185 0.200000
v 3.202643 0.315519 0.200000
v 3.225753 0.300865 0.200000
v 3.245065 0.283221 0.200000
v 3.260579 0.262588 0.200000
v 3.272295 0.238966 0.200000
v 3.280212 0.212356 0.200000
v 3.284331 0.182756 0.200000
v 3.284652 0.150166 0.200000
v 3.281175 0.114588 0.200000
v 3.281415 0.110058 0.200000
v 3.281977 0.105614 0.200000
v 3.282860 0.101258 0.200000
v 3.284064 0.096988 0.200000
v 3.285588 0.092805 0.200000
v 3.287434 0.088710 0.200000
v 3.289600 0.084701 0.200000
v 3.292088 0.080779 0.200000
v 3.294897 0.076944 0.200000
v 3.298026 0.073196 0.200000
v 3.301476 0.069535 0.200000
v 3.305248 0.065961 0.200000
v 3.046221 0.065961 0.200000
v 3.033709 0.070367 0.200000
v 3.022174 0.075082 0.200000
v 3.011615 0.080104 0.200000
v 3.002033 0.085433 0.200000
v 2.993426 0.091070 0.200000
v 2.985796 0.097015 0.200000
v 2.979143 0.103267 0.200000
v 2.973466 0.109827 0.200000
v 2.968765 0.116695 0.200000
v 2.965040 0.123870 0.200000
v 2.962292 0.131353 0.200000
v 2.960520 0.139143 0.200000
v 2.959266 0.147075 0.200000
v 2.958073 0.154984 0.200000
v 2.956939 0.162870 0.200000
v 2.955866 0.170732 0.200000
v 2.954853 0.178571 0.200000
v 2.953900 0.186387 0.200000
v 2.953007 0.194179 0.200000
v 2.952175 0.201947 0.200000
v 2.951402 0.209692 0.200000
v 2.950690 0.217414 0.200000
v 2.950038 0.225113 0.200000
v 2.949446 0.232788 0.200000
v 2.948484 0.240142 0.200000
v 2.946718 0.246877 0.200000
v 2.944150 0.252994 0.200000
v 2.940780 0.258492 0.200000
v 2.936607 0.263372 0.200000
v 2.931632 0.267634 0.200000
v 2.925855 0.271276 0.200000
v 2.919275 0.274301 0.200000
v 2.911892 0.276706 0.200000
v 2.903707 0.278493 0.200000
v 2.894720 0.279662 0.200000
v 2.884930 0.280212 0.200000
v 2.592682 0.280212 0.200000
v 2.592682 0.065961 0.200000
v 2.330765 0.065961 0.200000
v 2.330765 0.679345 0.200000
v 3.051517 0.679345 0.200000
v 2.592682 0.415503 0.200000
v 2.947520 0.415503 0.200000
v 2.958882 0.415938 0.200000
v 2.969374 0.417242 0.200000
v 2.978996 0.419415 0.200000
v 2.987750 0.422458 0.200000
v 2.995634 0.426369 0.200000
v 3.002648 0.431151 0.200000
v 3.008794 0.436801 0.200000
v 3.014070 0.443321 0.200000
v 3.018476 0.450710 0.200000
v 3.022014 0.458969 0.200000
v 3.024682 0.468096 0.200000
v 3.026481 0.478093 0.200000
v 3.023411 0.489167 0.200000
v 3.019660 0.499278 0.200000
v 3.015226 0.508426 0.200000
v 3.010111 0.516611 0.200000
v 3.004313 0.523832 0.200000
v 2.997833 0.530091 0.200000
v 2.990672 0.535388 0.200000
v 2.982828 0.539721 0.200000
v 2.974302 0.543091 0.200000
v 2.965094 0.545498 0.200000
v 2.955204 0.546943 0.200000
v 2.944632 0.547424 0.200000
v 2.592682 0.547424 0.200000
v 2.258546 0.678864 0.200000
v 1.924892 0.065961 0.200000
v 1.554646 0.065961 0.200000
v 1.220029 0.678864 0.200000
v 1.484834 0.678864 0.200000
v 1.740010 0.235436 0.200000
v 1.993741 0.678864 0.200000
v 1.147809 0.065961 0.200000
v 0.861820 0.065961 0.200000
v 0.861820 0.678864 0.200000
v 1.147809 0.678864 0.200000
v 0.337025 0.678864 0.200000
v 0.337025 0.244102 0.200000
v 0.789600 0.244102 0.200000
v 0.789600 0.065961 0.200000
v 0.036110 0.065961 0.200000
v 0.036110 0.678864 0.200000
v 7.176216 0.534425 -0.200000
v 6.611940 0.534425 -0.200000
v 6.611940 0.443428 -0.200000
v 6.611940 0.442947 -0.200000
v 7.113144 0.442947 -0.200000
v 7.113144 0.313914 -0.200000
v 6.611940 0.314877 -0.200000
v 6.611940 0.219066 -0.200000
v 7.176216 0.219547 -0.200000
v 7.176216 0.065961 -0.200000
v 6.347136 0.065961 -0.200000
v 6.347136 0.678864 -0.200000
v 7.176216 0.678864 -0.200000
v 5.822340 0.678864 -0.200000
v 5.822340 0.244102 -0.200000
v 6.274916 0.244102 -0.200000
v 6.274916 0.065961 -0.200000
v 5.521425 0.065961 -0.200000
v 5.521425 0.678864 -0.200000
v 5.252183 0.677801 -0.200000
v 5.286377 0.674611 -0.200000
v 5.317315 0.669295 -0.200000
v 5.344995 0.661852 -0.200000
v 5.369420 0.652283 -0.200000
v 5.390587 0.640587 -0.200000
v 5.408498 0.626765 -0.200000
v 5.423153 0.610817 -0.200000
v 5.434551 0.592742 -0.200000
v 5.442692 0.572541 -0.200000
v 5.447577 0.550213 -0.200000
v 5.449205 0.525758 -0.200000
v 5.447721 0.501304 -0.200000
v 5.443267 0.478976 -0.200000
v 5.435845 0.458775 -0.200000
v 5.425453 0.440700 -0.200000
v 5.412093 0.424751 -0.200000
v 5.395763 0.410929 -0.200000
v 5.376464 0.399234 -0.200000
v 5.354197 0.389665 -0.200000
v 5.328960 0.382222 -0.200000
v 5.300754 0.376906 -0.200000
v 5.269579 0.373716 -0.200000
v 5.235435 0.372653 -0.200000
v 5.269579 0.371586 -0.200000
v 5.300754 0.368387 -0.200000
v 5.328960 0.363054 -0.200000
v 5.354197 0.355588 -0.200000
v 5.376464 0.345988 -0.200000
v 5.395763 0.334256 -0.200000
v 5.412093 0.320391 -0.200000
v 5.425453 0.304392 -0.200000
v 5.435845 0.286260 -0.200000
v 5.443267 0.265995 -0.200000
v 5.447721 0.243597 -0.200000
v 5.449205 0.219066 -0.200000
v 5.447577 0.195494 -0.200000
v 5.442692 0.173889 -0.200000
v 5.434550 0.154249 -0.200000
v 5.423152 0.136575 -0.200000
v 5.408498 0.120867 -0.200000
v 5.390587 0.107126 -0.200000
v 5.369419 0.095350 -0.200000
v 5.344995 0.085540 -0.200000
v 5.317314 0.077696 -0.200000
v 5.286377 0.071818 -0.200000
v 5.252183 0.067906 -0.200000
v 5.214733 0.065961 -0.200000
v 4.493982 0.065961 -0.200000
v 4.493982 0.678864 -0.200000
v 5.214733 0.678864 -0.200000
v 4.756379 0.442465 -0.200000
v 5.107848 0.442465 -0.200000
v 5.120922 0.442983 -0.200000
v 5.132858 0.444217 -0.200000
v 5.143657 0.446166 -0.200000
v 5.153320 0.448831 -0.200000
v 5.161846 0.452211 -0.200000
v 5.169235 0.456307 -0.200000
v 5.175487 0.461118 -0.200000
v 5.180603 0.466645 -0.200000
v 5.184581 0.472888 -0.200000
v 5.187423 0.479845 -0.200000
v 5.189128 0.487519 -0.200000
v 5.189697 0.495908 -0.200000
v 5.189127 0.504296 -0.200000
v 5.187422 0.511970 -0.200000
v 5.184580 0.518928 -0.200000
v 5.180602 0.525170 -0.200000
v 5.175486 0.530697 -0.200000
v 5.169234 0.535508 -0.200000
v 5.161845 0.539604 -0.200000
v 5.153319 0.542984 -0.200000
v 5.143656 0.545649 -0.200000
v 5.132857 0.547598 -0.200000
v 5.120921 0.548832 -0.200000
v 5.107848 0.549350 -0.200000
v 4.756379 0.549350 -0.200000
v 4.756379 0.207992 -0.200000
v 5.107848 0.207992 -0.200000
v 5.120922 0.208511 -0.200000
v 5.132858 0.209744 -0.200000
v 5.143657 0.211694 -0.200000
v 5.153320 0.214358 -0.200000
v 5.161846 0.217739 -0.200000
v 5.169235 0.221834 -0.200000
v 5.175487 0.226646 -0.200000
v 5.180603 0.232172 -0.200000
v 5.184581 0.238415 -0.200000
v 5.187423 0.245373 -0.200000
v 5.189128 0.253046 -0.200000
v 5.189697 0.261435 -0.200000
v 5.189127 0.269824 -0.200000
v 5.187422 0.277497 -0.200000
v 5.184580 0.284455 -0.200000
v 5.180602 0.290697 -0.200000
v 5.175486 0.296224 -0.200000
v 5.169234 0.301035 -0.200000
v 5.161845 0.305131 -0.200000
v 5.153319 0.308511 -0.200000
v 5.143656 0.311176 -0.200000
v 5.132857 0.313125 -0.200000
v 5.120921 0.314359 -0.200000
v 5.107848 0.314877 -0.200000
v 4.756379 0.314877 -0.200000
v 3.905152 0.519981 -0.200000
v 3.781897 0.298026 -0.200000
v 4.031776 0.298026 -0.200000
v 3.385652 0.065961 -0.200000
v 3.718344 0.678864 -0.200000
v 4.087145 0.678864 -0.200000
v 4.421762 0.065961 -0.200000
v 4.156957 0.065961 -0.200000
v 4.096292 0.175734 -0.200000
v 3.714011 0.175734 -0.200000
v 3.653346 0.065961 -0.200000
v 3.088676 0.674999 -0.200000
v 3.122800 0.668860 -0.200000
v 3.153888 0.660929 -0.200000
v 3.181940 0.651206 -0.200000
v 3.206956 0.639691 -0.200000
v 3.228936 0.626384 -0.200000
v 3.247880 0.611285 -0.200000
v 3.263788 0.594394 -0.200000
v 3.276661 0.575710 -0.200000
v 3.286498 0.555235 -0.200000
v 3.293298 0.532967 -0.200000
v 3.297063 0.508907 -0.200000
v 3.293074 0.485563 -0.200000
v 3.286404 0.463997 -0.200000
v 3.277052 0.444210 -0.200000
v 3.265019 0.426202 -0.200000
v 3.250304 0.409973 -0.200000
v 3.232908 0.395522 -0.200000
v 3.212831 0.382851 -0.200000
v 3.190071 0.371957 -0.200000
v 3.164631 0.362843 -0.200000
v 3.136508 0.355507 -0.200000
v 3.105705 0.349951 -0.200000
v 3.072220 0.346172 -0.200000
v 3.072220 0.344247 -0.200000
v 3.110523 0.341548 -0.200000
v 3.145028 0.335861 -0.200000
v 3.175734 0.327185 -0.200000
v 3.202643 0.315519 -0.200000
v 3.225753 0.300865 -0.200000
v 3.245065 0.283221 -0.200000
v 3.260579 0.262588 -0.200000
v 3.272295 0.238966 -0.200000
v 3.280212 0.212356 -0.200000
v 3.284331 0.182756 -0.200000
v 3.284652 0.150167 -0.200000
v 3.281175 0.114588 -0.200000
v 3.281415 0.110058 -0.200000
v 3.281977 0.105614 -0.200000
v 3.282860 0.101258 -0.200000
v 3.284064 0.096988 -0.200000
v 3.285588 0.092805 -0.200000
v 3.287434 0.088710 -0.200000
v 3.289600 0.084701 -0.200000
v 3.292088 0.080779 -0.200000
v 3.294897 0.076944 -0.200000
v 3.298026 0.073196 -0.200000
v 3.301476 0.069535 -0.200000
v 3.305248 0.065961 -0.200000
v 3.046221 0.065961 -0.200000
v 3.033709 0.070367 -0.200000
v 3.022174 0.075082 -0.200000
v 3.011615 0.080104 -0.200000
v 3.002033 0.085433 -0.200000
v 2.993426 0.091070 -0.200000
v 2.985796 0.097015 -0.200000
v 2.979143 0.103267 -0.200000
v 2.973466 0.109827 -0.200000
v 2.968765 0.116695 -0.200000
v 2.965040 0.123870 -0.200000
v 2.962292 0.131353 -0.200000
v 2.960520 0.139143 -0.200000
v 2.959266 0.147075 -0.200000
v 2.958073 0.154985 -0.200000
v 2.956939 0.162870 -0.200000
v 2.955866 0.170732 -0.200000
v 2.954853 0.178571 -0.200000
v 2.953900 0.186387 -0.200000
v 2.953007 0.194179 -0.200000
v 2.952175 0.201947 -0.200000
v 2.951402 0.209692 -0.200000
v 2.950690 0.217414 -0.200000
v 2.950038 0.225113 -0.200000
v 2.949446 0.232788 -0.200000
v 2.948484 0.240142 -0.200000
v 2.946718 0.246877 -0.200000
v 2.944150 0.252994 -0.200000
v 2.940780 0.258492 -0.200000
v 2.936607 0.263372 -0.200000
v 2.931632 0.267634 -0.200000
v 2.925855 0.271276 -0.200000
v 2.919275 0.274301 -0.200000
v 2.911892 0.276706 -0.200000
v 2.903707 0.278493 -0.200000
v 2.894720 0.279662 -0.200000
v 2.884930 0.280212 -0.200000
v 2.592682 0.280212 -0.200000
v 2.592682 0.065961 -0.200000
v 2.330765 0.065961 -0.200000
v 2.330765 0.679345 -0.200000
v 3.051517 0.679345 -0.200000
v 2.592682 0.415503 -0.200000
v 2.947520 0.415503 -0.200000
v 2.958882 0.415938 -0.200000
v 2.969374 0.417242 -0.200000
v 2.978996 0.419415 -0.200000
v 2.987750 0.422458 -0.200000
v 2.995634 0.426369 -0.200000
v 3.002648 0.431151 -0.200000
v 3.008794 0.436801 -0.200000
v 3.014070 0.443321 -0.200000
v 3.018476 0.450710 -0.200000
v 3.022014 0.458969 -0.200000
v 3.024682 0.468096 -0.200000
v 3.026481 0.478093 -0.200000
v 3.023411 0.489167 -0.200000
v 3.019660 0.499278 -0.200000
v 3.015226 0.508426 -0.200000
v 3.010111 0.516611 -0.200000
v 3.004313 0.523832 -0.200000
v 2.997833 0.530091 -0.200000
v 2.990672 0.535388 -0.200000
v 2.982828 0.539721 -0.200000
v 2.974302 0.543091 -0.200000
v 2.965094 0.545498 -0.200000
v 2.955204 0.546943 -0.200000
v 2.944632 0.547424 -0.200000
v 2.592682 0.547424 -0.200000
v 2.258546 0.678864 -0.200000
v 1.924892 0.065961 -0.200000
v 1.554646 0.065961 -0.200000
v 1.220029 0.678864 -0.200000
v 1.484834 0.678864 -0.200000
v 1.740010 0.235436 -0.200000
v 1.993741 0.678864 -0.200000
v 1.147809 0.065961 -0.200000
v 0.861820 0.065961 -0.200000
v 0.861820 0.678864 -0.200000
v 1.147809 0.678864 -0.200000
v 0.337025 0.678864 -0.200000
v 0.337025 0.244102 -0.200000
v 0.789600 0.244102 -0.200000
v 0.789600 0.065961 -0.200000
v 0.036110 0.065961 -0.200000
v 0.036110 0.678864 -0.200000
v 0.337025 0.678864 -0.200000
v 0.337025 0.678864 0.200000
v 0.337025 0.244102 -0.200000
v 0.337025 0.244102 0.200000
v 0.789600 0.244102 -0.200000
v 0.789600 0.244102 0.200000
v 0.789600 0.065961 -0.200000
v 0.789600 0.065961 0.200000
v 0.036110 0.065961 -0.200000
v 0.036110 0.065961 0.200000
v 0.036110 0.678864 -0.200000
v 0.036110 0.678864 0.200000
v 1.147809 0.065961 -0.200000
v 1.147809 0.065961 0.200000
v 0.861820 0.065961 -0.200000
v 0.861820 0.065961 0.200000
v 0.861820 0.678864 -0.200000
v 0.861820 0.678864 0.200000
v 1.147809 0.678864 -0.200000
v 1.147809 0.678864 0.200000
v 2.258546 0.678864 -0.200000
v 2.258546 0.678864 0.200000
v 1.924892 0.065961 -0.200000
v 1.924892 0.065961 0.200000
v 1.554646 0.065961 -0.200000
v 1.554646 0.065961 0.200000
v 1.220029 0.678864 -0.200000
v 1.220029 0.678864 0.200000
v 1.484834 0.678864 -0.200000
v 1.484834 0.678864 0.200000
v 1.740010 0.235436 -0.200000
v 1.740010 0.235436 0.200000
v 1.993741 0.678864 -0.200000
v 1.993741 0.678864 0.200000
v 3.088676 0.674999 -0.200000
v 3.088676 0.674999 0.200000
v 3.122800 0.668860 -0.200000
v 3.122800 0.668860 0.200000
v 3.153888 0.660929 -0.200000
v 3.153888 0.660929 0.200000
v 3.181940 0.651206 -0.200000
v 3.181940 0.651206 0.200000
v 3.206956 0.639691 -0.200000
v 3.206956 0.639691 0.200000
v 3.228936 0.626384 -0.200000
v 3.228936 0.626384 0.200000
v 3.247880 0.611285 -0.200000
v 3.247880 0.611285 0.200000
v 3.263788 0.594394 -0.200000
v 3.263788 0.594394 0.200000
v 3.276661 0.575710 -0.200000
v 3.276661 0.575710 0.200000
v 3.286498 0.555235 -0.200000
v 3.286498 0.555235 0.200000
v 3.293298 0.532967 -0.200000
v 3.293298 0.532967 0.200000
v 3.297063 0.508907 -0.200000
v 3.297063 0.508907 0.200000
v 3.293074 0.485563 -0.200000
v 3.293074 0.485563 0.200000
v 3.286404 0.463997 -0.200000
v 3.286404 0.463997 0.200000
v 3.277052 0.444210 -0.200000
v 3.277052 0.444210 0.200000
v 3.265019 0.426202 -0.200000
v 3.265019 0.426202 0.200000
v 3.250304 0.409973 -0.200000
v 3.250304 0.409973 0.200000
v 3.232908 0.395522 -0.200000
v 3.232908 0.395522 0.200000
v 3.212831 0.382851 -0.200000
v 3.212831 0.382851 0.200000
v 3.190071 0.371957 -0.200000
v 3.190071 0.371957 0.200000
v 3.164631 0.362843 -0.200000
v 3.164631 0.362843 0.200000
v 3.136508 0.355507 -0.200000
v 3.136508 0.355507 0.200000
v 3.105705 0.349951 -0.200000
v 3.105705 0.349951 0.200000
v 3.072220 0.346172 -0.200000
v 3.072220 0.346172 0.200000
v 3.072220 0.344247 -0.200000
v 3.072220 0.344247 0.200000
v 3.110523 0.341548 -0.200000
v 3.110523 0.341548 0.200000
v 3.145028 0.335861 -0.200000
v 3.145028 0.335861 0.200000
v 3.175734 0.327185 -0.200000
v 3.175734 0.327185 0.200000
v 3.202643 0.315519 -0.200000
v 3.202643 0.315519 0.200000
v 3.225753 0.300865 -0.200000
v 3.225753 0.300865 0.200000
v 3.245065 0.283221 -0.200000
v 3.245065 0.283221 0.200000
v 3.260579 0.262588 -0.200000
v 3.260579 0.262588 0.200000
v 3.272295 0.238966 -0.200000
v 3.272295 0.238966 0.200000
v 3.280212 0.212356 -0.200000
v 3.280212 0.212356 0.200000
v 3.284331 0.182756 -0.200000
v 3.284331 0.182756 0.200000
v 3.284652 0.150167 -0.200000
v 3.284652 0.150166 0.200000
v 3.281175 0.114588 -0.200000
v 3.281175 0.114588 0.200000
v 3.281415 0.110058 -0.200000
v 3.281415 0.110058 0.200000
v 3.281977 0.105614 -0.200000
v 3.281977 0.105614 0.200000
v 3.282860 0.101258 -0.200000
v 3.282860 0.101258 0.200000
v 3.284064 0.096988 -0.200000
v 3.284064 0.096988 0.200000
v 3.285588 0.092805 -0.200000
v 3.285588 0.092805 0.200000
v 3.287434 0.088710 -0.200000
v 3.287434 0.088710 0.200000
v 3.289600 0.084701 -0.200000
v 3.289600 0.084701 0.200000
v 3.292088 0.080779 -0.200000
v 3.292088 0.080779 0.200000
v 3.294897 0.076944 -0.200000
v 3.294897 0.076944 0.200000
v 3.298026 0.073196 -0.200000
v 3.298026 0.073196 0.200000
v 3.301476 0.069535 -0.200000
v 3.301476 0.069535 0.200000
v 3.305248 0.065961 -0.200000
v 3.305248 0.065961 0.200000
v 3.046221 0.065961 -0.200000
v 3.046221 0.065961 0.200000
v 3.033709 0.070367 -0.200000
v 3.033709 0.070367 0.200000
v 3.022174 0.075082 -0.200000
v 3.022174 0.075082 0.200000
v 3.011615 0.080104 -0.200000
v 3.011615 0.080104 0.200000
v 3.002033 0.085433 -0.200000
v 3.002033 0.085433 0.200000
v 2.993426 0.091070 -0.200000
v 2.993426 0.091070 0.200000
v 2.985796 0.097015 -0.200000
v 2.985796 0.097015 0.200000
v 2.979143 0.103267 -0.200000
v 2.979143 0.103267 0.200000
v 2.973466 0.109827 -0.200000
v 2.973466 0.109827 0.200000
v 2.968765 0.116695 -0.200000
v 2.968765 0.116695 0.200000
v 2.965040 0.123870 -0.200000
v 2.965040 0.123870 0.200000
v 2.962292 0.131353 -0.200000
v 2.962292 0.131353 0.200000
v 2.960520 0.139143 -0.200000
v 2.960520 0.139143 0.200000
v 2.959266 0.147075 -0.200000
v 2.959266 0.147075 0.200000
v 2.958073 0.154985 -0.200000
v 2.958073 0.154984 0.200000
v 2.956939 0.162870 -0.200000
v 2.956939 0.162870 0.200000
v 2.955866 0.170732 -0.200000
v 2.955866 0.170732 0.200000
v 2.954853 0.178571 -0.200000
v 2.954853 0.178571 0.200000
v 2.953900 0.186387 -0.200000
v 2.953900 0.186387 0.200000
v 2.953007 0.194179 -0.200000
v 2.953007 0.194179 0.200000
v 2.952175 0.201947 -0.200000
v 2.952175 0.201947 0.200000
v 2.951402 0.209692 -0.200000
v 2.951402 0.209692 0.200000
v 2.950690 0.217414 -0.200000
v 2.950690 0.217414 0.200000
v 2.950038 0.225113 -0.200000
v 2.950038 0.225113 0.200000
v 2.949446 0.232788 -0.200000
v 2.949446 0.232788 0.200000
v 2.948484 0.240142 -0.200000
v 2.948484 0.240142 0.200000
v 2.946718 0.246877 -0.200000
v 2.946718 0.246877 0.200000
v 2.944150 0.252994 -0.200000
v 2.944150 0.252994 0.200000
v 2.940780 0.258492 -0.200000
v 2.940780 0.258492 0.200000
v 2.936607 0.263372 -0.200000
v 2.936607 0.263372 0.200000
v 2.931632 0.267634 -0.200000
v 2.931632 0.267634 0.200000
v 2.925855 0.271276 -0.200000
v 2.925855 0.271276 0.200000
v 2.919275 0.274301 -0.200000
v 2.919275 0.274301 0.200000
v 2.911892 0.276706 -0.200000
v 2.911892 0.276706 0.200000
v 2.903707 0.278493 -0.200000
v 2.903707 0.278493 0.200000
v 2.894720 0.279662 -0.200000
v 2.894720 0.279662 0.200000
v 2.884930 0.280212 -0.200000
v 2.884930 0.280212 0.200000
v 2.592682 0.280212 -0.200000
v 2.592682 0.280212 0.200000
v 2.592682 0.065961 -0.200000
v 2.592682 0.065961 0.200000
v 2.330765 0.065961 -0.200000
v 2.330765 0.065961 0.200000
v 2.330765 0.679345 -0.200000
v 2.330765 0.679345 0.200000
v 3.051517 0.679345 -0.200000
v 3.051517 0.679345 0.200000
v 2.592682 0.415503 -0.200000
v 2.592682 0.415503 0.200000
v 2.947520 0.415503 -0.200000
v 2.947520 0.415503 0.200000
v 2.958882 0.415938 -0.200000
v 2.958882 0.415938 0.200000
v 2.969374 0.417242 -0.200000
v 2.969374 0.417242 0.200000
v 2.978996 0.419415 -0.200000
v 2.978996 0.419415 0.200000
v 2.987750 0.422458 -0.200000
v 2.987750 0.422458 0.200000
v 2.995634 0.426369 -0.200000
v 2.995634 0.426369 0.200000
v 3.002648 0.431151 -0.200000
v 3.002648 0.431151 0.200000
v 3.008794 0.436801 -0.200000
v 3.008794 0.436801 0.200000
v 3.014070 0.443321 -0.200000
v 3.014070 0.443321 0.200000
v 3.018476 0.450710 -0.200000
v 3.018476 0.450710 0.200000
v 3.022014 0.458969 -0.200000
v 3.022014 0.458969 0.200000
v 3.024682 0.468096 -0.200000
v 3.024682 0.468096 0.200000
v 3.026481 0.478093 -0.200000
v 3.026481 0.478093 0.200000
v 3.023411 0.489167 -0.200000
v 3.023411 0.489167 0.200000
v 3.019660 0.499278 -0.200000
v 3.019660 0.499278 0.200000
v 3.015226 0.508426 -0.200000
v 3.015226 0.508426 0.200000
v 3.010111 0.516611 -0.200000
v 3.010111 0.516611 0.200000
v 3.004313 0.523832 -0.200000
v 3.004313 0.523832 0.200000
v 2.997833 0.530091 -0.200000
v 2.997833 0.530091 0.200000
v 2.990672 0.535388 -0.200000
v 2.990672 0.535388 0.200000
v 2.982828 0.539721 -0.200000
v 2.982828 0.539721 0.200000
v 2.974302 0.543091 -0.200000
v 2.974302 0.543091 0.200000
v 2.965094 0.545498 -0.200000
v 2.965094 0.545498 0.200000
v 2.955204 0.546943 -0.200000
v 2.955204 0.546943 0.200000
v 2.944632 0.547424 -0.200000
v 2.944632 0.547424 0.200000
v 2.592682 0.547424 -0.200000
v 2.592682 0.547424 0.200000
v 3.905152 0.519981 -0.200000
v 3.905152 0.519981 0.200000
v 3.781897 0.298026 -0.200000
v 3.781897 0.298026 0.200000
v 4.031776 0.298026 -0.200000
v 4.031776 0.298026 0.200000
v 3.385652 0.065961 -0.200000
v 3.385652 0.065961 0.200000
v 3.718344 0.678864 -0.200000
v 3.718344 0.678864 0.200000
v 4.087145 0.678864 -0.200000
v 4.087145 0.678864 0.200000
v 4.421762 0.065961 -0.200000
v 4.421762 0.065961 0.200000
v 4.156957 0.065961 -0.200000
v 4.156957 0.065961 0.200000
v 4.096292 0.175734 -0.200000
v 4.096292 0.175734 0.200000
v 3.714011 0.175734 -0.200000
v 3.714011 0.175734 0.200000
v 3.653346 0.065961 -0.200000
v 3.653346 0.065961 0.200000
v 5.252183 0.677801 -0.200000
v 5.252183 0.677801 0.200000
v 5.286377 0.674611 -0.200000
v 5.286377 0.674611 0.200000
v 5.317315 0.669295 -0.200000
v 5.317315 0.669295 0.200000
v 5.344995 0.661852 -0.200000
v 5.344995 0.661852 0.200000
v 5.369420 0.652283 -0.200000
v 5.369420 0.652283 0.200000
v 5.390587 0.640587 -0.200000
v 5.390587 0.640587 0.200000
v 5.408498 0.626765 -0.200000
v 5.408498 0.626765 0.200000
v 5.423153 0.610817 -0.200000
v 5.423153 0.610817 0.200000
v 5.434551 0.592742 -0.200000
v 5.434551 0.592742 0.200000
v 5.442692 0.572541 -0.200000
v 5.442692 0.572541 0.200000
v 5.447577 0.550213 -0.200000
v 5.447577 0.550213 0.200000
v 5.449205 0.525758 -0.200000
v 5.449205 0.525758 0.200000
v 5.447721 0.501304 -0.200000
v 5.447721 0.501304 0.200000
v 5.443267 0.478976 -0.200000
v 5.443267 0.478976 0.200000
v 5.435845 0.458775 -0.200000
v 5.435845 0.458775 0.200000
v 5.425453 0.440700 -0.200000
v 5.425453 0.440700 0.200000
v 5.412093 0.424751 -0.200000
v 5.412093 0.424751 0.200000
v 5.395763 0.410929 -0.200000
v 5.395763 0.410929 0.200000
v 5.376464 0.399234 -0.200000
v 5.376464 0.399234 0.200000
v 5.354197 0.389665 -0.200000
v 5.354197 0.389665 0.200000
v 5.328960 0.382222 -0.200000
v 5.328960 0.382222 0.200000
v 5.300754 0.376906 -0.200000
v 5.300754 0.376906 0.200000
v 5.269579 0.373716 -0.200000
v 5.269579 0.373716 0.200000
v 5.235435 0.372653 -0.200000
v 5.235435 0.372653 0.200000
v 5.269579 0.371586 -0.200000
v 5.269579 0.371586 0.200000
v 5.300754 0.368387 -0.200000
v 5.300754 0.368387 0.200000
v 5.328960 0.363054 -0.200000
v 5.328960 0.363054 0.200000
v 5.354197 0.355588 -0.200000
v 5.354197 0.355588 0.200000
v 5.376464 0.345988 -0.200000
v 5.376464 0.345988 0.200000
v 5.395763 0.334256 -0.200000
v 5.395763 0.334256 0.200000
v 5.412093 0.320391 -0.200000
v 5.412093 0.320391 0.200000
v 5.425453 0.304392 -0.200000
v 5.425453 0.304392 0.200000
v 5.435845 0.286260 -0.200000
v 5.435845 0.286260 0.200000
v 5.443267 0.265995 -0.200000
v 5.443267 0.265995 0.200000
v 5.447721 0.243597 -0.200000
v 5.447721 0.243597 0.200000
v 5.449205 0.219066 -0.200000
v 5.449205 0.219066 0.200000
v 5.447577 0.195494 -0.200000
v 5.447577 0.195494 0.200000
v 5.442692 0.173889 -0.200000
v 5.442692 0.173889 0.200000
v 5.434550 0.154249 -0.200000
v 5.434550 0.154249 0.200000
v 5.423152 0.136575 -0.200000
v 5.423152 0.136575 0.200000
v 5.408498 0.120867 -0.200000
v 5.408498 0.120867 0.200000
v 5.390587 0.107126 -0.200000
v 5.390587 0.107126 0.200000
v 5.369419 0.095350 -0.200000
v 5.369419 0.095350 0.200000
v 5.344995 0.085540 -0.200000
v 5.344995 0.085540 0.200000
v 5.317314 0.077696 -0.200000
v 5.317314 0.077696 0.200000
v 5.286377 0.071818 -0.200000
v 5.286377 0.071818 0.200000
v 5.252183 0.067906 -0.200000
v 5.252183 0.067906 0.200000
v 5.214733 0.065961 -0.200000
v 5.214733 0.065961 0.200000
v 4.493982 0.065961 -0.200000
v 4.493982 0.065961 0.200000
v 4.493982 0.678864 -0.200000
v 4.493982 0.678864 0.200000
v 5.214733 0.678864 -0.200000
v 5.214733 0.678864 0.200000
v 4.756379 0.442465 -0.200000
v 4.756379 0.442465 0.200000
v 5.107848 0.442465 -0.200000
v 5.107848 0.442465 0.200000
v 5.120922 0.442983 -0.200000
v 5.120922 0.442983 0.200000
v 5.132858 0.444217 -0.200000
v 5.132858 0.444217 0.200000
v 5.143657 0.446166 -0.200000
v 5.143657 0.446166 0.200000
v 5.153320 0.448831 -0.200000
v 5.153320 0.448831 0.200000
v 5.161846 0.452211 -0.200000
v 5.161846 0.452211 0.200000
v 5.169235 0.456307 -0.200000
v 5.169235 0.456307 0.200000
v 5.175487 0.461118 -0.200000
v 5.175487 0.461118 0.200000
v 5.180603 0.466645 -0.200000
v 5.180603 0.466645 0.200000
v 5.184581 0.472888 -0.200000
v 5.184581 0.472888 0.200000
v 5.187423 0.479845 -0.200000
v 5.187423 0.479845 0.200000
v 5.189128 0.487519 -0.200000
v 5.189128 0.487519 0.200000
v 5.189697 0.495908 -0.200000
v 5.189697 0.495908 0.200000
v 5.189127 0.504296 -0.200000
v 5.189127 0.504296 0.200000
v 5.187422 0.511970 -0.200000
v 5.187422 0.511970 0.200000
v 5.184580 0.518928 -0.200000
v 5.184580 0.518928 0.200000
v 5.180602 0.525170 -0.200000
v 5.180602 0.525170 0.200000
v 5.175486 0.530697 -0.200000
v 5.175486 0.530697 0.200000
v 5.169234 0.535508 -0.200000
v 5.169234 0.535508 0.200000
v 5.161845 0.539604 -0.200000
v 5.161845 0.539604 0.200000
v 5.153319 0.542984 -0.200000
v 5.153319 0.542984 0.200000
v 5.143656 0.545649 -0.200000
v 5.143656 0.545649 0.200000
v 5.132857 0.547598 -0.200000
v 5.132857 0.547598 0.200000
v 5.120921 0.548832 -0.200000
v 5.120921 0.548832 0.200000
v 5.107848 0.549350 -0.200000
v 5.107848 0.549350 0.200000
v 4.756379 0.549350 -0.200000
v 4.756379 0.549350 0.200000
v 4.756379 0.207992 -0.200000
v 4.756379 0.207992 0.200000
v 5.107848 0.207992 -0.200000
v 5.107848 0.207992 0.200000
v 5.120922 0.208511 -0.200000
v 5.120922 0.208511 0.200000
v 5.132858 0.209744 -0.200000
v 5.132858 0.209744 0.200000
v 5.143657 0.211694 -0.200000
v 5.143657 0.211694 0.200000
v 5.153320 0.214358 -0.200000
v 5.153320 0.214358 0.200000
v 5.161846 0.217739 -0.200000
v 5.161846 0.217739 0.200000
v 5.169235 0.221834 -0.200000
v 5.169235 0.221834 0.200000
v 5.175487 0.226646 -0.200000
v 5.175487 0.226646 0.200000
v 5.180603 0.232172 -0.200000
v 5.180603 0.232172 0.200000
v 5.184581 0.238415 -0.200000
v 5.184581 0.238415 0.200000
v 5.187423 0.245373 -0.200000
v 5.187423 0.245373 0.200000
v 5.189128 0.253046 -0.200000
v 5.189128 0.253046 0.200000
v 5.189697 0.261435 -0.200000
v 5.189697 0.261435 0.200000
v 5.189127 0.269824 -0.200000
v 5.189127 0.269824 0.200000
v 5.187422 0.277497 -0.200000
v 5.187422 0.277497 0.200000
v 5.184580 0.284455 -0.200000
v 5.184580 0.284455 0.200000
v 5.180602 0.290697 -0.200000
v 5.180602 0.290697 0.200000
v 5.175486 0.296224 -0.200000
v 5.175486 0.296224 0.200000
v 5.169234 0.301035 -0.200000
v 5.169234 0.301035 0.200000
v 5.161845 0.305131 -0.200000
v 5.161845 0.305131 0.200000
v 5.153319 0.308511 -0.200000
v 5.153319 0.308511 0.200000
v 5.143656 0.311176 -0.200000
v 5.143656 0.311176 0.200000
v 5.132857 0.313125 -0.200000
v 5.132857 0.313125 0.200000
v 5.120921 0.314359 -0.200000
v 5.120921 0.314359 0.200000
v 5.107848 0.314877 -0.200000
v 5.107848 0.314877 0.200000
v 4.756379 0.314877 -0.200000
v 4.756379 0.314877 0.200000
v 5.822340 0.678864 -0.200000
v 5.822340 0.678864 0.200000
v 5.822340 0.244102 -0.200000
v 5.822340 0.244102 0.200000
v 6.274916 0.244102 -0.200000
v 6.274916 0.244102 0.200000
v 6.274916 0.065961 -0.200000
v 6.274916 0.065961 0.200000
v 5.521425 0.065961 -0.200000
v 5.521425 0.065961 0.200000
v 5.521425 0.678864 -0.200000
v 5.521425 0.678864 0.200000
v 7.176216 0.534425 -0.200000
v 7.176216 0.534425 0.200000
v 6.611940 0.534425 -0.200000
v 6.611940 0.534425 0.200000
v 6.611940 0.443428 -0.200000
v 6.611940 0.443428 0.200000
v 6.611940 0.442947 -0.200000
v 6.611940 0.442947 0.200000
v 7.113144 0.442947 -0.200000
v 7.113144 0.442947 0.200000
v 7.113144 0.313914 -0.200000
v 7.113144 0.313914 0.200000
v 6.611940 0.314877 -0.200000
v 6.611940 0.314877 0.200000
v 6.611940 0.219066 -0.200000
v 6.611940 0.219066 0.200000
v 7.176216 0.219547 -0.200000
v 7.176216 0.219547 0.200000
v 7.176216 0.065961 -0.200000
v 7.176216 0.065961 0.200000
v 6.347136 0.065961 -0.200000
v 6.347136 0.065961 0.200000
v 6.347136 0.678864 -0.200000
v 6.347136 0.678864 0.200000
v 7.176216 0.678864 -0.200000
v 7.176216 0.678864 0.200000
vn -0.0000 -0.0000 1.0000
vn -0.0000 -0.0000 -1.0000
vn 0.7071 0.7071 -0.0000
vn 0.7071 -0.7071 -0.0000
vn -0.7071 -0.7071 -0.0000
vn -0.7071 0.7071 -0.0000
vn 0.8597 0.5108 -0.0000
vn 0.5108 -0.8597 -0.0000
vn -0.5103 -0.8600 -0.0000
vn -0.8600 0.5103 -0.0000
vn 0.5006 0.8657 -0.0000
vn -0.0012 1.0000 -0.0000
vn -0.5017 0.8651 -0.0000
vn 0.1467 0.9892 -0.0000
vn 0.2123 0.9772 -0.0000
vn 0.2876 0.9578 -0.0000
vn 0.3733 0.9277 -0.0000
vn 0.4688 0.8833 -0.0000
vn 0.5718 0.8204 -0.0000
vn 0.6773 0.7357 -0.0000
vn 0.7780 0.6283 -0.0000
vn 0.8650 0.5017 -0.0000
vn 0.9316 0.3636 -0.0000
vn 0.9746 0.2239 -0.0000
vn 1.0000 -0.0070 -0.0000
vn 0.9726 -0.2324 -0.0000
vn 0.9321 -0.3623 -0.0000
vn 0.8701 -0.4928 -0.0000
vn 0.7883 -0.6153 -0.0000
vn 0.6916 -0.7223 -0.0000
vn 0.5876 -0.8092 -0.0000
vn 0.4835 -0.8753 -0.0000
vn 0.3850 -0.9229 -0.0000
vn 0.2951 -0.9555 -0.0000
vn 0.2151 -0.9766 -0.0000
vn 0.1449 -0.9894 -0.0000
vn 0.7457 -0.6663 -0.0000
vn 0.7315 0.6818 -0.0000
vn 0.1166 0.9932 -0.0000
vn 0.2176 0.9760 -0.0000
vn 0.3356 0.9420 -0.0000
vn 0.4681 0.8837 -0.0000
vn 0.6073 0.7944 -0.0000
vn 0.7401 0.6725 -0.0000
vn 0.8512 0.5249 -0.0000
vn 0.9306 0.3661 -0.0000
vn 0.9772 0.2121 -0.0000
vn 0.9973 0.0740 -0.0000
vn 0.9990 -0.0438 -0.0000
vn 0.9998 -0.0222 -0.0000
vn 0.9960 0.0893 -0.0000
vn 0.9868 0.1621 -0.0000
vn 0.9720 0.2351 -0.0000
vn 0.9517 0.3071 -0.0000
vn 0.9262 0.3769 -0.0000
vn 0.8963 0.4434 -0.0000
vn 0.8626 0.5058 -0.0000
vn 0.8261 0.5636 -0.0000
vn 0.7876 0.6162 -0.0000
vn 0.7480 0.6637 -0.0000
vn 0.7081 0.7061 -0.0000
vn 0.9289 -0.3702 -0.0000
vn -0.1685 -0.9857 -0.0000
vn -0.3554 -0.9347 -0.0000
vn -0.4041 -0.9147 -0.0000
vn -0.4580 -0.8889 -0.0000
vn -0.5173 -0.8558 -0.0000
vn -0.5818 -0.8134 -0.0000
vn -0.6504 -0.7596 -0.0000
vn -0.7214 -0.6925 -0.0000
vn -0.7919 -0.6106 -0.0000
vn -0.8580 -0.5137 -0.0000
vn -0.9150 -0.4035 -0.0000
vn -0.9589 -0.2839 -0.0000
vn -0.9820 -0.1891 -0.0000
vn -0.9883 -0.1527 -0.0000
vn -0.9893 -0.1457 -0.0000
vn -0.9903 -0.1388 -0.0000
vn -0.9913 -0.1317 -0.0000
vn -0.9922 -0.1246 -0.0000
vn -0.9931 -0.1174 -0.0000
vn -0.9939 -0.1102 -0.0000
vn -0.9947 -0.1029 -0.0000
vn -0.9954 -0.0955 -0.0000
vn -0.9961 -0.0881 -0.0000
vn -0.9967 -0.0806 -0.0000
vn -0.9946 -0.1034 -0.0000
vn -0.9814 -0.1921 -0.0000
vn -0.9470 -0.3211 -0.0000
vn -0.8899 -0.4562 -0.0000
vn -0.8088 -0.5881 -0.0000
vn -0.7074 -0.7068 -0.0000
vn -0.5935 -0.8048 -0.0000
vn -0.4765 -0.8792 -0.0000
vn -0.3643 -0.9313 -0.0000
vn -0.2619 -0.9651 -0.0000
vn -0.1713 -0.9852 -0.0000
vn -0.0926 -0.9957 -0.0000
vn -0.0281 -0.9996 -0.0000
vn 0.0582 0.9983 -0.0000
vn -0.0191 0.9998 -0.0000
vn -0.0809 0.9967 -0.0000
vn -0.1720 0.9851 -0.0000
vn -0.2747 0.9615 -0.0000
vn -0.3872 0.9220 -0.0000
vn -0.5050 0.8631 -0.0000
vn -0.6217 0.7833 -0.0000
vn -0.7291 0.6844 -0.0000
vn -0.8202 0.5721 -0.0000
vn -0.8910 0.4540 -0.0000
vn -0.9412 0.3378 -0.0000
vn -0.9734 0.2292 -0.0000
vn -0.9989 -0.0462 -0.0000
vn -0.9515 -0.3078 -0.0000
vn -0.9198 -0.3924 -0.0000
vn -0.8752 -0.4838 -0.0000
vn -0.8153 -0.5790 -0.0000
vn -0.7388 -0.6740 -0.0000
vn -0.6461 -0.7633 -0.0000
vn -0.5402 -0.8415 -0.0000
vn -0.4265 -0.9045 -0.0000
vn -0.3108 -0.9505 -0.0000
vn -0.1990 -0.9800 -0.0000
vn -0.0951 -0.9955 -0.0000
vn -0.0228 -0.9997 -0.0000
vn 0.0058 -1.0000 -0.0000
vn 0.8618 0.5072 -0.0000
vn -0.8647 0.5022 -0.0000
vn -0.8594 -0.5113 -0.0000
vn -0.5113 0.8594 -0.0000
vn 0.5103 0.8600 -0.0000
vn 0.8600 -0.5103 -0.0000
vn -0.5081 -0.8613 -0.0000
vn 0.5081 -0.8613 -0.0000
vn 0.0607 0.9982 -0.0000
vn 0.1312 0.9914 -0.0000
vn 0.2147 0.9767 -0.0000
vn 0.3127 0.9499 -0.0000
vn 0.4251 0.9051 -0.0000
vn 0.5489 0.8359 -0.0000
vn 0.6761 0.7368 -0.0000
vn 0.7943 0.6075 -0.0000
vn 0.8903 0.4554 -0.0000
vn 0.9556 0.2948 -0.0000
vn 0.9901 0.1405 -0.0000
vn 1.0000 0.0029 -0.0000
vn 0.9917 -0.1284 -0.0000
vn 0.9626 -0.2711 -0.0000
vn 0.9061 -0.4232 -0.0000
vn 0.8199 -0.5725 -0.0000
vn 0.7089 -0.7053 -0.0000
vn 0.5840 -0.8118 -0.0000
vn 0.4577 -0.8891 -0.0000
vn 0.3394 -0.9406 -0.0000
vn 0.2343 -0.9722 -0.0000
vn 0.1436 -0.9896 -0.0000
vn 0.0665 -0.9978 -0.0000
vn 1.0000 -0.0001 -0.0000
vn 0.0667 0.9978 -0.0000
vn 0.1441 0.9896 -0.0000
vn 0.2350 0.9720 -0.0000
vn 0.3404 0.9403 -0.0000
vn 0.4588 0.8885 -0.0000
vn 0.5852 0.8109 -0.0000
vn 0.7100 0.7042 -0.0000
vn 0.8207 0.5713 -0.0000
vn 0.9066 0.4221 -0.0000
vn 0.9628 0.2703 -0.0000
vn 0.9918 0.1280 -0.0000
vn 1.0000 -0.0043 -0.0000
vn 0.9894 -0.1452 -0.0000
vn 0.9530 -0.3028 -0.0000
vn 0.8857 -0.4643 -0.0000
vn 0.7889 -0.6145 -0.0000
vn 0.6723 -0.7403 -0.0000
vn 0.5489 -0.8359 -0.0000
vn 0.4303 -0.9027 -0.0000
vn 0.3231 -0.9464 -0.0000
vn 0.2299 -0.9732 -0.0000
vn 0.1503 -0.9886 -0.0000
vn 0.0828 -0.9966 -0.0000
vn 0.0260 -0.9997 -0.0000
vn 0.0142 0.9999 -0.0000
vn -0.0198 0.9998 -0.0000
vn -0.0712 0.9975 -0.0000
vn -0.1403 0.9901 -0.0000
vn -0.2220 0.9751 -0.0000
vn -0.3177 0.9482 -0.0000
vn -0.4276 0.9040 -0.0000
vn -0.5489 0.8359 -0.0000
vn -0.6743 0.7385 -0.0000
vn -0.7918 0.6108 -0.0000
vn -0.8881 0.4597 -0.0000
vn -0.9544 0.2986 -0.0000
vn -0.9898 0.1427 -0.0000
vn -1.0000 -0.0001 -0.0000
vn -0.9898 -0.1427 -0.0000
vn -0.9544 -0.2986 -0.0000
vn -0.8881 -0.4597 -0.0000
vn -0.7918 -0.6108 -0.0000
vn -0.6743 -0.7385 -0.0000
vn -0.5489 -0.8359 -0.0000
vn -0.4276 -0.9040 -0.0000
vn -0.3177 -0.9482 -0.0000
vn -0.2220 -0.9751 -0.0000
vn -0.1403 -0.9901 -0.0000
vn -0.0712 -0.9975 -0.0000
vn -0.0198 -0.9998 -0.0000
vn 1.0000 -0.0000 -0.0000
vn 0.7064 -0.7078 -0.0000
vn 0.7068 0.7074 -0.0000
vt 0.833333 0.000000
vt 0.083333 0.000000
vt 0.916667 0.000000
vt 1.000000 0.000000
vt 0.000000 0.000000
vt 0.166667 0.000000
vt 0.250000 0.000000
vt 0.500000 0.000000
vt 0.333333 0.000000
vt 0.416667 0.000000
vt 0.583333 0.000000
vt 0.750000 0.000000
vt 0.666667 0.000000
vt 0.800000 0.000000
vt 0.200000 0.000000
vt 0.400000 0.000000
vt 0.600000 0.000000
vt 0.461538 0.000000
vt 0.740385 0.000000
vt 0.471154 0.000000
vt 0.480769 0.000000
vt 0.009615 0.000000
vt 0.019231 0.000000
vt 0.028846 0.000000
vt 0.038462 0.000000
vt 0.048077 0.000000
vt 0.057692 0.000000
vt 0.067308 0.000000
vt 0.076923 0.000000
vt 0.086538 0.000000
vt 0.096154 0.000000
vt 0.730769 0.000000
vt 0.721154 0.000000
vt 0.105769 0.000000
vt 0.490385 0.000000
vt 0.711538 0.000000
vt 0.701923 0.000000
vt 0.692308 0.000000
vt 0.682692 0.000000
vt 0.673077 0.000000
vt 0.663462 0.000000
vt 0.653846 0.000000
vt 0.115385 0.000000
vt 0.644231 0.000000
vt 0.634615 0.000000
vt 0.625000 0.000000
vt 0.615385 0.000000
vt 0.125000 0.000000
vt 0.605769 0.000000
vt 0.596154 0.000000
vt 0.586538 0.000000
vt 0.134615 0.000000
vt 0.576923 0.000000
vt 0.567308 0.000000
vt 0.557692 0.000000
vt 0.144231 0.000000
vt 0.548077 0.000000
vt 0.538462 0.000000
vt 0.528846 0.000000
vt 0.519231 0.000000
vt 0.509615 0.000000
vt 0.153846 0.000000
vt 0.163462 0.000000
vt 0.173077 0.000000
vt 0.182692 0.000000
vt 0.221154 0.000000
vt 0.192308 0.000000
vt 0.201923 0.000000
vt 0.211538 0.000000
vt 0.230769 0.000000
vt 0.240385 0.000000
vt 0.259615 0.000000
vt 0.269231 0.000000
vt 0.278846 0.000000
vt 0.288462 0.000000
vt 0.990385 0.000000
vt 0.298077 0.000000
vt 0.980769 0.000000
vt 0.971154 0.000000
vt 0.961538 0.000000
vt 0.951923 0.000000
vt 0.942308 0.000000
vt 0.932692 0.000000
vt 0.307692 0.000000
vt 0.923077 0.000000
vt 0.913462 0.000000
vt 0.903846 0.000000
vt 0.317308 0.000000
vt 0.894231 0.000000
vt 0.884615 0.000000
vt 0.875000 0.000000
vt 0.326923 0.000000
vt 0.865385 0.000000
vt 0.855769 0.000000
vt 0.846154 0.000000
vt 0.336538 0.000000
vt 0.836538 0.000000
vt 0.826923 0.000000
vt 0.817308 0.000000
vt 0.807692 0.000000
vt 0.346154 0.000000
vt 0.798077 0.000000
vt 0.788462 0.000000
vt 0.778846 0.000000
vt 0.769231 0.000000
vt 0.759615 0.000000
vt 0.355769 0.000000
vt 0.365385 0.000000
vt 0.375000 0.000000
vt 0.384615 0.000000
vt 0.394231 0.000000
vt 0.403846 0.000000
vt 0.413462 0.000000
vt 0.423077 0.000000
vt 0.432692 0.000000
vt 0.442308 0.000000
vt 0.451923 0.000000
vt 0.300000 0.000000
vt 0.100000 0.000000
vt 0.900000 0.000000
vt 0.700000 0.000000
vt 0.752137 0.000000
vt 0.760684 0.000000
vt 0.008547 0.000000
vt 0.017094 0.000000
vt 0.025641 0.000000
vt 0.034188 0.000000
vt 0.042735 0.000000
vt 0.051282 0.000000
vt 0.059829 0.000000
vt 0.068376 0.000000
vt 0.991453 0.000000
vt 0.085470 0.000000
vt 0.777778 0.000000
vt 0.982906 0.000000
vt 0.974359 0.000000
vt 0.965812 0.000000
vt 0.957265 0.000000
vt 0.948718 0.000000
vt 0.940171 0.000000
vt 0.094017 0.000000
vt 0.931624 0.000000
vt 0.914530 0.000000
vt 0.102564 0.000000
vt 0.905983 0.000000
vt 0.897436 0.000000
vt 0.888889 0.000000
vt 0.111111 0.000000
vt 0.880342 0.000000
vt 0.871795 0.000000
vt 0.119658 0.000000
vt 0.863248 0.000000
vt 0.854701 0.000000
vt 0.128205 0.000000
vt 0.837607 0.000000
vt 0.829060 0.000000
vt 0.820513 0.000000
vt 0.136752 0.000000
vt 0.811966 0.000000
vt 0.803419 0.000000
vt 0.794872 0.000000
vt 0.786325 0.000000
vt 0.735043 0.000000
vt 0.145299 0.000000
vt 0.162393 0.000000
vt 0.170940 0.000000
vt 0.179487 0.000000
vt 0.196581 0.000000
vt 0.188034 0.000000
vt 0.205128 0.000000
vt 0.213675 0.000000
vt 0.222222 0.000000
vt 0.239316 0.000000
vt 0.247863 0.000000
vt 0.256410 0.000000
vt 0.726496 0.000000
vt 0.264957 0.000000
vt 0.743590 0.000000
vt 0.717949 0.000000
vt 0.709402 0.000000
vt 0.700855 0.000000
vt 0.683761 0.000000
vt 0.675214 0.000000
vt 0.658120 0.000000
vt 0.273504 0.000000
vt 0.649573 0.000000
vt 0.641026 0.000000
vt 0.632479 0.000000
vt 0.623932 0.000000
vt 0.282051 0.000000
vt 0.606838 0.000000
vt 0.598291 0.000000
vt 0.290598 0.000000
vt 0.589744 0.000000
vt 0.581197 0.000000
vt 0.572650 0.000000
vt 0.564103 0.000000
vt 0.299145 0.000000
vt 0.555556 0.000000
vt 0.547009 0.000000
vt 0.529915 0.000000
vt 0.521368 0.000000
vt 0.512821 0.000000
vt 0.504274 0.000000
vt 0.495726 0.000000
vt 0.487179 0.000000
vt 0.316239 0.000000
vt 0.324786 0.000000
vt 0.478632 0.000000
vt 0.470085 0.000000
vt 0.341880 0.000000
vt 0.350427 0.000000
vt 0.358974 0.000000
vt 0.452991 0.000000
vt 0.367521 0.000000
vt 0.444444 0.000000
vt 0.376068 0.000000
vt 0.435897 0.000000
vt 0.393162 0.000000
vt 0.427350 0.000000
vt 0.401709 0.000000
vt 0.418803 0.000000
vt 0.410256 0.000000
vt 0.000000 1.000000
vt 0.166667 1.000000
vt 0.333333 1.000000
vt 0.500000 1.000000
vt 0.666667 1.000000
vt 0.833333 1.000000
vt 1.000000 1.000000
vt 0.250000 1.000000
vt 0.750000 1.000000
vt 0.142857 1.000000
vt 0.142857 0.000000
vt 0.285714 1.000000
vt 0.285714 0.000000
vt 0.428571 1.000000
vt 0.428571 0.000000
vt 0.571429 1.000000
vt 0.571429 0.000000
vt 0.714286 1.000000
vt 0.714286 0.000000
vt 0.857143 1.000000
vt 0.857143 0.000000
vt 0.010989 1.000000
vt 0.010989 0.000000
vt 0.021978 1.000000
vt 0.021978 0.000000
vt 0.032967 1.000000
vt 0.032967 0.000000
vt 0.043956 1.000000
vt 0.043956 0.000000
vt 0.054945 1.000000
vt 0.054945 0.000000
vt 0.065934 1.000000
vt 0.065934 0.000000
vt 0.076923 1.000000
vt 0.087912 1.000000
vt 0.087912 0.000000
vt 0.098901 1.000000
vt 0.098901 0.000000
vt 0.109890 1.000000
vt 0.109890 0.000000
vt 0.120879 1.000000
vt 0.120879 0.000000
vt 0.131868 1.000000
vt 0.131868 0.000000
vt 0.153846 1.000000
vt 0.164835 1.000000
vt 0.164835 0.000000
vt 0.175824 1.000000
vt 0.175824 0.000000
vt 0.186813 1.000000
vt 0.186813 0.000000
vt 0.197802 1.000000
vt 0.197802 0.000000
vt 0.208791 1.000000
vt 0.208791 0.000000
vt 0.219780 1.000000
vt 0.219780 0.000000
vt 0.230769 1.000000
vt 0.241758 1.000000
vt 0.241758 0.000000
vt 0.252747 1.000000
vt 0.252747 0.000000
vt 0.263736 1.000000
vt 0.263736 0.000000
vt 0.274725 1.000000
vt 0.274725 0.000000
vt 0.296703 1.000000
vt 0.296703 0.000000
vt 0.307692 1.000000
vt 0.318681 1.000000
vt 0.318681 0.000000
vt 0.329670 1.000000
vt 0.329670 0.000000
vt 0.340659 1.000000
vt 0.340659 0.000000
vt 0.351648 1.000000
vt 0.351648 0.000000
vt 0.362637 1.000000
vt 0.362637 0.000000
vt 0.373626 1.000000
vt 0.373626 0.000000
vt 0.384615 1.000000
vt 0.395604 1.000000
vt 0.395604 0.000000
vt 0.406593 1.000000
vt 0.406593 0.000000
vt 0.417582 1.000000
vt 0.417582 0.000000
vt 0.439560 1.000000
vt 0.439560 0.000000
vt 0.450549 1.000000
vt 0.450549 0.000000
vt 0.461538 1.000000
vt 0.472527 1.000000
vt 0.472527 0.000000
vt 0.483516 1.000000
vt 0.483516 0.000000
vt 0.494505 1.000000
vt 0.494505 0.000000
vt 0.505495 1.000000
vt 0.505495 0.000000
vt 0.516484 1.000000
vt 0.516484 0.000000
vt 0.527473 1.000000
vt 0.527473 0.000000
vt 0.538462 1.000000
vt 0.549451 1.000000
vt 0.549451 0.000000
vt 0.560440 1.000000
vt 0.560440 0.000000
vt 0.582418 1.000000
vt 0.582418 0.000000
vt 0.593407 1.000000
vt 0.593407 0.000000
vt 0.604396 1.000000
vt 0.604396 0.000000
vt 0.615385 1.000000
vt 0.626374 1.000000
vt 0.626374 0.000000
vt 0.637363 1.000000
vt 0.637363 0.000000
vt 0.648352 1.000000
vt 0.648352 0.000000
vt 0.659341 1.000000
vt 0.659341 0.000000
vt 0.670330 1.000000
vt 0.670330 0.000000
vt 0.681319 1.000000
vt 0.681319 0.000000
vt 0.692308 1.000000
vt 0.703297 1.000000
vt 0.703297 0.000000
vt 0.725275 1.000000
vt 0.725275 0.000000
vt 0.736264 1.000000
vt 0.736264 0.000000
vt 0.747253 1.000000
vt 0.747253 0.000000
vt 0.758242 1.000000
vt 0.758242 0.000000
vt 0.769231 1.000000
vt 0.780220 1.000000
vt 0.780220 0.000000
vt 0.791209 1.000000
vt 0.791209 0.000000
vt 0.802198 1.000000
vt 0.802198 0.000000
vt 0.813187 1.000000
vt 0.813187 0.000000
vt 0.824176 1.000000
vt 0.824176 0.000000
vt 0.835165 1.000000
vt 0.835165 0.000000
vt 0.846154 1.000000
vt 0.868132 1.000000
vt 0.868132 0.000000
vt 0.879121 1.000000
vt 0.879121 0.000000
vt 0.890110 1.000000
vt 0.890110 0.000000
vt 0.901099 1.000000
vt 0.901099 0.000000
vt 0.912088 1.000000
vt 0.912088 0.000000
vt 0.923077 1.000000
vt 0.934066 1.000000
vt 0.934066 0.000000
vt 0.945055 1.000000
vt 0.945055 0.000000
vt 0.956044 1.000000
vt 0.956044 0.000000
vt 0.967033 1.000000
vt 0.967033 0.000000
vt 0.978022 1.000000
vt 0.978022 0.000000
vt 0.989011 1.000000
vt 0.989011 0.000000
vt 0.037037 1.000000
vt 0.037037 0.000000
vt 0.074074 1.000000
vt 0.074074 0.000000
vt 0.111111 1.000000
vt 0.148148 1.000000
vt 0.148148 0.000000
vt 0.185185 1.000000
vt 0.185185 0.000000
vt 0.222222 1.000000
vt 0.259259 1.000000
vt 0.259259 0.000000
vt 0.296296 1.000000
vt 0.296296 0.000000
vt 0.370370 1.000000
vt 0.370370 0.000000
vt 0.407407 1.000000
vt 0.407407 0.000000
vt 0.444444 1.000000
vt 0.481481 1.000000
vt 0.481481 0.000000
vt 0.518519 1.000000
vt 0.518519 0.000000
vt 0.555556 1.000000
vt 0.592593 1.000000
vt 0.592593 0.000000
vt 0.629630 1.000000
vt 0.629630 0.000000
vt 0.703704 1.000000
vt 0.703704 0.000000
vt 0.740741 1.000000
vt 0.740741 0.000000
vt 0.777778 1.000000
vt 0.814815 1.000000
vt 0.814815 0.000000
vt 0.851852 1.000000
vt 0.851852 0.000000
vt 0.888889 1.000000
vt 0.925926 1.000000
vt 0.925926 0.000000
vt 0.962963 1.000000
vt 0.962963 0.000000
vt 0.125000 1.000000
vt 0.375000 1.000000
vt 0.625000 1.000000
vt 0.875000 1.000000
vt 0.019608 1.000000
vt 0.019608 0.000000
vt 0.039216 1.000000
vt 0.039216 0.000000
vt 0.058824 1.000000
vt 0.058824 0.000000
vt 0.078431 1.000000
vt 0.078431 0.000000
vt 0.098039 1.000000
vt 0.098039 0.000000
vt 0.117647 1.000000
vt 0.117647 0.000000
vt 0.137255 1.000000
vt 0.137255 0.000000
vt 0.156863 1.000000
vt 0.156863 0.000000
vt 0.176471 1.000000
vt 0.176471 0.000000
vt 0.196078 1.000000
vt 0.196078 0.000000
vt 0.215686 1.000000
vt 0.215686 0.000000
vt 0.235294 1.000000
vt 0.235294 0.000000
vt 0.254902 1.000000
vt 0.254902 0.000000
vt 0.274510 1.000000
vt 0.274510 0.000000
vt 0.294118 1.000000
vt 0.294118 0.000000
vt 0.313726 1.000000
vt 0.313726 0.000000
vt 0.352941 1.000000
vt 0.352941 0.000000
vt 0.372549 1.000000
vt 0.372549 0.000000
vt 0.392157 1.000000
vt 0.392157 0.000000
vt 0.411765 1.000000
vt 0.411765 0.000000
vt 0.431373 1.000000
vt 0.431373 0.000000
vt 0.450980 1.000000
vt 0.450980 0.000000
vt 0.470588 1.000000
vt 0.470588 0.000000
vt 0.490196 1.000000
vt 0.490196 0.000000
vt 0.509804 1.000000
vt 0.509804 0.000000
vt 0.529412 1.000000
vt 0.529412 0.000000
vt 0.549020 1.000000
vt 0.549020 0.000000
vt 0.568627 1.000000
vt 0.568627 0.000000
vt 0.588235 1.000000
vt 0.588235 0.000000
vt 0.607843 1.000000
vt 0.607843 0.000000
vt 0.627451 1.000000
vt 0.627451 0.000000
vt 0.647059 1.000000
vt 0.647059 0.000000
vt 0.686275 1.000000
vt 0.686275 0.000000
vt 0.705882 1.000000
vt 0.705882 0.000000
vt 0.725490 1.000000
vt 0.725490 0.000000
vt 0.745098 1.000000
vt 0.745098 0.000000
vt 0.764706 1.000000
vt 0.764706 0.000000
vt 0.784314 1.000000
vt 0.784314 0.000000
vt 0.803922 1.000000
vt 0.803922 0.000000
vt 0.823529 1.000000
vt 0.823529 0.000000
vt 0.843137 1.000000
vt 0.843137 0.000000
vt 0.862745 1.000000
vt 0.862745 0.000000
vt 0.882353 1.000000
vt 0.882353 0.000000
vt 0.901961 1.000000
vt 0.901961 0.000000
vt 0.921569 1.000000
vt 0.921569 0.000000
vt 0.941176 1.000000
vt 0.941176 0.000000
vt 0.960784 1.000000
vt 0.960784 0.000000
vt 0.980392 1.000000
vt 0.980392 0.000000
s 0
usemtl Material.001
f 283/227/2 274/228/2 284/229/2
f 274/228/2 285/230/2 284/229/2
f 274/228/2 273/231/2 285/230/2
f 283/227/2 275/232/2 274/228/2
f 283/227/2 276/233/2 275/232/2
f 283/227/2 279/234/2 276/233/2
f 279/234/2 277/235/2 276/233/2
f 279/234/2 278/236/2 277/235/2
f 283/227/2 280/237/2 279/234/2
f 280/237/2 282/238/2 281/239/2
f 283/227/2 282/238/2 280/237/2
f 290/240/2 286/231/2 291/230/2
f 290/240/2 287/241/2 286/231/2
f 290/240/2 288/242/2 287/241/2
f 290/240/2 289/243/2 288/242/2
f 340/244/2 369/245/2 341/246/2
f 369/245/2 342/247/2 341/246/2
f 369/245/2 292/231/2 342/247/2
f 369/245/2 293/248/2 292/231/2
f 369/245/2 294/249/2 293/248/2
f 369/245/2 295/250/2 294/249/2
f 369/245/2 296/251/2 295/250/2
f 369/245/2 297/252/2 296/251/2
f 369/245/2 298/253/2 297/252/2
f 369/245/2 299/254/2 298/253/2
f 369/245/2 300/255/2 299/254/2
f 369/245/2 301/256/2 300/255/2
f 369/245/2 302/257/2 301/256/2
f 369/245/2 368/258/2 302/257/2
f 368/258/2 367/259/2 302/257/2
f 367/259/2 303/260/2 302/257/2
f 340/244/2 343/261/2 369/245/2
f 366/262/2 303/260/2 367/259/2
f 365/263/2 303/260/2 366/262/2
f 364/264/2 303/260/2 365/263/2
f 363/265/2 303/260/2 364/264/2
f 362/266/2 303/260/2 363/265/2
f 361/267/2 303/260/2 362/266/2
f 360/268/2 303/260/2 361/267/2
f 360/268/2 304/269/2 303/260/2
f 359/270/2 304/269/2 360/268/2
f 358/271/2 304/269/2 359/270/2
f 357/272/2 304/269/2 358/271/2
f 356/273/2 304/269/2 357/272/2
f 356/273/2 305/274/2 304/269/2
f 355/275/2 305/274/2 356/273/2
f 354/276/2 305/274/2 355/275/2
f 353/277/2 305/274/2 354/276/2
f 353/277/2 306/278/2 305/274/2
f 352/279/2 306/278/2 353/277/2
f 351/280/2 306/278/2 352/279/2
f 350/281/2 306/278/2 351/280/2
f 350/281/2 307/282/2 306/278/2
f 349/283/2 307/282/2 350/281/2
f 348/284/2 307/282/2 349/283/2
f 347/285/2 307/282/2 348/284/2
f 346/286/2 307/282/2 347/285/2
f 345/287/2 307/282/2 346/286/2
f 344/234/2 307/282/2 345/287/2
f 340/244/2 396/230/2 343/261/2
f 396/230/2 344/234/2 343/261/2
f 396/230/2 307/282/2 344/234/2
f 396/230/2 308/288/2 307/282/2
f 396/230/2 309/289/2 308/288/2
f 396/230/2 310/290/2 309/289/2
f 396/230/2 311/291/2 310/290/2
f 396/230/2 315/292/2 311/291/2
f 315/292/2 312/293/2 311/291/2
f 315/292/2 313/294/2 312/293/2
f 315/292/2 314/295/2 313/294/2
f 396/230/2 316/296/2 315/292/2
f 396/230/2 317/297/2 316/296/2
f 396/230/2 318/233/2 317/297/2
f 396/230/2 319/298/2 318/233/2
f 396/230/2 320/299/2 319/298/2
f 396/230/2 321/300/2 320/299/2
f 396/230/2 322/301/2 321/300/2
f 396/230/2 395/302/2 322/301/2
f 395/302/2 323/303/2 322/301/2
f 340/244/2 370/238/2 396/230/2
f 394/304/2 323/303/2 395/302/2
f 393/305/2 323/303/2 394/304/2
f 392/306/2 323/303/2 393/305/2
f 391/307/2 323/303/2 392/306/2
f 390/308/2 323/303/2 391/307/2
f 389/309/2 323/303/2 390/308/2
f 389/309/2 324/310/2 323/303/2
f 388/311/2 324/310/2 389/309/2
f 387/312/2 324/310/2 388/311/2
f 386/313/2 324/310/2 387/312/2
f 386/313/2 325/314/2 324/310/2
f 385/315/2 325/314/2 386/313/2
f 384/316/2 325/314/2 385/315/2
f 383/317/2 325/314/2 384/316/2
f 383/317/2 326/318/2 325/314/2
f 382/319/2 326/318/2 383/317/2
f 381/320/2 326/318/2 382/319/2
f 380/321/2 326/318/2 381/320/2
f 380/321/2 327/322/2 326/318/2
f 379/323/2 327/322/2 380/321/2
f 378/324/2 327/322/2 379/323/2
f 377/325/2 327/322/2 378/324/2
f 376/326/2 327/322/2 377/325/2
f 376/326/2 328/327/2 327/322/2
f 375/328/2 328/327/2 376/326/2
f 374/329/2 328/327/2 375/328/2
f 373/330/2 328/327/2 374/329/2
f 372/331/2 328/327/2 373/330/2
f 371/332/2 328/327/2 372/331/2
f 340/244/2 371/332/2 370/238/2
f 340/244/2 328/327/2 371/332/2
f 340/244/2 329/333/2 328/327/2
f 340/244/2 330/334/2 329/333/2
f 340/244/2 331/335/2 330/334/2
f 340/244/2 332/336/2 331/335/2
f 340/244/2 333/337/2 332/336/2
f 340/244/2 334/338/2 333/337/2
f 340/244/2 335/339/2 334/338/2
f 340/244/2 336/340/2 335/339/2
f 340/244/2 337/341/2 336/340/2
f 340/244/2 338/342/2 337/341/2
f 340/244/2 339/343/2 338/342/2
f 400/344/2 397/231/2 401/242/2
f 397/231/2 402/234/2 401/242/2
f 397/231/2 403/243/2 402/234/2
f 400/344/2 398/345/2 397/231/2
f 399/241/2 403/243/2 397/231/2
f 400/344/2 399/241/2 398/345/2
f 400/344/2 406/346/2 399/241/2
f 406/346/2 405/240/2 399/241/2
f 405/240/2 403/243/2 399/241/2
f 400/344/2 407/230/2 406/346/2
f 404/347/2 403/243/2 405/240/2
f 496/348/2 525/230/2 497/349/2
f 525/230/2 498/331/2 497/349/2
f 525/230/2 408/231/2 498/331/2
f 525/230/2 409/350/2 408/231/2
f 525/230/2 410/351/2 409/350/2
f 525/230/2 411/352/2 410/351/2
f 525/230/2 412/353/2 411/352/2
f 525/230/2 413/354/2 412/353/2
f 525/230/2 414/355/2 413/354/2
f 525/230/2 415/356/2 414/355/2
f 525/230/2 416/357/2 415/356/2
f 525/230/2 417/255/2 416/357/2
f 525/230/2 524/358/2 417/255/2
f 524/358/2 418/359/2 417/255/2
f 496/348/2 499/360/2 525/230/2
f 523/361/2 418/359/2 524/358/2
f 522/362/2 418/359/2 523/361/2
f 521/363/2 418/359/2 522/362/2
f 520/364/2 418/359/2 521/363/2
f 519/365/2 418/359/2 520/364/2
f 518/366/2 418/359/2 519/365/2
f 518/366/2 419/367/2 418/359/2
f 517/368/2 419/367/2 518/366/2
f 516/311/2 419/367/2 517/368/2
f 515/369/2 419/367/2 516/311/2
f 515/369/2 420/370/2 419/367/2
f 514/371/2 420/370/2 515/369/2
f 513/372/2 420/370/2 514/371/2
f 512/373/2 420/370/2 513/372/2
f 512/373/2 421/374/2 420/370/2
f 511/375/2 421/374/2 512/373/2
f 510/376/2 421/374/2 511/375/2
f 510/376/2 422/377/2 421/374/2
f 509/378/2 422/377/2 510/376/2
f 508/379/2 422/377/2 509/378/2
f 508/379/2 423/380/2 422/377/2
f 507/321/2 423/380/2 508/379/2
f 506/381/2 423/380/2 507/321/2
f 505/382/2 423/380/2 506/381/2
f 504/383/2 423/380/2 505/382/2
f 504/383/2 424/384/2 423/380/2
f 503/385/2 424/384/2 504/383/2
f 502/386/2 424/384/2 503/385/2
f 501/387/2 424/384/2 502/386/2
f 500/388/2 424/384/2 501/387/2
f 496/348/2 494/389/2 499/360/2
f 494/389/2 500/388/2 499/360/2
f 494/389/2 424/384/2 500/388/2
f 494/389/2 425/390/2 424/384/2
f 494/389/2 426/288/2 425/390/2
f 494/389/2 427/391/2 426/288/2
f 494/389/2 428/392/2 427/391/2
f 494/389/2 429/393/2 428/392/2
f 494/389/2 431/394/2 429/393/2
f 431/394/2 430/395/2 429/393/2
f 494/389/2 432/396/2 431/394/2
f 494/389/2 433/397/2 432/396/2
f 494/389/2 434/398/2 433/397/2
f 494/389/2 435/296/2 434/398/2
f 494/389/2 436/399/2 435/296/2
f 494/389/2 437/400/2 436/399/2
f 494/389/2 438/401/2 437/400/2
f 494/389/2 493/402/2 438/401/2
f 493/402/2 439/403/2 438/401/2
f 496/348/2 495/404/2 494/389/2
f 492/405/2 439/403/2 493/402/2
f 491/406/2 439/403/2 492/405/2
f 490/407/2 439/403/2 491/406/2
f 489/264/2 439/403/2 490/407/2
f 488/408/2 439/403/2 489/264/2
f 487/409/2 439/403/2 488/408/2
f 486/239/2 439/403/2 487/409/2
f 485/410/2 439/403/2 486/239/2
f 485/410/2 440/411/2 439/403/2
f 484/412/2 440/411/2 485/410/2
f 483/413/2 440/411/2 484/412/2
f 482/414/2 440/411/2 483/413/2
f 481/415/2 440/411/2 482/414/2
f 481/415/2 441/416/2 440/411/2
f 480/273/2 441/416/2 481/415/2
f 479/417/2 441/416/2 480/273/2
f 478/418/2 441/416/2 479/417/2
f 478/418/2 442/419/2 441/416/2
f 477/420/2 442/419/2 478/418/2
f 476/421/2 442/419/2 477/420/2
f 475/422/2 442/419/2 476/421/2
f 474/423/2 442/419/2 475/422/2
f 474/423/2 443/424/2 442/419/2
f 473/425/2 443/424/2 474/423/2
f 472/426/2 443/424/2 473/425/2
f 471/284/2 443/424/2 472/426/2
f 470/427/2 443/424/2 471/284/2
f 470/427/2 444/310/2 443/424/2
f 469/428/2 444/310/2 470/427/2
f 468/429/2 444/310/2 469/428/2
f 467/430/2 444/310/2 468/429/2
f 466/431/2 444/310/2 467/430/2
f 465/432/2 444/310/2 466/431/2
f 465/432/2 445/433/2 444/310/2
f 465/432/2 446/434/2 445/433/2
f 464/435/2 446/434/2 465/432/2
f 464/435/2 447/235/2 446/434/2
f 463/436/2 447/235/2 464/435/2
f 463/436/2 448/437/2 447/235/2
f 462/244/2 448/437/2 463/436/2
f 462/244/2 449/438/2 448/437/2
f 462/244/2 450/439/2 449/438/2
f 461/440/2 450/439/2 462/244/2
f 461/440/2 451/441/2 450/439/2
f 460/442/2 451/441/2 461/440/2
f 460/442/2 452/443/2 451/441/2
f 460/442/2 453/336/2 452/443/2
f 459/444/2 453/336/2 460/442/2
f 459/444/2 454/445/2 453/336/2
f 458/446/2 454/445/2 459/444/2
f 458/446/2 455/447/2 454/445/2
f 457/448/2 455/447/2 458/446/2
f 457/448/2 456/449/2 455/447/2
f 528/235/2 530/239/2 529/234/2
f 528/235/2 531/227/2 530/239/2
f 531/227/2 526/231/2 532/230/2
f 531/227/2 527/232/2 526/231/2
f 528/235/2 527/232/2 531/227/2
f 534/235/2 536/230/2 535/239/2
f 534/235/2 533/231/2 536/230/2
f 541/240/2 537/231/2 542/230/2
f 541/240/2 538/241/2 537/231/2
f 541/240/2 539/242/2 538/241/2
f 541/240/2 540/243/2 539/242/2
f 553/227/3 554/229/3 544/228/3
f 544/228/3 554/229/3 555/230/3
f 544/228/3 555/230/3 543/231/3
f 553/227/3 544/228/3 545/232/3
f 553/227/3 545/232/3 546/233/3
f 553/227/3 546/233/3 549/234/3
f 549/234/3 546/233/3 547/235/3
f 549/234/3 547/235/3 548/236/3
f 553/227/3 549/234/3 550/237/3
f 550/237/3 551/239/3 552/238/3
f 553/227/3 550/237/3 552/238/3
f 560/240/3 561/230/3 556/231/3
f 560/240/3 556/231/3 557/241/3
f 560/240/3 557/241/3 558/242/3
f 560/240/3 558/242/3 559/243/3
f 610/244/3 611/246/3 639/245/3
f 639/245/3 611/246/3 612/247/3
f 639/245/3 612/247/3 562/231/3
f 639/245/3 562/231/3 563/248/3
f 639/245/3 563/248/3 564/249/3
f 639/245/3 564/249/3 565/250/3
f 639/245/3 565/250/3 566/251/3
f 639/245/3 566/251/3 567/252/3
f 639/245/3 567/252/3 568/253/3
f 639/245/3 568/253/3 569/254/3
f 639/245/3 569/254/3 570/255/3
f 639/245/3 570/255/3 571/256/3
f 639/245/3 571/256/3 572/257/3
f 639/245/3 572/257/3 638/258/3
f 638/258/3 572/257/3 637/259/3
f 637/259/3 572/257/3 573/260/3
f 610/244/3 639/245/3 613/261/3
f 636/262/3 637/259/3 573/260/3
f 635/263/3 636/262/3 573/260/3
f 634/264/3 635/263/3 573/260/3
f 633/265/3 634/264/3 573/260/3
f 632/266/3 633/265/3 573/260/3
f 631/267/3 632/266/3 573/260/3
f 630/268/3 631/267/3 573/260/3
f 630/268/3 573/260/3 574/269/3
f 629/270/3 630/268/3 574/269/3
f 628/271/3 629/270/3 574/269/3
f 627/272/3 628/271/3 574/269/3
f 626/273/3 627/272/3 574/269/3
f 626/273/3 574/269/3 575/274/3
f 625/275/3 626/273/3 575/274/3
f 624/276/3 625/275/3 575/274/3
f 623/277/3 624/276/3 575/274/3
f 623/277/3 575/274/3 576/278/3
f 622/279/3 623/277/3 576/278/3
f 621/280/3 622/279/3 576/278/3
f 620/281/3 621/280/3 576/278/3
f 620/281/3 576/278/3 577/282/3
f 619/283/3 620/281/3 577/282/3
f 618/284/3 619/283/3 577/282/3
f 617/285/3 618/284/3 577/282/3
f 616/286/3 617/285/3 577/282/3
f 615/287/3 616/286/3 577/282/3
f 614/234/3 615/287/3 577/282/3
f 610/244/3 613/261/3 666/230/3
f 666/230/3 613/261/3 614/234/3
f 666/230/3 614/234/3 577/282/3
f 666/230/3 577/282/3 578/288/3
f 666/230/3 578/288/3 579/289/3
f 666/230/3 579/289/3 580/290/3
f 666/230/3 580/290/3 581/291/3
f 666/230/3 581/291/3 585/292/3
f 585/292/3 581/291/3 582/293/3
f 585/292/3 582/293/3 583/294/3
f 585/292/3 583/294/3 584/295/3
f 666/230/3 585/292/3 586/296/3
f 666/230/3 586/296/3 587/297/3
f 666/230/3 587/297/3 588/233/3
f 666/230/3 588/233/3 589/298/3
f 666/230/3 589/298/3 590/299/3
f 666/230/3 590/299/3 591/300/3
f 666/230/3 591/300/3 592/301/3
f 666/230/3 592/301/3 665/302/3
f 665/302/3 592/301/3 593/303/3
f 610/244/3 666/230/3 640/238/3
f 664/304/3 665/302/3 593/303/3
f 663/305/3 664/304/3 593/303/3
f 662/306/3 663/305/3 593/303/3
f 661/307/3 662/306/3 593/303/3
f 660/308/3 661/307/3 593/303/3
f 659/309/3 660/308/3 593/303/3
f 659/309/3 593/303/3 594/310/3
f 658/311/3 659/309/3 594/310/3
f 657/312/3 658/311/3 594/310/3
f 656/313/3 657/312/3 594/310/3
f 656/313/3 594/310/3 595/314/3
f 655/315/3 656/313/3 595/314/3
f 654/316/3 655/315/3 595/314/3
f 653/317/3 654/316/3 595/314/3
f 653/317/3 595/314/3 596/318/3
f 652/319/3 653/317/3 596/318/3
f 651/320/3 652/319/3 596/318/3
f 650/321/3 651/320/3 596/318/3
f 650/321/3 596/318/3 597/322/3
f 649/323/3 650/321/3 597/322/3
f 648/324/3 649/323/3 597/322/3
f 647/325/3 648/324/3 597/322/3
f 646/326/3 647/325/3 597/322/3
f 646/326/3 597/322/3 598/327/3
f 645/328/3 646/326/3 598/327/3
f 644/329/3 645/328/3 598/327/3
f 643/330/3 644/329/3 598/327/3
f 642/331/3 643/330/3 598/327/3
f 641/332/3 642/331/3 598/327/3
f 610/244/3 640/238/3 641/332/3
f 610/244/3 641/332/3 598/327/3
f 610/244/3 598/327/3 599/333/3
f 610/244/3 599/333/3 600/334/3
f 610/244/3 600/334/3 601/335/3
f 610/244/3 601/335/3 602/336/3
f 610/244/3 602/336/3 603/337/3
f 610/244/3 603/337/3 604/338/3
f 610/244/3 604/338/3 605/339/3
f 610/244/3 605/339/3 606/340/3
f 610/244/3 606/340/3 607/341/3
f 610/244/3 607/341/3 608/342/3
f 610/244/3 608/342/3 609/343/3
f 670/344/3 671/242/3 667/231/3
f 667/231/3 671/242/3 672/234/3
f 667/231/3 672/234/3 673/243/3
f 670/344/3 667/231/3 668/345/3
f 669/241/3 667/231/3 673/243/3
f 670/344/3 668/345/3 669/241/3
f 670/344/3 669/241/3 676/346/3
f 676/346/3 669/241/3 675/240/3
f 675/240/3 669/241/3 673/243/3
f 670/344/3 676/346/3 677/230/3
f 674/347/3 675/240/3 673/243/3
f 766/348/3 767/349/3 795/230/3
f 795/230/3 767/349/3 768/331/3
f 795/230/3 768/331/3 678/231/3
f 795/230/3 678/231/3 679/350/3
f 795/230/3 679/350/3 680/351/3
f 795/230/3 680/351/3 681/352/3
f 795/230/3 681/352/3 682/353/3
f 795/230/3 682/353/3 683/354/3
f 795/230/3 683/354/3 684/355/3
f 795/230/3 684/355/3 685/356/3
f 795/230/3 685/356/3 686/357/3
f 795/230/3 686/357/3 687/255/3
f 795/230/3 687/255/3 794/358/3
f 794/358/3 687/255/3 688/359/3
f 766/348/3 795/230/3 769/360/3
f 793/361/3 794/358/3 688/359/3
f 792/362/3 793/361/3 688/359/3
f 791/363/3 792/362/3 688/359/3
f 790/364/3 791/363/3 688/359/3
f 789/365/3 790/364/3 688/359/3
f 788/366/3 789/365/3 688/359/3
f 788/366/3 688/359/3 689/367/3
f 787/368/3 788/366/3 689/367/3
f 786/311/3 787/368/3 689/367/3
f 785/369/3 786/311/3 689/367/3
f 785/369/3 689/367/3 690/370/3
f 784/371/3 785/369/3 690/370/3
f 783/372/3 784/371/3 690/370/3
f 782/373/3 783/372/3 690/370/3
f 782/373/3 690/370/3 691/374/3
f 781/375/3 782/373/3 691/374/3
f 780/376/3 781/375/3 691/374/3
f 780/376/3 691/374/3 692/377/3
f 779/378/3 780/376/3 692/377/3
f 778/379/3 779/378/3 692/377/3
f 778/379/3 692/377/3 693/380/3
f 777/321/3 778/379/3 693/380/3
f 776/381/3 777/321/3 693/380/3
f 775/382/3 776/381/3 693/380/3
f 774/383/3 775/382/3 693/380/3
f 774/383/3 693/380/3 694/384/3
f 773/385/3 774/383/3 694/384/3
f 772/386/3 773/385/3 694/384/3
f 771/387/3 772/386/3 694/384/3
f 770/388/3 771/387/3 694/384/3
f 766/348/3 769/360/3 764/389/3
f 764/389/3 769/360/3 770/388/3
f 764/389/3 770/388/3 694/384/3
f 764/389/3 694/384/3 695/390/3
f 764/389/3 695/390/3 696/288/3
f 764/389/3 696/288/3 697/391/3
f 764/389/3 697/391/3 698/392/3
f 764/389/3 698/392/3 699/393/3
f 764/389/3 699/393/3 701/394/3
f 701/394/3 699/393/3 700/395/3
f 764/389/3 701/394/3 702/396/3
f 764/389/3 702/396/3 703/397/3
f 764/389/3 703/397/3 704/398/3
f 764/389/3 704/398/3 705/296/3
f 764/389/3 705/296/3 706/399/3
f 764/389/3 706/399/3 707/400/3
f 764/389/3 707/400/3 708/401/3
f 764/389/3 708/401/3 763/402/3
f 763/402/3 708/401/3 709/403/3
f 766/348/3 764/389/3 765/404/3
f 762/405/3 763/402/3 709/403/3
f 761/406/3 762/405/3 709/403/3
f 760/407/3 761/406/3 709/403/3
f 759/264/3 760/407/3 709/403/3
f 758/408/3 759/264/3 709/403/3
f 757/409/3 758/408/3 709/403/3
f 756/239/3 757/409/3 709/403/3
f 755/410/3 756/239/3 709/403/3
f 755/410/3 709/403/3 710/411/3
f 754/412/3 755/410/3 710/411/3
f 753/413/3 754/412/3 710/411/3
f 752/414/3 753/413/3 710/411/3
f 751/415/3 752/414/3 710/411/3
f 751/415/3 710/411/3 711/416/3
f 750/273/3 751/415/3 711/416/3
f 749/417/3 750/273/3 711/416/3
f 748/418/3 749/417/3 711/416/3
f 748/418/3 711/416/3 712/419/3
f 747/420/3 748/418/3 712/419/3
f 746/421/3 747/420/3 712/419/3
f 745/422/3 746/421/3 712/419/3
f 744/423/3 745/422/3 712/419/3
f 744/423/3 712/419/3 713/424/3
f 743/425/3 744/423/3 713/424/3
f 742/426/3 743/425/3 713/424/3
f 741/284/3 742/426/3 713/424/3
f 740/427/3 741/284/3 713/424/3
f 740/427/3 713/424/3 714/310/3
f 739/428/3 740/427/3 714/310/3
f 738/429/3 739/428/3 714/310/3
f 737/430/3 738/429/3 714/310/3
f 736/431/3 737/430/3 714/310/3
f 735/432/3 736/431/3 714/310/3
f 735/432/3 714/310/3 715/433/3
f 735/432/3 715/433/3 716/434/3
f 734/435/3 735/432/3 716/434/3
f 734/435/3 716/434/3 717/235/3
f 733/436/3 734/435/3 717/235/3
f 733/436/3 717/235/3 718/437/3
f 732/244/3 733/436/3 718/437/3
f 732/244/3 718/437/3 719/438/3
f 732/244/3 719/438/3 720/439/3
f 731/440/3 732/244/3 720/439/3
f 731/440/3 720/439/3 721/441/3
f 730/442/3 731/440/3 721/441/3
f 730/442/3 721/441/3 722/443/3
f 730/442/3 722/443/3 723/336/3
f 729/444/3 730/442/3 723/336/3
f 729/444/3 723/336/3 724/445/3
f 728/446/3 729/444/3 724/445/3
f 728/446/3 724/445/3 725/447/3
f 727/448/3 728/446/3 725/447/3
f 727/448/3 725/447/3 726/449/3
f 798/235/3 799/234/3 800/239/3
f 798/235/3 800/239/3 801/227/3
f 801/227/3 802/230/3 796/231/3
f 801/227/3 796/231/3 797/232/3
f 798/235/3 801/227/3 797/232/3
f 804/235/3 805/239/3 806/230/3
f 804/235/3 806/230/3 803/231/3
f 811/240/3 812/230/3 807/231/3
f 811/240/3 807/231/3 808/241/3
f 811/240/3 808/241/3 809/242/3
f 811/240/3 809/242/3 810/243/3
s 1
f 814/450/4 816/451/4 815/232/4 813/231/4
f 816/451/4 818/452/4 817/235/4 815/232/4
f 818/452/4 820/453/5 819/234/5 817/235/4
f 820/453/5 822/454/6 821/239/6 819/234/5
f 822/454/6 824/455/7 823/227/7 821/239/6
f 824/455/7 814/456/4 813/230/4 823/227/7
f 826/450/5 828/457/6 827/233/6 825/231/5
f 828/457/6 830/453/7 829/234/7 827/233/6
f 830/453/7 832/458/4 831/238/4 829/234/7
f 832/458/4 826/456/5 825/230/5 831/238/4
f 834/450/8 836/459/9 835/460/9 833/231/8
f 836/459/9 838/461/10 837/462/10 835/460/9
f 838/461/10 840/463/11 839/464/11 837/462/10
f 840/463/11 842/465/12 841/466/12 839/464/11
f 842/465/12 844/467/13 843/468/13 841/466/12
f 844/467/13 846/469/14 845/470/14 843/468/13
f 846/469/14 834/456/8 833/230/8 845/470/14
f 848/450/15 850/471/16 849/472/16 847/231/15
f 850/471/16 852/473/17 851/474/17 849/472/16
f 852/473/17 854/475/18 853/476/18 851/474/17
f 854/475/18 856/477/19 855/478/19 853/476/18
f 856/477/19 858/479/20 857/480/20 855/478/19
f 858/479/20 860/481/21 859/482/21 857/480/20
f 860/481/21 862/483/22 861/255/22 859/482/21
f 862/483/22 864/484/23 863/485/23 861/255/22
f 864/484/23 866/486/24 865/487/24 863/485/23
f 866/486/24 868/488/25 867/489/25 865/487/24
f 868/488/25 870/490/26 869/491/26 867/489/25
f 870/490/26 872/492/27 871/493/27 869/491/26
f 872/492/27 874/459/28 873/460/28 871/493/27
f 874/459/28 876/494/29 875/288/29 873/460/28
f 876/494/29 878/495/30 877/496/30 875/288/29
f 878/495/30 880/497/31 879/498/31 877/496/30
f 880/497/31 882/499/32 881/500/32 879/498/31
f 882/499/32 884/501/33 883/502/33 881/500/32
f 884/501/33 886/503/34 885/504/34 883/502/33
f 886/503/34 888/505/35 887/506/35 885/504/34
f 888/505/35 890/507/36 889/296/36 887/506/35
f 890/507/36 892/508/37 891/509/37 889/296/36
f 892/508/37 894/510/38 893/511/38 891/509/37
f 894/510/38 896/512/39 895/513/39 893/511/38
f 896/512/39 898/514/40 897/515/40 895/513/39
f 898/514/40 900/461/41 899/462/41 897/515/40
f 900/461/41 902/516/42 901/517/42 899/462/41
f 902/516/42 904/518/43 903/310/43 901/517/42
f 904/518/43 906/519/44 905/520/44 903/310/43
f 906/519/44 908/521/45 907/522/45 905/520/44
f 908/521/45 910/523/46 909/524/46 907/522/45
f 910/523/46 912/525/47 911/526/47 909/524/46
f 912/525/47 914/527/48 913/528/48 911/526/47
f 914/527/48 916/529/49 915/530/49 913/528/48
f 916/529/49 918/531/50 917/336/50 915/530/49
f 918/531/50 920/532/51 919/533/51 917/336/50
f 920/532/51 922/534/52 921/535/52 919/533/51
f 922/534/52 924/536/53 923/537/53 921/535/52
f 924/536/53 926/463/54 925/464/54 923/537/53
f 926/463/54 928/538/55 927/539/55 925/464/54
f 928/538/55 930/540/56 929/541/56 927/539/55
f 930/540/56 932/542/57 931/244/57 929/541/56
f 932/542/57 934/543/58 933/544/58 931/244/57
f 934/543/58 936/545/59 935/546/59 933/544/58
f 936/545/59 938/547/60 937/548/60 935/546/59
f 938/547/60 940/549/61 939/550/61 937/548/60
f 940/549/61 942/551/62 941/552/62 939/550/61
f 942/551/62 944/553/63 943/554/63 941/552/62
f 944/553/63 946/555/64 945/284/64 943/554/63
f 946/555/64 948/556/65 947/557/65 945/284/64
f 948/556/65 950/558/66 949/559/66 947/557/65
f 950/558/66 952/465/67 951/466/67 949/559/66
f 952/465/67 954/560/68 953/561/68 951/466/67
f 954/560/68 956/562/69 955/563/69 953/561/68
f 956/562/69 958/564/70 957/565/70 955/563/69
f 958/564/70 960/566/71 959/273/71 957/565/70
f 960/566/71 962/567/72 961/568/72 959/273/71
f 962/567/72 964/569/73 963/570/73 961/568/72
f 964/569/73 966/571/74 965/572/74 963/570/73
f 966/571/74 968/573/75 967/574/75 965/572/74
f 968/573/75 970/575/76 969/576/76 967/574/75
f 970/575/76 972/577/77 971/578/77 969/576/76
f 972/577/77 974/579/78 973/264/78 971/578/77
f 974/579/78 976/580/79 975/581/79 973/264/78
f 976/580/79 978/467/80 977/468/80 975/581/79
f 978/467/80 980/582/81 979/583/81 977/468/80
f 980/582/81 982/584/82 981/585/82 979/583/81
f 982/584/82 984/586/83 983/587/83 981/585/82
f 984/586/83 986/588/84 985/589/84 983/587/83
f 986/588/84 988/590/85 987/331/85 985/589/84
f 988/590/85 990/591/86 989/592/86 987/331/85
f 990/591/86 992/593/87 991/594/87 989/592/86
f 992/593/87 994/595/88 993/596/88 991/594/87
f 994/595/88 996/597/89 995/598/89 993/596/88
f 996/597/89 998/599/90 997/600/90 995/598/89
f 998/599/90 1000/601/91 999/602/91 997/600/90
f 1000/601/91 1002/603/92 1001/321/92 999/602/91
f 1002/603/92 1004/469/93 1003/470/93 1001/321/92
f 1004/469/93 1006/604/94 1005/605/94 1003/470/93
f 1006/604/94 1008/606/95 1007/607/95 1005/605/94
f 1008/606/95 1010/608/96 1009/609/96 1007/607/95
f 1010/608/96 1012/610/97 1011/611/97 1009/609/96
f 1012/610/97 1014/612/98 1013/613/98 1011/611/97
f 1014/612/98 1016/614/99 1015/311/99 1013/613/98
f 1016/614/99 1018/615/100 1017/616/100 1015/311/99
f 1018/615/100 1020/617/5 1019/618/5 1017/616/100
f 1020/617/5 1022/619/5 1021/620/5 1019/618/5
f 1022/619/5 1024/621/6 1023/622/6 1021/620/5
f 1024/621/6 1026/623/7 1025/624/7 1023/622/6
f 1026/623/7 1028/625/101 1027/626/101 1025/624/7
f 1028/625/101 848/456/15 847/230/15 1027/626/101
f 1030/450/4 1032/627/102 1031/628/102 1029/231/4
f 1032/627/102 1034/629/103 1033/630/103 1031/628/102
f 1034/629/103 1036/631/104 1035/374/104 1033/630/103
f 1036/631/104 1038/632/105 1037/633/105 1035/374/104
f 1038/632/105 1040/634/106 1039/635/106 1037/633/105
f 1040/634/106 1042/636/107 1041/398/107 1039/635/106
f 1042/636/107 1044/637/108 1043/638/108 1041/398/107
f 1044/637/108 1046/639/109 1045/640/109 1043/638/108
f 1046/639/109 1048/452/110 1047/235/110 1045/640/109
f 1048/452/110 1050/641/111 1049/642/111 1047/235/110
f 1050/641/111 1052/643/112 1051/644/112 1049/642/111
f 1052/643/112 1054/645/113 1053/442/113 1051/644/112
f 1054/645/113 1056/646/114 1055/647/114 1053/442/113
f 1056/646/114 1058/648/115 1057/649/115 1055/647/114
f 1058/648/115 1060/650/116 1059/425/116 1057/649/115
f 1060/650/116 1062/651/117 1061/652/117 1059/425/116
f 1062/651/117 1064/653/118 1063/654/118 1061/652/117
f 1064/653/118 1066/454/119 1065/239/119 1063/654/118
f 1066/454/119 1068/655/120 1067/656/120 1065/239/119
f 1068/655/120 1070/657/121 1069/658/121 1067/656/120
f 1070/657/121 1072/659/122 1071/360/122 1069/658/121
f 1072/659/122 1074/660/123 1073/661/123 1071/360/122
f 1074/660/123 1076/662/124 1075/663/124 1073/661/123
f 1076/662/124 1078/664/125 1077/373/125 1075/663/124
f 1078/664/125 1080/665/126 1079/666/126 1077/373/125
f 1080/665/126 1082/667/5 1081/668/5 1079/666/126
f 1082/667/5 1030/456/4 1029/230/4 1081/668/5
f 1084/450/127 1086/452/128 1085/235/128 1083/231/127
f 1086/452/128 1088/454/129 1087/239/129 1085/235/128
f 1088/454/129 1084/456/127 1083/230/127 1087/239/129
f 1090/450/130 1092/669/131 1091/274/131 1089/231/130
f 1092/669/131 1094/457/132 1093/233/132 1091/274/131
f 1094/457/132 1096/670/133 1095/335/133 1093/233/132
f 1096/670/133 1098/453/134 1097/234/134 1095/335/133
f 1098/453/134 1100/671/134 1099/272/134 1097/234/134
f 1100/671/134 1102/458/135 1101/238/135 1099/272/134
f 1102/458/135 1104/672/135 1103/317/135 1101/238/135
f 1104/672/135 1090/456/130 1089/230/130 1103/317/135
f 1106/450/136 1108/673/137 1107/674/137 1105/231/136
f 1108/673/137 1110/675/138 1109/676/138 1107/674/137
f 1110/675/138 1112/677/139 1111/678/139 1109/676/138
f 1112/677/139 1114/679/140 1113/680/140 1111/678/139
f 1114/679/140 1116/681/141 1115/682/141 1113/680/140
f 1116/681/141 1118/683/142 1117/684/142 1115/682/141
f 1118/683/142 1120/685/143 1119/686/143 1117/684/142
f 1120/685/143 1122/687/144 1121/688/144 1119/686/143
f 1122/687/144 1124/689/145 1123/690/145 1121/688/144
f 1124/689/145 1126/691/146 1125/692/146 1123/690/145
f 1126/691/146 1128/693/147 1127/694/147 1125/692/146
f 1128/693/147 1130/695/148 1129/696/148 1127/694/147
f 1130/695/148 1132/697/149 1131/698/149 1129/696/148
f 1132/697/149 1134/699/150 1133/700/150 1131/698/149
f 1134/699/150 1136/701/151 1135/702/151 1133/700/150
f 1136/701/151 1138/703/152 1137/704/152 1135/702/151
f 1138/703/152 1140/452/153 1139/235/153 1137/704/152
f 1140/452/153 1142/705/154 1141/706/154 1139/235/153
f 1142/705/154 1144/707/155 1143/708/155 1141/706/154
f 1144/707/155 1146/709/156 1145/710/156 1143/708/155
f 1146/709/156 1148/711/157 1147/712/157 1145/710/156
f 1148/711/157 1150/713/158 1149/714/158 1147/712/157
f 1150/713/158 1152/715/159 1151/716/159 1149/714/158
f 1152/715/159 1154/717/160 1153/718/160 1151/716/159
f 1154/717/160 1156/719/161 1155/720/161 1153/718/160
f 1156/719/161 1158/721/162 1157/722/162 1155/720/161
f 1158/721/162 1160/723/163 1159/724/163 1157/722/162
f 1160/723/163 1162/725/164 1161/726/164 1159/724/163
f 1162/725/164 1164/727/165 1163/728/165 1161/726/164
f 1164/727/165 1166/729/166 1165/730/166 1163/728/165
f 1166/729/166 1168/731/167 1167/732/167 1165/730/166
f 1168/731/167 1170/733/168 1169/734/168 1167/732/167
f 1170/733/168 1172/735/169 1171/736/169 1169/734/168
f 1172/735/169 1174/454/170 1173/239/170 1171/736/169
f 1174/454/170 1176/737/171 1175/738/171 1173/239/170
f 1176/737/171 1178/739/172 1177/740/172 1175/738/171
f 1178/739/172 1180/741/173 1179/742/173 1177/740/172
f 1180/741/173 1182/743/174 1181/744/174 1179/742/173
f 1182/743/174 1184/745/175 1183/746/175 1181/744/174
f 1184/745/175 1186/747/176 1185/748/176 1183/746/175
f 1186/747/176 1188/749/177 1187/750/177 1185/748/176
f 1188/749/177 1190/751/178 1189/752/178 1187/750/177
f 1190/751/178 1192/753/179 1191/754/179 1189/752/178
f 1192/753/179 1194/755/180 1193/756/180 1191/754/179
f 1194/755/180 1196/757/181 1195/758/181 1193/756/180
f 1196/757/181 1198/759/182 1197/760/182 1195/758/181
f 1198/759/182 1200/761/183 1199/762/183 1197/760/182
f 1200/761/183 1202/763/6 1201/764/6 1199/762/183
f 1202/763/6 1204/765/7 1203/766/7 1201/764/6
f 1204/765/7 1206/767/184 1205/768/184 1203/766/7
f 1206/767/184 1106/456/136 1105/230/136 1205/768/184
f 1208/450/4 1210/627/185 1209/628/185 1207/231/4
f 1210/627/185 1212/629/186 1211/630/186 1209/628/185
f 1212/629/186 1214/631/187 1213/374/187 1211/630/186
f 1214/631/187 1216/632/188 1215/633/188 1213/374/187
f 1216/632/188 1218/634/189 1217/635/189 1215/633/188
f 1218/634/189 1220/636/190 1219/398/190 1217/635/189
f 1220/636/190 1222/637/191 1221/638/191 1219/398/190
f 1222/637/191 1224/639/192 1223/640/192 1221/638/191
f 1224/639/192 1226/452/193 1225/235/193 1223/640/192
f 1226/452/193 1228/641/194 1227/642/194 1225/235/193
f 1228/641/194 1230/643/195 1229/644/195 1227/642/194
f 1230/643/195 1232/645/196 1231/442/196 1229/644/195
f 1232/645/196 1234/646/197 1233/647/197 1231/442/196
f 1234/646/197 1236/648/198 1235/649/198 1233/647/197
f 1236/648/198 1238/650/199 1237/425/199 1235/649/198
f 1238/650/199 1240/651/200 1239/652/200 1237/425/199
f 1240/651/200 1242/653/201 1241/654/201 1239/652/200
f 1242/653/201 1244/454/202 1243/239/202 1241/654/201
f 1244/454/202 1246/655/203 1245/656/203 1243/239/202
f 1246/655/203 1248/657/204 1247/658/204 1245/656/203
f 1248/657/204 1250/659/205 1249/360/205 1247/658/204
f 1250/659/205 1252/660/206 1251/661/206 1249/360/205
f 1252/660/206 1254/662/207 1253/663/207 1251/661/206
f 1254/662/207 1256/664/208 1255/373/208 1253/663/207
f 1256/664/208 1258/665/209 1257/666/209 1255/373/208
f 1258/665/209 1260/667/5 1259/668/5 1257/666/209
f 1260/667/5 1208/456/4 1207/230/4 1259/668/5
f 1262/450/4 1264/627/185 1263/628/185 1261/231/4
f 1264/627/185 1266/629/186 1265/630/186 1263/628/185
f 1266/629/186 1268/631/187 1267/374/187 1265/630/186
f 1268/631/187 1270/632/188 1269/633/188 1267/374/187
f 1270/632/188 1272/634/189 1271/635/189 1269/633/188
f 1272/634/189 1274/636/190 1273/398/190 1271/635/189
f 1274/636/190 1276/637/191 1275/638/191 1273/398/190
f 1276/637/191 1278/639/192 1277/640/192 1275/638/191
f 1278/639/192 1280/452/193 1279/235/193 1277/640/192
f 1280/452/193 1282/641/194 1281/642/194 1279/235/193
f 1282/641/194 1284/643/195 1283/644/195 1281/642/194
f 1284/643/195 1286/645/196 1285/442/196 1283/644/195
f 1286/645/196 1288/646/197 1287/647/197 1285/442/196
f 1288/646/197 1290/648/198 1289/649/198 1287/647/197
f 1290/648/198 1292/650/199 1291/425/199 1289/649/198
f 1292/650/199 1294/651/200 1293/652/200 1291/425/199
f 1294/651/200 1296/653/201 1295/654/201 1293/652/200
f 1296/653/201 1298/454/202 1297/239/202 1295/654/201
f 1298/454/202 1300/655/203 1299/656/203 1297/239/202
f 1300/655/203 1302/657/204 1301/658/204 1299/656/203
f 1302/657/204 1304/659/205 1303/360/205 1301/658/204
f 1304/659/205 1306/660/206 1305/661/206 1303/360/205
f 1306/660/206 1308/662/207 1307/663/207 1305/661/206
f 1308/662/207 1310/664/208 1309/373/208 1307/663/207
f 1310/664/208 1312/665/209 1311/666/209 1309/373/208
f 1312/665/209 1314/667/5 1313/668/5 1311/666/209
f 1314/667/5 1262/456/4 1261/230/4 1313/668/5
f 1316/450/4 1318/451/4 1317/232/4 1315/231/4
f 1318/451/4 1320/452/4 1319/235/4 1317/232/4
f 1320/452/4 1322/453/5 1321/234/5 1319/235/4
f 1322/453/5 1324/454/6 1323/239/6 1321/234/5
f 1324/454/6 1326/455/7 1325/227/7 1323/239/6
f 1326/455/7 1316/456/4 1315/230/4 1325/227/7
f 1328/450/5 1330/483/5 1329/255/5 1327/231/5
f 1330/483/5 1332/494/210 1331/288/210 1329/255/5
f 1332/494/210 1334/507/4 1333/296/4 1331/288/210
f 1334/507/4 1336/518/4 1335/310/4 1333/296/4
f 1336/518/4 1338/531/211 1337/336/211 1335/310/4
f 1338/531/211 1340/542/211 1339/244/211 1337/336/211
f 1340/542/211 1342/555/212 1341/284/212 1339/244/211
f 1342/555/212 1344/566/212 1343/273/212 1341/284/212
f 1344/566/212 1346/579/5 1345/264/5 1343/273/212
f 1346/579/5 1348/590/6 1347/331/6 1345/264/5
f 1348/590/6 1350/603/7 1349/321/7 1347/331/6
f 1350/603/7 1352/614/4 1351/311/4 1349/321/7
f 1352/614/4 1328/456/5 1327/230/5 1351/311/4
