# Blender 4.3.2
# www.blender.org
mtllib opendoor.mtl
o door_door1_0
v 0.698066 1.171149 -1.066324
v 0.681682 0.555470 -0.897799
v 0.681682 0.944067 -0.897799
v 0.698066 -1.289934 -1.066324
v 0.644599 -0.861090 0.077469
v 0.577483 -0.861090 0.070945
v 0.581609 -0.861090 0.061748
v 0.566028 -0.744047 0.077518
v 0.566028 -0.884560 0.077518
v 0.577483 -0.861090 0.070945
v 0.581609 -0.861090 0.061748
v 0.578636 -0.884560 0.043888
v 0.578636 -0.744047 0.043888
v 0.644599 -0.744102 0.077469
v 0.645523 -0.744102 0.067962
v 0.581609 -0.744102 0.061748
v 0.645523 -0.744102 0.067962
v 0.645523 -0.861090 0.067962
v 0.581609 -0.861090 0.061748
v 0.582040 -0.884560 0.064343
v 0.566028 -0.884560 0.077518
v 0.562624 -0.884560 0.057062
v 0.645523 -0.744102 0.067962
v 0.644599 -0.744102 0.077469
v 0.644599 -0.861090 0.077469
v 0.578636 -0.884560 0.043888
v 0.644599 -0.861090 0.077469
v 0.644599 -0.744102 0.077469
v 0.577483 -0.744102 0.070945
v 0.559220 -0.884560 0.036609
v 0.543209 -0.884560 0.049784
v 0.546611 -0.884560 0.070238
v 0.577483 -0.744102 0.070945
v 0.546611 -0.744047 0.070238
v 0.566028 -0.744047 0.077518
v 0.543209 -0.744047 0.049784
v 0.578636 -0.744047 0.043888
v 0.559220 -0.744047 0.036609
v 0.582040 -0.884560 0.064343
v 0.582040 -0.884560 0.064343
v 0.581609 -0.861090 0.061748
v 0.581609 -0.744102 0.061748
v 0.581609 -0.744102 0.061748
v 0.645523 -0.861090 0.067962
v 0.645523 -0.861090 0.067962
v 0.644599 0.475234 0.077469
v 0.577483 0.475234 0.070945
v 0.581609 0.475234 0.061748
v 0.566028 0.592277 0.077518
v 0.566028 0.451764 0.077518
v 0.577483 0.475234 0.070945
v 0.581609 0.475234 0.061748
v 0.578636 0.451764 0.043888
v 0.578636 0.592277 0.043888
v 0.644599 0.592220 0.077469
v 0.645523 0.592220 0.067962
v 0.581609 0.592220 0.061748
v 0.645523 0.592220 0.067962
v 0.645523 0.475234 0.067962
v 0.581609 0.475234 0.061748
v 0.582040 0.451764 0.064343
v 0.566028 0.451764 0.077518
v 0.562624 0.451764 0.057063
v 0.645523 0.592220 0.067962
v 0.644599 0.592220 0.077469
v 0.644599 0.475234 0.077469
v 0.578636 0.451764 0.043888
v 0.644599 0.475234 0.077469
v 0.644599 0.592220 0.077469
v 0.577483 0.592220 0.070945
v 0.559220 0.451764 0.036609
v 0.543209 0.451764 0.049784
v 0.546611 0.451764 0.070238
v 0.577483 0.592220 0.070945
v 0.546611 0.592277 0.070238
v 0.566028 0.592277 0.077518
v 0.543209 0.592277 0.049784
v 0.578636 0.592277 0.043888
v 0.559220 0.592277 0.036609
v 0.582040 0.451764 0.064343
v 0.582040 0.451764 0.064343
v 0.581609 0.475234 0.061748
v 0.581609 0.592220 0.061748
v 0.581609 0.592220 0.061748
v 0.645523 0.475234 0.067962
v 0.645523 0.475234 0.067962
v 0.647383 1.171148 0.075052
v 0.663768 0.944066 -0.093472
v 0.741400 0.944067 -0.891993
v 0.757784 1.171149 -1.060517
v 0.757784 -1.289934 -1.060517
v 0.741400 0.555470 -0.891993
v 0.647383 -1.289934 0.075051
v 0.663768 0.555470 -0.093472
v 0.604049 0.555470 -0.099277
v 0.587666 -1.289934 0.069246
v 0.587666 1.171148 0.069246
v 0.604049 0.944066 -0.099277
v 0.587666 1.171148 0.069246
v 0.647383 1.171148 0.075052
v 0.757784 1.171149 -1.060517
v 0.698066 1.171149 -1.066324
v 0.587666 -1.289934 0.069246
v 0.647383 -1.289934 0.075051
v 0.647383 1.171148 0.075052
v 0.587666 1.171148 0.069246
v 0.698066 -1.289934 -1.066324
v 0.757784 -1.289934 -1.060517
v 0.647383 -1.289934 0.075051
v 0.587666 -1.289934 0.069246
v 0.698066 1.171149 -1.066324
v 0.757784 1.171149 -1.060517
v 0.757784 -1.289934 -1.060517
v 0.698066 -1.289934 -1.066324
v 0.559220 -0.884560 0.036609
v 0.559220 -0.744047 0.036609
v 0.578636 -0.744047 0.043888
v 0.578636 -0.884560 0.043888
v 0.566028 -0.884560 0.077518
v 0.566028 -0.744047 0.077518
v 0.546611 -0.744047 0.070238
v 0.546611 -0.884560 0.070238
v 0.543209 -0.884560 0.049784
v 0.543209 -0.744047 0.049784
v 0.559220 -0.744047 0.036609
v 0.559220 -0.884560 0.036609
v 0.546611 -0.884560 0.070238
v 0.546611 -0.744047 0.070238
v 0.543209 -0.744047 0.049784
v 0.543209 -0.884560 0.049784
v 0.709751 -0.099583 -1.058828
v 0.746274 -0.099583 -1.055277
v 0.747369 -0.099583 -1.066530
v 0.710845 -0.099583 -1.070080
v 0.710845 -0.277183 -1.070080
v 0.710845 -0.099583 -1.070080
v 0.747369 -0.099583 -1.066530
v 0.747369 -0.277183 -1.066530
v 0.559220 0.451764 0.036609
v 0.559220 0.592277 0.036609
v 0.578636 0.592277 0.043888
v 0.578636 0.451764 0.043888
v 0.566028 0.451764 0.077518
v 0.566028 0.592277 0.077518
v 0.546611 0.592277 0.070238
v 0.546611 0.451764 0.070238
v 0.543209 0.451764 0.049784
v 0.543209 0.592277 0.049784
v 0.559220 0.592277 0.036609
v 0.559220 0.451764 0.036609
v 0.546611 0.451764 0.070238
v 0.546611 0.592277 0.070238
v 0.543209 0.592277 0.049784
v 0.543209 0.451764 0.049784
v 0.747369 -0.277183 -1.066530
v 0.747369 -0.099583 -1.066530
v 0.746274 -0.099583 -1.055277
v 0.746274 -0.277183 -1.055277
v 0.746274 -0.277183 -1.055277
v 0.709751 -0.277183 -1.058828
v 0.710845 -0.277183 -1.070080
v 0.747369 -0.277183 -1.066530
v 0.617302 0.555470 -0.097989
v 0.604049 0.555470 -0.099277
v 0.604049 0.944066 -0.099277
v 0.617302 0.944066 -0.097989
v 0.694934 0.944067 -0.896511
v 0.694934 0.555470 -0.896511
v 0.617302 0.555470 -0.097989
v 0.617302 0.944066 -0.097989
v 0.694934 0.944067 -0.896511
v 0.681682 0.944067 -0.897799
v 0.681682 0.555470 -0.897799
v 0.694934 0.555470 -0.896511
v 0.617302 0.944066 -0.097989
v 0.604049 0.944066 -0.099277
v 0.681682 0.944067 -0.897799
v 0.694934 0.944067 -0.896511
v 0.694934 0.555470 -0.896511
v 0.681682 0.555470 -0.897799
v 0.604049 0.555470 -0.099277
v 0.617302 0.555470 -0.097989
v 0.651914 0.944066 -0.094624
v 0.663768 0.944066 -0.093472
v 0.663768 0.555470 -0.093472
v 0.651914 0.555470 -0.094624
v 0.729547 0.944067 -0.893146
v 0.651914 0.944066 -0.094624
v 0.651914 0.555470 -0.094624
v 0.729547 0.555470 -0.893146
v 0.729547 0.555470 -0.893146
v 0.741400 0.555470 -0.891993
v 0.741400 0.944067 -0.891993
v 0.729547 0.944067 -0.893146
v 0.729547 0.944067 -0.893146
v 0.741400 0.944067 -0.891993
v 0.663768 0.944066 -0.093472
v 0.651914 0.944066 -0.094624
v 0.651914 0.555470 -0.094624
v 0.663768 0.555470 -0.093472
v 0.741400 0.555470 -0.891993
v 0.729547 0.555470 -0.893146
v 0.709751 -0.277183 -1.058828
v 0.709751 -0.099583 -1.058828
v 0.710845 -0.099583 -1.070080
v 0.710845 -0.277183 -1.070080
v 0.749323 -0.063316 -0.995319
v 0.741634 -0.063316 -0.916235
v 0.760498 -0.063316 -0.914401
v 0.768185 -0.063316 -0.993486
v 0.749323 -0.063316 -0.995319
v 0.768185 -0.063316 -0.993486
v 0.768185 -0.327316 -0.993486
v 0.749323 -0.327316 -0.995319
v 0.768185 -0.327316 -0.993486
v 0.760498 -0.327316 -0.914401
v 0.741634 -0.327316 -0.916235
v 0.749323 -0.327316 -0.995319
v 0.760498 -0.063316 -0.914401
v 0.741634 -0.063316 -0.916235
v 0.741634 -0.327316 -0.916235
v 0.760498 -0.327316 -0.914401
v 0.768185 -0.063316 -0.993486
v 0.760498 -0.063316 -0.914401
v 0.760498 -0.327316 -0.914401
v 0.768185 -0.327316 -0.993486
v 0.668659 -0.063316 -0.923330
v 0.687521 -0.063316 -0.921496
v 0.695210 -0.063316 -1.000582
v 0.676348 -0.063316 -1.002415
v 0.676348 -0.327316 -1.002415
v 0.676348 -0.063316 -1.002415
v 0.695210 -0.063316 -1.000582
v 0.695210 -0.327316 -1.000582
v 0.687521 -0.327316 -0.921496
v 0.668659 -0.327316 -0.923330
v 0.676348 -0.327316 -1.002415
v 0.695210 -0.327316 -1.000582
v 0.687521 -0.327316 -0.921496
v 0.687521 -0.063316 -0.921496
v 0.668659 -0.063316 -0.923330
v 0.668659 -0.327316 -0.923330
v 0.668659 -0.327316 -0.923330
v 0.668659 -0.063316 -0.923330
v 0.676348 -0.063316 -1.002415
v 0.676348 -0.327316 -1.002415
vn -0.9953 -0.0000 -0.0968
vn -0.0000 -1.0000 -0.0000
vn 0.4978 -0.0000 0.8673
vn 0.5678 -0.0469 0.8218
vn 0.5300 -0.0068 0.8480
vn 0.9996 0.0160 -0.0217
vn 0.9864 -0.0000 -0.1642
vn -0.0000 1.0000 -0.0000
vn 0.0017 1.0000 0.0008
vn 0.0968 -0.0000 -0.9953
vn 0.9953 -0.0000 0.0968
vn -0.0968 -0.0000 0.9953
vn 0.1059 0.0005 0.9944
vn 0.0011 1.0000 -0.0001
vn 0.0019 1.0000 -0.0025
vn 0.0019 1.0000 -0.0051
vn 0.0013 1.0000 0.0005
vn 0.0021 1.0000 0.0022
vn 0.0003 1.0000 0.0014
vn 0.9282 -0.0116 0.3719
vn 0.9282 -0.0115 0.3719
vn 0.9996 0.0160 -0.0216
vn 0.0016 1.0000 0.0008
vn 0.0014 1.0000 -0.0000
vn 0.0019 1.0000 -0.0027
vn 0.0020 1.0000 -0.0052
vn 0.0013 1.0000 0.0006
vn 0.0004 1.0000 0.0015
vn 0.3511 -0.0000 -0.9363
vn -0.3511 -0.0000 0.9364
vn -0.6354 -0.0000 -0.7722
vn -0.9864 -0.0000 0.1641
vn 0.0967 -0.0000 -0.9953
vn -0.9953 -0.0000 -0.0967
vn 0.9953 -0.0000 0.0967
vt 0.255802 0.003537
vt 0.292114 0.135716
vt 0.292137 0.052295
vt 0.255660 0.531865
vt 0.680034 0.585508
vt 0.678773 0.608575
vt 0.676677 0.606154
vt 0.719840 0.614490
vt 0.671459 0.614281
vt 0.678449 0.650223
vt 0.670500 0.643525
vt 0.720170 0.643829
vt 0.488760 0.575696
vt 0.485518 0.574865
vt 0.491103 0.553071
vt 0.720237 0.673339
vt 0.678302 0.673358
vt 0.640369 0.721410
vt 0.644002 0.715118
vt 0.636737 0.715118
vt 0.720354 0.582725
vt 0.720360 0.586291
vt 0.633104 0.721410
vt 0.719796 0.609840
vt 0.629472 0.715118
vt 0.633104 0.708827
vt 0.640369 0.708827
vt 0.494625 0.552810
vt 0.498079 0.542558
vt 0.498158 0.549823
vt 0.491748 0.538994
vt 0.485576 0.549960
vt 0.485496 0.542695
vt 0.670512 0.607893
vt 0.670186 0.650791
vt 0.720227 0.650321
vt 0.678515 0.583843
vt 0.440352 0.715690
vt 0.417276 0.716788
vt 0.419682 0.718901
vt 0.411652 0.675680
vt 0.411518 0.724061
vt 0.375626 0.716817
vt 0.382268 0.724813
vt 0.382316 0.675142
vt 0.469068 0.575696
vt 0.465826 0.574865
vt 0.471412 0.553071
vt 0.352807 0.674866
vt 0.352491 0.716800
vt 0.614687 0.721410
vt 0.618320 0.715118
vt 0.611055 0.715118
vt 0.443420 0.675391
vt 0.439854 0.675359
vt 0.607422 0.721410
vt 0.416301 0.675757
vt 0.603790 0.715118
vt 0.607422 0.708827
vt 0.614687 0.708827
vt 0.474934 0.552810
vt 0.478388 0.542557
vt 0.478467 0.549822
vt 0.472057 0.538994
vt 0.465884 0.549959
vt 0.465805 0.542695
vt 0.417899 0.725052
vt 0.375000 0.725075
vt 0.375825 0.675040
vt 0.442006 0.717220
vt 0.248630 0.003602
vt 0.212265 0.052338
vt 0.040035 0.052276
vt 0.003704 0.003515
vt 0.003515 0.531843
vt 0.040005 0.135697
vt 0.248440 0.531931
vt 0.212235 0.135759
vt 0.464344 0.135762
vt 0.500586 0.531931
vt 0.500728 0.003603
vt 0.464367 0.052341
vt 0.776816 0.886006
vt 0.776766 0.873124
vt 0.531771 0.874009
vt 0.531820 0.886891
vt 0.531941 0.909593
vt 0.531892 0.896713
vt 0.003524 0.898616
vt 0.003571 0.911499
vt 0.776816 0.908707
vt 0.776774 0.895832
vt 0.003515 0.875925
vt 0.003556 0.888802
vt 0.670708 0.636130
vt 0.720126 0.636442
vt 0.719964 0.621766
vt 0.671191 0.621501
vt 0.670940 0.628787
vt 0.720058 0.629085
vt 0.588693 0.683147
vt 0.575837 0.683145
vt 0.575836 0.687106
vt 0.588692 0.687108
vt 0.588681 0.749331
vt 0.575825 0.749329
vt 0.389664 0.724657
vt 0.389703 0.675239
vt 0.404377 0.675505
vt 0.404296 0.724278
vt 0.397009 0.724477
vt 0.397058 0.675359
vt 0.571875 0.687105
vt 0.571864 0.749328
vt 0.575824 0.753290
vt 0.588681 0.753292
vt 0.341939 0.541819
vt 0.341928 0.538960
vt 0.258507 0.539281
vt 0.258518 0.542140
vt 0.259181 0.714368
vt 0.342602 0.714047
vt 0.259192 0.717227
vt 0.342613 0.716905
vt 0.255660 0.542151
vt 0.256323 0.714379
vt 0.345460 0.714036
vt 0.344797 0.541808
vt 0.488372 0.585282
vt 0.485815 0.585272
vt 0.485496 0.668692
vt 0.488053 0.668702
vt 0.660600 0.585940
vt 0.660281 0.669360
vt 0.662838 0.669370
vt 0.663157 0.585950
vt 0.660610 0.583383
vt 0.488382 0.582725
vt 0.488043 0.671259
vt 0.660272 0.671917
vt 0.592642 0.749332
vt 0.592653 0.687109
vt 0.704885 0.680450
vt 0.677047 0.680388
vt 0.677032 0.687028
vt 0.704870 0.687090
vt 0.711510 0.687104
vt 0.704664 0.779583
vt 0.711304 0.779598
vt 0.676826 0.779521
vt 0.676811 0.786161
vt 0.704650 0.786223
vt 0.670392 0.687013
vt 0.670186 0.779506
vt 0.734029 0.589478
vt 0.734002 0.582838
vt 0.761840 0.582725
vt 0.761867 0.589365
vt 0.762244 0.681858
vt 0.768507 0.589338
vt 0.768884 0.681830
vt 0.734433 0.688611
vt 0.734406 0.681971
vt 0.762271 0.688498
vt 0.727766 0.681998
vt 0.727389 0.589505
s 1
usemtl door1
f 1/1/1 2/2/1 3/3/1
f 2/2/1 1/1/1 4/4/1
f 5/5/2 6/6/2 7/7/2
f 8/8/3 9/9/4 10/6/5
f 11/10/6 12/11/7 13/12/7
f 14/13/8 15/14/8 16/15/9
f 17/16/10 18/17/10 19/10/10
f 20/18/2 21/19/2 22/20/2
f 23/21/11 24/22/11 25/5/11
f 26/23/2 20/18/2 22/20/2
f 27/5/12 28/22/12 29/24/13
f 30/25/2 26/23/2 22/20/2
f 31/26/2 30/25/2 22/20/2
f 21/19/2 32/27/2 22/20/2
f 32/27/2 31/26/2 22/20/2
f 33/28/14 34/29/15 35/30/16
f 36/31/17 34/29/15 33/28/14
f 37/32/18 38/33/19 33/28/14
f 38/33/19 36/31/17 33/28/14
f 16/15/9 37/32/18 33/28/14
f 33/28/14 14/13/8 16/15/9
f 10/6/5 9/9/4 39/34/20
f 40/35/21 12/11/7 11/10/6
f 41/7/22 10/6/5 39/34/20
f 29/24/13 8/8/3 10/6/5
f 42/36/7 11/10/6 13/12/7
f 43/36/10 17/16/10 19/10/10
f 44/37/11 23/21/11 25/5/11
f 10/6/5 27/5/12 29/24/13
f 45/37/2 5/5/2 7/7/2
f 46/38/2 47/39/2 48/40/2
f 49/41/3 50/42/4 51/39/5
f 52/43/6 53/44/7 54/45/7
f 55/46/8 56/47/8 57/48/23
f 58/49/10 59/50/10 60/43/10
f 61/51/2 62/52/2 63/53/2
f 64/54/11 65/55/11 66/38/11
f 67/56/2 61/51/2 63/53/2
f 68/38/12 69/55/12 70/57/13
f 71/58/2 67/56/2 63/53/2
f 72/59/2 71/58/2 63/53/2
f 62/52/2 73/60/2 63/53/2
f 73/60/2 72/59/2 63/53/2
f 74/61/24 75/62/25 76/63/26
f 77/64/27 75/62/25 74/61/24
f 78/65/18 79/66/28 74/61/24
f 79/66/28 77/64/27 74/61/24
f 57/48/23 78/65/18 74/61/24
f 74/61/24 55/46/8 57/48/23
f 51/39/5 50/42/4 80/67/20
f 81/68/21 53/44/7 52/43/6
f 82/40/22 51/39/5 80/67/20
f 70/57/13 49/41/3 51/39/5
f 83/69/7 52/43/6 54/45/7
f 84/69/10 58/49/10 60/43/10
f 85/70/11 64/54/11 66/38/11
f 51/39/5 68/38/12 70/57/13
f 86/70/2 46/38/2 48/40/2
f 87/71/11 88/72/11 89/73/11
f 87/71/11 89/73/11 90/74/11
f 91/75/11 90/74/11 89/73/11
f 91/75/11 89/73/11 92/76/11
f 93/77/11 91/75/11 92/76/11
f 93/77/11 92/76/11 94/78/11
f 94/78/11 88/72/11 87/71/11
f 94/78/11 87/71/11 93/77/11
f 95/79/1 2/2/1 4/4/1
f 95/79/1 4/4/1 96/80/1
f 97/81/1 1/1/1 3/3/1
f 97/81/1 3/3/1 98/82/1
f 96/80/1 97/81/1 98/82/1
f 96/80/1 98/82/1 95/79/1
f 99/83/8 100/84/8 101/85/8
f 99/83/8 101/85/8 102/86/8
f 103/87/12 104/88/12 105/89/12
f 103/87/12 105/89/12 106/90/12
f 107/91/2 108/92/2 109/88/2
f 107/91/2 109/88/2 110/87/2
f 111/86/10 112/85/10 113/93/10
f 111/86/10 113/93/10 114/94/10
f 115/95/29 116/96/29 117/12/29
f 115/95/29 117/12/29 118/11/29
f 119/9/30 120/8/30 121/97/30
f 119/9/30 121/97/30 122/98/30
f 123/99/31 124/100/31 125/96/31
f 123/99/31 125/96/31 126/95/31
f 127/98/32 128/97/32 129/100/32
f 127/98/32 129/100/32 130/99/32
f 131/101/8 132/102/8 133/103/8
f 131/101/8 133/103/8 134/104/8
f 135/105/33 136/104/33 137/103/33
f 135/105/33 137/103/33 138/106/33
f 139/107/29 140/108/29 141/45/29
f 139/107/29 141/45/29 142/44/29
f 143/42/30 144/41/30 145/109/30
f 143/42/30 145/109/30 146/110/30
f 147/111/31 148/112/31 149/108/31
f 147/111/31 149/108/31 150/107/31
f 151/110/32 152/109/32 153/112/32
f 151/110/32 153/112/32 154/111/32
f 155/106/11 156/103/11 157/113/11
f 155/106/11 157/113/11 158/114/11
f 159/115/2 160/116/2 161/105/2
f 159/115/2 161/105/2 162/106/2
f 163/117/33 164/118/33 165/119/33
f 163/117/33 165/119/33 166/120/33
f 167/121/1 168/122/1 169/117/1
f 167/121/1 169/117/1 170/120/1
f 171/121/12 172/123/12 173/124/12
f 171/121/12 173/124/12 174/122/12
f 175/120/2 176/125/2 177/126/2
f 175/120/2 177/126/2 178/121/2
f 179/122/8 180/127/8 181/128/8
f 179/122/8 181/128/8 182/117/8
f 183/129/33 184/130/33 185/131/33
f 183/129/33 185/131/33 186/132/33
f 187/133/11 188/129/11 189/132/11
f 187/133/11 189/132/11 190/134/11
f 191/134/12 192/135/12 193/136/12
f 191/134/12 193/136/12 194/133/12
f 195/133/2 196/137/2 197/138/2
f 195/133/2 197/138/2 198/129/2
f 199/132/8 200/139/8 201/140/8
f 199/132/8 201/140/8 202/134/8
f 203/141/34 204/142/34 205/104/34
f 203/141/34 205/104/34 206/105/34
f 207/143/8 208/144/8 209/145/8
f 207/143/8 209/145/8 210/146/8
f 211/147/10 212/146/10 213/148/10
f 211/147/10 213/148/10 214/149/10
f 215/148/2 216/150/2 217/151/2
f 215/148/2 217/151/2 218/152/2
f 219/145/12 220/153/12 221/154/12
f 219/145/12 221/154/12 222/150/12
f 223/146/35 224/145/35 225/150/35
f 223/146/35 225/150/35 226/148/35
f 227/155/8 228/156/8 229/157/8
f 227/155/8 229/157/8 230/158/8
f 231/159/33 232/158/33 233/160/33
f 231/159/33 233/160/33 234/161/33
f 235/162/2 236/163/2 237/159/2
f 235/162/2 237/159/2 238/164/2
f 239/165/12 240/166/12 241/155/12
f 239/165/12 241/155/12 242/163/12
f 243/163/1 244/155/1 245/158/1
f 243/163/1 245/158/1 246/159/1
o frame_door1_0
v 0.583942 -0.866970 0.050593
v 0.560759 -0.866970 0.056806
v 0.577729 -0.866970 0.073776
v 0.583942 -1.007484 0.050593
v 0.577729 -1.007484 0.073776
v 0.560759 -1.007484 0.056806
v 0.554548 -0.866970 0.079987
v 0.554548 -1.007484 0.079987
v 0.537577 -0.866970 0.063017
v 0.537577 -1.007484 0.063017
v 0.543788 -0.866970 0.039834
v 0.543788 -1.007484 0.039834
v 0.566970 -0.866970 0.033623
v 0.566970 -1.007484 0.033623
v 0.583942 0.474380 0.050593
v 0.560759 0.474380 0.056806
v 0.577729 0.474380 0.073776
v 0.583942 0.333868 0.050593
v 0.577729 0.333868 0.073776
v 0.560759 0.333868 0.056806
v 0.554548 0.474380 0.079987
v 0.554548 0.333868 0.079987
v 0.537577 0.474380 0.063017
v 0.537577 0.333868 0.063017
v 0.543788 0.474380 0.039834
v 0.543788 0.333868 0.039834
v 0.566970 0.474380 0.033623
v 0.566970 0.333868 0.033623
v -0.582462 1.183149 -0.048000
v -0.570462 1.171148 -0.036000
v -0.570462 -1.299661 -0.036000
v -0.582462 -1.299661 -0.048000
v -0.570462 1.171148 0.036000
v -0.582462 1.183149 0.048000
v -0.582462 -1.299661 0.048000
v -0.570462 -1.299661 0.036000
v 0.645790 1.246589 -0.180000
v 0.633846 1.234532 -0.168000
v -0.633846 1.234532 -0.168000
v -0.645790 1.246589 -0.180000
v -0.645790 1.246589 -0.180000
v -0.633846 1.234532 -0.168000
v -0.633846 -1.299661 -0.168000
v -0.645846 -1.299661 -0.180000
v 0.645846 -1.299661 -0.180000
v 0.633846 -1.299661 -0.168000
v 0.633846 1.234532 -0.168000
v 0.645790 1.246589 -0.180000
v -0.645790 1.246589 0.180000
v -0.633846 1.234532 0.168000
v 0.633846 1.234532 0.168000
v 0.645790 1.246589 0.180000
v 0.645790 1.246589 0.180000
v 0.633846 1.234532 0.168000
v 0.633846 -1.299661 0.168000
v 0.645846 -1.299661 0.180000
v -0.645846 -1.299661 0.180000
v -0.633846 -1.299661 0.168000
v -0.633846 1.234532 0.168000
v -0.645790 1.246589 0.180000
v 0.582461 -1.299661 0.048000
v 0.633846 -1.299661 0.048000
v 0.633846 1.234532 0.048000
v 0.582461 1.183149 0.048000
v -0.582462 1.183149 -0.048000
v -0.633846 1.234532 -0.048000
v 0.633846 1.234532 -0.048000
v 0.582461 1.183149 -0.048000
v 0.582461 1.183149 0.048000
v 0.633846 1.234532 0.048000
v -0.633846 1.234532 0.048000
v -0.582462 1.183149 0.048000
v -0.582462 -1.299661 -0.048000
v -0.633846 -1.299661 -0.048000
v -0.633846 1.234532 -0.048000
v -0.582462 1.183149 -0.048000
v -0.582462 1.183149 0.048000
v -0.633846 1.234532 0.048000
v -0.633846 -1.299661 0.048000
v -0.582462 -1.299661 0.048000
v 0.582461 1.183149 -0.048000
v 0.633846 1.234532 -0.048000
v 0.633846 -1.299661 -0.048000
v 0.582461 -1.299661 -0.048000
v 0.570461 -1.299661 -0.036000
v 0.570461 -1.299661 0.036000
v 0.570461 1.171148 0.036000
v 0.570461 1.171148 -0.036000
v 0.570461 1.171148 -0.036000
v 0.570461 1.171148 0.036000
v -0.570462 1.171148 0.036000
v -0.570462 1.171148 -0.036000
v -0.570462 1.171148 -0.036000
v -0.570462 1.171148 0.036000
v -0.570462 -1.299661 0.036000
v -0.570462 -1.299661 -0.036000
v 0.633846 -1.299661 0.048000
v 0.633846 -1.299661 0.168000
v 0.633846 1.234532 0.168000
v 0.633846 1.234532 0.048000
v 0.633846 1.234532 0.048000
v 0.633846 1.234532 0.168000
v -0.633846 1.234532 0.168000
v -0.633846 1.234532 0.048000
v -0.633846 1.234532 0.048000
v -0.633846 1.234532 0.168000
v -0.633846 -1.299661 0.168000
v -0.633846 -1.299661 0.048000
v 0.633846 1.234532 -0.048000
v 0.633846 1.234532 -0.168000
v 0.633846 -1.299661 -0.168000
v 0.633846 -1.299661 -0.048000
v -0.633846 1.234532 -0.048000
v -0.633846 -1.299661 -0.048000
v -0.633846 -1.299661 -0.168000
v -0.633846 1.234532 -0.168000
v 0.633846 1.234532 -0.168000
v 0.633846 1.234532 -0.048000
v -0.633846 1.234532 -0.048000
v -0.633846 1.234532 -0.168000
v 0.760615 1.362493 0.180000
v 0.760615 1.362493 -0.180000
v -0.760615 1.362493 -0.180000
v -0.760615 1.362493 0.180000
v -0.760615 -1.299661 0.180000
v -0.760615 1.362493 0.180000
v -0.760615 1.362493 -0.180000
v -0.760615 -1.299661 -0.180000
v 0.760615 -1.299661 -0.180000
v 0.760615 1.362493 -0.180000
v 0.760615 1.362493 0.180000
v 0.760615 -1.299661 0.180000
v 0.645790 1.246589 -0.180000
v -0.645790 1.246589 -0.180000
v -0.760615 1.362493 -0.180000
v 0.760615 1.362493 -0.180000
v -0.645790 1.246589 -0.180000
v -0.645846 -1.299661 -0.180000
v -0.760615 -1.299661 -0.180000
v -0.760615 1.362493 -0.180000
v 0.760615 1.362493 -0.180000
v 0.760615 -1.299661 -0.180000
v 0.645846 -1.299661 -0.180000
v 0.645790 1.246589 -0.180000
v -0.645790 1.246589 0.180000
v 0.645790 1.246589 0.180000
v 0.760615 1.362493 0.180000
v -0.760615 1.362493 0.180000
v 0.645790 1.246589 0.180000
v 0.645846 -1.299661 0.180000
v 0.760615 -1.299661 0.180000
v 0.760615 1.362493 0.180000
v -0.760615 1.362493 0.180000
v -0.760615 -1.299661 0.180000
v -0.645846 -1.299661 0.180000
v -0.645790 1.246589 0.180000
v 0.558461 -0.887718 0.040970
v 0.570461 -0.887718 0.036000
v 0.570461 -0.887718 -0.006062
v 0.558461 -0.887718 -0.006062
v 0.558461 -0.887718 -0.006062
v 0.570461 -0.887718 -0.006062
v 0.570461 -0.979406 -0.006062
v 0.558461 -0.979406 -0.006062
v 0.558461 -0.979406 -0.006062
v 0.570461 -0.979406 -0.006062
v 0.570461 -0.979406 0.036000
v 0.558461 -0.979406 0.040970
v 0.577490 -0.887718 0.060000
v 0.582461 -0.887718 0.048000
v 0.582461 -0.979406 0.048000
v 0.577490 -0.979406 0.060000
v 0.633846 -0.979406 0.060000
v 0.633846 -0.979406 0.048000
v 0.633846 -0.887718 0.048000
v 0.633846 -0.887718 0.060000
v 0.633846 -0.887718 0.060000
v 0.633846 -0.887718 0.048000
v 0.570461 1.171148 0.036000
v 0.582461 1.183149 0.048000
v -0.582462 1.183149 0.048000
v -0.570462 1.171148 0.036000
v 0.633846 -0.979406 0.048000
v 0.633846 -0.979406 0.060000
v 0.558461 -0.887718 0.040970
v 0.558461 -0.887718 -0.006062
v 0.558461 -0.979406 -0.006062
v 0.558461 -0.979406 0.040970
v 0.577490 -0.887718 0.060000
v 0.558461 -0.887718 0.040970
v 0.558461 -0.979406 0.040970
v 0.577490 -0.979406 0.060000
v 0.633846 -0.887718 0.060000
v 0.577490 -0.887718 0.060000
v 0.577490 -0.979406 0.060000
v 0.633846 -0.979406 0.060000
v 0.582461 1.183149 -0.048000
v 0.570461 1.171148 -0.036000
v -0.570462 1.171148 -0.036000
v -0.582462 1.183149 -0.048000
v 0.583942 -1.007484 0.050593
v 0.583942 -0.866970 0.050593
v 0.577729 -0.866970 0.073776
v 0.577729 -1.007484 0.073776
v 0.577729 -1.007484 0.073776
v 0.577729 -0.866970 0.073776
v 0.554548 -0.866970 0.079987
v 0.554548 -1.007484 0.079987
v 0.554548 -1.007484 0.079987
v 0.554548 -0.866970 0.079987
v 0.537577 -0.866970 0.063017
v 0.537577 -1.007484 0.063017
v 0.537577 -1.007484 0.063017
v 0.537577 -0.866970 0.063017
v 0.543788 -0.866970 0.039834
v 0.543788 -1.007484 0.039834
v 0.543788 -1.007484 0.039834
v 0.543788 -0.866970 0.039834
v 0.566970 -0.866970 0.033623
v 0.566970 -1.007484 0.033623
v 0.566970 -1.007484 0.033623
v 0.566970 -0.866970 0.033623
v 0.583942 -0.866970 0.050593
v 0.583942 -1.007484 0.050593
v 0.558461 0.453634 0.040970
v 0.570461 0.453634 0.036000
v 0.570461 0.453634 -0.006062
v 0.558461 0.453634 -0.006062
v 0.558461 0.453634 -0.006062
v 0.570461 0.453634 -0.006062
v 0.570461 0.361944 -0.006062
v 0.558461 0.361944 -0.006062
v 0.558461 0.361944 -0.006062
v 0.570461 0.361944 -0.006062
v 0.570461 0.361944 0.036000
v 0.558461 0.361944 0.040970
v 0.577490 0.453634 0.060000
v 0.582461 0.453634 0.048000
v 0.582461 0.361944 0.048000
v 0.577490 0.361944 0.060000
v 0.633846 0.361944 0.060000
v 0.633846 0.361944 0.048000
v 0.633846 0.453634 0.048000
v 0.633846 0.453634 0.060000
v 0.633846 0.453634 0.060000
v 0.633846 0.453634 0.048000
v 0.633846 0.361944 0.048000
v 0.633846 0.361944 0.060000
v 0.558461 0.453634 0.040970
v 0.558461 0.453634 -0.006062
v 0.558461 0.361944 -0.006062
v 0.558461 0.361944 0.040970
v 0.577490 0.453634 0.060000
v 0.558461 0.453634 0.040970
v 0.558461 0.361944 0.040970
v 0.577490 0.361944 0.060000
v 0.570461 -1.299661 0.036000
v 0.582461 -1.299661 0.048000
v 0.582461 1.183149 0.048000
v 0.570461 1.171148 0.036000
v 0.633846 0.453634 0.060000
v 0.577490 0.453634 0.060000
v 0.577490 0.361944 0.060000
v 0.633846 0.361944 0.060000
v 0.583942 0.333868 0.050593
v 0.583942 0.474380 0.050593
v 0.577729 0.474380 0.073776
v 0.577729 0.333868 0.073776
v 0.582461 -1.299661 -0.048000
v 0.570461 -1.299661 -0.036000
v 0.570461 1.171148 -0.036000
v 0.582461 1.183149 -0.048000
v 0.577729 0.333868 0.073776
v 0.577729 0.474380 0.073776
v 0.554548 0.474380 0.079987
v 0.554548 0.333868 0.079987
v 0.554548 0.333868 0.079987
v 0.554548 0.474380 0.079987
v 0.537577 0.474380 0.063017
v 0.537577 0.333868 0.063017
v 0.537577 0.333868 0.063017
v 0.537577 0.474380 0.063017
v 0.543788 0.474380 0.039834
v 0.543788 0.333868 0.039834
v 0.543788 0.333868 0.039834
v 0.543788 0.474380 0.039834
v 0.566970 0.474380 0.033623
v 0.566970 0.333868 0.033623
v 0.566970 0.333868 0.033623
v 0.566970 0.474380 0.033623
v 0.583942 0.474380 0.050593
v 0.583942 0.333868 0.050593
vn -0.0000 1.0000 -0.0000
vn -0.0000 -1.0000 -0.0000
vn 0.7071 -0.0000 -0.7071
vn 0.7071 -0.0000 0.7071
vn -0.0000 -0.7054 -0.7088
vn 0.7079 -0.0000 -0.7063
vn 0.7080 -0.0000 -0.7063
vn -0.7077 -0.0000 -0.7065
vn -0.7079 -0.0000 -0.7063
vn -0.7081 -0.0000 -0.7061
vn -0.0000 -0.7054 0.7088
vn -0.7079 -0.0000 0.7063
vn -0.7080 -0.0000 0.7063
vn 0.7079 -0.0000 0.7063
vn 0.7080 -0.0000 0.7063
vn -0.0000 -0.0000 1.0000
vn -0.0000 -0.0000 -1.0000
vn -1.0000 -0.0000 -0.0000
vn 1.0000 -0.0000 -0.0000
vn -0.0000 -0.7071 0.7071
vn -0.7071 -0.0000 0.7071
vn -0.0000 -0.7071 -0.7071
vn 0.9659 -0.0000 0.2589
vn 0.2588 -0.0000 0.9659
vn -0.9659 -0.0000 -0.2588
vn -0.2588 -0.0000 -0.9659
vn -0.7071 -0.0000 -0.7071
vt 0.478467 0.633194
vt 0.470058 0.633194
vt 0.474263 0.640476
vt 0.478467 0.611601
vt 0.474263 0.604318
vt 0.470058 0.611601
vt 0.465854 0.640476
vt 0.465854 0.604318
vt 0.461650 0.633194
vt 0.461650 0.611601
vt 0.465854 0.625912
vt 0.465854 0.618883
vt 0.474263 0.625912
vt 0.474263 0.618883
vt 0.478467 0.654787
vt 0.470058 0.654787
vt 0.474263 0.662069
vt 0.478467 0.590007
vt 0.474263 0.582725
vt 0.470058 0.590007
vt 0.465854 0.662069
vt 0.465854 0.582725
vt 0.461650 0.654787
vt 0.461650 0.590007
vt 0.465854 0.647505
vt 0.465854 0.597289
vt 0.474263 0.647505
vt 0.474263 0.597289
vt 0.597912 0.042422
vt 0.594257 0.044982
vt 0.591929 0.575393
vt 0.595572 0.575409
vt 0.578801 0.044915
vt 0.575169 0.042323
vt 0.572829 0.575310
vt 0.576472 0.575325
vt 0.133146 0.564087
vt 0.129484 0.566637
vt 0.128474 0.838775
vt 0.132116 0.841353
vt 0.638398 0.028981
vt 0.634752 0.031553
vt 0.632363 0.575571
vt 0.636006 0.575587
vt 0.800107 0.575322
vt 0.796464 0.575332
vt 0.794877 0.031311
vt 0.798504 0.028712
vt 0.028488 0.840968
vt 0.032149 0.838418
vt 0.033159 0.566280
vt 0.029517 0.563702
vt 0.694909 0.029015
vt 0.698551 0.031592
vt 0.700138 0.575613
vt 0.696495 0.575624
vt 0.532395 0.575132
vt 0.536038 0.575148
vt 0.538426 0.031130
vt 0.534803 0.028526
vt 0.736930 0.575505
vt 0.725899 0.575538
vt 0.724312 0.031517
vt 0.735375 0.042516
vt 0.091724 0.827608
vt 0.102714 0.838680
vt 0.103724 0.566541
vt 0.092652 0.577531
vt 0.069909 0.577447
vt 0.058920 0.566375
vt 0.057909 0.838513
vt 0.068981 0.827523
vt 0.606603 0.575458
vt 0.608991 0.031440
vt 0.564187 0.031243
vt 0.561799 0.575261
vt 0.758117 0.042449
vt 0.769116 0.031386
vt 0.770703 0.575407
vt 0.759672 0.575439
vt 0.756029 0.575450
vt 0.740573 0.575495
vt 0.739025 0.045081
vt 0.754482 0.045036
vt 0.088999 0.580094
vt 0.073543 0.580037
vt 0.072634 0.824961
vt 0.088090 0.825018
vt 0.171349 0.865737
vt 0.248630 0.865526
vt 0.247741 0.538960
vt 0.170458 0.539171
vt 0.917645 0.004205
vt 0.919203 0.575696
vt 0.996485 0.575485
vt 0.994927 0.003994
vt 0.910616 0.575485
vt 0.909057 0.003994
vt 0.831774 0.004205
vt 0.833333 0.575696
vt 0.156906 0.866095
vt 0.158118 0.539529
vt 0.660644 0.575696
vt 0.663157 0.004208
vt 0.823081 0.003759
vt 0.824745 0.575250
vt 0.004727 0.538960
vt 0.003515 0.865525
vt 0.671857 0.575696
vt 0.670186 0.004206
vt 0.510262 0.003537
vt 0.507757 0.575024
vt 0.471232 0.688384
vt 0.471325 0.684004
vt 0.454606 0.682966
vt 0.454693 0.687887
vt 0.450449 0.687935
vt 0.450817 0.720362
vt 0.455061 0.720314
vt 0.455296 0.724901
vt 0.471377 0.724076
vt 0.471332 0.719782
vt 0.479871 0.688563
vt 0.479572 0.684253
vt 0.479528 0.724045
vt 0.479884 0.719773
vt 0.499475 0.720473
vt 0.504030 0.720704
vt 0.503644 0.688066
vt 0.499373 0.688117
vt 0.499204 0.683532
vt 0.499235 0.725075
vt 0.255737 0.749481
vt 0.304966 0.749631
vt 0.304991 0.741223
vt 0.255762 0.741073
vt 0.305017 0.732814
vt 0.255788 0.732665
vt 0.305042 0.724405
vt 0.255813 0.724256
vt 0.255660 0.774707
vt 0.304889 0.774857
vt 0.304915 0.766448
vt 0.255685 0.766298
vt 0.304940 0.758040
vt 0.255711 0.757890
vt 0.531844 0.688464
vt 0.531912 0.684083
vt 0.515187 0.683145
vt 0.515303 0.688065
vt 0.511060 0.688138
vt 0.511620 0.720563
vt 0.515864 0.720489
vt 0.516127 0.725075
vt 0.532202 0.724154
vt 0.532131 0.719861
vt 0.540485 0.688591
vt 0.540160 0.684283
vt 0.540353 0.724075
vt 0.540684 0.719801
vt 0.560278 0.720385
vt 0.564835 0.720589
vt 0.564255 0.687954
vt 0.559983 0.688029
vt 0.559788 0.683446
vt 0.560065 0.724988
vt 0.719578 0.720866
vt 0.768807 0.721015
vt 0.768832 0.712606
vt 0.719603 0.712457
vt 0.768858 0.704198
vt 0.719629 0.704049
vt 0.768884 0.695789
vt 0.719654 0.695640
vt 0.719501 0.746091
vt 0.768730 0.746241
vt 0.768756 0.737832
vt 0.719527 0.737682
vt 0.768781 0.729424
vt 0.719552 0.729274
s 1
usemtl door1
f 247/167/36 248/168/36 249/169/36
f 250/170/37 251/171/37 252/172/37
f 249/169/36 248/168/36 253/173/36
f 251/171/37 254/174/37 252/172/37
f 253/173/36 248/168/36 255/175/36
f 254/174/37 256/176/37 252/172/37
f 255/175/36 248/168/36 257/177/36
f 256/176/37 258/178/37 252/172/37
f 257/177/36 248/168/36 259/179/36
f 258/178/37 260/180/37 252/172/37
f 259/179/36 248/168/36 247/167/36
f 260/180/37 250/170/37 252/172/37
f 261/181/36 262/182/36 263/183/36
f 264/184/37 265/185/37 266/186/37
f 263/183/36 262/182/36 267/187/36
f 265/185/37 268/188/37 266/186/37
f 267/187/36 262/182/36 269/189/36
f 268/188/37 270/190/37 266/186/37
f 269/189/36 262/182/36 271/191/36
f 270/190/37 272/192/37 266/186/37
f 271/191/36 262/182/36 273/193/36
f 272/192/37 274/194/37 266/186/37
f 273/193/36 262/182/36 261/181/36
f 274/194/37 264/184/37 266/186/37
f 275/195/38 276/196/38 277/197/38
f 275/195/38 277/197/38 278/198/38
f 279/199/39 280/200/39 281/201/39
f 279/199/39 281/201/39 282/202/39
f 283/203/40 284/204/40 285/205/40
f 283/203/40 285/205/40 286/206/40
f 287/207/41 288/208/41 289/209/42
f 287/207/41 289/209/42 290/210/42
f 291/211/43 292/212/44 293/213/45
f 291/211/43 293/213/45 294/214/44
f 295/215/46 296/216/46 297/217/46
f 295/215/46 297/217/46 298/218/46
f 299/219/47 300/220/47 301/221/48
f 299/219/47 301/221/48 302/222/48
f 303/223/49 304/224/50 305/225/49
f 303/223/49 305/225/49 306/226/49
f 307/227/51 308/228/51 309/229/51
f 307/227/51 309/229/51 310/230/51
f 311/231/52 312/232/52 313/233/52
f 311/231/52 313/233/52 314/234/52
f 315/235/51 316/236/51 317/237/51
f 315/235/51 317/237/51 318/238/51
f 319/198/52 320/239/52 321/240/52
f 319/198/52 321/240/52 322/195/52
f 323/200/51 324/241/51 325/242/51
f 323/200/51 325/242/51 326/201/51
f 327/243/52 328/244/52 329/245/52
f 327/243/52 329/245/52 330/246/52
f 331/247/53 332/248/53 333/249/53
f 331/247/53 333/249/53 334/250/53
f 335/251/37 336/252/37 337/253/37
f 335/251/37 337/253/37 338/254/37
f 339/196/54 340/199/54 341/202/54
f 339/196/54 341/202/54 342/197/54
f 343/228/53 344/221/53 345/220/53
f 343/228/53 345/220/53 346/229/53
f 347/236/37 348/217/37 349/216/37
f 347/236/37 349/216/37 350/237/37
f 351/241/54 352/225/54 353/224/54
f 351/241/54 353/224/54 354/242/54
f 355/244/53 356/213/53 357/212/53
f 355/244/53 357/212/53 358/245/53
f 359/240/54 360/239/54 361/209/54
f 359/240/54 361/209/54 362/208/54
f 363/204/37 364/233/37 365/232/37
f 363/204/37 365/232/37 366/205/37
f 367/255/36 368/256/36 369/257/36
f 367/255/36 369/257/36 370/258/36
f 371/259/53 372/260/53 373/261/53
f 371/259/53 373/261/53 374/262/53
f 375/263/54 376/264/54 377/265/54
f 375/263/54 377/265/54 378/266/54
f 379/203/52 380/206/52 381/267/52
f 379/203/52 381/267/52 382/268/52
f 383/207/52 384/210/52 385/269/52
f 383/207/52 385/269/52 386/270/52
f 387/271/52 388/272/52 389/211/52
f 387/271/52 389/211/52 390/214/52
f 391/215/51 392/218/51 393/273/51
f 391/215/51 393/273/51 394/274/51
f 395/219/51 396/222/51 397/275/51
f 395/219/51 397/275/51 398/276/51
f 399/277/51 400/278/51 401/223/51
f 399/277/51 401/223/51 402/226/51
f 403/279/36 404/280/36 405/281/36
f 403/279/36 405/281/36 406/282/36
f 407/282/52 408/283/52 409/284/52
f 407/282/52 409/284/52 410/285/52
f 411/285/37 412/286/37 413/287/37
f 411/285/37 413/287/37 414/288/37
f 415/289/36 416/290/36 404/280/36
f 415/289/36 404/280/36 403/279/36
f 414/288/37 413/287/37 417/291/37
f 414/288/37 417/291/37 418/292/37
f 419/293/54 420/294/54 421/295/54
f 419/293/54 421/295/54 422/296/54
f 423/296/36 424/297/36 416/290/36
f 423/296/36 416/290/36 415/289/36
f 425/252/55 426/235/55 427/238/55
f 425/252/55 427/238/55 428/253/55
f 418/292/37 417/291/37 429/298/37
f 418/292/37 429/298/37 430/293/37
f 431/279/53 432/282/53 433/285/53
f 431/279/53 433/285/53 434/288/53
f 435/289/56 436/279/56 437/288/56
f 435/289/56 437/288/56 438/292/56
f 439/296/51 440/289/51 441/292/51
f 439/296/51 441/292/51 442/293/51
f 443/234/57 444/251/57 445/254/57
f 443/234/57 445/254/57 446/231/57
f 447/299/58 448/300/58 449/301/58
f 447/299/58 449/301/58 450/302/58
f 451/302/59 452/301/59 453/303/59
f 451/302/59 453/303/59 454/304/59
f 455/304/56 456/303/56 457/305/56
f 455/304/56 457/305/56 458/306/56
f 459/307/60 460/308/60 461/309/60
f 459/307/60 461/309/60 462/310/60
f 463/310/61 464/309/61 465/311/61
f 463/310/61 465/311/61 466/312/61
f 467/312/38 468/311/38 469/300/38
f 467/312/38 469/300/38 470/299/38
f 471/313/36 472/314/36 473/315/36
f 471/313/36 473/315/36 474/316/36
f 475/316/52 476/317/52 477/318/52
f 475/316/52 477/318/52 478/319/52
f 479/319/37 480/320/37 481/321/37
f 479/319/37 481/321/37 482/322/37
f 483/323/36 484/324/36 472/314/36
f 483/323/36 472/314/36 471/313/36
f 482/322/37 481/321/37 485/325/37
f 482/322/37 485/325/37 486/326/37
f 487/327/54 488/328/54 489/329/54
f 487/327/54 489/329/54 490/330/54
f 491/330/36 492/331/36 484/324/36
f 491/330/36 484/324/36 483/323/36
f 486/326/37 485/325/37 493/332/37
f 486/326/37 493/332/37 494/327/37
f 495/313/53 496/316/53 497/319/53
f 495/313/53 497/319/53 498/322/53
f 499/323/56 500/313/56 501/322/56
f 499/323/56 501/322/56 502/326/56
f 503/248/56 504/227/56 505/230/56
f 503/248/56 505/230/56 506/249/56
f 507/330/51 508/323/51 509/326/51
f 507/330/51 509/326/51 510/327/51
f 511/333/58 512/334/58 513/335/58
f 511/333/58 513/335/58 514/336/58
f 515/246/62 516/247/62 517/250/62
f 515/246/62 517/250/62 518/243/62
f 519/336/59 520/335/59 521/337/59
f 519/336/59 521/337/59 522/338/59
f 523/338/56 524/337/56 525/339/56
f 523/338/56 525/339/56 526/340/56
f 527/341/60 528/342/60 529/343/60
f 527/341/60 529/343/60 530/344/60
f 531/344/61 532/343/61 533/345/61
f 531/344/61 533/345/61 534/346/61
f 535/346/38 536/345/38 537/334/38
f 535/346/38 537/334/38 538/333/38
o handle_door1_0
v 0.575342 -0.122832 -0.746920
v 0.581116 -0.124380 -0.746358
v 0.569591 -0.112800 -0.747479
v 0.592642 -0.112800 -0.745238
v 0.581116 -0.101219 -0.746358
v 0.575342 -0.102767 -0.746920
v 0.571131 -0.106998 -0.747330
v 0.586890 -0.102767 -0.745796
v 0.591102 -0.118601 -0.745387
v 0.591102 -0.106998 -0.745387
v 0.586890 -0.122832 -0.745796
v 0.601548 -0.092003 -0.972885
v 0.596758 -0.092003 -0.966542
v 0.607731 -0.088800 -0.961145
v 0.601548 -0.133596 -0.972885
v 0.607731 -0.136800 -0.961145
v 0.596758 -0.133596 -0.966542
v 0.818086 -0.122832 -0.723320
v 0.822298 -0.118601 -0.722910
v 0.823837 -0.112800 -0.722761
v 0.835897 -0.133596 -0.950101
v 0.839375 -0.133596 -0.942955
v 0.827568 -0.136800 -0.939773
v 0.827568 -0.088800 -0.939773
v 0.839375 -0.092003 -0.942955
v 0.835897 -0.092003 -0.950101
v 0.802326 -0.118601 -0.724852
v 0.806537 -0.122832 -0.724442
v 0.812311 -0.124380 -0.723880
v 0.806537 -0.102767 -0.724442
v 0.802326 -0.106998 -0.724852
v 0.800786 -0.112800 -0.725002
v 0.818086 -0.102767 -0.723320
v 0.812311 -0.101219 -0.723880
v 0.822298 -0.106998 -0.722910
v 0.571131 -0.118601 -0.747330
v 0.579858 -0.100792 -0.948341
v 0.588251 -0.100792 -0.969859
v 0.585149 -0.112800 -0.971069
v 0.576757 -0.112800 -0.949550
v 0.588366 -0.092003 -0.945022
v 0.599989 -0.088800 -0.940489
v 0.611613 -0.092003 -0.935956
v 0.616308 -0.092003 -0.952578
v 0.620122 -0.100792 -0.932638
v 0.622586 -0.100792 -0.946308
v 0.623222 -0.112800 -0.931428
v 0.624875 -0.112800 -0.944022
v 0.620122 -0.124807 -0.932638
v 0.622586 -0.124807 -0.946308
v 0.624875 -0.112800 -0.944022
v 0.623222 -0.112800 -0.931428
v 0.611613 -0.133596 -0.935956
v 0.616308 -0.133596 -0.952578
v 0.599989 -0.136800 -0.940489
v 0.588366 -0.133596 -0.945022
v 0.579858 -0.124807 -0.948341
v 0.588251 -0.124807 -0.969859
v 0.597500 -0.100792 -0.982109
v 0.616675 -0.100792 -0.990524
v 0.615200 -0.112800 -0.993885
v 0.596025 -0.112800 -0.985471
v 0.620722 -0.092003 -0.981301
v 0.626254 -0.088800 -0.968698
v 0.631785 -0.092003 -0.956095
v 0.622586 -0.100792 -0.946308
v 0.635832 -0.100792 -0.946872
v 0.624875 -0.112800 -0.944022
v 0.637308 -0.112800 -0.943510
v 0.622586 -0.124807 -0.946308
v 0.635832 -0.124807 -0.946872
v 0.637308 -0.112800 -0.943510
v 0.624875 -0.112800 -0.944022
v 0.631785 -0.133596 -0.956095
v 0.626254 -0.136800 -0.968698
v 0.620722 -0.133596 -0.981301
v 0.597500 -0.124807 -0.982109
v 0.616675 -0.124807 -0.990524
v 0.855727 -0.112800 -0.922427
v 0.851637 -0.112800 -0.945162
v 0.848362 -0.100792 -0.944572
v 0.852451 -0.100792 -0.921839
v 0.843464 -0.092003 -0.920222
v 0.831185 -0.088800 -0.918011
v 0.817501 -0.092003 -0.933018
v 0.818906 -0.092003 -0.915802
v 0.810133 -0.100792 -0.928074
v 0.809918 -0.100792 -0.914187
v 0.807448 -0.112800 -0.926271
v 0.806643 -0.112800 -0.913597
v 0.806643 -0.112800 -0.913597
v 0.807448 -0.112800 -0.926271
v 0.810133 -0.124807 -0.928074
v 0.809918 -0.124807 -0.914187
v 0.817501 -0.133596 -0.933018
v 0.818906 -0.133596 -0.915802
v 0.831185 -0.136800 -0.918011
v 0.843464 -0.133596 -0.920222
v 0.848362 -0.124807 -0.944572
v 0.852451 -0.124807 -0.921839
v 0.843740 -0.112800 -0.961388
v 0.826545 -0.112800 -0.973339
v 0.824449 -0.100792 -0.970324
v 0.841645 -0.100792 -0.958373
v 0.818701 -0.092003 -0.962053
v 0.810847 -0.088800 -0.950751
v 0.802991 -0.092003 -0.939450
v 0.797243 -0.100792 -0.931180
v 0.810133 -0.100792 -0.928074
v 0.795148 -0.112800 -0.928165
v 0.807448 -0.112800 -0.926271
v 0.807448 -0.112800 -0.926271
v 0.795148 -0.112800 -0.928165
v 0.797243 -0.124807 -0.931180
v 0.810133 -0.124807 -0.928074
v 0.802991 -0.133596 -0.939450
v 0.810847 -0.136800 -0.950751
v 0.818701 -0.133596 -0.962053
v 0.824449 -0.124807 -0.970324
v 0.841645 -0.124807 -0.958373
v 0.561579 -0.100792 -0.760314
v 0.558390 -0.112800 -0.760623
v 0.569591 -0.112800 -0.747479
v 0.571131 -0.106998 -0.747330
v 0.570326 -0.092003 -0.759463
v 0.575342 -0.102767 -0.746920
v 0.582277 -0.088800 -0.758302
v 0.581116 -0.101219 -0.746358
v 0.594230 -0.092003 -0.757139
v 0.586890 -0.102767 -0.745796
v 0.602977 -0.100792 -0.756290
v 0.591102 -0.106998 -0.745387
v 0.606165 -0.112800 -0.755979
v 0.592642 -0.112800 -0.745238
v 0.602977 -0.124807 -0.756290
v 0.591102 -0.118601 -0.745387
v 0.594230 -0.133596 -0.757140
v 0.586890 -0.122832 -0.745796
v 0.582277 -0.136800 -0.758302
v 0.581116 -0.124380 -0.746358
v 0.570326 -0.133596 -0.759463
v 0.575342 -0.122832 -0.746920
v 0.561579 -0.124807 -0.760314
v 0.571131 -0.118601 -0.747330
v 0.558390 -0.112800 -0.760623
v 0.561579 -0.100792 -0.760314
v 0.570326 -0.092003 -0.759463
v 0.582277 -0.088800 -0.758302
v 0.594230 -0.092003 -0.757139
v 0.602977 -0.100792 -0.756290
v 0.606165 -0.112800 -0.755979
v 0.606165 -0.112800 -0.755979
v 0.602977 -0.124807 -0.756290
v 0.594230 -0.133596 -0.757140
v 0.582277 -0.136800 -0.758302
v 0.570326 -0.133596 -0.759463
v 0.561579 -0.124807 -0.760314
v 0.693145 -0.112800 -0.986307
v 0.692836 -0.100792 -0.983120
v 0.691985 -0.092003 -0.974372
v 0.690824 -0.088800 -0.962420
v 0.689662 -0.092003 -0.950469
v 0.748289 -0.124807 -0.977729
v 0.748598 -0.112800 -0.980917
v 0.747438 -0.133596 -0.968981
v 0.746277 -0.136800 -0.957029
v 0.745114 -0.133596 -0.945077
v 0.744265 -0.124807 -0.936330
v 0.743954 -0.112800 -0.933142
v 0.744265 -0.100792 -0.936330
v 0.743954 -0.112800 -0.933142
v 0.745114 -0.092003 -0.945077
v 0.746277 -0.088800 -0.957029
v 0.747438 -0.092003 -0.968981
v 0.748289 -0.100792 -0.977729
v 0.837360 -0.112800 -0.733502
v 0.834172 -0.124807 -0.733813
v 0.825425 -0.133596 -0.734663
v 0.813473 -0.136800 -0.735825
v 0.801521 -0.133596 -0.736987
v 0.792774 -0.124807 -0.737837
v 0.789586 -0.112800 -0.738147
v 0.789586 -0.112800 -0.738147
v 0.792774 -0.100792 -0.737837
v 0.801521 -0.092003 -0.736987
v 0.813473 -0.088800 -0.735825
v 0.825425 -0.092003 -0.734663
v 0.834172 -0.100792 -0.733813
v 0.822298 -0.118601 -0.722910
v 0.834172 -0.124807 -0.733813
v 0.837360 -0.112800 -0.733502
v 0.823837 -0.112800 -0.722761
v 0.818086 -0.122832 -0.723320
v 0.825425 -0.133596 -0.734663
v 0.812311 -0.124380 -0.723880
v 0.813473 -0.136800 -0.735825
v 0.806537 -0.122832 -0.724442
v 0.801521 -0.133596 -0.736987
v 0.802326 -0.118601 -0.724852
v 0.792774 -0.124807 -0.737837
v 0.800786 -0.112800 -0.725002
v 0.789586 -0.112800 -0.738147
v 0.802326 -0.106998 -0.724852
v 0.792774 -0.100792 -0.737837
v 0.806537 -0.102767 -0.724442
v 0.801521 -0.092003 -0.736987
v 0.812311 -0.101219 -0.723880
v 0.813473 -0.088800 -0.735825
v 0.818086 -0.102767 -0.723320
v 0.825425 -0.092003 -0.734663
v 0.822298 -0.106998 -0.722910
v 0.834172 -0.100792 -0.733813
v 0.692836 -0.124807 -0.983120
v 0.691985 -0.133596 -0.974372
v 0.690824 -0.136800 -0.962420
v 0.689662 -0.133596 -0.950469
v 0.688812 -0.124807 -0.941721
v 0.688501 -0.112800 -0.938533
v 0.688812 -0.100792 -0.941721
v 0.688501 -0.112800 -0.938533
vn -0.0969 -0.0000 0.9953
vn -0.0968 -0.0000 0.9953
vn -0.0970 0.0001 0.9953
vn -0.0968 -0.0001 0.9953
vn -0.0968 0.0001 0.9953
vn -0.0967 -0.0000 0.9953
vn -0.2926 0.8845 -0.3633
vn -0.4280 0.8715 -0.2393
vn -0.0421 0.9988 -0.0257
vn -0.2926 -0.8846 -0.3632
vn -0.0407 -0.9988 -0.0277
vn -0.4280 -0.8715 -0.2394
vn -0.0965 -0.0002 0.9953
vn -0.0971 0.0001 0.9953
vn 0.3570 -0.8845 -0.3002
vn 0.4661 -0.8715 -0.1524
vn 0.0463 -0.9988 -0.0172
vn 0.0453 0.9988 -0.0195
vn 0.4661 0.8715 -0.1524
vn 0.3570 0.8846 -0.3001
vn -0.0969 -0.0001 0.9953
vn -0.0968 -0.0003 0.9953
vn -0.0967 -0.0001 0.9953
vn -0.0971 -0.0001 0.9953
vn -0.8372 0.5093 -0.1993
vn -0.7511 0.5093 -0.4201
vn -0.8730 -0.0000 -0.4877
vn -0.9727 -0.0000 -0.2320
vn -0.4773 0.8715 -0.1128
vn 0.0041 1.0000 -0.0018
vn 0.4974 0.8630 0.0883
vn 0.3046 0.8925 0.3326
vn 0.8630 0.4900 0.1232
vn 0.8623 0.4796 0.1624
vn 0.9921 0.0006 0.1254
vn 0.9881 0.0013 0.1538
vn 0.8648 -0.4869 0.1228
vn 0.8658 -0.4736 0.1615
vn 0.9881 0.0011 0.1537
vn 0.9921 0.0005 0.1254
vn 0.5012 -0.8608 0.0882
vn 0.3103 -0.8934 0.3249
vn 0.0053 -1.0000 -0.0018
vn -0.4774 -0.8714 -0.1128
vn -0.8372 -0.5093 -0.1993
vn -0.7511 -0.5093 -0.4201
vn -0.5272 0.5343 -0.6607
vn -0.1293 0.5344 -0.8353
vn -0.1563 -0.0000 -0.9877
vn -0.6211 -0.0000 -0.7837
vn -0.0678 0.8844 -0.4618
vn -0.0036 0.9999 0.0097
vn 0.0192 0.8628 0.5052
vn 0.0474 0.4682 0.8823
vn -0.0183 0.4850 0.8743
vn 0.0006 -0.0013 1.0000
vn -0.0479 -0.0006 0.9989
vn 0.0520 -0.4788 0.8764
vn -0.0160 -0.4904 0.8713
vn -0.0479 -0.0010 0.9989
vn 0.0007 -0.0015 1.0000
vn 0.0217 -0.8669 0.4980
vn -0.0032 -1.0000 0.0071
vn -0.0678 -0.8844 -0.4618
vn -0.5272 -0.5343 -0.6607
vn -0.1293 -0.5344 -0.8353
vn 0.9992 -0.0000 -0.0404
vn 0.9506 -0.0000 -0.3104
vn 0.8179 0.5093 -0.2675
vn 0.8599 0.5093 -0.0343
vn 0.4902 0.8714 -0.0188
vn -0.0050 1.0000 -0.0028
vn -0.3671 0.8934 0.2590
vn -0.5088 0.8608 -0.0101
vn -0.8808 0.4735 -0.0083
vn -0.8722 0.4869 -0.0461
vn -0.9992 -0.0010 -0.0395
vn -0.9977 -0.0004 -0.0681
vn -0.9977 -0.0006 -0.0681
vn -0.9992 -0.0012 -0.0395
vn -0.8775 -0.4796 -0.0068
vn -0.8705 -0.4900 -0.0453
vn -0.3629 -0.8926 0.2676
vn -0.5051 -0.8630 -0.0091
vn -0.0036 -1.0000 -0.0025
vn 0.4902 -0.8714 -0.0188
vn 0.8179 -0.5093 -0.2675
vn 0.8599 -0.5093 -0.0343
vn 0.7604 -0.0000 -0.6495
vn 0.3437 -0.0000 -0.9391
vn 0.2878 0.5343 -0.7948
vn 0.6446 0.5344 -0.5468
vn 0.1556 0.8844 -0.4401
vn 0.0018 1.0000 0.0076
vn -0.1172 0.8669 0.4845
vn -0.1522 0.4904 0.8581
vn -0.2199 0.4788 0.8499
vn -0.1454 0.0010 0.9894
vn -0.1933 0.0015 0.9811
vn -0.1933 0.0014 0.9811
vn -0.1454 0.0007 0.9894
vn -0.1505 -0.4850 0.8615
vn -0.2166 -0.4682 0.8567
vn -0.1162 -0.8628 0.4920
vn 0.0017 -0.9999 0.0102
vn 0.1556 -0.8844 -0.4401
vn 0.2878 -0.5344 -0.7947
vn 0.6446 -0.5344 -0.5468
vn -0.6686 0.3470 0.6577
vn -0.7611 -0.0000 0.6486
vn -0.4150 0.6018 0.6824
vn -0.4150 0.6018 0.6823
vn -0.0696 0.6949 0.7158
vn -0.0697 0.6949 0.7157
vn 0.2758 0.6018 0.7495
vn 0.5294 0.3470 0.7742
vn 0.6220 -0.0000 0.7830
vn 0.5294 -0.3470 0.7742
vn 0.2758 -0.6018 0.7495
vn -0.0696 -0.6949 0.7158
vn -0.0696 -0.6948 0.7158
vn -0.4150 -0.6018 0.6824
vn -0.4150 -0.6017 0.6824
vn -0.6686 -0.3470 0.6577
vn -0.9953 -0.0000 -0.0968
vn -0.8622 0.4995 -0.0838
vn -0.4972 0.8663 -0.0483
vn -0.0000 1.0000 -0.0000
vn 0.4972 0.8663 0.0483
vn 0.8622 0.4995 0.0838
vn 0.9953 0.0001 0.0967
vn 0.9953 -0.0001 0.0968
vn 0.8622 -0.4995 0.0838
vn 0.4972 -0.8663 0.0483
vn -0.0000 -1.0000 -0.0000
vn -0.4972 -0.8663 -0.0483
vn -0.8622 -0.4995 -0.0838
vn 0.0968 -0.0000 -0.9953
vn 0.0838 0.4995 -0.8623
vn 0.0483 0.8663 -0.4972
vn -0.0483 0.8663 0.4972
vn 0.0838 -0.4995 -0.8622
vn 0.0483 -0.8663 -0.4972
vn -0.0483 -0.8663 0.4972
vn -0.0838 -0.4995 0.8622
vn -0.0838 0.4995 0.8622
vn -0.0967 0.0003 0.9953
vn 0.9953 -0.0000 0.0968
vn -0.9953 -0.0002 -0.0967
vn -0.9953 0.0003 -0.0968
vn 0.5294 -0.3471 0.7742
vn 0.5294 -0.3471 0.7741
vn 0.6220 0.0001 0.7830
vn 0.2759 -0.6018 0.7495
vn -0.4151 -0.6018 0.6823
vn -0.4150 -0.6018 0.6823
vn -0.7612 -0.0000 0.6485
vn -0.4151 0.6018 0.6823
vn -0.0695 0.6949 0.7158
vn 0.2757 0.6018 0.7495
vn 0.5294 0.3469 0.7742
vn 0.5294 0.3470 0.7741
vn 0.0838 -0.4995 -0.8623
vn -0.0968 0.0003 0.9953
vt 0.633752 0.696071
vt 0.635660 0.696012
vt 0.631127 0.693466
vt 0.638234 0.691497
vt 0.633699 0.688951
vt 0.632017 0.689880
vt 0.631077 0.691562
vt 0.635608 0.688891
vt 0.638284 0.693400
vt 0.637282 0.689827
vt 0.637338 0.695069
vt 0.424051 0.631871
vt 0.422090 0.631668
vt 0.423104 0.628151
vt 0.424097 0.643106
vt 0.423197 0.646842
vt 0.422145 0.643333
vt 0.605409 0.693395
vt 0.606345 0.695068
vt 0.608015 0.696019
vt 0.424078 0.563777
vt 0.422125 0.563556
vt 0.423166 0.560044
vt 0.423135 0.578735
vt 0.422109 0.575222
vt 0.424070 0.575012
vt 0.608080 0.688863
vt 0.606411 0.689808
vt 0.605468 0.691487
vt 0.612589 0.691539
vt 0.611653 0.689864
vt 0.609983 0.688913
vt 0.611600 0.695129
vt 0.612530 0.693448
vt 0.609918 0.696069
vt 0.632078 0.695135
vt 0.415822 0.634084
vt 0.421395 0.634693
vt 0.421159 0.637513
vt 0.415806 0.637538
vt 0.416036 0.630449
vt 0.416363 0.626425
vt 0.416751 0.621994
vt 0.423197 0.623794
vt 0.417039 0.617250
vt 0.423225 0.618359
vt 0.417216 0.612233
vt 0.422929 0.612670
vt 0.417234 0.657812
vt 0.423413 0.656647
vt 0.423169 0.662341
vt 0.417458 0.662831
vt 0.416902 0.653070
vt 0.423333 0.651207
vt 0.416472 0.648640
vt 0.416106 0.644620
vt 0.415856 0.640991
vt 0.421425 0.640331
vt 0.424667 0.634902
vt 0.429130 0.634454
vt 0.429122 0.637441
vt 0.424947 0.637493
vt 0.429151 0.631088
vt 0.429198 0.626988
vt 0.429232 0.622086
vt 0.429176 0.616721
vt 0.428513 0.611261
vt 0.429384 0.658231
vt 0.428772 0.663700
vt 0.429393 0.652865
vt 0.429319 0.647962
vt 0.429244 0.643858
vt 0.424717 0.640108
vt 0.429176 0.640405
vt 0.415806 0.569373
vt 0.421159 0.569381
vt 0.421404 0.572199
vt 0.415833 0.572827
vt 0.416059 0.576461
vt 0.416400 0.580484
vt 0.423243 0.583092
vt 0.416803 0.584914
vt 0.423289 0.588527
vt 0.417107 0.589656
vt 0.423012 0.594217
vt 0.417301 0.594673
vt 0.417373 0.544075
vt 0.423087 0.544545
vt 0.423349 0.550239
vt 0.417167 0.549093
vt 0.423288 0.555679
vt 0.416850 0.553838
vt 0.416435 0.558268
vt 0.416082 0.562290
vt 0.421415 0.566561
vt 0.415844 0.565919
vt 0.424947 0.569388
vt 0.429123 0.569426
vt 0.429140 0.572413
vt 0.424676 0.571980
vt 0.429172 0.575778
vt 0.429233 0.579878
vt 0.429284 0.584780
vt 0.429245 0.590145
vt 0.428600 0.595606
vt 0.428685 0.543167
vt 0.429315 0.548635
vt 0.429342 0.554001
vt 0.429284 0.558903
vt 0.429223 0.563008
vt 0.429167 0.566461
vt 0.424708 0.566774
vt 0.625349 0.689939
vt 0.625354 0.694993
vt 0.627846 0.685651
vt 0.632175 0.683160
vt 0.637228 0.683163
vt 0.641508 0.685656
vt 0.644002 0.689974
vt 0.644000 0.695025
vt 0.641506 0.699300
vt 0.637188 0.701793
vt 0.632136 0.701797
vt 0.627854 0.699310
vt 0.352491 0.637842
vt 0.352496 0.633312
vt 0.352536 0.628800
vt 0.352603 0.624314
vt 0.352686 0.619837
vt 0.352780 0.615336
vt 0.352881 0.610800
vt 0.353140 0.664879
vt 0.352996 0.660345
vt 0.352859 0.655845
vt 0.352733 0.651369
vt 0.352623 0.646883
vt 0.352539 0.642373
vt 0.454592 0.637347
vt 0.454342 0.632316
vt 0.453783 0.627283
vt 0.452976 0.622243
vt 0.452019 0.617196
vt 0.454380 0.564402
vt 0.454592 0.569434
vt 0.453858 0.559365
vt 0.453086 0.554317
vt 0.452163 0.549262
vt 0.451173 0.544149
vt 0.450156 0.538960
vt 0.451079 0.594701
vt 0.450046 0.599884
vt 0.452086 0.589594
vt 0.453026 0.584544
vt 0.453816 0.579501
vt 0.454359 0.574466
vt 0.352490 0.569280
vt 0.352523 0.564749
vt 0.352592 0.560239
vt 0.352687 0.555753
vt 0.352798 0.551276
vt 0.352919 0.546776
vt 0.353049 0.542241
vt 0.352970 0.596321
vt 0.352854 0.591786
vt 0.352746 0.587285
vt 0.352648 0.582808
vt 0.352566 0.578322
vt 0.352510 0.573811
vt 0.602170 0.699293
vt 0.606487 0.701793
vt 0.599683 0.695010
vt 0.599687 0.689959
vt 0.602180 0.685641
vt 0.606455 0.683147
vt 0.611507 0.683145
vt 0.615824 0.685638
vt 0.618317 0.689919
vt 0.618320 0.694971
vt 0.615830 0.699301
vt 0.611541 0.701797
vt 0.454397 0.642381
vt 0.453891 0.647420
vt 0.453136 0.652470
vt 0.452230 0.657528
vt 0.451256 0.662645
vt 0.450257 0.667836
vt 0.450995 0.612092
vt 0.449944 0.606913
s 1
usemtl door1
f 539/347/63 540/348/64 541/349/63
f 540/348/64 542/350/64 543/351/64
f 544/352/64 545/353/65 541/349/63
f 546/354/66 543/351/64 542/350/64
f 547/355/67 542/350/64 540/348/64
f 541/349/63 540/348/64 543/351/64
f 543/351/64 544/352/64 541/349/63
f 548/356/68 546/354/66 542/350/64
f 549/357/66 547/355/67 540/348/64
f 550/358/69 551/359/70 552/360/71
f 553/361/72 554/362/73 555/363/74
f 556/364/75 557/365/76 558/366/68
f 559/367/77 560/368/78 561/369/79
f 562/370/80 563/371/81 564/372/82
f 565/373/83 566/374/84 567/375/68
f 568/376/64 569/377/76 570/378/63
f 571/379/85 572/380/68 558/366/68
f 567/375/68 558/366/68 572/380/68
f 570/378/63 565/373/83 567/375/68
f 572/380/68 568/376/64 570/378/63
f 573/381/86 571/379/85 558/366/68
f 570/378/63 567/375/68 572/380/68
f 567/375/68 556/364/75 558/366/68
f 574/382/86 539/347/63 541/349/63
f 575/383/87 576/384/88 577/385/89
f 575/383/87 577/385/89 578/386/90
f 579/387/91 551/359/70 576/384/88
f 579/387/91 576/384/88 575/383/87
f 580/388/92 552/360/71 551/359/70
f 580/388/92 551/359/70 579/387/91
f 581/389/93 582/390/94 552/360/71
f 581/389/93 552/360/71 580/388/92
f 583/391/95 584/392/96 582/390/94
f 583/391/95 582/390/94 581/389/93
f 585/393/97 586/394/98 584/392/96
f 585/393/97 584/392/96 583/391/95
f 587/395/99 588/396/100 589/397/101
f 587/395/99 589/397/101 590/398/102
f 591/399/103 592/400/104 588/396/100
f 591/399/103 588/396/100 587/395/99
f 593/401/105 554/362/73 592/400/104
f 593/401/105 592/400/104 591/399/103
f 594/402/106 555/363/74 554/362/73
f 594/402/106 554/362/73 593/401/105
f 595/403/107 596/404/108 555/363/74
f 595/403/107 555/363/74 594/402/106
f 578/386/90 577/385/89 596/404/108
f 578/386/90 596/404/108 595/403/107
f 597/405/109 598/406/110 599/407/111
f 597/405/109 599/407/111 600/408/112
f 550/358/69 601/409/113 598/406/110
f 550/358/69 598/406/110 597/405/109
f 552/360/71 602/410/114 601/409/113
f 552/360/71 601/409/113 550/358/69
f 582/390/94 603/411/115 602/410/114
f 582/390/94 602/410/114 552/360/71
f 604/392/116 605/412/117 603/411/115
f 604/392/116 603/411/115 582/390/94
f 606/394/118 607/413/119 605/412/117
f 606/394/118 605/412/117 604/392/116
f 608/396/120 609/414/121 610/415/122
f 608/396/120 610/415/122 611/397/123
f 592/400/104 612/416/124 609/414/121
f 592/400/104 609/414/121 608/396/120
f 554/362/73 613/417/125 612/416/124
f 554/362/73 612/416/124 592/400/104
f 553/361/72 614/418/126 613/417/125
f 553/361/72 613/417/125 554/362/73
f 615/419/127 616/420/128 614/418/126
f 615/419/127 614/418/126 553/361/72
f 600/408/112 599/407/111 616/420/128
f 600/408/112 616/420/128 615/419/127
f 617/421/129 618/422/130 619/423/131
f 617/421/129 619/423/131 620/424/132
f 620/424/132 619/423/131 563/371/81
f 620/424/132 563/371/81 621/425/133
f 621/425/133 563/371/81 562/370/80
f 621/425/133 562/370/80 622/426/134
f 622/426/134 562/370/80 623/427/135
f 622/426/134 623/427/135 624/428/136
f 624/428/136 623/427/135 625/429/137
f 624/428/136 625/429/137 626/430/138
f 626/430/138 625/429/137 627/431/139
f 626/430/138 627/431/139 628/432/140
f 629/433/141 630/434/142 631/435/143
f 629/433/141 631/435/143 632/436/144
f 632/436/144 631/435/143 633/437/145
f 632/436/144 633/437/145 634/438/146
f 634/438/146 633/437/145 561/369/79
f 634/438/146 561/369/79 635/439/147
f 635/439/147 561/369/79 560/368/78
f 635/439/147 560/368/78 636/440/148
f 636/440/148 560/368/78 637/441/149
f 636/440/148 637/441/149 638/442/150
f 638/442/150 637/441/149 618/422/130
f 638/442/150 618/422/130 617/421/129
f 639/443/151 640/444/152 641/445/153
f 639/443/151 641/445/153 642/446/154
f 642/446/154 641/445/153 643/447/155
f 642/446/154 643/447/155 564/372/82
f 564/372/82 643/447/155 644/448/156
f 564/372/82 644/448/156 562/370/80
f 562/370/80 644/448/156 645/449/157
f 562/370/80 645/449/157 623/427/135
f 623/427/135 645/449/157 646/450/158
f 623/427/135 646/450/158 647/429/159
f 647/429/159 646/450/158 648/451/160
f 647/429/159 648/451/160 649/431/161
f 650/434/162 651/452/163 652/453/164
f 650/434/162 652/453/164 653/435/165
f 653/435/165 652/453/164 654/454/166
f 653/435/165 654/454/166 633/437/145
f 633/437/145 654/454/166 655/455/167
f 633/437/145 655/455/167 561/369/79
f 561/369/79 655/455/167 656/456/168
f 561/369/79 656/456/168 559/367/77
f 559/367/77 656/456/168 657/457/169
f 559/367/77 657/457/169 658/458/170
f 658/458/170 657/457/169 640/444/152
f 658/458/170 640/444/152 639/443/151
f 659/459/171 660/460/172 661/349/172
f 659/459/171 661/349/172 662/353/171
f 663/461/173 659/459/171 662/353/171
f 663/461/173 662/353/171 664/352/174
f 665/462/175 663/461/173 664/352/174
f 665/462/175 664/352/174 666/351/176
f 667/463/177 665/462/175 666/351/176
f 667/463/177 666/351/176 668/354/177
f 669/464/178 667/463/177 668/354/177
f 669/464/178 668/354/177 670/356/178
f 671/465/179 669/464/178 670/356/178
f 671/465/179 670/356/178 672/350/179
f 673/466/180 671/465/179 672/350/179
f 673/466/180 672/350/179 674/355/180
f 675/467/181 673/466/180 674/355/180
f 675/467/181 674/355/180 676/357/181
f 677/468/182 675/467/181 676/357/181
f 677/468/182 676/357/181 678/348/183
f 679/469/184 677/468/182 678/348/183
f 679/469/184 678/348/183 680/347/185
f 681/470/186 679/469/184 680/347/185
f 681/470/186 680/347/185 682/382/186
f 660/460/172 681/470/186 682/382/186
f 660/460/172 682/382/186 661/349/172
f 578/386/90 683/471/187 684/472/188
f 578/386/90 684/472/188 575/383/87
f 575/383/87 684/472/188 685/473/189
f 575/383/87 685/473/189 579/387/91
f 579/387/91 685/473/189 686/474/190
f 579/387/91 686/474/190 580/388/92
f 580/388/92 686/474/190 687/475/191
f 580/388/92 687/475/191 581/389/93
f 581/389/93 687/475/191 688/476/192
f 581/389/93 688/476/192 583/391/95
f 583/391/95 688/476/192 689/477/193
f 583/391/95 689/477/193 585/393/97
f 590/398/102 690/478/194 691/479/195
f 590/398/102 691/479/195 587/395/99
f 587/395/99 691/479/195 692/480/196
f 587/395/99 692/480/196 591/399/103
f 591/399/103 692/480/196 693/481/197
f 591/399/103 693/481/197 593/401/105
f 593/401/105 693/481/197 694/482/198
f 593/401/105 694/482/198 594/402/106
f 594/402/106 694/482/198 695/483/199
f 594/402/106 695/483/199 595/403/107
f 595/403/107 695/483/199 683/471/187
f 595/403/107 683/471/187 578/386/90
f 600/408/112 577/385/89 576/384/88
f 600/408/112 576/384/88 597/405/109
f 597/405/109 576/384/88 551/359/70
f 597/405/109 551/359/70 550/358/69
f 553/361/72 555/363/74 596/404/108
f 553/361/72 596/404/108 615/419/127
f 615/419/127 596/404/108 577/385/89
f 615/419/127 577/385/89 600/408/112
f 696/484/200 599/407/111 598/406/110
f 696/484/200 598/406/110 697/485/201
f 697/485/201 598/406/110 601/409/113
f 697/485/201 601/409/113 698/486/202
f 698/486/202 601/409/113 602/410/114
f 698/486/202 602/410/114 699/487/190
f 699/487/190 602/410/114 603/411/115
f 699/487/190 603/411/115 700/488/203
f 640/444/152 657/457/169 701/489/204
f 640/444/152 701/489/204 702/490/200
f 657/457/169 656/456/168 703/491/205
f 657/457/169 703/491/205 701/489/204
f 656/456/168 655/455/167 704/492/197
f 656/456/168 704/492/197 703/491/205
f 655/455/167 654/454/166 705/493/206
f 655/455/167 705/493/206 704/492/197
f 654/454/166 652/453/164 706/494/207
f 654/454/166 706/494/207 705/493/206
f 652/453/164 651/452/163 707/495/66
f 652/453/164 707/495/66 706/494/207
f 648/451/160 646/450/158 708/496/208
f 648/451/160 708/496/208 709/497/209
f 646/450/158 645/449/157 710/498/203
f 646/450/158 710/498/203 708/496/208
f 645/449/157 644/448/156 711/499/190
f 645/449/157 711/499/190 710/498/203
f 644/448/156 643/447/155 712/500/202
f 644/448/156 712/500/202 711/499/190
f 643/447/155 641/445/153 713/501/201
f 643/447/155 713/501/201 712/500/202
f 641/445/153 640/444/152 702/490/200
f 641/445/153 702/490/200 713/501/201
f 618/422/130 637/441/149 658/458/170
f 618/422/130 658/458/170 639/443/151
f 637/441/149 560/368/78 559/367/77
f 637/441/149 559/367/77 658/458/170
f 563/371/81 619/423/131 642/446/154
f 563/371/81 642/446/154 564/372/82
f 619/423/131 618/422/130 639/443/151
f 619/423/131 639/443/151 642/446/154
f 714/502/210 715/503/195 638/442/150
f 714/502/210 638/442/150 617/421/129
f 715/503/195 716/504/196 636/440/148
f 715/503/195 636/440/148 638/442/150
f 716/504/196 717/505/197 635/439/147
f 716/504/196 635/439/147 636/440/148
f 717/505/197 718/506/198 634/438/146
f 717/505/197 634/438/146 635/439/147
f 718/506/198 719/507/199 632/436/144
f 718/506/198 632/436/144 634/438/146
f 719/507/199 720/508/211 629/433/141
f 719/507/199 629/433/141 632/436/144
f 721/509/212 722/510/188 626/430/138
f 721/509/212 626/430/138 628/432/140
f 722/510/188 723/511/189 624/428/136
f 722/510/188 624/428/136 626/430/138
f 723/511/189 724/512/190 622/426/134
f 723/511/189 622/426/134 624/428/136
f 724/512/190 725/513/191 621/425/133
f 724/512/190 621/425/133 622/426/134
f 725/513/191 726/514/192 620/424/132
f 725/513/191 620/424/132 621/425/133
f 726/514/192 714/502/210 617/421/129
f 726/514/192 617/421/129 620/424/132
f 727/365/213 728/515/214 729/516/179
f 727/365/213 729/516/179 730/366/215
f 731/364/216 732/517/181 728/515/214
f 731/364/216 728/515/214 727/365/213
f 733/375/183 734/518/182 732/517/181
f 733/375/183 732/517/181 731/364/216
f 735/374/217 736/519/218 734/518/182
f 735/374/217 734/518/182 733/375/183
f 737/373/186 738/520/186 736/519/218
f 737/373/186 736/519/218 735/374/217
f 739/378/219 740/521/219 738/520/186
f 739/378/219 738/520/186 737/373/186
f 741/377/171 742/522/171 740/521/219
f 741/377/171 740/521/219 739/378/219
f 743/376/220 744/523/174 742/522/171
f 743/376/220 742/522/171 741/377/171
f 745/380/221 746/524/175 744/523/174
f 745/380/221 744/523/174 743/376/220
f 747/379/222 748/525/177 746/524/175
f 747/379/222 746/524/175 745/380/221
f 749/381/223 750/526/224 748/525/177
f 749/381/223 748/525/177 747/379/222
f 730/366/215 729/516/179 750/526/224
f 730/366/215 750/526/224 749/381/223
f 751/527/225 616/420/128 599/407/111
f 751/527/225 599/407/111 696/484/200
f 752/528/205 614/418/126 616/420/128
f 752/528/205 616/420/128 751/527/225
f 753/529/197 613/417/125 614/418/126
f 753/529/197 614/418/126 752/528/205
f 754/530/206 612/416/124 613/417/125
f 754/530/206 613/417/125 753/529/197
f 755/531/207 609/414/121 612/416/124
f 755/531/207 612/416/124 754/530/206
f 756/532/85 610/415/122 609/414/121
f 756/532/85 609/414/121 755/531/207
f 757/533/208 605/412/117 607/413/119
f 757/533/208 607/413/119 758/534/226
f 700/488/203 603/411/115 605/412/117
f 700/488/203 605/412/117 757/533/208
