# Blender 4.3.2
# www.blender.org
mtllib closeddoor.mtl
o door_door1_0
v -0.570461 1.171148 0.030703
v -0.401143 0.555470 0.030703
v -0.401143 0.944066 0.030703
v -0.570461 -1.289934 0.030703
v 0.573137 -0.861090 -0.026759
v 0.573137 -0.861090 0.040674
v 0.563584 -0.861090 0.037457
v 0.580788 -0.744047 0.051438
v 0.580788 -0.884560 0.051438
v 0.573137 -0.861090 0.040674
v 0.563584 -0.861090 0.037457
v 0.546096 -0.884560 0.042143
v 0.546096 -0.744047 0.042143
v 0.573137 -0.744102 -0.026759
v 0.563584 -0.744102 -0.026759
v 0.563584 -0.744102 0.037457
v 0.563584 -0.744102 -0.026759
v 0.563584 -0.861090 -0.026759
v 0.563584 -0.861090 0.037457
v 0.566125 -0.884560 0.036775
v 0.580788 -0.884560 0.051438
v 0.560759 -0.884560 0.056806
v 0.563584 -0.744102 -0.026759
v 0.573137 -0.744102 -0.026759
v 0.573137 -0.861090 -0.026759
v 0.546096 -0.884560 0.042143
v 0.573137 -0.861090 -0.026759
v 0.573137 -0.744102 -0.026759
v 0.573137 -0.744102 0.040674
v 0.540730 -0.884560 0.062172
v 0.555392 -0.884560 0.076835
v 0.575422 -0.884560 0.071467
v 0.573137 -0.744102 0.040674
v 0.575422 -0.744047 0.071467
v 0.580788 -0.744047 0.051438
v 0.555392 -0.744047 0.076835
v 0.546096 -0.744047 0.042143
v 0.540730 -0.744047 0.062172
v 0.566125 -0.884560 0.036775
v 0.566125 -0.884560 0.036775
v 0.563584 -0.861090 0.037457
v 0.563584 -0.744102 0.037457
v 0.563584 -0.744102 0.037457
v 0.563584 -0.861090 -0.026759
v 0.563584 -0.861090 -0.026759
v 0.573137 0.475234 -0.026759
v 0.573137 0.475234 0.040674
v 0.563584 0.475234 0.037457
v 0.580788 0.592277 0.051438
v 0.580788 0.451764 0.051438
v 0.573137 0.475234 0.040674
v 0.563584 0.475234 0.037457
v 0.546096 0.451764 0.042143
v 0.546096 0.592277 0.042143
v 0.573137 0.592220 -0.026759
v 0.563584 0.592220 -0.026759
v 0.563584 0.592220 0.037457
v 0.563584 0.592220 -0.026759
v 0.563584 0.475234 -0.026759
v 0.563584 0.475234 0.037457
v 0.566125 0.451764 0.036775
v 0.580788 0.451764 0.051438
v 0.560759 0.451764 0.056806
v 0.563584 0.592220 -0.026759
v 0.573137 0.592220 -0.026759
v 0.573137 0.475234 -0.026759
v 0.546096 0.451764 0.042143
v 0.573137 0.475234 -0.026759
v 0.573137 0.592220 -0.026759
v 0.573137 0.592220 0.040674
v 0.540730 0.451764 0.062172
v 0.555392 0.451764 0.076835
v 0.575422 0.451764 0.071467
v 0.573137 0.592220 0.040674
v 0.575422 0.592277 0.071467
v 0.580788 0.592277 0.051438
v 0.555392 0.592277 0.076835
v 0.546096 0.592277 0.042143
v 0.540730 0.592277 0.062172
v 0.566125 0.451764 0.036775
v 0.566125 0.451764 0.036775
v 0.563584 0.475234 0.037457
v 0.563584 0.592220 0.037457
v 0.563584 0.592220 0.037457
v 0.563584 0.475234 -0.026759
v 0.563584 0.475234 -0.026759
v 0.570461 1.171148 -0.029297
v 0.401143 0.944066 -0.029297
v -0.401143 0.944066 -0.029297
v -0.570461 1.171148 -0.029297
v -0.570461 -1.289934 -0.029297
v -0.401143 0.555470 -0.029297
v 0.570461 -1.289934 -0.029297
v 0.401143 0.555470 -0.029297
v 0.401143 0.555470 0.030703
v 0.570461 -1.289934 0.030703
v 0.570461 1.171148 0.030703
v 0.401143 0.944066 0.030703
v 0.570461 1.171148 0.030703
v 0.570461 1.171148 -0.029297
v -0.570461 1.171148 -0.029297
v -0.570461 1.171148 0.030703
v 0.570461 -1.289934 0.030703
v 0.570461 -1.289934 -0.029297
v 0.570461 1.171148 -0.029297
v 0.570461 1.171148 0.030703
v -0.570461 -1.289934 0.030703
v -0.570461 -1.289934 -0.029297
v 0.570461 -1.289934 -0.029297
v 0.570461 -1.289934 0.030703
v -0.570461 1.171148 0.030703
v -0.570461 1.171148 -0.029297
v -0.570461 -1.289934 -0.029297
v -0.570461 -1.289934 0.030703
v 0.540730 -0.884560 0.062172
v 0.540730 -0.744047 0.062172
v 0.546096 -0.744047 0.042143
v 0.546096 -0.884560 0.042143
v 0.580788 -0.884560 0.051438
v 0.580788 -0.744047 0.051438
v 0.575422 -0.744047 0.071467
v 0.575422 -0.884560 0.071467
v 0.555392 -0.884560 0.076835
v 0.555392 -0.744047 0.076835
v 0.540730 -0.744047 0.062172
v 0.540730 -0.884560 0.062172
v 0.575422 -0.884560 0.071467
v 0.575422 -0.744047 0.071467
v 0.555392 -0.744047 0.076835
v 0.555392 -0.884560 0.076835
v -0.564132 -0.099583 0.018348
v -0.564132 -0.099583 -0.018348
v -0.575438 -0.099583 -0.018348
v -0.575438 -0.099583 0.018348
v -0.575438 -0.277183 0.018348
v -0.575438 -0.099583 0.018348
v -0.575438 -0.099583 -0.018348
v -0.575438 -0.277183 -0.018348
v 0.540730 0.451764 0.062172
v 0.540730 0.592277 0.062172
v 0.546096 0.592277 0.042143
v 0.546096 0.451764 0.042143
v 0.580788 0.451764 0.051438
v 0.580788 0.592277 0.051438
v 0.575422 0.592277 0.071467
v 0.575422 0.451764 0.071467
v 0.555392 0.451764 0.076835
v 0.555392 0.592277 0.076835
v 0.540730 0.592277 0.062172
v 0.540730 0.451764 0.062172
v 0.575422 0.451764 0.071467
v 0.575422 0.592277 0.071467
v 0.555392 0.592277 0.076835
v 0.555392 0.451764 0.076835
v -0.575438 -0.277183 -0.018348
v -0.575438 -0.099583 -0.018348
v -0.564132 -0.099583 -0.018348
v -0.564132 -0.277183 -0.018348
v -0.564132 -0.277183 -0.018348
v -0.564132 -0.277183 0.018348
v -0.575438 -0.277183 0.018348
v -0.575438 -0.277183 -0.018348
v 0.401143 0.555470 0.017388
v 0.401143 0.555470 0.030703
v 0.401143 0.944066 0.030703
v 0.401143 0.944066 0.017388
v -0.401143 0.944066 0.017388
v -0.401143 0.555470 0.017388
v 0.401143 0.555470 0.017388
v 0.401143 0.944066 0.017388
v -0.401143 0.944066 0.017388
v -0.401143 0.944066 0.030703
v -0.401143 0.555470 0.030703
v -0.401143 0.555470 0.017388
v 0.401143 0.944066 0.017388
v 0.401143 0.944066 0.030703
v -0.401143 0.944066 0.030703
v -0.401143 0.944066 0.017388
v -0.401143 0.555470 0.017388
v -0.401143 0.555470 0.030703
v 0.401143 0.555470 0.030703
v 0.401143 0.555470 0.017388
v 0.401143 0.944066 -0.017388
v 0.401143 0.944066 -0.029297
v 0.401143 0.555470 -0.029297
v 0.401143 0.555470 -0.017388
v -0.401143 0.944066 -0.017388
v 0.401143 0.944066 -0.017388
v 0.401143 0.555470 -0.017388
v -0.401143 0.555470 -0.017388
v -0.401143 0.555470 -0.017388
v -0.401143 0.555470 -0.029297
v -0.401143 0.944066 -0.029297
v -0.401143 0.944066 -0.017388
v -0.401143 0.944066 -0.017388
v -0.401143 0.944066 -0.029297
v 0.401143 0.944066 -0.029297
v 0.401143 0.944066 -0.017388
v 0.401143 0.555470 -0.017388
v 0.401143 0.555470 -0.029297
v -0.401143 0.555470 -0.029297
v -0.401143 0.555470 -0.017388
v -0.564132 -0.277183 0.018348
v -0.564132 -0.099583 0.018348
v -0.575438 -0.099583 0.018348
v -0.575438 -0.277183 0.018348
v -0.504751 -0.063316 -0.027184
v -0.425294 -0.063316 -0.027184
v -0.425294 -0.063316 -0.046135
v -0.504751 -0.063316 -0.046135
v -0.504751 -0.063316 -0.027184
v -0.504751 -0.063316 -0.046135
v -0.504751 -0.327316 -0.046135
v -0.504751 -0.327316 -0.027184
v -0.504751 -0.327316 -0.046135
v -0.425294 -0.327316 -0.046135
v -0.425294 -0.327316 -0.027184
v -0.504751 -0.327316 -0.027184
v -0.425294 -0.063316 -0.046135
v -0.425294 -0.063316 -0.027184
v -0.425294 -0.327316 -0.027184
v -0.425294 -0.327316 -0.046135
v -0.504751 -0.063316 -0.046135
v -0.425294 -0.063316 -0.046135
v -0.425294 -0.327316 -0.046135
v -0.504751 -0.327316 -0.046135
v -0.425294 -0.063316 0.046135
v -0.425294 -0.063316 0.027184
v -0.504751 -0.063316 0.027184
v -0.504751 -0.063316 0.046135
v -0.504751 -0.327316 0.046135
v -0.504751 -0.063316 0.046135
v -0.504751 -0.063316 0.027184
v -0.504751 -0.327316 0.027184
v -0.425294 -0.327316 0.027184
v -0.425294 -0.327316 0.046135
v -0.504751 -0.327316 0.046135
v -0.504751 -0.327316 0.027184
v -0.425294 -0.327316 0.027184
v -0.425294 -0.063316 0.027184
v -0.425294 -0.063316 0.046135
v -0.425294 -0.327316 0.046135
v -0.425294 -0.327316 0.046135
v -0.425294 -0.063316 0.046135
v -0.504751 -0.063316 0.046135
v -0.504751 -0.327316 0.046135
vn -0.0000 -0.0000 1.0000
vn -0.0000 -1.0000 -0.0000
vn 0.8151 -0.0000 -0.5794
vn 0.7630 -0.0469 -0.6447
vn 0.7927 -0.0068 -0.6095
vn -0.1183 0.0160 -0.9928
vn -0.2588 -0.0000 -0.9659
vn -0.0000 1.0000 -0.0000
vn 0.0006 1.0000 -0.0018
vn -1.0000 -0.0000 -0.0000
vn -0.0000 -0.0000 -1.0000
vn 1.0000 -0.0000 -0.0000
vn 0.9795 0.0005 -0.2016
vn -0.0002 1.0000 -0.0014
vn -0.0029 1.0000 -0.0016
vn -0.0052 1.0000 -0.0014
vn 0.0004 1.0000 -0.0013
vn 0.0019 1.0000 -0.0023
vn 0.0014 1.0000 -0.0005
vn 0.2804 -0.0116 -0.9598
vn 0.2803 -0.0115 -0.9598
vn -0.1183 0.0160 -0.9929
vn -0.0002 1.0000 -0.0011
vn -0.0054 1.0000 -0.0014
vn -0.9659 -0.0000 -0.2588
vn 0.9659 -0.0000 0.2588
vn -0.7071 -0.0000 0.7071
vn 0.2589 -0.0000 0.9659
vt 0.255802 0.003537
vt 0.292114 0.135716
vt 0.292137 0.052295
vt 0.255660 0.531865
vt 0.680034 0.585508
vt 0.678773 0.608575
vt 0.676677 0.606154
vt 0.719840 0.614490
vt 0.671459 0.614281
vt 0.678449 0.650223
vt 0.670500 0.643525
vt 0.720170 0.643829
vt 0.488760 0.575696
vt 0.485518 0.574865
vt 0.491103 0.553071
vt 0.720237 0.673339
vt 0.678302 0.673358
vt 0.640369 0.721410
vt 0.644002 0.715118
vt 0.636737 0.715118
vt 0.720354 0.582725
vt 0.720360 0.586291
vt 0.633104 0.721410
vt 0.719796 0.609840
vt 0.629472 0.715118
vt 0.633104 0.708827
vt 0.640369 0.708827
vt 0.494625 0.552810
vt 0.498079 0.542558
vt 0.498158 0.549823
vt 0.491748 0.538994
vt 0.485576 0.549960
vt 0.485496 0.542695
vt 0.670512 0.607893
vt 0.670186 0.650791
vt 0.720227 0.650321
vt 0.678515 0.583843
vt 0.440352 0.715690
vt 0.417276 0.716788
vt 0.419682 0.718901
vt 0.411652 0.675680
vt 0.411518 0.724061
vt 0.375626 0.716817
vt 0.382268 0.724813
vt 0.382316 0.675142
vt 0.469068 0.575696
vt 0.465826 0.574865
vt 0.471412 0.553071
vt 0.352807 0.674866
vt 0.352491 0.716800
vt 0.614687 0.721410
vt 0.618320 0.715118
vt 0.611055 0.715118
vt 0.443420 0.675391
vt 0.439854 0.675359
vt 0.607422 0.721410
vt 0.416301 0.675757
vt 0.603790 0.715118
vt 0.607422 0.708827
vt 0.614687 0.708827
vt 0.474934 0.552810
vt 0.478388 0.542557
vt 0.478467 0.549822
vt 0.472057 0.538994
vt 0.465884 0.549959
vt 0.465805 0.542695
vt 0.417899 0.725052
vt 0.375000 0.725075
vt 0.375825 0.675040
vt 0.442006 0.717220
vt 0.248630 0.003602
vt 0.212265 0.052338
vt 0.040035 0.052276
vt 0.003704 0.003515
vt 0.003515 0.531843
vt 0.040005 0.135697
vt 0.248440 0.531931
vt 0.212235 0.135759
vt 0.464344 0.135762
vt 0.500586 0.531931
vt 0.500728 0.003603
vt 0.464367 0.052341
vt 0.776816 0.886006
vt 0.776766 0.873124
vt 0.531771 0.874009
vt 0.531820 0.886891
vt 0.531941 0.909593
vt 0.531892 0.896713
vt 0.003524 0.898616
vt 0.003571 0.911499
vt 0.776816 0.908707
vt 0.776774 0.895832
vt 0.003515 0.875925
vt 0.003556 0.888802
vt 0.670708 0.636130
vt 0.720126 0.636442
vt 0.719964 0.621766
vt 0.671191 0.621501
vt 0.670940 0.628787
vt 0.720058 0.629085
vt 0.588693 0.683147
vt 0.575837 0.683145
vt 0.575836 0.687106
vt 0.588692 0.687108
vt 0.588681 0.749331
vt 0.575825 0.749329
vt 0.389664 0.724657
vt 0.389703 0.675239
vt 0.404377 0.675505
vt 0.404296 0.724278
vt 0.397009 0.724477
vt 0.397058 0.675359
vt 0.571875 0.687105
vt 0.571864 0.749328
vt 0.575824 0.753290
vt 0.588681 0.753292
vt 0.341939 0.541819
vt 0.341928 0.538960
vt 0.258507 0.539281
vt 0.258518 0.542140
vt 0.259181 0.714368
vt 0.342602 0.714047
vt 0.259192 0.717227
vt 0.342613 0.716905
vt 0.255660 0.542151
vt 0.256323 0.714379
vt 0.345460 0.714036
vt 0.344797 0.541808
vt 0.488372 0.585282
vt 0.485815 0.585272
vt 0.485496 0.668692
vt 0.488053 0.668702
vt 0.660600 0.585940
vt 0.660281 0.669360
vt 0.662838 0.669370
vt 0.663157 0.585950
vt 0.660610 0.583383
vt 0.488382 0.582725
vt 0.488043 0.671259
vt 0.660272 0.671917
vt 0.592642 0.749332
vt 0.592653 0.687109
vt 0.704885 0.680450
vt 0.677047 0.680388
vt 0.677032 0.687028
vt 0.704870 0.687090
vt 0.711510 0.687104
vt 0.704664 0.779583
vt 0.711304 0.779598
vt 0.676826 0.779521
vt 0.676811 0.786161
vt 0.704650 0.786223
vt 0.670392 0.687013
vt 0.670186 0.779506
vt 0.734029 0.589478
vt 0.734002 0.582838
vt 0.761840 0.582725
vt 0.761867 0.589365
vt 0.762244 0.681858
vt 0.768507 0.589338
vt 0.768884 0.681830
vt 0.734433 0.688611
vt 0.734406 0.681971
vt 0.762271 0.688498
vt 0.727766 0.681998
vt 0.727389 0.589505
s 1
usemtl door1.001
f 1/1/1 2/2/1 3/3/1
f 2/2/1 1/1/1 4/4/1
f 5/5/2 6/6/2 7/7/2
f 8/8/3 9/9/4 10/6/5
f 11/10/6 12/11/7 13/12/7
f 14/13/8 15/14/8 16/15/9
f 17/16/10 18/17/10 19/10/10
f 20/18/2 21/19/2 22/20/2
f 23/21/11 24/22/11 25/5/11
f 26/23/2 20/18/2 22/20/2
f 27/5/12 28/22/12 29/24/13
f 30/25/2 26/23/2 22/20/2
f 31/26/2 30/25/2 22/20/2
f 21/19/2 32/27/2 22/20/2
f 32/27/2 31/26/2 22/20/2
f 33/28/14 34/29/15 35/30/16
f 36/31/17 34/29/15 33/28/14
f 37/32/18 38/33/19 33/28/14
f 38/33/19 36/31/17 33/28/14
f 16/15/9 37/32/18 33/28/14
f 33/28/14 14/13/8 16/15/9
f 10/6/5 9/9/4 39/34/20
f 40/35/21 12/11/7 11/10/6
f 41/7/22 10/6/5 39/34/20
f 29/24/13 8/8/3 10/6/5
f 42/36/7 11/10/6 13/12/7
f 43/36/10 17/16/10 19/10/10
f 44/37/11 23/21/11 25/5/11
f 10/6/5 27/5/12 29/24/13
f 45/37/2 5/5/2 7/7/2
f 46/38/2 47/39/2 48/40/2
f 49/41/3 50/42/4 51/39/5
f 52/43/6 53/44/7 54/45/7
f 55/46/8 56/47/8 57/48/9
f 58/49/10 59/50/10 60/43/10
f 61/51/2 62/52/2 63/53/2
f 64/54/11 65/55/11 66/38/11
f 67/56/2 61/51/2 63/53/2
f 68/38/12 69/55/12 70/57/13
f 71/58/2 67/56/2 63/53/2
f 72/59/2 71/58/2 63/53/2
f 62/52/2 73/60/2 63/53/2
f 73/60/2 72/59/2 63/53/2
f 74/61/23 75/62/15 76/63/24
f 77/64/17 75/62/15 74/61/23
f 78/65/18 79/66/19 74/61/23
f 79/66/19 77/64/17 74/61/23
f 57/48/9 78/65/18 74/61/23
f 74/61/23 55/46/8 57/48/9
f 51/39/5 50/42/4 80/67/20
f 81/68/21 53/44/7 52/43/6
f 82/40/22 51/39/5 80/67/20
f 70/57/13 49/41/3 51/39/5
f 83/69/7 52/43/6 54/45/7
f 84/69/10 58/49/10 60/43/10
f 85/70/11 64/54/11 66/38/11
f 51/39/5 68/38/12 70/57/13
f 86/70/2 46/38/2 48/40/2
f 87/71/11 88/72/11 89/73/11
f 87/71/11 89/73/11 90/74/11
f 91/75/11 90/74/11 89/73/11
f 91/75/11 89/73/11 92/76/11
f 93/77/11 91/75/11 92/76/11
f 93/77/11 92/76/11 94/78/11
f 94/78/11 88/72/11 87/71/11
f 94/78/11 87/71/11 93/77/11
f 95/79/1 2/2/1 4/4/1
f 95/79/1 4/4/1 96/80/1
f 97/81/1 1/1/1 3/3/1
f 97/81/1 3/3/1 98/82/1
f 96/80/1 97/81/1 98/82/1
f 96/80/1 98/82/1 95/79/1
f 99/83/8 100/84/8 101/85/8
f 99/83/8 101/85/8 102/86/8
f 103/87/12 104/88/12 105/89/12
f 103/87/12 105/89/12 106/90/12
f 107/91/2 108/92/2 109/88/2
f 107/91/2 109/88/2 110/87/2
f 111/86/10 112/85/10 113/93/10
f 111/86/10 113/93/10 114/94/10
f 115/95/25 116/96/25 117/12/25
f 115/95/25 117/12/25 118/11/25
f 119/9/26 120/8/26 121/97/26
f 119/9/26 121/97/26 122/98/26
f 123/99/27 124/100/27 125/96/27
f 123/99/27 125/96/27 126/95/27
f 127/98/28 128/97/28 129/100/28
f 127/98/28 129/100/28 130/99/28
f 131/101/8 132/102/8 133/103/8
f 131/101/8 133/103/8 134/104/8
f 135/105/10 136/104/10 137/103/10
f 135/105/10 137/103/10 138/106/10
f 139/107/25 140/108/25 141/45/25
f 139/107/25 141/45/25 142/44/25
f 143/42/26 144/41/26 145/109/26
f 143/42/26 145/109/26 146/110/26
f 147/111/27 148/112/27 149/108/27
f 147/111/27 149/108/27 150/107/27
f 151/110/28 152/109/28 153/112/28
f 151/110/28 153/112/28 154/111/28
f 155/106/11 156/103/11 157/113/11
f 155/106/11 157/113/11 158/114/11
f 159/115/2 160/116/2 161/105/2
f 159/115/2 161/105/2 162/106/2
f 163/117/10 164/118/10 165/119/10
f 163/117/10 165/119/10 166/120/10
f 167/121/1 168/122/1 169/117/1
f 167/121/1 169/117/1 170/120/1
f 171/121/12 172/123/12 173/124/12
f 171/121/12 173/124/12 174/122/12
f 175/120/2 176/125/2 177/126/2
f 175/120/2 177/126/2 178/121/2
f 179/122/8 180/127/8 181/128/8
f 179/122/8 181/128/8 182/117/8
f 183/129/10 184/130/10 185/131/10
f 183/129/10 185/131/10 186/132/10
f 187/133/11 188/129/11 189/132/11
f 187/133/11 189/132/11 190/134/11
f 191/134/12 192/135/12 193/136/12
f 191/134/12 193/136/12 194/133/12
f 195/133/2 196/137/2 197/138/2
f 195/133/2 197/138/2 198/129/2
f 199/132/8 200/139/8 201/140/8
f 199/132/8 201/140/8 202/134/8
f 203/141/1 204/142/1 205/104/1
f 203/141/1 205/104/1 206/105/1
f 207/143/8 208/144/8 209/145/8
f 207/143/8 209/145/8 210/146/8
f 211/147/10 212/146/10 213/148/10
f 211/147/10 213/148/10 214/149/10
f 215/148/2 216/150/2 217/151/2
f 215/148/2 217/151/2 218/152/2
f 219/145/12 220/153/12 221/154/12
f 219/145/12 221/154/12 222/150/12
f 223/146/11 224/145/11 225/150/11
f 223/146/11 225/150/11 226/148/11
f 227/155/8 228/156/8 229/157/8
f 227/155/8 229/157/8 230/158/8
f 231/159/10 232/158/10 233/160/10
f 231/159/10 233/160/10 234/161/10
f 235/162/2 236/163/2 237/159/2
f 235/162/2 237/159/2 238/164/2
f 239/165/12 240/166/12 241/155/12
f 239/165/12 241/155/12 242/163/12
f 243/163/1 244/155/1 245/158/1
f 243/163/1 245/158/1 246/159/1
o frame_door1_0
v 0.583942 -0.866970 0.050593
v 0.560759 -0.866970 0.056806
v 0.577729 -0.866970 0.073776
v 0.583942 -1.007484 0.050593
v 0.577729 -1.007484 0.073776
v 0.560759 -1.007484 0.056806
v 0.554548 -0.866970 0.079987
v 0.554548 -1.007484 0.079987
v 0.537577 -0.866970 0.063017
v 0.537577 -1.007484 0.063017
v 0.543788 -0.866970 0.039834
v 0.543788 -1.007484 0.039834
v 0.566970 -0.866970 0.033623
v 0.566970 -1.007484 0.033623
v 0.583942 0.474380 0.050593
v 0.560759 0.474380 0.056806
v 0.577729 0.474380 0.073776
v 0.583942 0.333868 0.050593
v 0.577729 0.333868 0.073776
v 0.560759 0.333868 0.056806
v 0.554548 0.474380 0.079987
v 0.554548 0.333868 0.079987
v 0.537577 0.474380 0.063017
v 0.537577 0.333868 0.063017
v 0.543788 0.474380 0.039834
v 0.543788 0.333868 0.039834
v 0.566970 0.474380 0.033623
v 0.566970 0.333868 0.033623
v -0.582462 1.183149 -0.048000
v -0.570462 1.171148 -0.036000
v -0.570462 -1.299661 -0.036000
v -0.582462 -1.299661 -0.048000
v -0.570462 1.171148 0.036000
v -0.582462 1.183149 0.048000
v -0.582462 -1.299661 0.048000
v -0.570462 -1.299661 0.036000
v 0.645790 1.246589 -0.180000
v 0.633846 1.234532 -0.168000
v -0.633846 1.234532 -0.168000
v -0.645790 1.246589 -0.180000
v -0.645790 1.246589 -0.180000
v -0.633846 1.234532 -0.168000
v -0.633846 -1.299661 -0.168000
v -0.645846 -1.299661 -0.180000
v 0.645846 -1.299661 -0.180000
v 0.633846 -1.299661 -0.168000
v 0.633846 1.234532 -0.168000
v 0.645790 1.246589 -0.180000
v -0.645790 1.246589 0.180000
v -0.633846 1.234532 0.168000
v 0.633846 1.234532 0.168000
v 0.645790 1.246589 0.180000
v 0.645790 1.246589 0.180000
v 0.633846 1.234532 0.168000
v 0.633846 -1.299661 0.168000
v 0.645846 -1.299661 0.180000
v -0.645846 -1.299661 0.180000
v -0.633846 -1.299661 0.168000
v -0.633846 1.234532 0.168000
v -0.645790 1.246589 0.180000
v 0.582461 -1.299661 0.048000
v 0.633846 -1.299661 0.048000
v 0.633846 1.234532 0.048000
v 0.582461 1.183149 0.048000
v -0.582462 1.183149 -0.048000
v -0.633846 1.234532 -0.048000
v 0.633846 1.234532 -0.048000
v 0.582461 1.183149 -0.048000
v 0.582461 1.183149 0.048000
v 0.633846 1.234532 0.048000
v -0.633846 1.234532 0.048000
v -0.582462 1.183149 0.048000
v -0.582462 -1.299661 -0.048000
v -0.633846 -1.299661 -0.048000
v -0.633846 1.234532 -0.048000
v -0.582462 1.183149 -0.048000
v -0.582462 1.183149 0.048000
v -0.633846 1.234532 0.048000
v -0.633846 -1.299661 0.048000
v -0.582462 -1.299661 0.048000
v 0.582461 1.183149 -0.048000
v 0.633846 1.234532 -0.048000
v 0.633846 -1.299661 -0.048000
v 0.582461 -1.299661 -0.048000
v 0.570461 -1.299661 -0.036000
v 0.570461 -1.299661 0.036000
v 0.570461 1.171148 0.036000
v 0.570461 1.171148 -0.036000
v 0.570461 1.171148 -0.036000
v 0.570461 1.171148 0.036000
v -0.570462 1.171148 0.036000
v -0.570462 1.171148 -0.036000
v -0.570462 1.171148 -0.036000
v -0.570462 1.171148 0.036000
v -0.570462 -1.299661 0.036000
v -0.570462 -1.299661 -0.036000
v 0.633846 -1.299661 0.048000
v 0.633846 -1.299661 0.168000
v 0.633846 1.234532 0.168000
v 0.633846 1.234532 0.048000
v 0.633846 1.234532 0.048000
v 0.633846 1.234532 0.168000
v -0.633846 1.234532 0.168000
v -0.633846 1.234532 0.048000
v -0.633846 1.234532 0.048000
v -0.633846 1.234532 0.168000
v -0.633846 -1.299661 0.168000
v -0.633846 -1.299661 0.048000
v 0.633846 1.234532 -0.048000
v 0.633846 1.234532 -0.168000
v 0.633846 -1.299661 -0.168000
v 0.633846 -1.299661 -0.048000
v -0.633846 1.234532 -0.048000
v -0.633846 -1.299661 -0.048000
v -0.633846 -1.299661 -0.168000
v -0.633846 1.234532 -0.168000
v 0.633846 1.234532 -0.168000
v 0.633846 1.234532 -0.048000
v -0.633846 1.234532 -0.048000
v -0.633846 1.234532 -0.168000
v 0.760615 1.362493 0.180000
v 0.760615 1.362493 -0.180000
v -0.760615 1.362493 -0.180000
v -0.760615 1.362493 0.180000
v -0.760615 -1.299661 0.180000
v -0.760615 1.362493 0.180000
v -0.760615 1.362493 -0.180000
v -0.760615 -1.299661 -0.180000
v 0.760615 -1.299661 -0.180000
v 0.760615 1.362493 -0.180000
v 0.760615 1.362493 0.180000
v 0.760615 -1.299661 0.180000
v 0.645790 1.246589 -0.180000
v -0.645790 1.246589 -0.180000
v -0.760615 1.362493 -0.180000
v 0.760615 1.362493 -0.180000
v -0.645790 1.246589 -0.180000
v -0.645846 -1.299661 -0.180000
v -0.760615 -1.299661 -0.180000
v -0.760615 1.362493 -0.180000
v 0.760615 1.362493 -0.180000
v 0.760615 -1.299661 -0.180000
v 0.645846 -1.299661 -0.180000
v 0.645790 1.246589 -0.180000
v -0.645790 1.246589 0.180000
v 0.645790 1.246589 0.180000
v 0.760615 1.362493 0.180000
v -0.760615 1.362493 0.180000
v 0.645790 1.246589 0.180000
v 0.645846 -1.299661 0.180000
v 0.760615 -1.299661 0.180000
v 0.760615 1.362493 0.180000
v -0.760615 1.362493 0.180000
v -0.760615 -1.299661 0.180000
v -0.645846 -1.299661 0.180000
v -0.645790 1.246589 0.180000
v 0.558461 -0.887718 0.040970
v 0.570461 -0.887718 0.036000
v 0.570461 -0.887718 -0.006062
v 0.558461 -0.887718 -0.006062
v 0.558461 -0.887718 -0.006062
v 0.570461 -0.887718 -0.006062
v 0.570461 -0.979406 -0.006062
v 0.558461 -0.979406 -0.006062
v 0.558461 -0.979406 -0.006062
v 0.570461 -0.979406 -0.006062
v 0.570461 -0.979406 0.036000
v 0.558461 -0.979406 0.040970
v 0.577490 -0.887718 0.060000
v 0.582461 -0.887718 0.048000
v 0.582461 -0.979406 0.048000
v 0.577490 -0.979406 0.060000
v 0.633846 -0.979406 0.060000
v 0.633846 -0.979406 0.048000
v 0.633846 -0.887718 0.048000
v 0.633846 -0.887718 0.060000
v 0.633846 -0.887718 0.060000
v 0.633846 -0.887718 0.048000
v 0.570461 1.171148 0.036000
v 0.582461 1.183149 0.048000
v -0.582462 1.183149 0.048000
v -0.570462 1.171148 0.036000
v 0.633846 -0.979406 0.048000
v 0.633846 -0.979406 0.060000
v 0.558461 -0.887718 0.040970
v 0.558461 -0.887718 -0.006062
v 0.558461 -0.979406 -0.006062
v 0.558461 -0.979406 0.040970
v 0.577490 -0.887718 0.060000
v 0.558461 -0.887718 0.040970
v 0.558461 -0.979406 0.040970
v 0.577490 -0.979406 0.060000
v 0.633846 -0.887718 0.060000
v 0.577490 -0.887718 0.060000
v 0.577490 -0.979406 0.060000
v 0.633846 -0.979406 0.060000
v 0.582461 1.183149 -0.048000
v 0.570461 1.171148 -0.036000
v -0.570462 1.171148 -0.036000
v -0.582462 1.183149 -0.048000
v 0.583942 -1.007484 0.050593
v 0.583942 -0.866970 0.050593
v 0.577729 -0.866970 0.073776
v 0.577729 -1.007484 0.073776
v 0.577729 -1.007484 0.073776
v 0.577729 -0.866970 0.073776
v 0.554548 -0.866970 0.079987
v 0.554548 -1.007484 0.079987
v 0.554548 -1.007484 0.079987
v 0.554548 -0.866970 0.079987
v 0.537577 -0.866970 0.063017
v 0.537577 -1.007484 0.063017
v 0.537577 -1.007484 0.063017
v 0.537577 -0.866970 0.063017
v 0.543788 -0.866970 0.039834
v 0.543788 -1.007484 0.039834
v 0.543788 -1.007484 0.039834
v 0.543788 -0.866970 0.039834
v 0.566970 -0.866970 0.033623
v 0.566970 -1.007484 0.033623
v 0.566970 -1.007484 0.033623
v 0.566970 -0.866970 0.033623
v 0.583942 -0.866970 0.050593
v 0.583942 -1.007484 0.050593
v 0.558461 0.453634 0.040970
v 0.570461 0.453634 0.036000
v 0.570461 0.453634 -0.006062
v 0.558461 0.453634 -0.006062
v 0.558461 0.453634 -0.006062
v 0.570461 0.453634 -0.006062
v 0.570461 0.361944 -0.006062
v 0.558461 0.361944 -0.006062
v 0.558461 0.361944 -0.006062
v 0.570461 0.361944 -0.006062
v 0.570461 0.361944 0.036000
v 0.558461 0.361944 0.040970
v 0.577490 0.453634 0.060000
v 0.582461 0.453634 0.048000
v 0.582461 0.361944 0.048000
v 0.577490 0.361944 0.060000
v 0.633846 0.361944 0.060000
v 0.633846 0.361944 0.048000
v 0.633846 0.453634 0.048000
v 0.633846 0.453634 0.060000
v 0.633846 0.453634 0.060000
v 0.633846 0.453634 0.048000
v 0.633846 0.361944 0.048000
v 0.633846 0.361944 0.060000
v 0.558461 0.453634 0.040970
v 0.558461 0.453634 -0.006062
v 0.558461 0.361944 -0.006062
v 0.558461 0.361944 0.040970
v 0.577490 0.453634 0.060000
v 0.558461 0.453634 0.040970
v 0.558461 0.361944 0.040970
v 0.577490 0.361944 0.060000
v 0.570461 -1.299661 0.036000
v 0.582461 -1.299661 0.048000
v 0.582461 1.183149 0.048000
v 0.570461 1.171148 0.036000
v 0.633846 0.453634 0.060000
v 0.577490 0.453634 0.060000
v 0.577490 0.361944 0.060000
v 0.633846 0.361944 0.060000
v 0.583942 0.333868 0.050593
v 0.583942 0.474380 0.050593
v 0.577729 0.474380 0.073776
v 0.577729 0.333868 0.073776
v 0.582461 -1.299661 -0.048000
v 0.570461 -1.299661 -0.036000
v 0.570461 1.171148 -0.036000
v 0.582461 1.183149 -0.048000
v 0.577729 0.333868 0.073776
v 0.577729 0.474380 0.073776
v 0.554548 0.474380 0.079987
v 0.554548 0.333868 0.079987
v 0.554548 0.333868 0.079987
v 0.554548 0.474380 0.079987
v 0.537577 0.474380 0.063017
v 0.537577 0.333868 0.063017
v 0.537577 0.333868 0.063017
v 0.537577 0.474380 0.063017
v 0.543788 0.474380 0.039834
v 0.543788 0.333868 0.039834
v 0.543788 0.333868 0.039834
v 0.543788 0.474380 0.039834
v 0.566970 0.474380 0.033623
v 0.566970 0.333868 0.033623
v 0.566970 0.333868 0.033623
v 0.566970 0.474380 0.033623
v 0.583942 0.474380 0.050593
v 0.583942 0.333868 0.050593
vn -0.0000 1.0000 -0.0000
vn -0.0000 -1.0000 -0.0000
vn 0.7071 -0.0000 -0.7071
vn 0.7071 -0.0000 0.7071
vn -0.0000 -0.7054 -0.7088
vn 0.7079 -0.0000 -0.7063
vn 0.7080 -0.0000 -0.7063
vn -0.7078 -0.0000 -0.7065
vn -0.7079 -0.0000 -0.7064
vn -0.7081 -0.0000 -0.7061
vn -0.7079 -0.0000 -0.7063
vn -0.0000 -0.7054 0.7088
vn -0.7079 -0.0000 0.7063
vn -0.7080 -0.0000 0.7062
vn -0.7080 -0.0000 0.7063
vn 0.7079 -0.0000 0.7063
vn -0.0000 -0.0000 1.0000
vn -0.0000 -0.0000 -1.0000
vn -1.0000 -0.0000 -0.0000
vn 1.0000 -0.0000 -0.0000
vn -0.0000 -0.7071 0.7071
vn -0.7071 -0.0000 0.7071
vn -0.0000 -0.7071 -0.7071
vn 0.9659 -0.0000 0.2588
vn 0.2588 -0.0000 0.9659
vn -0.9659 -0.0000 -0.2588
vn -0.2588 -0.0000 -0.9659
vn -0.7071 -0.0000 -0.7071
vt 0.478467 0.633194
vt 0.470058 0.633194
vt 0.474263 0.640476
vt 0.478467 0.611601
vt 0.474263 0.604318
vt 0.470058 0.611601
vt 0.465854 0.640476
vt 0.465854 0.604318
vt 0.461650 0.633194
vt 0.461650 0.611601
vt 0.465854 0.625912
vt 0.465854 0.618883
vt 0.474263 0.625912
vt 0.474263 0.618883
vt 0.478467 0.654787
vt 0.470058 0.654787
vt 0.474263 0.662069
vt 0.478467 0.590007
vt 0.474263 0.582725
vt 0.470058 0.590007
vt 0.465854 0.662069
vt 0.465854 0.582725
vt 0.461650 0.654787
vt 0.461650 0.590007
vt 0.465854 0.647505
vt 0.465854 0.597289
vt 0.474263 0.647505
vt 0.474263 0.597289
vt 0.597912 0.042422
vt 0.594257 0.044982
vt 0.591929 0.575393
vt 0.595572 0.575409
vt 0.578801 0.044915
vt 0.575169 0.042323
vt 0.572829 0.575310
vt 0.576472 0.575325
vt 0.133146 0.564087
vt 0.129484 0.566637
vt 0.128474 0.838775
vt 0.132116 0.841353
vt 0.638398 0.028981
vt 0.634752 0.031553
vt 0.632363 0.575571
vt 0.636006 0.575587
vt 0.800107 0.575322
vt 0.796464 0.575332
vt 0.794877 0.031311
vt 0.798504 0.028712
vt 0.028488 0.840968
vt 0.032149 0.838418
vt 0.033159 0.566280
vt 0.029517 0.563702
vt 0.694909 0.029015
vt 0.698551 0.031592
vt 0.700138 0.575613
vt 0.696495 0.575624
vt 0.532395 0.575132
vt 0.536038 0.575148
vt 0.538426 0.031130
vt 0.534803 0.028526
vt 0.736930 0.575505
vt 0.725899 0.575538
vt 0.724312 0.031517
vt 0.735375 0.042516
vt 0.091724 0.827608
vt 0.102714 0.838680
vt 0.103724 0.566541
vt 0.092652 0.577531
vt 0.069909 0.577447
vt 0.058920 0.566375
vt 0.057909 0.838513
vt 0.068981 0.827523
vt 0.606603 0.575458
vt 0.608991 0.031440
vt 0.564187 0.031243
vt 0.561799 0.575261
vt 0.758117 0.042449
vt 0.769116 0.031386
vt 0.770703 0.575407
vt 0.759672 0.575439
vt 0.756029 0.575450
vt 0.740573 0.575495
vt 0.739025 0.045081
vt 0.754482 0.045036
vt 0.088999 0.580094
vt 0.073543 0.580037
vt 0.072634 0.824961
vt 0.088090 0.825018
vt 0.171349 0.865737
vt 0.248630 0.865526
vt 0.247741 0.538960
vt 0.170458 0.539171
vt 0.917645 0.004205
vt 0.919203 0.575696
vt 0.996485 0.575485
vt 0.994927 0.003994
vt 0.910616 0.575485
vt 0.909057 0.003994
vt 0.831774 0.004205
vt 0.833333 0.575696
vt 0.156906 0.866095
vt 0.158118 0.539529
vt 0.660644 0.575696
vt 0.663157 0.004208
vt 0.823081 0.003759
vt 0.824745 0.575250
vt 0.004727 0.538960
vt 0.003515 0.865525
vt 0.671857 0.575696
vt 0.670186 0.004206
vt 0.510262 0.003537
vt 0.507757 0.575024
vt 0.471232 0.688384
vt 0.471325 0.684004
vt 0.454606 0.682966
vt 0.454693 0.687887
vt 0.450449 0.687935
vt 0.450817 0.720362
vt 0.455061 0.720314
vt 0.455296 0.724901
vt 0.471377 0.724076
vt 0.471332 0.719782
vt 0.479871 0.688563
vt 0.479572 0.684253
vt 0.479528 0.724045
vt 0.479884 0.719773
vt 0.499475 0.720473
vt 0.504030 0.720704
vt 0.503644 0.688066
vt 0.499373 0.688117
vt 0.499204 0.683532
vt 0.499235 0.725075
vt 0.255737 0.749481
vt 0.304966 0.749631
vt 0.304991 0.741223
vt 0.255762 0.741073
vt 0.305017 0.732814
vt 0.255788 0.732665
vt 0.305042 0.724405
vt 0.255813 0.724256
vt 0.255660 0.774707
vt 0.304889 0.774857
vt 0.304915 0.766448
vt 0.255685 0.766298
vt 0.304940 0.758040
vt 0.255711 0.757890
vt 0.531844 0.688464
vt 0.531912 0.684083
vt 0.515187 0.683145
vt 0.515303 0.688065
vt 0.511060 0.688138
vt 0.511620 0.720563
vt 0.515864 0.720489
vt 0.516127 0.725075
vt 0.532202 0.724154
vt 0.532131 0.719861
vt 0.540485 0.688591
vt 0.540160 0.684283
vt 0.540353 0.724075
vt 0.540684 0.719801
vt 0.560278 0.720385
vt 0.564835 0.720589
vt 0.564255 0.687954
vt 0.559983 0.688029
vt 0.559788 0.683446
vt 0.560065 0.724988
vt 0.719578 0.720866
vt 0.768807 0.721015
vt 0.768832 0.712606
vt 0.719603 0.712457
vt 0.768858 0.704198
vt 0.719629 0.704049
vt 0.768884 0.695789
vt 0.719654 0.695640
vt 0.719501 0.746091
vt 0.768730 0.746241
vt 0.768756 0.737832
vt 0.719527 0.737682
vt 0.768781 0.729424
vt 0.719552 0.729274
s 1
usemtl door1.001
f 247/167/29 248/168/29 249/169/29
f 250/170/30 251/171/30 252/172/30
f 249/169/29 248/168/29 253/173/29
f 251/171/30 254/174/30 252/172/30
f 253/173/29 248/168/29 255/175/29
f 254/174/30 256/176/30 252/172/30
f 255/175/29 248/168/29 257/177/29
f 256/176/30 258/178/30 252/172/30
f 257/177/29 248/168/29 259/179/29
f 258/178/30 260/180/30 252/172/30
f 259/179/29 248/168/29 247/167/29
f 260/180/30 250/170/30 252/172/30
f 261/181/29 262/182/29 263/183/29
f 264/184/30 265/185/30 266/186/30
f 263/183/29 262/182/29 267/187/29
f 265/185/30 268/188/30 266/186/30
f 267/187/29 262/182/29 269/189/29
f 268/188/30 270/190/30 266/186/30
f 269/189/29 262/182/29 271/191/29
f 270/190/30 272/192/30 266/186/30
f 271/191/29 262/182/29 273/193/29
f 272/192/30 274/194/30 266/186/30
f 273/193/29 262/182/29 261/181/29
f 274/194/30 264/184/30 266/186/30
f 275/195/31 276/196/31 277/197/31
f 275/195/31 277/197/31 278/198/31
f 279/199/32 280/200/32 281/201/32
f 279/199/32 281/201/32 282/202/32
f 283/203/33 284/204/33 285/205/33
f 283/203/33 285/205/33 286/206/33
f 287/207/34 288/208/34 289/209/35
f 287/207/34 289/209/35 290/210/35
f 291/211/36 292/212/37 293/213/38
f 291/211/36 293/213/38 294/214/39
f 295/215/40 296/216/40 297/217/40
f 295/215/40 297/217/40 298/218/40
f 299/219/41 300/220/41 301/221/42
f 299/219/41 301/221/42 302/222/43
f 303/223/44 304/224/44 305/225/44
f 303/223/44 305/225/44 306/226/44
f 307/227/45 308/228/45 309/229/45
f 307/227/45 309/229/45 310/230/45
f 311/231/46 312/232/46 313/233/46
f 311/231/46 313/233/46 314/234/46
f 315/235/45 316/236/45 317/237/45
f 315/235/45 317/237/45 318/238/45
f 319/198/46 320/239/46 321/240/46
f 319/198/46 321/240/46 322/195/46
f 323/200/45 324/241/45 325/242/45
f 323/200/45 325/242/45 326/201/45
f 327/243/46 328/244/46 329/245/46
f 327/243/46 329/245/46 330/246/46
f 331/247/47 332/248/47 333/249/47
f 331/247/47 333/249/47 334/250/47
f 335/251/30 336/252/30 337/253/30
f 335/251/30 337/253/30 338/254/30
f 339/196/48 340/199/48 341/202/48
f 339/196/48 341/202/48 342/197/48
f 343/228/47 344/221/47 345/220/47
f 343/228/47 345/220/47 346/229/47
f 347/236/30 348/217/30 349/216/30
f 347/236/30 349/216/30 350/237/30
f 351/241/48 352/225/48 353/224/48
f 351/241/48 353/224/48 354/242/48
f 355/244/47 356/213/47 357/212/47
f 355/244/47 357/212/47 358/245/47
f 359/240/48 360/239/48 361/209/48
f 359/240/48 361/209/48 362/208/48
f 363/204/30 364/233/30 365/232/30
f 363/204/30 365/232/30 366/205/30
f 367/255/29 368/256/29 369/257/29
f 367/255/29 369/257/29 370/258/29
f 371/259/47 372/260/47 373/261/47
f 371/259/47 373/261/47 374/262/47
f 375/263/48 376/264/48 377/265/48
f 375/263/48 377/265/48 378/266/48
f 379/203/46 380/206/46 381/267/46
f 379/203/46 381/267/46 382/268/46
f 383/207/46 384/210/46 385/269/46
f 383/207/46 385/269/46 386/270/46
f 387/271/46 388/272/46 389/211/46
f 387/271/46 389/211/46 390/214/46
f 391/215/45 392/218/45 393/273/45
f 391/215/45 393/273/45 394/274/45
f 395/219/45 396/222/45 397/275/45
f 395/219/45 397/275/45 398/276/45
f 399/277/45 400/278/45 401/223/45
f 399/277/45 401/223/45 402/226/45
f 403/279/29 404/280/29 405/281/29
f 403/279/29 405/281/29 406/282/29
f 407/282/46 408/283/46 409/284/46
f 407/282/46 409/284/46 410/285/46
f 411/285/30 412/286/30 413/287/30
f 411/285/30 413/287/30 414/288/30
f 415/289/29 416/290/29 404/280/29
f 415/289/29 404/280/29 403/279/29
f 414/288/30 413/287/30 417/291/30
f 414/288/30 417/291/30 418/292/30
f 419/293/48 420/294/48 421/295/48
f 419/293/48 421/295/48 422/296/48
f 423/296/29 424/297/29 416/290/29
f 423/296/29 416/290/29 415/289/29
f 425/252/49 426/235/49 427/238/49
f 425/252/49 427/238/49 428/253/49
f 418/292/30 417/291/30 429/298/30
f 418/292/30 429/298/30 430/293/30
f 431/279/47 432/282/47 433/285/47
f 431/279/47 433/285/47 434/288/47
f 435/289/50 436/279/50 437/288/50
f 435/289/50 437/288/50 438/292/50
f 439/296/45 440/289/45 441/292/45
f 439/296/45 441/292/45 442/293/45
f 443/234/51 444/251/51 445/254/51
f 443/234/51 445/254/51 446/231/51
f 447/299/52 448/300/52 449/301/52
f 447/299/52 449/301/52 450/302/52
f 451/302/53 452/301/53 453/303/53
f 451/302/53 453/303/53 454/304/53
f 455/304/50 456/303/50 457/305/50
f 455/304/50 457/305/50 458/306/50
f 459/307/54 460/308/54 461/309/54
f 459/307/54 461/309/54 462/310/54
f 463/310/55 464/309/55 465/311/55
f 463/310/55 465/311/55 466/312/55
f 467/312/31 468/311/31 469/300/31
f 467/312/31 469/300/31 470/299/31
f 471/313/29 472/314/29 473/315/29
f 471/313/29 473/315/29 474/316/29
f 475/316/46 476/317/46 477/318/46
f 475/316/46 477/318/46 478/319/46
f 479/319/30 480/320/30 481/321/30
f 479/319/30 481/321/30 482/322/30
f 483/323/29 484/324/29 472/314/29
f 483/323/29 472/314/29 471/313/29
f 482/322/30 481/321/30 485/325/30
f 482/322/30 485/325/30 486/326/30
f 487/327/48 488/328/48 489/329/48
f 487/327/48 489/329/48 490/330/48
f 491/330/29 492/331/29 484/324/29
f 491/330/29 484/324/29 483/323/29
f 486/326/30 485/325/30 493/332/30
f 486/326/30 493/332/30 494/327/30
f 495/313/47 496/316/47 497/319/47
f 495/313/47 497/319/47 498/322/47
f 499/323/50 500/313/50 501/322/50
f 499/323/50 501/322/50 502/326/50
f 503/248/50 504/227/50 505/230/50
f 503/248/50 505/230/50 506/249/50
f 507/330/45 508/323/45 509/326/45
f 507/330/45 509/326/45 510/327/45
f 511/333/52 512/334/52 513/335/52
f 511/333/52 513/335/52 514/336/52
f 515/246/56 516/247/56 517/250/56
f 515/246/56 517/250/56 518/243/56
f 519/336/53 520/335/53 521/337/53
f 519/336/53 521/337/53 522/338/53
f 523/338/50 524/337/50 525/339/50
f 523/338/50 525/339/50 526/340/50
f 527/341/54 528/342/54 529/343/54
f 527/341/54 529/343/54 530/344/54
f 531/344/55 532/343/55 533/345/55
f 531/344/55 533/345/55 534/346/55
f 535/346/31 536/345/31 537/334/31
f 535/346/31 537/334/31 538/333/31
o handle_door1_0
v -0.240682 -0.122832 0.121944
v -0.240682 -0.124380 0.116143
v -0.240682 -0.112800 0.127723
v -0.240682 -0.112800 0.104562
v -0.240682 -0.101219 0.116143
v -0.240682 -0.102767 0.121944
v -0.240682 -0.106998 0.126175
v -0.240682 -0.102767 0.110341
v -0.240682 -0.118601 0.106110
v -0.240682 -0.106998 0.106110
v -0.240682 -0.122832 0.110341
v -0.468122 -0.092003 0.117727
v -0.461346 -0.092003 0.121880
v -0.457037 -0.088800 0.110437
v -0.468122 -0.133596 0.117727
v -0.457037 -0.136800 0.110437
v -0.461346 -0.133596 0.121880
v -0.240682 -0.122832 -0.121944
v -0.240682 -0.118601 -0.126175
v -0.240682 -0.112800 -0.127723
v -0.468122 -0.133596 -0.117727
v -0.461346 -0.133596 -0.121880
v -0.457037 -0.136800 -0.110437
v -0.457037 -0.088800 -0.110437
v -0.461346 -0.092003 -0.121880
v -0.468122 -0.092003 -0.117727
v -0.240682 -0.118601 -0.106110
v -0.240682 -0.122832 -0.110341
v -0.240682 -0.124380 -0.116143
v -0.240682 -0.102767 -0.110341
v -0.240682 -0.106998 -0.106110
v -0.240682 -0.112800 -0.104562
v -0.240682 -0.102767 -0.121944
v -0.240682 -0.101219 -0.116143
v -0.240682 -0.106998 -0.126175
v -0.240682 -0.118601 0.126175
v -0.441594 -0.100792 0.136939
v -0.463825 -0.100792 0.130668
v -0.464729 -0.112800 0.133872
v -0.442498 -0.112800 0.140143
v -0.439115 -0.092003 0.128150
v -0.435728 -0.088800 0.116143
v -0.432341 -0.092003 0.104135
v -0.449339 -0.092003 0.101071
v -0.429862 -0.100792 0.095346
v -0.443706 -0.100792 0.094216
v -0.428958 -0.112800 0.092143
v -0.441652 -0.112800 0.091717
v -0.429862 -0.124807 0.095346
v -0.443706 -0.124807 0.094216
v -0.441652 -0.112800 0.091717
v -0.428958 -0.112800 0.092143
v -0.432341 -0.133596 0.104135
v -0.449339 -0.133596 0.101071
v -0.435728 -0.136800 0.116143
v -0.439115 -0.133596 0.128150
v -0.441594 -0.124807 0.136939
v -0.463825 -0.124807 0.130668
v -0.476911 -0.100792 0.122648
v -0.487142 -0.100792 0.104377
v -0.490346 -0.112800 0.106171
v -0.480115 -0.112800 0.124442
v -0.478354 -0.092003 0.099456
v -0.466346 -0.088800 0.092731
v -0.454338 -0.092003 0.086008
v -0.443706 -0.100792 0.094216
v -0.445549 -0.100792 0.081086
v -0.441652 -0.112800 0.091717
v -0.442346 -0.112800 0.079292
v -0.443706 -0.124807 0.094216
v -0.445549 -0.124807 0.081086
v -0.442346 -0.112800 0.079292
v -0.441652 -0.112800 0.091717
v -0.454338 -0.133596 0.086008
v -0.466346 -0.136800 0.092731
v -0.478354 -0.133596 0.099456
v -0.476911 -0.124807 0.122648
v -0.487142 -0.124807 0.104377
v -0.442498 -0.112800 -0.140143
v -0.464729 -0.112800 -0.133872
v -0.463825 -0.100792 -0.130668
v -0.441594 -0.100792 -0.136939
v -0.439115 -0.092003 -0.128150
v -0.435728 -0.088800 -0.116143
v -0.449339 -0.092003 -0.101071
v -0.432341 -0.092003 -0.104135
v -0.443706 -0.100792 -0.094216
v -0.429862 -0.100792 -0.095346
v -0.441652 -0.112800 -0.091717
v -0.428958 -0.112800 -0.092143
v -0.428958 -0.112800 -0.092143
v -0.441652 -0.112800 -0.091717
v -0.443706 -0.124807 -0.094216
v -0.429862 -0.124807 -0.095346
v -0.449339 -0.133596 -0.101071
v -0.432341 -0.133596 -0.104135
v -0.435728 -0.136800 -0.116143
v -0.439115 -0.133596 -0.128150
v -0.463825 -0.124807 -0.130668
v -0.441594 -0.124807 -0.136939
v -0.480115 -0.112800 -0.124442
v -0.490346 -0.112800 -0.106171
v -0.487142 -0.100792 -0.104377
v -0.476911 -0.100792 -0.122648
v -0.478354 -0.092003 -0.099456
v -0.466346 -0.088800 -0.092731
v -0.454338 -0.092003 -0.086008
v -0.445549 -0.100792 -0.081086
v -0.443706 -0.100792 -0.094216
v -0.442346 -0.112800 -0.079292
v -0.441652 -0.112800 -0.091717
v -0.441652 -0.112800 -0.091717
v -0.442346 -0.112800 -0.079292
v -0.445549 -0.124807 -0.081086
v -0.443706 -0.124807 -0.094216
v -0.454338 -0.133596 -0.086008
v -0.466346 -0.136800 -0.092731
v -0.478354 -0.133596 -0.099456
v -0.487142 -0.124807 -0.104377
v -0.476911 -0.124807 -0.122648
v -0.252682 -0.100792 0.136939
v -0.252682 -0.112800 0.140143
v -0.240682 -0.112800 0.127723
v -0.240682 -0.106998 0.126175
v -0.252682 -0.092003 0.128150
v -0.240682 -0.102767 0.121944
v -0.252682 -0.088800 0.116143
v -0.240682 -0.101219 0.116143
v -0.252682 -0.092003 0.104135
v -0.240682 -0.102767 0.110341
v -0.252682 -0.100792 0.095346
v -0.240682 -0.106998 0.106110
v -0.252682 -0.112800 0.092143
v -0.240682 -0.112800 0.104562
v -0.252682 -0.124807 0.095346
v -0.240682 -0.118601 0.106110
v -0.252682 -0.133596 0.104135
v -0.240682 -0.122832 0.110341
v -0.252682 -0.136800 0.116143
v -0.240682 -0.124380 0.116143
v -0.252682 -0.133596 0.128150
v -0.240682 -0.122832 0.121944
v -0.252682 -0.124807 0.136939
v -0.240682 -0.118601 0.126175
v -0.252682 -0.112800 0.140143
v -0.252682 -0.100792 0.136939
v -0.252682 -0.092003 0.128150
v -0.252682 -0.088800 0.116143
v -0.252682 -0.092003 0.104135
v -0.252682 -0.100792 0.095346
v -0.252682 -0.112800 0.092143
v -0.252682 -0.112800 0.092143
v -0.252682 -0.124807 0.095346
v -0.252682 -0.133596 0.104135
v -0.252682 -0.136800 0.116143
v -0.252682 -0.133596 0.128150
v -0.252682 -0.124807 0.136939
v -0.490346 -0.112800 0.027857
v -0.487142 -0.100792 0.027857
v -0.478354 -0.092003 0.027857
v -0.466346 -0.088800 0.027857
v -0.454338 -0.092003 0.027857
v -0.487142 -0.124807 -0.027857
v -0.490346 -0.112800 -0.027857
v -0.478354 -0.133596 -0.027857
v -0.466346 -0.136800 -0.027857
v -0.454338 -0.133596 -0.027857
v -0.445549 -0.124807 -0.027857
v -0.442346 -0.112800 -0.027857
v -0.445549 -0.100792 -0.027857
v -0.442346 -0.112800 -0.027857
v -0.454338 -0.092003 -0.027857
v -0.466346 -0.088800 -0.027857
v -0.478354 -0.092003 -0.027857
v -0.487142 -0.100792 -0.027857
v -0.252682 -0.112800 -0.140143
v -0.252682 -0.124807 -0.136939
v -0.252682 -0.133596 -0.128150
v -0.252682 -0.136800 -0.116143
v -0.252682 -0.133596 -0.104135
v -0.252682 -0.124807 -0.095346
v -0.252682 -0.112800 -0.092143
v -0.252682 -0.112800 -0.092143
v -0.252682 -0.100792 -0.095346
v -0.252682 -0.092003 -0.104135
v -0.252682 -0.088800 -0.116143
v -0.252682 -0.092003 -0.128150
v -0.252682 -0.100792 -0.136939
v -0.240682 -0.118601 -0.126175
v -0.252682 -0.124807 -0.136939
v -0.252682 -0.112800 -0.140143
v -0.240682 -0.112800 -0.127723
v -0.240682 -0.122832 -0.121944
v -0.252682 -0.133596 -0.128150
v -0.240682 -0.124380 -0.116143
v -0.252682 -0.136800 -0.116143
v -0.240682 -0.122832 -0.110341
v -0.252682 -0.133596 -0.104135
v -0.240682 -0.118601 -0.106110
v -0.252682 -0.124807 -0.095346
v -0.240682 -0.112800 -0.104562
v -0.252682 -0.112800 -0.092143
v -0.240682 -0.106998 -0.106110
v -0.252682 -0.100792 -0.095346
v -0.240682 -0.102767 -0.110341
v -0.252682 -0.092003 -0.104135
v -0.240682 -0.101219 -0.116143
v -0.252682 -0.088800 -0.116143
v -0.240682 -0.102767 -0.121944
v -0.252682 -0.092003 -0.128150
v -0.240682 -0.106998 -0.126175
v -0.252682 -0.100792 -0.136939
v -0.487142 -0.124807 0.027857
v -0.478354 -0.133596 0.027857
v -0.466346 -0.136800 0.027857
v -0.454338 -0.133596 0.027857
v -0.445549 -0.124807 0.027857
v -0.442346 -0.112800 0.027857
v -0.445549 -0.100792 0.027857
v -0.442346 -0.112800 0.027857
vn 1.0000 -0.0000 -0.0000
vn -0.3333 0.8845 0.3263
vn -0.1968 0.8715 0.4492
vn -0.0216 0.9988 0.0444
vn -0.3333 -0.8846 0.3263
vn -0.0237 -0.9988 0.0432
vn -0.1968 -0.8715 0.4492
vn -0.3333 -0.8845 -0.3263
vn -0.1968 -0.8715 -0.4492
vn -0.0216 -0.9988 -0.0444
vn -0.0237 0.9988 -0.0432
vn -0.1968 0.8715 -0.4492
vn -0.3332 0.8846 -0.3263
vn -0.1174 0.5093 0.8525
vn -0.3455 0.5093 0.7882
vn -0.4010 -0.0000 0.9161
vn -0.1369 -0.0000 0.9906
vn -0.0661 0.8715 0.4860
vn -0.0022 1.0000 -0.0039
vn 0.0398 0.8630 -0.5037
vn 0.3015 0.8926 -0.3353
vn 0.0391 0.4900 -0.8708
vn 0.0782 0.4796 -0.8740
vn 0.0288 0.0006 -0.9996
vn 0.0574 0.0013 -0.9984
vn 0.0385 -0.4869 -0.8726
vn 0.0769 -0.4735 -0.8774
vn 0.0574 0.0011 -0.9984
vn 0.0288 0.0005 -0.9996
vn 0.0392 -0.8608 -0.5074
vn 0.2933 -0.8934 -0.3403
vn -0.0023 -1.0000 -0.0052
vn -0.0661 -0.8714 0.4860
vn -0.1174 -0.5093 0.8525
vn -0.3455 -0.5093 0.7882
vn -0.6066 0.5343 0.5887
vn -0.8189 0.5344 0.2095
vn -0.9679 -0.0000 0.2512
vn -0.7200 -0.0000 0.6940
vn -0.4531 0.8844 0.1122
vn 0.0100 0.9999 0.0027
vn 0.5009 0.8628 -0.0680
vn 0.8736 0.4682 -0.1326
vn 0.8720 0.4850 -0.0664
vn 0.9952 -0.0014 -0.0974
vn 0.9988 -0.0006 -0.0489
vn 0.8672 -0.4788 -0.1366
vn 0.8688 -0.4904 -0.0684
vn 0.9988 -0.0009 -0.0490
vn 0.9952 -0.0015 -0.0974
vn 0.4936 -0.8669 -0.0698
vn 0.0074 -1.0000 0.0025
vn -0.4530 -0.8844 0.1122
vn -0.6066 -0.5343 0.5887
vn -0.8189 -0.5344 0.2095
vn -0.1369 -0.0000 -0.9906
vn -0.4009 -0.0000 -0.9161
vn -0.3454 0.5093 -0.7882
vn -0.1174 0.5093 -0.8525
vn -0.0661 0.8714 -0.4860
vn -0.0023 1.0000 0.0052
vn 0.2933 0.8934 0.3403
vn 0.0392 0.8608 0.5074
vn 0.0769 0.4735 0.8774
vn 0.0385 0.4869 0.8726
vn 0.0574 -0.0011 0.9984
vn 0.0288 -0.0005 0.9996
vn 0.0288 -0.0006 0.9996
vn 0.0574 -0.0012 0.9984
vn 0.0782 -0.4796 0.8740
vn 0.0391 -0.4900 0.8708
vn 0.3015 -0.8926 0.3353
vn 0.0398 -0.8630 0.5037
vn -0.0022 -1.0000 0.0039
vn -0.0661 -0.8715 -0.4860
vn -0.3454 -0.5093 -0.7882
vn -0.1174 -0.5093 -0.8525
vn -0.7200 -0.0000 -0.6940
vn -0.9679 -0.0000 -0.2512
vn -0.8189 0.5343 -0.2095
vn -0.6065 0.5344 -0.5887
vn -0.4530 0.8844 -0.1122
vn 0.0074 1.0000 -0.0025
vn 0.4936 0.8669 0.0698
vn 0.8688 0.4904 0.0684
vn 0.8672 0.4788 0.1366
vn 0.9988 0.0009 0.0489
vn 0.9952 0.0015 0.0974
vn 0.9952 0.0013 0.0974
vn 0.9988 0.0007 0.0489
vn 0.8720 -0.4850 0.0664
vn 0.8736 -0.4682 0.1326
vn 0.5009 -0.8628 0.0680
vn 0.0100 -0.9999 -0.0027
vn -0.4531 -0.8844 -0.1122
vn -0.8189 -0.5344 -0.2095
vn -0.6066 -0.5344 -0.5887
vn 0.7193 0.3470 0.6018
vn 0.7192 -0.0000 0.6948
vn 0.7193 0.6018 0.3470
vn 0.7191 0.6949 -0.0000
vn 0.7193 0.6018 -0.3470
vn 0.7193 0.3470 -0.6018
vn 0.7191 -0.0000 -0.6949
vn 0.7193 -0.3470 -0.6018
vn 0.7193 -0.6018 -0.3470
vn 0.7192 -0.6948 -0.0000
vn 0.7193 -0.6018 0.3470
vn 0.7193 -0.3470 0.6018
vn -0.0000 -0.0000 1.0000
vn -0.0000 0.4995 0.8663
vn -0.0000 0.8663 0.4995
vn -0.0000 1.0000 -0.0000
vn -0.0000 0.8663 -0.4995
vn -0.0000 0.4995 -0.8663
vn -0.0000 0.0001 -1.0000
vn -0.0001 -0.0001 -1.0000
vn -0.0000 -0.4995 -0.8663
vn -0.0000 -0.8663 -0.4995
vn -0.0000 -1.0000 -0.0000
vn -0.0000 -0.8663 0.4996
vn -0.0000 -0.4996 0.8663
vn -1.0000 -0.0000 -0.0000
vn -0.8663 0.4995 -0.0000
vn -0.4995 0.8663 -0.0000
vn 0.4995 0.8663 -0.0000
vn -0.8663 -0.4996 -0.0000
vn -0.4995 -0.8663 -0.0000
vn 0.4995 -0.8663 -0.0000
vn 0.8663 -0.4995 -0.0000
vn 1.0000 -0.0001 -0.0000
vn 0.8663 0.4995 -0.0000
vn 1.0000 0.0001 -0.0000
vn -0.0000 -0.0000 -1.0000
vn -0.0000 -0.4996 -0.8663
vn -0.0000 -0.8663 -0.4996
vn -0.0000 -0.8663 0.4995
vn -0.0000 -0.4995 0.8663
vn -0.0000 -0.0001 1.0000
vn -0.0000 0.0001 1.0000
vn 0.7192 -0.0000 -0.6948
vn 0.7191 -0.0000 0.6949
vt 0.633752 0.696071
vt 0.635660 0.696012
vt 0.631127 0.693466
vt 0.638234 0.691497
vt 0.633699 0.688951
vt 0.632017 0.689880
vt 0.631077 0.691562
vt 0.635608 0.688891
vt 0.638284 0.693400
vt 0.637282 0.689827
vt 0.637338 0.695069
vt 0.424051 0.631871
vt 0.422090 0.631668
vt 0.423104 0.628151
vt 0.424097 0.643106
vt 0.423197 0.646842
vt 0.422145 0.643333
vt 0.605409 0.693395
vt 0.606345 0.695068
vt 0.608015 0.696019
vt 0.424078 0.563777
vt 0.422125 0.563556
vt 0.423166 0.560044
vt 0.423135 0.578735
vt 0.422109 0.575222
vt 0.424070 0.575012
vt 0.608080 0.688863
vt 0.606411 0.689808
vt 0.605468 0.691487
vt 0.612589 0.691539
vt 0.611653 0.689864
vt 0.609983 0.688913
vt 0.611600 0.695129
vt 0.612530 0.693448
vt 0.609918 0.696069
vt 0.632078 0.695135
vt 0.415822 0.634084
vt 0.421395 0.634693
vt 0.421159 0.637513
vt 0.415806 0.637538
vt 0.416036 0.630449
vt 0.416363 0.626425
vt 0.416751 0.621994
vt 0.423197 0.623794
vt 0.417039 0.617250
vt 0.423225 0.618359
vt 0.417216 0.612233
vt 0.422929 0.612670
vt 0.417234 0.657812
vt 0.423413 0.656647
vt 0.423169 0.662341
vt 0.417458 0.662831
vt 0.416902 0.653070
vt 0.423333 0.651207
vt 0.416472 0.648640
vt 0.416106 0.644620
vt 0.415856 0.640991
vt 0.421425 0.640331
vt 0.424667 0.634902
vt 0.429130 0.634454
vt 0.429122 0.637441
vt 0.424947 0.637493
vt 0.429151 0.631088
vt 0.429198 0.626988
vt 0.429232 0.622086
vt 0.429176 0.616721
vt 0.428513 0.611261
vt 0.429384 0.658231
vt 0.428772 0.663700
vt 0.429393 0.652865
vt 0.429319 0.647962
vt 0.429244 0.643858
vt 0.424717 0.640108
vt 0.429176 0.640405
vt 0.415806 0.569373
vt 0.421159 0.569381
vt 0.421404 0.572199
vt 0.415833 0.572827
vt 0.416059 0.576461
vt 0.416400 0.580484
vt 0.423243 0.583092
vt 0.416803 0.584914
vt 0.423289 0.588527
vt 0.417107 0.589656
vt 0.423012 0.594217
vt 0.417301 0.594673
vt 0.417373 0.544075
vt 0.423087 0.544545
vt 0.423349 0.550239
vt 0.417167 0.549093
vt 0.423288 0.555679
vt 0.416850 0.553838
vt 0.416435 0.558268
vt 0.416082 0.562290
vt 0.421415 0.566561
vt 0.415844 0.565919
vt 0.424947 0.569388
vt 0.429123 0.569426
vt 0.429140 0.572413
vt 0.424676 0.571980
vt 0.429172 0.575778
vt 0.429233 0.579878
vt 0.429284 0.584780
vt 0.429245 0.590145
vt 0.428600 0.595606
vt 0.428685 0.543167
vt 0.429315 0.548635
vt 0.429342 0.554001
vt 0.429284 0.558903
vt 0.429223 0.563008
vt 0.429167 0.566461
vt 0.424708 0.566774
vt 0.625349 0.689939
vt 0.625354 0.694993
vt 0.627846 0.685651
vt 0.632175 0.683160
vt 0.637228 0.683163
vt 0.641508 0.685656
vt 0.644002 0.689974
vt 0.644000 0.695025
vt 0.641506 0.699300
vt 0.637188 0.701793
vt 0.632136 0.701797
vt 0.627854 0.699310
vt 0.352491 0.637842
vt 0.352496 0.633312
vt 0.352536 0.628800
vt 0.352603 0.624314
vt 0.352686 0.619837
vt 0.352780 0.615336
vt 0.352881 0.610800
vt 0.353140 0.664879
vt 0.352996 0.660345
vt 0.352859 0.655845
vt 0.352733 0.651369
vt 0.352623 0.646883
vt 0.352539 0.642373
vt 0.454592 0.637347
vt 0.454342 0.632316
vt 0.453783 0.627283
vt 0.452976 0.622243
vt 0.452019 0.617196
vt 0.454380 0.564402
vt 0.454592 0.569434
vt 0.453858 0.559365
vt 0.453086 0.554317
vt 0.452163 0.549262
vt 0.451173 0.544149
vt 0.450156 0.538960
vt 0.451079 0.594701
vt 0.450046 0.599884
vt 0.452086 0.589594
vt 0.453026 0.584544
vt 0.453816 0.579501
vt 0.454359 0.574466
vt 0.352490 0.569280
vt 0.352523 0.564749
vt 0.352592 0.560239
vt 0.352687 0.555753
vt 0.352798 0.551276
vt 0.352919 0.546776
vt 0.353049 0.542241
vt 0.352970 0.596321
vt 0.352854 0.591786
vt 0.352746 0.587285
vt 0.352648 0.582808
vt 0.352566 0.578322
vt 0.352510 0.573811
vt 0.602170 0.699293
vt 0.606487 0.701793
vt 0.599683 0.695010
vt 0.599687 0.689959
vt 0.602180 0.685641
vt 0.606455 0.683147
vt 0.611507 0.683145
vt 0.615824 0.685638
vt 0.618317 0.689919
vt 0.618320 0.694971
vt 0.615830 0.699301
vt 0.611541 0.701797
vt 0.454397 0.642381
vt 0.453891 0.647420
vt 0.453136 0.652470
vt 0.452230 0.657528
vt 0.451256 0.662645
vt 0.450257 0.667836
vt 0.450995 0.612092
vt 0.449944 0.606913
s 1
usemtl door1.001
f 539/347/57 540/348/57 541/349/57
f 540/348/57 542/350/57 543/351/57
f 544/352/57 545/353/57 541/349/57
f 546/354/57 543/351/57 542/350/57
f 547/355/57 542/350/57 540/348/57
f 541/349/57 540/348/57 543/351/57
f 543/351/57 544/352/57 541/349/57
f 548/356/57 546/354/57 542/350/57
f 549/357/57 547/355/57 540/348/57
f 550/358/58 551/359/59 552/360/60
f 553/361/61 554/362/62 555/363/63
f 556/364/57 557/365/57 558/366/57
f 559/367/64 560/368/65 561/369/66
f 562/370/67 563/371/68 564/372/69
f 565/373/57 566/374/57 567/375/57
f 568/376/57 569/377/57 570/378/57
f 571/379/57 572/380/57 558/366/57
f 567/375/57 558/366/57 572/380/57
f 570/378/57 565/373/57 567/375/57
f 572/380/57 568/376/57 570/378/57
f 573/381/57 571/379/57 558/366/57
f 570/378/57 567/375/57 572/380/57
f 567/375/57 556/364/57 558/366/57
f 574/382/57 539/347/57 541/349/57
f 575/383/70 576/384/71 577/385/72
f 575/383/70 577/385/72 578/386/73
f 579/387/74 551/359/59 576/384/71
f 579/387/74 576/384/71 575/383/70
f 580/388/75 552/360/60 551/359/59
f 580/388/75 551/359/59 579/387/74
f 581/389/76 582/390/77 552/360/60
f 581/389/76 552/360/60 580/388/75
f 583/391/78 584/392/79 582/390/77
f 583/391/78 582/390/77 581/389/76
f 585/393/80 586/394/81 584/392/79
f 585/393/80 584/392/79 583/391/78
f 587/395/82 588/396/83 589/397/84
f 587/395/82 589/397/84 590/398/85
f 591/399/86 592/400/87 588/396/83
f 591/399/86 588/396/83 587/395/82
f 593/401/88 554/362/62 592/400/87
f 593/401/88 592/400/87 591/399/86
f 594/402/89 555/363/63 554/362/62
f 594/402/89 554/362/62 593/401/88
f 595/403/90 596/404/91 555/363/63
f 595/403/90 555/363/63 594/402/89
f 578/386/73 577/385/72 596/404/91
f 578/386/73 596/404/91 595/403/90
f 597/405/92 598/406/93 599/407/94
f 597/405/92 599/407/94 600/408/95
f 550/358/58 601/409/96 598/406/93
f 550/358/58 598/406/93 597/405/92
f 552/360/60 602/410/97 601/409/96
f 552/360/60 601/409/96 550/358/58
f 582/390/77 603/411/98 602/410/97
f 582/390/77 602/410/97 552/360/60
f 604/392/99 605/412/100 603/411/98
f 604/392/99 603/411/98 582/390/77
f 606/394/101 607/413/102 605/412/100
f 606/394/101 605/412/100 604/392/99
f 608/396/103 609/414/104 610/415/105
f 608/396/103 610/415/105 611/397/106
f 592/400/87 612/416/107 609/414/104
f 592/400/87 609/414/104 608/396/103
f 554/362/62 613/417/108 612/416/107
f 554/362/62 612/416/107 592/400/87
f 553/361/61 614/418/109 613/417/108
f 553/361/61 613/417/108 554/362/62
f 615/419/110 616/420/111 614/418/109
f 615/419/110 614/418/109 553/361/61
f 600/408/95 599/407/94 616/420/111
f 600/408/95 616/420/111 615/419/110
f 617/421/112 618/422/113 619/423/114
f 617/421/112 619/423/114 620/424/115
f 620/424/115 619/423/114 563/371/68
f 620/424/115 563/371/68 621/425/116
f 621/425/116 563/371/68 562/370/67
f 621/425/116 562/370/67 622/426/117
f 622/426/117 562/370/67 623/427/118
f 622/426/117 623/427/118 624/428/119
f 624/428/119 623/427/118 625/429/120
f 624/428/119 625/429/120 626/430/121
f 626/430/121 625/429/120 627/431/122
f 626/430/121 627/431/122 628/432/123
f 629/433/124 630/434/125 631/435/126
f 629/433/124 631/435/126 632/436/127
f 632/436/127 631/435/126 633/437/128
f 632/436/127 633/437/128 634/438/129
f 634/438/129 633/437/128 561/369/66
f 634/438/129 561/369/66 635/439/130
f 635/439/130 561/369/66 560/368/65
f 635/439/130 560/368/65 636/440/131
f 636/440/131 560/368/65 637/441/132
f 636/440/131 637/441/132 638/442/133
f 638/442/133 637/441/132 618/422/113
f 638/442/133 618/422/113 617/421/112
f 639/443/134 640/444/135 641/445/136
f 639/443/134 641/445/136 642/446/137
f 642/446/137 641/445/136 643/447/138
f 642/446/137 643/447/138 564/372/69
f 564/372/69 643/447/138 644/448/139
f 564/372/69 644/448/139 562/370/67
f 562/370/67 644/448/139 645/449/140
f 562/370/67 645/449/140 623/427/118
f 623/427/118 645/449/140 646/450/141
f 623/427/118 646/450/141 647/429/142
f 647/429/142 646/450/141 648/451/143
f 647/429/142 648/451/143 649/431/144
f 650/434/145 651/452/146 652/453/147
f 650/434/145 652/453/147 653/435/148
f 653/435/148 652/453/147 654/454/149
f 653/435/148 654/454/149 633/437/128
f 633/437/128 654/454/149 655/455/150
f 633/437/128 655/455/150 561/369/66
f 561/369/66 655/455/150 656/456/151
f 561/369/66 656/456/151 559/367/64
f 559/367/64 656/456/151 657/457/152
f 559/367/64 657/457/152 658/458/153
f 658/458/153 657/457/152 640/444/135
f 658/458/153 640/444/135 639/443/134
f 659/459/154 660/460/155 661/349/155
f 659/459/154 661/349/155 662/353/154
f 663/461/156 659/459/154 662/353/154
f 663/461/156 662/353/154 664/352/156
f 665/462/157 663/461/156 664/352/156
f 665/462/157 664/352/156 666/351/157
f 667/463/158 665/462/157 666/351/157
f 667/463/158 666/351/157 668/354/158
f 669/464/159 667/463/158 668/354/158
f 669/464/159 668/354/158 670/356/159
f 671/465/160 669/464/159 670/356/159
f 671/465/160 670/356/159 672/350/160
f 673/466/161 671/465/160 672/350/160
f 673/466/161 672/350/160 674/355/161
f 675/467/162 673/466/161 674/355/161
f 675/467/162 674/355/161 676/357/162
f 677/468/163 675/467/162 676/357/162
f 677/468/163 676/357/162 678/348/163
f 679/469/164 677/468/163 678/348/163
f 679/469/164 678/348/163 680/347/164
f 681/470/165 679/469/164 680/347/164
f 681/470/165 680/347/164 682/382/165
f 660/460/155 681/470/165 682/382/165
f 660/460/155 682/382/165 661/349/155
f 578/386/73 683/471/166 684/472/167
f 578/386/73 684/472/167 575/383/70
f 575/383/70 684/472/167 685/473/168
f 575/383/70 685/473/168 579/387/74
f 579/387/74 685/473/168 686/474/169
f 579/387/74 686/474/169 580/388/75
f 580/388/75 686/474/169 687/475/170
f 580/388/75 687/475/170 581/389/76
f 581/389/76 687/475/170 688/476/171
f 581/389/76 688/476/171 583/391/78
f 583/391/78 688/476/171 689/477/172
f 583/391/78 689/477/172 585/393/80
f 590/398/85 690/478/173 691/479/174
f 590/398/85 691/479/174 587/395/82
f 587/395/82 691/479/174 692/480/175
f 587/395/82 692/480/175 591/399/86
f 591/399/86 692/480/175 693/481/176
f 591/399/86 693/481/176 593/401/88
f 593/401/88 693/481/176 694/482/177
f 593/401/88 694/482/177 594/402/89
f 594/402/89 694/482/177 695/483/178
f 594/402/89 695/483/178 595/403/90
f 595/403/90 695/483/178 683/471/166
f 595/403/90 683/471/166 578/386/73
f 600/408/95 577/385/72 576/384/71
f 600/408/95 576/384/71 597/405/92
f 597/405/92 576/384/71 551/359/59
f 597/405/92 551/359/59 550/358/58
f 553/361/61 555/363/63 596/404/91
f 553/361/61 596/404/91 615/419/110
f 615/419/110 596/404/91 577/385/72
f 615/419/110 577/385/72 600/408/95
f 696/484/179 599/407/94 598/406/93
f 696/484/179 598/406/93 697/485/180
f 697/485/180 598/406/93 601/409/96
f 697/485/180 601/409/96 698/486/181
f 698/486/181 601/409/96 602/410/97
f 698/486/181 602/410/97 699/487/169
f 699/487/169 602/410/97 603/411/98
f 699/487/169 603/411/98 700/488/182
f 640/444/135 657/457/152 701/489/183
f 640/444/135 701/489/183 702/490/179
f 657/457/152 656/456/151 703/491/184
f 657/457/152 703/491/184 701/489/183
f 656/456/151 655/455/150 704/492/176
f 656/456/151 704/492/176 703/491/184
f 655/455/150 654/454/149 705/493/185
f 655/455/150 705/493/185 704/492/176
f 654/454/149 652/453/147 706/494/186
f 654/454/149 706/494/186 705/493/185
f 652/453/147 651/452/146 707/495/187
f 652/453/147 707/495/187 706/494/186
f 648/451/143 646/450/141 708/496/188
f 648/451/143 708/496/188 709/497/189
f 646/450/141 645/449/140 710/498/182
f 646/450/141 710/498/182 708/496/188
f 645/449/140 644/448/139 711/499/169
f 645/449/140 711/499/169 710/498/182
f 644/448/139 643/447/138 712/500/181
f 644/448/139 712/500/181 711/499/169
f 643/447/138 641/445/136 713/501/180
f 643/447/138 713/501/180 712/500/181
f 641/445/136 640/444/135 702/490/179
f 641/445/136 702/490/179 713/501/180
f 618/422/113 637/441/132 658/458/153
f 618/422/113 658/458/153 639/443/134
f 637/441/132 560/368/65 559/367/64
f 637/441/132 559/367/64 658/458/153
f 563/371/68 619/423/114 642/446/137
f 563/371/68 642/446/137 564/372/69
f 619/423/114 618/422/113 639/443/134
f 619/423/114 639/443/134 642/446/137
f 714/502/190 715/503/191 638/442/133
f 714/502/190 638/442/133 617/421/112
f 715/503/191 716/504/192 636/440/131
f 715/503/191 636/440/131 638/442/133
f 716/504/192 717/505/176 635/439/130
f 716/504/192 635/439/130 636/440/131
f 717/505/176 718/506/193 634/438/129
f 717/505/176 634/438/129 635/439/130
f 718/506/193 719/507/194 632/436/127
f 718/506/193 632/436/127 634/438/129
f 719/507/194 720/508/195 629/433/124
f 719/507/194 629/433/124 632/436/127
f 721/509/196 722/510/167 626/430/121
f 721/509/196 626/430/121 628/432/123
f 722/510/167 723/511/168 624/428/119
f 722/510/167 624/428/119 626/430/121
f 723/511/168 724/512/169 622/426/117
f 723/511/168 622/426/117 624/428/119
f 724/512/169 725/513/170 621/425/116
f 724/512/169 621/425/116 622/426/117
f 725/513/170 726/514/171 620/424/115
f 725/513/170 620/424/115 621/425/116
f 726/514/171 714/502/190 617/421/112
f 726/514/171 617/421/112 620/424/115
f 727/365/161 728/515/161 729/516/197
f 727/365/161 729/516/197 730/366/197
f 731/364/162 732/517/162 728/515/161
f 731/364/162 728/515/161 727/365/161
f 733/375/163 734/518/163 732/517/162
f 733/375/163 732/517/162 731/364/162
f 735/374/164 736/519/164 734/518/163
f 735/374/164 734/518/163 733/375/163
f 737/373/165 738/520/165 736/519/164
f 737/373/165 736/519/164 735/374/164
f 739/378/198 740/521/198 738/520/165
f 739/378/198 738/520/165 737/373/165
f 741/377/154 742/522/154 740/521/198
f 741/377/154 740/521/198 739/378/198
f 743/376/156 744/523/156 742/522/154
f 743/376/156 742/522/154 741/377/154
f 745/380/157 746/524/157 744/523/156
f 745/380/157 744/523/156 743/376/156
f 747/379/158 748/525/158 746/524/157
f 747/379/158 746/524/157 745/380/157
f 749/381/159 750/526/159 748/525/158
f 749/381/159 748/525/158 747/379/158
f 730/366/197 729/516/197 750/526/159
f 730/366/197 750/526/159 749/381/159
f 751/527/183 616/420/111 599/407/94
f 751/527/183 599/407/94 696/484/179
f 752/528/184 614/418/109 616/420/111
f 752/528/184 616/420/111 751/527/183
f 753/529/176 613/417/108 614/418/109
f 753/529/176 614/418/109 752/528/184
f 754/530/185 612/416/107 613/417/108
f 754/530/185 613/417/108 753/529/176
f 755/531/186 609/414/104 612/416/107
f 755/531/186 612/416/107 754/530/185
f 756/532/187 610/415/105 609/414/104
f 756/532/187 609/414/104 755/531/186
f 757/533/188 605/412/100 607/413/102
f 757/533/188 607/413/102 758/534/189
f 700/488/182 603/411/98 605/412/100
f 700/488/182 605/412/100 757/533/188
