# Blender 4.3.2
# www.blender.org
mtllib pressed.mtl
o Cube
v 0.851474 0.000125 -1.000000
v 0.851474 -0.005290 -0.851474
v 1.000000 0.000125 -0.851474
v 0.851474 0.067617 -0.851474
v 0.851474 0.062203 -1.000000
v 1.000000 0.062203 -0.851474
v 1.000000 0.000125 0.851474
v 0.851474 -0.005290 0.851474
v 0.851474 0.000125 1.000000
v 1.000000 0.062203 0.851474
v 0.851474 0.062203 1.000000
v 0.851474 0.067617 0.851474
v -0.851474 0.000125 -1.000000
v -1.000000 0.000125 -0.851474
v -0.851474 -0.005290 -0.851474
v -1.000000 0.062203 -0.851474
v -0.851474 0.062203 -1.000000
v -0.851474 0.067617 -0.851474
v -1.000000 0.000125 0.851474
v -0.851474 0.000125 1.000000
v -0.851474 -0.005290 0.851474
v -0.851474 0.067617 0.851474
v -0.851474 0.062203 1.000000
v -1.000000 0.062203 0.851474
vn -0.0000 1.0000 -0.0000
vn -1.0000 -0.0000 -0.0000
vn -0.0000 -0.0000 1.0000
vn -0.0000 -1.0000 -0.0000
vn 1.0000 -0.0000 -0.0000
vn 0.0364 -0.9987 -0.0364
vn 0.0364 0.9987 -0.0364
vn 0.0364 -0.9987 0.0364
vn 0.0364 0.9987 0.0364
vn -0.0364 -0.9987 -0.0364
vn -0.0364 0.9987 -0.0364
vn -0.0364 -0.9987 0.0364
vn -0.0364 0.9987 0.0364
vn -0.0364 0.9993 -0.0000
vn -0.0000 0.9993 -0.0364
vn 0.7071 -0.0000 -0.7071
vn -0.7071 -0.0000 0.7071
vn 0.7071 -0.0000 0.7071
vn -0.7071 -0.0000 -0.7071
vn -0.0000 -0.9993 0.0364
vn 0.0364 -0.9993 -0.0000
vn -0.0000 0.9993 0.0364
vn -0.0364 -0.9993 -0.0000
vn -0.0000 -0.9993 -0.0364
vn 0.0364 0.9993 -0.0000
vn -0.0000 -0.0000 -1.0000
vt 0.143566 0.518566
vt 0.356434 0.518566
vt 0.356434 0.731434
vt 0.143566 0.731434
vt 0.393566 0.018566
vt 0.606434 0.018566
vt 0.606434 0.231434
vt 0.393566 0.231434
vt 0.393566 0.768566
vt 0.606434 0.768566
vt 0.606434 0.981434
vt 0.393566 0.981434
vt 0.643566 0.518566
vt 0.856434 0.518566
vt 0.856434 0.731434
vt 0.643566 0.731434
vt 0.393566 0.518566
vt 0.606434 0.518566
vt 0.606434 0.731434
vt 0.393566 0.731434
vt 0.606434 0.481434
vt 0.625000 0.481434
vt 0.606434 0.500000
vt 0.356434 0.500000
vt 0.375000 0.518566
vt 0.606434 0.750000
vt 0.625000 0.768566
vt 0.375000 0.731434
vt 0.356434 0.750000
vt 0.606434 0.250000
vt 0.625000 0.231434
vt 0.125000 0.518566
vt 0.143566 0.500000
vt 0.606434 0.000000
vt 0.625000 0.018566
vt 0.143566 0.750000
vt 0.125000 0.731434
vt 0.393566 0.481434
vt 0.393566 0.000000
vt 0.606434 0.268566
vt 0.393566 0.268566
vt 0.625000 0.981434
vt 0.625000 0.268566
s 0
usemtl Material
f 18/1/1 22/4/1 12/3/1 4/2/1
f 24/5/2 16/8/2 14/7/2 19/6/2
f 11/9/3 23/12/3 20/11/3 9/10/3
f 2/13/4 8/16/4 21/15/4 15/14/4
f 6/17/5 10/20/5 7/19/5 3/18/5
f 1/21/6 3/23/6 2/22/6
f 4/2/7 6/25/7 5/24/7
f 7/26/8 9/10/8 8/27/8
f 10/28/9 12/3/9 11/29/9
f 13/30/10 15/31/10 14/7/10
f 16/32/11 18/1/11 17/33/11
f 19/6/12 21/35/12 20/34/12
f 22/4/13 24/37/13 23/36/13
f 18/1/14 16/32/14 24/37/14 22/4/14
f 4/2/15 5/24/15 17/33/15 18/1/15
f 3/18/16 1/21/16 5/38/16 6/17/16
f 23/39/17 24/5/17 19/6/17 20/34/17
f 9/10/18 7/19/18 10/20/18 11/9/18
f 13/40/19 14/7/19 16/8/19 17/41/19
f 8/27/20 9/10/20 20/11/20 21/42/20
f 2/13/21 3/18/21 7/19/21 8/16/21
f 22/4/22 23/36/22 11/29/22 12/3/22
f 21/35/23 19/6/23 14/7/23 15/31/23
f 15/43/24 13/40/24 1/21/24 2/22/24
f 12/3/25 10/20/25 6/17/25 4/2/25
f 17/41/26 5/38/26 1/21/26 13/40/26
o Cube.001
v 0.741730 -0.087633 -0.829052
v 0.741730 -0.102610 -0.717680
v 0.856834 -0.087633 -0.717680
v 0.741730 0.120365 -0.717680
v 0.741730 0.051230 -0.829052
v 0.856834 0.051230 -0.717680
v 0.856834 -0.087633 0.717680
v 0.741730 -0.102610 0.717680
v 0.741730 -0.087633 0.829052
v 0.856834 0.051230 0.717680
v 0.741730 0.051230 0.829052
v 0.741730 0.120365 0.717680
v -0.741730 -0.087633 -0.829052
v -0.856834 -0.087633 -0.717680
v -0.741730 -0.102610 -0.717680
v -0.856834 0.051230 -0.717680
v -0.741730 0.051230 -0.829052
v -0.741730 0.120365 -0.717680
v -0.856834 -0.087633 0.717680
v -0.741730 -0.087633 0.829052
v -0.741730 -0.102610 0.717680
v -0.741730 0.120365 0.717680
v -0.741730 0.051230 0.829052
v -0.856834 0.051230 0.717680
vn -0.0000 1.0000 -0.0000
vn -1.0000 -0.0000 -0.0000
vn -0.0000 -0.0000 1.0000
vn -0.0000 -1.0000 -0.0000
vn 1.0000 -0.0000 -0.0000
vn 0.1279 -0.9829 -0.1322
vn 0.4545 0.7568 -0.4698
vn 0.1279 -0.9829 0.1322
vn 0.4545 0.7568 0.4698
vn -0.1279 -0.9829 -0.1322
vn -0.4545 0.7568 -0.4698
vn -0.1279 -0.9829 0.1322
vn -0.4545 0.7568 0.4698
vn -0.5149 0.8573 -0.0000
vn -0.0000 0.8496 -0.5274
vn 0.6954 -0.0000 -0.7187
vn -0.6954 -0.0000 0.7187
vn 0.6954 -0.0000 0.7187
vn -0.6954 -0.0000 -0.7187
vn -0.0000 -0.9911 0.1333
vn 0.1290 -0.9916 -0.0000
vn -0.0000 0.8496 0.5274
vn -0.1290 -0.9916 -0.0000
vn -0.0000 -0.9911 -0.1333
vn 0.5149 0.8573 -0.0000
vn -0.0000 -0.0000 -1.0000
vt 0.141792 0.516792
vt 0.358208 0.516792
vt 0.358208 0.733208
vt 0.141792 0.733208
vt 0.391792 0.016792
vt 0.608208 0.016792
vt 0.608208 0.233208
vt 0.391792 0.233208
vt 0.391792 0.766792
vt 0.608208 0.766792
vt 0.608208 0.983208
vt 0.391792 0.983208
vt 0.641792 0.516792
vt 0.858208 0.516792
vt 0.858208 0.733208
vt 0.641792 0.733208
vt 0.391792 0.516792
vt 0.608208 0.516792
vt 0.608208 0.733208
vt 0.391792 0.733208
vt 0.608208 0.483208
vt 0.625000 0.483208
vt 0.608208 0.500000
vt 0.358208 0.500000
vt 0.375000 0.516792
vt 0.608208 0.750000
vt 0.625000 0.766792
vt 0.375000 0.733208
vt 0.358208 0.750000
vt 0.608208 0.250000
vt 0.625000 0.233208
vt 0.125000 0.516792
vt 0.141792 0.500000
vt 0.608208 0.000000
vt 0.625000 0.016792
vt 0.141792 0.750000
vt 0.125000 0.733208
vt 0.391792 0.483208
vt 0.391792 0.000000
vt 0.608208 0.266792
vt 0.391792 0.266792
vt 0.625000 0.983208
vt 0.358208 0.750000
vt 0.625000 0.266792
s 0
usemtl Material.001
f 42/44/27 46/47/27 36/46/27 28/45/27
f 48/48/28 40/51/28 38/50/28 43/49/28
f 35/52/29 47/55/29 44/54/29 33/53/29
f 26/56/30 32/59/30 45/58/30 39/57/30
f 30/60/31 34/63/31 31/62/31 27/61/31
f 25/64/32 27/66/32 26/65/32
f 28/45/33 30/68/33 29/67/33
f 31/69/34 33/53/34 32/70/34
f 34/71/35 36/46/35 35/72/35
f 37/73/36 39/74/36 38/50/36
f 40/75/37 42/44/37 41/76/37
f 43/49/38 45/78/38 44/77/38
f 46/47/39 48/80/39 47/79/39
f 42/44/40 40/75/40 48/80/40 46/47/40
f 28/45/41 29/67/41 41/76/41 42/44/41
f 27/61/42 25/64/42 29/81/42 30/60/42
f 47/82/43 48/48/43 43/49/43 44/77/43
f 33/53/44 31/62/44 34/63/44 35/52/44
f 37/83/45 38/50/45 40/51/45 41/84/45
f 32/70/46 33/53/46 44/54/46 45/85/46
f 26/56/47 27/61/47 31/62/47 32/59/47
f 46/47/48 47/79/48 35/86/48 36/46/48
f 45/78/49 43/49/49 38/50/49 39/74/49
f 39/87/50 37/83/50 25/64/50 26/65/50
f 36/46/51 34/63/51 30/60/51 28/45/51
f 41/84/52 29/81/52 25/64/52 37/83/52
