# Blender 4.3.2
# www.blender.org
mtllib opendoor.mtl
o door_door1_0
v 0.688252 1.171149 1.181122
v 0.665298 0.555470 1.013366
v 0.665298 0.944067 1.013366
v 0.688252 -1.289934 1.181122
v 0.476288 -0.861090 0.055870
v 0.543098 -0.861090 0.046728
v 0.541206 -0.861090 0.056629
v 0.552726 -0.744047 0.037688
v 0.552726 -0.884560 0.037688
v 0.543098 -0.861090 0.046728
v 0.541206 -0.861090 0.056629
v 0.548220 -0.884560 0.073320
v 0.548220 -0.744047 0.073320
v 0.476288 -0.744102 0.055870
v 0.477583 -0.744102 0.065334
v 0.541206 -0.744102 0.056629
v 0.477583 -0.744102 0.065334
v 0.477583 -0.861090 0.065334
v 0.541206 -0.861090 0.056629
v 0.540187 -0.884560 0.054203
v 0.552726 -0.884560 0.037688
v 0.560759 -0.884560 0.056806
v 0.477583 -0.744102 0.065334
v 0.476288 -0.744102 0.055870
v 0.476288 -0.861090 0.055870
v 0.548220 -0.884560 0.073320
v 0.476288 -0.861090 0.055870
v 0.476288 -0.744102 0.055870
v 0.543098 -0.744102 0.046728
v 0.568792 -0.884560 0.075922
v 0.581330 -0.884560 0.059407
v 0.573299 -0.884560 0.040290
v 0.543098 -0.744102 0.046728
v 0.573299 -0.744047 0.040290
v 0.552726 -0.744047 0.037688
v 0.581330 -0.744047 0.059407
v 0.548220 -0.744047 0.073320
v 0.568792 -0.744047 0.075922
v 0.540187 -0.884560 0.054203
v 0.540187 -0.884560 0.054203
v 0.541206 -0.861090 0.056629
v 0.541206 -0.744102 0.056629
v 0.541206 -0.744102 0.056629
v 0.477583 -0.861090 0.065334
v 0.477583 -0.861090 0.065334
v 0.476288 0.475234 0.055870
v 0.543098 0.475234 0.046728
v 0.541206 0.475234 0.056629
v 0.552726 0.592277 0.037688
v 0.552726 0.451764 0.037688
v 0.543098 0.475234 0.046728
v 0.541206 0.475234 0.056629
v 0.548220 0.451764 0.073320
v 0.548220 0.592277 0.073320
v 0.476288 0.592220 0.055870
v 0.477583 0.592220 0.065334
v 0.541206 0.592220 0.056629
v 0.477583 0.592220 0.065334
v 0.477583 0.475234 0.065334
v 0.541206 0.475234 0.056629
v 0.540187 0.451764 0.054203
v 0.552726 0.451764 0.037688
v 0.560759 0.451764 0.056806
v 0.477583 0.592220 0.065334
v 0.476288 0.592220 0.055870
v 0.476288 0.475234 0.055870
v 0.548220 0.451764 0.073320
v 0.476288 0.475234 0.055870
v 0.476288 0.592220 0.055870
v 0.543098 0.592220 0.046728
v 0.568792 0.451764 0.075922
v 0.581330 0.451764 0.059407
v 0.573299 0.451764 0.040290
v 0.543098 0.592220 0.046728
v 0.573299 0.592277 0.040290
v 0.552726 0.592277 0.037688
v 0.581330 0.592277 0.059407
v 0.548220 0.592277 0.073320
v 0.568792 0.592277 0.075922
v 0.540187 0.451764 0.054203
v 0.540187 0.451764 0.054203
v 0.541206 0.475234 0.056629
v 0.541206 0.592220 0.056629
v 0.541206 0.592220 0.056629
v 0.477583 0.475234 0.065334
v 0.477583 0.475234 0.065334
v 0.474137 1.171148 0.058865
v 0.497090 0.944066 0.226620
v 0.605852 0.944067 1.021500
v 0.628806 1.171149 1.189255
v 0.628806 -1.289934 1.189255
v 0.605852 0.555470 1.021500
v 0.474137 -1.289934 0.058865
v 0.497090 0.555470 0.226620
v 0.556536 0.555470 0.218485
v 0.533582 -1.289934 0.050731
v 0.533582 1.171148 0.050731
v 0.556536 0.944066 0.218485
v 0.533582 1.171148 0.050731
v 0.474137 1.171148 0.058865
v 0.628806 1.171149 1.189255
v 0.688252 1.171149 1.181122
v 0.533582 -1.289934 0.050731
v 0.474137 -1.289934 0.058865
v 0.474137 1.171148 0.058865
v 0.533582 1.171148 0.050731
v 0.688252 -1.289934 1.181122
v 0.628806 -1.289934 1.189255
v 0.474137 -1.289934 0.058865
v 0.533582 -1.289934 0.050731
v 0.688252 1.171149 1.181122
v 0.628806 1.171149 1.189255
v 0.628806 -1.289934 1.189255
v 0.688252 -1.289934 1.181122
v 0.568792 -0.884560 0.075922
v 0.568792 -0.744047 0.075922
v 0.548220 -0.744047 0.073320
v 0.548220 -0.884560 0.073320
v 0.552726 -0.884560 0.037688
v 0.552726 -0.744047 0.037688
v 0.573299 -0.744047 0.040290
v 0.573299 -0.884560 0.040290
v 0.581330 -0.884560 0.059407
v 0.581330 -0.744047 0.059407
v 0.568792 -0.744047 0.075922
v 0.568792 -0.884560 0.075922
v 0.573299 -0.884560 0.040290
v 0.573299 -0.744047 0.040290
v 0.581330 -0.744047 0.059407
v 0.581330 -0.884560 0.059407
v 0.675152 -0.099583 1.176526
v 0.638796 -0.099583 1.181500
v 0.640328 -0.099583 1.192702
v 0.676685 -0.099583 1.187726
v 0.676685 -0.277183 1.187726
v 0.676685 -0.099583 1.187726
v 0.640328 -0.099583 1.192702
v 0.640328 -0.277183 1.192702
v 0.568792 0.451764 0.075922
v 0.568792 0.592277 0.075922
v 0.548220 0.592277 0.073320
v 0.548220 0.451764 0.073320
v 0.552726 0.451764 0.037688
v 0.552726 0.592277 0.037688
v 0.573299 0.592277 0.040290
v 0.573299 0.451764 0.040290
v 0.581330 0.451764 0.059407
v 0.581330 0.592277 0.059407
v 0.568792 0.592277 0.075922
v 0.568792 0.451764 0.075922
v 0.573299 0.451764 0.040290
v 0.573299 0.592277 0.040290
v 0.581330 0.592277 0.059407
v 0.581330 0.451764 0.059407
v 0.640328 -0.277183 1.192702
v 0.640328 -0.099583 1.192702
v 0.638796 -0.099583 1.181500
v 0.638796 -0.277183 1.181500
v 0.638796 -0.277183 1.181500
v 0.675152 -0.277183 1.176526
v 0.676685 -0.277183 1.187726
v 0.640328 -0.277183 1.192702
v 0.543344 0.555470 0.220291
v 0.556536 0.555470 0.218485
v 0.556536 0.944066 0.218485
v 0.543344 0.944066 0.220291
v 0.652106 0.944067 1.015171
v 0.652106 0.555470 1.015171
v 0.543344 0.555470 0.220291
v 0.543344 0.944066 0.220291
v 0.652106 0.944067 1.015171
v 0.665298 0.944067 1.013366
v 0.665298 0.555470 1.013366
v 0.652106 0.555470 1.015171
v 0.543344 0.944066 0.220291
v 0.556536 0.944066 0.218485
v 0.665298 0.944067 1.013366
v 0.652106 0.944067 1.015171
v 0.652106 0.555470 1.015171
v 0.665298 0.555470 1.013366
v 0.556536 0.555470 0.218485
v 0.543344 0.555470 0.220291
v 0.508889 0.944066 0.225005
v 0.497090 0.944066 0.226620
v 0.497090 0.555470 0.226620
v 0.508889 0.555470 0.225005
v 0.617651 0.944067 1.019886
v 0.508889 0.944066 0.225005
v 0.508889 0.555470 0.225005
v 0.617651 0.555470 1.019886
v 0.617651 0.555470 1.019886
v 0.605852 0.555470 1.021500
v 0.605852 0.944067 1.021500
v 0.617651 0.944067 1.019886
v 0.617651 0.944067 1.019886
v 0.605852 0.944067 1.021500
v 0.497090 0.944066 0.226620
v 0.508889 0.944066 0.225005
v 0.508889 0.555470 0.225005
v 0.497090 0.555470 0.226620
v 0.605852 0.555470 1.021500
v 0.617651 0.555470 1.019886
v 0.675152 -0.277183 1.176526
v 0.675152 -0.099583 1.176526
v 0.676685 -0.099583 1.187726
v 0.676685 -0.277183 1.187726
v 0.621991 -0.063316 1.123865
v 0.611220 -0.063316 1.045141
v 0.592442 -0.063316 1.047710
v 0.603215 -0.063316 1.126434
v 0.621991 -0.063316 1.123865
v 0.603215 -0.063316 1.126434
v 0.603215 -0.327316 1.126434
v 0.621991 -0.327316 1.123865
v 0.603215 -0.327316 1.126434
v 0.592442 -0.327316 1.047710
v 0.611220 -0.327316 1.045141
v 0.621991 -0.327316 1.123865
v 0.592442 -0.063316 1.047710
v 0.611220 -0.063316 1.045141
v 0.611220 -0.327316 1.045141
v 0.592442 -0.327316 1.047710
v 0.603215 -0.063316 1.126434
v 0.592442 -0.063316 1.047710
v 0.592442 -0.327316 1.047710
v 0.603215 -0.327316 1.126434
v 0.683862 -0.063316 1.035202
v 0.665086 -0.063316 1.037771
v 0.675857 -0.063316 1.116496
v 0.694633 -0.063316 1.113926
v 0.694633 -0.327316 1.113926
v 0.694633 -0.063316 1.113926
v 0.675857 -0.063316 1.116496
v 0.675857 -0.327316 1.116496
v 0.665086 -0.327316 1.037771
v 0.683862 -0.327316 1.035202
v 0.694633 -0.327316 1.113926
v 0.675857 -0.327316 1.116496
v 0.665086 -0.327316 1.037771
v 0.665086 -0.063316 1.037771
v 0.683862 -0.063316 1.035202
v 0.683862 -0.327316 1.035202
v 0.683862 -0.327316 1.035202
v 0.683862 -0.063316 1.035202
v 0.694633 -0.063316 1.113926
v 0.694633 -0.327316 1.113926
vn 0.9908 -0.0000 -0.1356
vn -0.0000 -1.0000 -0.0000
vn -0.6845 -0.0000 -0.7290
vn -0.7422 -0.0469 -0.6686
vn -0.7114 -0.0068 -0.7028
vn -0.9676 0.0160 0.2518
vn -0.9219 -0.0000 0.3874
vn -0.0000 1.0000 -0.0000
vn -0.0018 1.0000 -0.0004
vn 0.1356 -0.0000 0.9908
vn -0.9908 -0.0000 0.1355
vn -0.1356 -0.0000 -0.9908
vn -0.3325 0.0005 -0.9431
vn -0.0010 1.0000 0.0003
vn -0.0012 1.0000 0.0030
vn -0.0007 1.0000 0.0054
vn -0.0014 1.0000 -0.0002
vn -0.0026 1.0000 -0.0016
vn -0.0007 1.0000 -0.0013
vn -0.9890 -0.0116 -0.1476
vn -0.9890 -0.0115 -0.1476
vn -0.9677 0.0160 0.2518
vn -0.0014 1.0000 0.0003
vn -0.0012 1.0000 0.0031
vn -0.0007 1.0000 0.0055
vn -0.9908 -0.0000 0.1356
vn -0.1255 -0.0000 0.9921
vn 0.1255 -0.0000 -0.9921
vn 0.7964 -0.0000 0.6047
vn 0.9219 -0.0000 -0.3873
vn -0.1355 -0.0000 -0.9908
vn 0.9908 -0.0000 -0.1355
vt 0.255802 0.003537
vt 0.292114 0.135716
vt 0.292137 0.052295
vt 0.255660 0.531865
vt 0.680034 0.585508
vt 0.678773 0.608575
vt 0.676677 0.606154
vt 0.719840 0.614490
vt 0.671459 0.614281
vt 0.678449 0.650223
vt 0.670500 0.643525
vt 0.720170 0.643829
vt 0.488760 0.575696
vt 0.485518 0.574865
vt 0.491103 0.553071
vt 0.720237 0.673339
vt 0.678302 0.673358
vt 0.640369 0.721410
vt 0.644002 0.715118
vt 0.636737 0.715118
vt 0.720354 0.582725
vt 0.720360 0.586291
vt 0.633104 0.721410
vt 0.719796 0.609840
vt 0.629472 0.715118
vt 0.633104 0.708827
vt 0.640369 0.708827
vt 0.494625 0.552810
vt 0.498079 0.542558
vt 0.498158 0.549823
vt 0.491748 0.538994
vt 0.485576 0.549960
vt 0.485496 0.542695
vt 0.670512 0.607893
vt 0.670186 0.650791
vt 0.720227 0.650321
vt 0.678515 0.583843
vt 0.440352 0.715690
vt 0.417276 0.716788
vt 0.419682 0.718901
vt 0.411652 0.675680
vt 0.411518 0.724061
vt 0.375626 0.716817
vt 0.382268 0.724813
vt 0.382316 0.675142
vt 0.469068 0.575696
vt 0.465826 0.574865
vt 0.471412 0.553071
vt 0.352807 0.674866
vt 0.352491 0.716800
vt 0.614687 0.721410
vt 0.618320 0.715118
vt 0.611055 0.715118
vt 0.443420 0.675391
vt 0.439854 0.675359
vt 0.607422 0.721410
vt 0.416301 0.675757
vt 0.603790 0.715118
vt 0.607422 0.708827
vt 0.614687 0.708827
vt 0.474934 0.552810
vt 0.478388 0.542557
vt 0.478467 0.549822
vt 0.472057 0.538994
vt 0.465884 0.549959
vt 0.465805 0.542695
vt 0.417899 0.725052
vt 0.375000 0.725075
vt 0.375825 0.675040
vt 0.442006 0.717220
vt 0.248630 0.003602
vt 0.212265 0.052338
vt 0.040035 0.052276
vt 0.003704 0.003515
vt 0.003515 0.531843
vt 0.040005 0.135697
vt 0.248440 0.531931
vt 0.212235 0.135759
vt 0.464344 0.135762
vt 0.500586 0.531931
vt 0.500728 0.003603
vt 0.464367 0.052341
vt 0.776816 0.886006
vt 0.776766 0.873124
vt 0.531771 0.874009
vt 0.531820 0.886891
vt 0.531941 0.909593
vt 0.531892 0.896713
vt 0.003524 0.898616
vt 0.003571 0.911499
vt 0.776816 0.908707
vt 0.776774 0.895832
vt 0.003515 0.875925
vt 0.003556 0.888802
vt 0.670708 0.636130
vt 0.720126 0.636442
vt 0.719964 0.621766
vt 0.671191 0.621501
vt 0.670940 0.628787
vt 0.720058 0.629085
vt 0.588693 0.683147
vt 0.575837 0.683145
vt 0.575836 0.687106
vt 0.588692 0.687108
vt 0.588681 0.749331
vt 0.575825 0.749329
vt 0.389664 0.724657
vt 0.389703 0.675239
vt 0.404377 0.675505
vt 0.404296 0.724278
vt 0.397009 0.724477
vt 0.397058 0.675359
vt 0.571875 0.687105
vt 0.571864 0.749328
vt 0.575824 0.753290
vt 0.588681 0.753292
vt 0.341939 0.541819
vt 0.341928 0.538960
vt 0.258507 0.539281
vt 0.258518 0.542140
vt 0.259181 0.714368
vt 0.342602 0.714047
vt 0.259192 0.717227
vt 0.342613 0.716905
vt 0.255660 0.542151
vt 0.256323 0.714379
vt 0.345460 0.714036
vt 0.344797 0.541808
vt 0.488372 0.585282
vt 0.485815 0.585272
vt 0.485496 0.668692
vt 0.488053 0.668702
vt 0.660600 0.585940
vt 0.660281 0.669360
vt 0.662838 0.669370
vt 0.663157 0.585950
vt 0.660610 0.583383
vt 0.488382 0.582725
vt 0.488043 0.671259
vt 0.660272 0.671917
vt 0.592642 0.749332
vt 0.592653 0.687109
vt 0.704885 0.680450
vt 0.677047 0.680388
vt 0.677032 0.687028
vt 0.704870 0.687090
vt 0.711510 0.687104
vt 0.704664 0.779583
vt 0.711304 0.779598
vt 0.676826 0.779521
vt 0.676811 0.786161
vt 0.704650 0.786223
vt 0.670392 0.687013
vt 0.670186 0.779506
vt 0.734029 0.589478
vt 0.734002 0.582838
vt 0.761840 0.582725
vt 0.761867 0.589365
vt 0.762244 0.681858
vt 0.768507 0.589338
vt 0.768884 0.681830
vt 0.734433 0.688611
vt 0.734406 0.681971
vt 0.762271 0.688498
vt 0.727766 0.681998
vt 0.727389 0.589505
s 1
usemtl door1
f 1/1/1 2/2/1 3/3/1
f 2/2/1 1/1/1 4/4/1
f 5/5/2 6/6/2 7/7/2
f 8/8/3 9/9/4 10/6/5
f 11/10/6 12/11/7 13/12/7
f 14/13/8 15/14/8 16/15/9
f 17/16/10 18/17/10 19/10/10
f 20/18/2 21/19/2 22/20/2
f 23/21/11 24/22/11 25/5/11
f 26/23/2 20/18/2 22/20/2
f 27/5/12 28/22/12 29/24/13
f 30/25/2 26/23/2 22/20/2
f 31/26/2 30/25/2 22/20/2
f 21/19/2 32/27/2 22/20/2
f 32/27/2 31/26/2 22/20/2
f 33/28/14 34/29/15 35/30/16
f 36/31/17 34/29/15 33/28/14
f 37/32/18 38/33/19 33/28/14
f 38/33/19 36/31/17 33/28/14
f 16/15/9 37/32/18 33/28/14
f 33/28/14 14/13/8 16/15/9
f 10/6/5 9/9/4 39/34/20
f 40/35/21 12/11/7 11/10/6
f 41/7/22 10/6/5 39/34/20
f 29/24/13 8/8/3 10/6/5
f 42/36/7 11/10/6 13/12/7
f 43/36/10 17/16/10 19/10/10
f 44/37/11 23/21/11 25/5/11
f 10/6/5 27/5/12 29/24/13
f 45/37/2 5/5/2 7/7/2
f 46/38/2 47/39/2 48/40/2
f 49/41/3 50/42/4 51/39/5
f 52/43/6 53/44/7 54/45/7
f 55/46/8 56/47/8 57/48/9
f 58/49/10 59/50/10 60/43/10
f 61/51/2 62/52/2 63/53/2
f 64/54/11 65/55/11 66/38/11
f 67/56/2 61/51/2 63/53/2
f 68/38/12 69/55/12 70/57/13
f 71/58/2 67/56/2 63/53/2
f 72/59/2 71/58/2 63/53/2
f 62/52/2 73/60/2 63/53/2
f 73/60/2 72/59/2 63/53/2
f 74/61/23 75/62/24 76/63/25
f 77/64/17 75/62/24 74/61/23
f 78/65/18 79/66/19 74/61/23
f 79/66/19 77/64/17 74/61/23
f 57/48/9 78/65/18 74/61/23
f 74/61/23 55/46/8 57/48/9
f 51/39/5 50/42/4 80/67/20
f 81/68/21 53/44/7 52/43/6
f 82/40/22 51/39/5 80/67/20
f 70/57/13 49/41/3 51/39/5
f 83/69/7 52/43/6 54/45/7
f 84/69/10 58/49/10 60/43/10
f 85/70/11 64/54/11 66/38/11
f 51/39/5 68/38/12 70/57/13
f 86/70/2 46/38/2 48/40/2
f 87/71/26 88/72/26 89/73/26
f 87/71/26 89/73/26 90/74/26
f 91/75/26 90/74/26 89/73/26
f 91/75/26 89/73/26 92/76/26
f 93/77/26 91/75/26 92/76/26
f 93/77/26 92/76/26 94/78/26
f 94/78/26 88/72/26 87/71/26
f 94/78/26 87/71/26 93/77/26
f 95/79/1 2/2/1 4/4/1
f 95/79/1 4/4/1 96/80/1
f 97/81/1 1/1/1 3/3/1
f 97/81/1 3/3/1 98/82/1
f 96/80/1 97/81/1 98/82/1
f 96/80/1 98/82/1 95/79/1
f 99/83/8 100/84/8 101/85/8
f 99/83/8 101/85/8 102/86/8
f 103/87/12 104/88/12 105/89/12
f 103/87/12 105/89/12 106/90/12
f 107/91/2 108/92/2 109/88/2
f 107/91/2 109/88/2 110/87/2
f 111/86/10 112/85/10 113/93/10
f 111/86/10 113/93/10 114/94/10
f 115/95/27 116/96/27 117/12/27
f 115/95/27 117/12/27 118/11/27
f 119/9/28 120/8/28 121/97/28
f 119/9/28 121/97/28 122/98/28
f 123/99/29 124/100/29 125/96/29
f 123/99/29 125/96/29 126/95/29
f 127/98/30 128/97/30 129/100/30
f 127/98/30 129/100/30 130/99/30
f 131/101/8 132/102/8 133/103/8
f 131/101/8 133/103/8 134/104/8
f 135/105/10 136/104/10 137/103/10
f 135/105/10 137/103/10 138/106/10
f 139/107/27 140/108/27 141/45/27
f 139/107/27 141/45/27 142/44/27
f 143/42/28 144/41/28 145/109/28
f 143/42/28 145/109/28 146/110/28
f 147/111/29 148/112/29 149/108/29
f 147/111/29 149/108/29 150/107/29
f 151/110/30 152/109/30 153/112/30
f 151/110/30 153/112/30 154/111/30
f 155/106/11 156/103/11 157/113/11
f 155/106/11 157/113/11 158/114/11
f 159/115/2 160/116/2 161/105/2
f 159/115/2 161/105/2 162/106/2
f 163/117/10 164/118/10 165/119/10
f 163/117/10 165/119/10 166/120/10
f 167/121/1 168/122/1 169/117/1
f 167/121/1 169/117/1 170/120/1
f 171/121/12 172/123/12 173/124/31
f 171/121/12 173/124/31 174/122/31
f 175/120/2 176/125/2 177/126/2
f 175/120/2 177/126/2 178/121/2
f 179/122/8 180/127/8 181/128/8
f 179/122/8 181/128/8 182/117/8
f 183/129/10 184/130/10 185/131/10
f 183/129/10 185/131/10 186/132/10
f 187/133/26 188/129/26 189/132/26
f 187/133/26 189/132/26 190/134/26
f 191/134/31 192/135/31 193/136/31
f 191/134/31 193/136/31 194/133/31
f 195/133/2 196/137/2 197/138/2
f 195/133/2 197/138/2 198/129/2
f 199/132/8 200/139/8 201/140/8
f 199/132/8 201/140/8 202/134/8
f 203/141/32 204/142/32 205/104/32
f 203/141/32 205/104/32 206/105/32
f 207/143/8 208/144/8 209/145/8
f 207/143/8 209/145/8 210/146/8
f 211/147/10 212/146/10 213/148/10
f 211/147/10 213/148/10 214/149/10
f 215/148/2 216/150/2 217/151/2
f 215/148/2 217/151/2 218/152/2
f 219/145/12 220/153/12 221/154/12
f 219/145/12 221/154/12 222/150/12
f 223/146/26 224/145/26 225/150/26
f 223/146/26 225/150/26 226/148/26
f 227/155/8 228/156/8 229/157/8
f 227/155/8 229/157/8 230/158/8
f 231/159/10 232/158/10 233/160/10
f 231/159/10 233/160/10 234/161/10
f 235/162/2 236/163/2 237/159/2
f 235/162/2 237/159/2 238/164/2
f 239/165/12 240/166/12 241/155/12
f 239/165/12 241/155/12 242/163/12
f 243/163/1 244/155/1 245/158/1
f 243/163/1 245/158/1 246/159/1
o frame_door1_0
v 0.583942 -0.866970 0.050593
v 0.560759 -0.866970 0.056806
v 0.577729 -0.866970 0.073776
v 0.583942 -1.007484 0.050593
v 0.577729 -1.007484 0.073776
v 0.560759 -1.007484 0.056806
v 0.554548 -0.866970 0.079987
v 0.554548 -1.007484 0.079987
v 0.537577 -0.866970 0.063017
v 0.537577 -1.007484 0.063017
v 0.543788 -0.866970 0.039834
v 0.543788 -1.007484 0.039834
v 0.566970 -0.866970 0.033623
v 0.566970 -1.007484 0.033623
v 0.583942 0.474380 0.050593
v 0.560759 0.474380 0.056806
v 0.577729 0.474380 0.073776
v 0.583942 0.333868 0.050593
v 0.577729 0.333868 0.073776
v 0.560759 0.333868 0.056806
v 0.554548 0.474380 0.079987
v 0.554548 0.333868 0.079987
v 0.537577 0.474380 0.063017
v 0.537577 0.333868 0.063017
v 0.543788 0.474380 0.039834
v 0.543788 0.333868 0.039834
v 0.566970 0.474380 0.033623
v 0.566970 0.333868 0.033623
v -0.582462 1.183149 -0.048000
v -0.570462 1.171148 -0.036000
v -0.570462 -1.299661 -0.036000
v -0.582462 -1.299661 -0.048000
v -0.570462 1.171148 0.036000
v -0.582462 1.183149 0.048000
v -0.582462 -1.299661 0.048000
v -0.570462 -1.299661 0.036000
v 0.645790 1.246589 -0.180000
v 0.633846 1.234532 -0.168000
v -0.633846 1.234532 -0.168000
v -0.645790 1.246589 -0.180000
v -0.645790 1.246589 -0.180000
v -0.633846 1.234532 -0.168000
v -0.633846 -1.299661 -0.168000
v -0.645846 -1.299661 -0.180000
v 0.645846 -1.299661 -0.180000
v 0.633846 -1.299661 -0.168000
v 0.633846 1.234532 -0.168000
v 0.645790 1.246589 -0.180000
v -0.645790 1.246589 0.180000
v -0.633846 1.234532 0.168000
v 0.633846 1.234532 0.168000
v 0.645790 1.246589 0.180000
v 0.645790 1.246589 0.180000
v 0.633846 1.234532 0.168000
v 0.633846 -1.299661 0.168000
v 0.645846 -1.299661 0.180000
v -0.645846 -1.299661 0.180000
v -0.633846 -1.299661 0.168000
v -0.633846 1.234532 0.168000
v -0.645790 1.246589 0.180000
v 0.582461 -1.299661 0.048000
v 0.633846 -1.299661 0.048000
v 0.633846 1.234532 0.048000
v 0.582461 1.183149 0.048000
v -0.582462 1.183149 -0.048000
v -0.633846 1.234532 -0.048000
v 0.633846 1.234532 -0.048000
v 0.582461 1.183149 -0.048000
v 0.582461 1.183149 0.048000
v 0.633846 1.234532 0.048000
v -0.633846 1.234532 0.048000
v -0.582462 1.183149 0.048000
v -0.582462 -1.299661 -0.048000
v -0.633846 -1.299661 -0.048000
v -0.633846 1.234532 -0.048000
v -0.582462 1.183149 -0.048000
v -0.582462 1.183149 0.048000
v -0.633846 1.234532 0.048000
v -0.633846 -1.299661 0.048000
v -0.582462 -1.299661 0.048000
v 0.582461 1.183149 -0.048000
v 0.633846 1.234532 -0.048000
v 0.633846 -1.299661 -0.048000
v 0.582461 -1.299661 -0.048000
v 0.570461 -1.299661 -0.036000
v 0.570461 -1.299661 0.036000
v 0.570461 1.171148 0.036000
v 0.570461 1.171148 -0.036000
v 0.570461 1.171148 -0.036000
v 0.570461 1.171148 0.036000
v -0.570462 1.171148 0.036000
v -0.570462 1.171148 -0.036000
v -0.570462 1.171148 -0.036000
v -0.570462 1.171148 0.036000
v -0.570462 -1.299661 0.036000
v -0.570462 -1.299661 -0.036000
v 0.633846 -1.299661 0.048000
v 0.633846 -1.299661 0.168000
v 0.633846 1.234532 0.168000
v 0.633846 1.234532 0.048000
v 0.633846 1.234532 0.048000
v 0.633846 1.234532 0.168000
v -0.633846 1.234532 0.168000
v -0.633846 1.234532 0.048000
v -0.633846 1.234532 0.048000
v -0.633846 1.234532 0.168000
v -0.633846 -1.299661 0.168000
v -0.633846 -1.299661 0.048000
v 0.633846 1.234532 -0.048000
v 0.633846 1.234532 -0.168000
v 0.633846 -1.299661 -0.168000
v 0.633846 -1.299661 -0.048000
v -0.633846 1.234532 -0.048000
v -0.633846 -1.299661 -0.048000
v -0.633846 -1.299661 -0.168000
v -0.633846 1.234532 -0.168000
v 0.633846 1.234532 -0.168000
v 0.633846 1.234532 -0.048000
v -0.633846 1.234532 -0.048000
v -0.633846 1.234532 -0.168000
v 0.760615 1.362493 0.180000
v 0.760615 1.362493 -0.180000
v -0.760615 1.362493 -0.180000
v -0.760615 1.362493 0.180000
v -0.760615 -1.299661 0.180000
v -0.760615 1.362493 0.180000
v -0.760615 1.362493 -0.180000
v -0.760615 -1.299661 -0.180000
v 0.760615 -1.299661 -0.180000
v 0.760615 1.362493 -0.180000
v 0.760615 1.362493 0.180000
v 0.760615 -1.299661 0.180000
v 0.645790 1.246589 -0.180000
v -0.645790 1.246589 -0.180000
v -0.760615 1.362493 -0.180000
v 0.760615 1.362493 -0.180000
v -0.645790 1.246589 -0.180000
v -0.645846 -1.299661 -0.180000
v -0.760615 -1.299661 -0.180000
v -0.760615 1.362493 -0.180000
v 0.760615 1.362493 -0.180000
v 0.760615 -1.299661 -0.180000
v 0.645846 -1.299661 -0.180000
v 0.645790 1.246589 -0.180000
v -0.645790 1.246589 0.180000
v 0.645790 1.246589 0.180000
v 0.760615 1.362493 0.180000
v -0.760615 1.362493 0.180000
v 0.645790 1.246589 0.180000
v 0.645846 -1.299661 0.180000
v 0.760615 -1.299661 0.180000
v 0.760615 1.362493 0.180000
v -0.760615 1.362493 0.180000
v -0.760615 -1.299661 0.180000
v -0.645846 -1.299661 0.180000
v -0.645790 1.246589 0.180000
v 0.558461 -0.887718 0.040970
v 0.570461 -0.887718 0.036000
v 0.570461 -0.887718 -0.006062
v 0.558461 -0.887718 -0.006062
v 0.558461 -0.887718 -0.006062
v 0.570461 -0.887718 -0.006062
v 0.570461 -0.979406 -0.006062
v 0.558461 -0.979406 -0.006062
v 0.558461 -0.979406 -0.006062
v 0.570461 -0.979406 -0.006062
v 0.570461 -0.979406 0.036000
v 0.558461 -0.979406 0.040970
v 0.577490 -0.887718 0.060000
v 0.582461 -0.887718 0.048000
v 0.582461 -0.979406 0.048000
v 0.577490 -0.979406 0.060000
v 0.633846 -0.979406 0.060000
v 0.633846 -0.979406 0.048000
v 0.633846 -0.887718 0.048000
v 0.633846 -0.887718 0.060000
v 0.633846 -0.887718 0.060000
v 0.633846 -0.887718 0.048000
v 0.570461 1.171148 0.036000
v 0.582461 1.183149 0.048000
v -0.582462 1.183149 0.048000
v -0.570462 1.171148 0.036000
v 0.633846 -0.979406 0.048000
v 0.633846 -0.979406 0.060000
v 0.558461 -0.887718 0.040970
v 0.558461 -0.887718 -0.006062
v 0.558461 -0.979406 -0.006062
v 0.558461 -0.979406 0.040970
v 0.577490 -0.887718 0.060000
v 0.558461 -0.887718 0.040970
v 0.558461 -0.979406 0.040970
v 0.577490 -0.979406 0.060000
v 0.633846 -0.887718 0.060000
v 0.577490 -0.887718 0.060000
v 0.577490 -0.979406 0.060000
v 0.633846 -0.979406 0.060000
v 0.582461 1.183149 -0.048000
v 0.570461 1.171148 -0.036000
v -0.570462 1.171148 -0.036000
v -0.582462 1.183149 -0.048000
v 0.583942 -1.007484 0.050593
v 0.583942 -0.866970 0.050593
v 0.577729 -0.866970 0.073776
v 0.577729 -1.007484 0.073776
v 0.577729 -1.007484 0.073776
v 0.577729 -0.866970 0.073776
v 0.554548 -0.866970 0.079987
v 0.554548 -1.007484 0.079987
v 0.554548 -1.007484 0.079987
v 0.554548 -0.866970 0.079987
v 0.537577 -0.866970 0.063017
v 0.537577 -1.007484 0.063017
v 0.537577 -1.007484 0.063017
v 0.537577 -0.866970 0.063017
v 0.543788 -0.866970 0.039834
v 0.543788 -1.007484 0.039834
v 0.543788 -1.007484 0.039834
v 0.543788 -0.866970 0.039834
v 0.566970 -0.866970 0.033623
v 0.566970 -1.007484 0.033623
v 0.566970 -1.007484 0.033623
v 0.566970 -0.866970 0.033623
v 0.583942 -0.866970 0.050593
v 0.583942 -1.007484 0.050593
v 0.558461 0.453634 0.040970
v 0.570461 0.453634 0.036000
v 0.570461 0.453634 -0.006062
v 0.558461 0.453634 -0.006062
v 0.558461 0.453634 -0.006062
v 0.570461 0.453634 -0.006062
v 0.570461 0.361944 -0.006062
v 0.558461 0.361944 -0.006062
v 0.558461 0.361944 -0.006062
v 0.570461 0.361944 -0.006062
v 0.570461 0.361944 0.036000
v 0.558461 0.361944 0.040970
v 0.577490 0.453634 0.060000
v 0.582461 0.453634 0.048000
v 0.582461 0.361944 0.048000
v 0.577490 0.361944 0.060000
v 0.633846 0.361944 0.060000
v 0.633846 0.361944 0.048000
v 0.633846 0.453634 0.048000
v 0.633846 0.453634 0.060000
v 0.633846 0.453634 0.060000
v 0.633846 0.453634 0.048000
v 0.633846 0.361944 0.048000
v 0.633846 0.361944 0.060000
v 0.558461 0.453634 0.040970
v 0.558461 0.453634 -0.006062
v 0.558461 0.361944 -0.006062
v 0.558461 0.361944 0.040970
v 0.577490 0.453634 0.060000
v 0.558461 0.453634 0.040970
v 0.558461 0.361944 0.040970
v 0.577490 0.361944 0.060000
v 0.570461 -1.299661 0.036000
v 0.582461 -1.299661 0.048000
v 0.582461 1.183149 0.048000
v 0.570461 1.171148 0.036000
v 0.633846 0.453634 0.060000
v 0.577490 0.453634 0.060000
v 0.577490 0.361944 0.060000
v 0.633846 0.361944 0.060000
v 0.583942 0.333868 0.050593
v 0.583942 0.474380 0.050593
v 0.577729 0.474380 0.073776
v 0.577729 0.333868 0.073776
v 0.582461 -1.299661 -0.048000
v 0.570461 -1.299661 -0.036000
v 0.570461 1.171148 -0.036000
v 0.582461 1.183149 -0.048000
v 0.577729 0.333868 0.073776
v 0.577729 0.474380 0.073776
v 0.554548 0.474380 0.079987
v 0.554548 0.333868 0.079987
v 0.554548 0.333868 0.079987
v 0.554548 0.474380 0.079987
v 0.537577 0.474380 0.063017
v 0.537577 0.333868 0.063017
v 0.537577 0.333868 0.063017
v 0.537577 0.474380 0.063017
v 0.543788 0.474380 0.039834
v 0.543788 0.333868 0.039834
v 0.543788 0.333868 0.039834
v 0.543788 0.474380 0.039834
v 0.566970 0.474380 0.033623
v 0.566970 0.333868 0.033623
v 0.566970 0.333868 0.033623
v 0.566970 0.474380 0.033623
v 0.583942 0.474380 0.050593
v 0.583942 0.333868 0.050593
vn -0.0000 1.0000 -0.0000
vn -0.0000 -1.0000 -0.0000
vn 0.7071 -0.0000 -0.7071
vn 0.7071 -0.0000 0.7071
vn -0.0000 -0.7054 -0.7088
vn 0.7079 -0.0000 -0.7063
vn 0.7080 -0.0000 -0.7063
vn -0.7078 -0.0000 -0.7065
vn -0.7079 -0.0000 -0.7064
vn -0.7081 -0.0000 -0.7061
vn -0.7079 -0.0000 -0.7063
vn -0.0000 -0.7054 0.7088
vn -0.7079 -0.0000 0.7063
vn -0.7080 -0.0000 0.7062
vn -0.7080 -0.0000 0.7063
vn 0.7079 -0.0000 0.7063
vn -0.0000 -0.0000 1.0000
vn -0.0000 -0.0000 -1.0000
vn -1.0000 -0.0000 -0.0000
vn 1.0000 -0.0000 -0.0000
vn -0.0000 -0.7071 0.7071
vn -0.7071 -0.0000 0.7071
vn -0.0000 -0.7071 -0.7071
vn 0.9659 -0.0000 0.2588
vn 0.2588 -0.0000 0.9659
vn -0.9659 -0.0000 -0.2588
vn -0.2588 -0.0000 -0.9659
vn -0.7071 -0.0000 -0.7071
vt 0.478467 0.633194
vt 0.470058 0.633194
vt 0.474263 0.640476
vt 0.478467 0.611601
vt 0.474263 0.604318
vt 0.470058 0.611601
vt 0.465854 0.640476
vt 0.465854 0.604318
vt 0.461650 0.633194
vt 0.461650 0.611601
vt 0.465854 0.625912
vt 0.465854 0.618883
vt 0.474263 0.625912
vt 0.474263 0.618883
vt 0.478467 0.654787
vt 0.470058 0.654787
vt 0.474263 0.662069
vt 0.478467 0.590007
vt 0.474263 0.582725
vt 0.470058 0.590007
vt 0.465854 0.662069
vt 0.465854 0.582725
vt 0.461650 0.654787
vt 0.461650 0.590007
vt 0.465854 0.647505
vt 0.465854 0.597289
vt 0.474263 0.647505
vt 0.474263 0.597289
vt 0.597912 0.042422
vt 0.594257 0.044982
vt 0.591929 0.575393
vt 0.595572 0.575409
vt 0.578801 0.044915
vt 0.575169 0.042323
vt 0.572829 0.575310
vt 0.576472 0.575325
vt 0.133146 0.564087
vt 0.129484 0.566637
vt 0.128474 0.838775
vt 0.132116 0.841353
vt 0.638398 0.028981
vt 0.634752 0.031553
vt 0.632363 0.575571
vt 0.636006 0.575587
vt 0.800107 0.575322
vt 0.796464 0.575332
vt 0.794877 0.031311
vt 0.798504 0.028712
vt 0.028488 0.840968
vt 0.032149 0.838418
vt 0.033159 0.566280
vt 0.029517 0.563702
vt 0.694909 0.029015
vt 0.698551 0.031592
vt 0.700138 0.575613
vt 0.696495 0.575624
vt 0.532395 0.575132
vt 0.536038 0.575148
vt 0.538426 0.031130
vt 0.534803 0.028526
vt 0.736930 0.575505
vt 0.725899 0.575538
vt 0.724312 0.031517
vt 0.735375 0.042516
vt 0.091724 0.827608
vt 0.102714 0.838680
vt 0.103724 0.566541
vt 0.092652 0.577531
vt 0.069909 0.577447
vt 0.058920 0.566375
vt 0.057909 0.838513
vt 0.068981 0.827523
vt 0.606603 0.575458
vt 0.608991 0.031440
vt 0.564187 0.031243
vt 0.561799 0.575261
vt 0.758117 0.042449
vt 0.769116 0.031386
vt 0.770703 0.575407
vt 0.759672 0.575439
vt 0.756029 0.575450
vt 0.740573 0.575495
vt 0.739025 0.045081
vt 0.754482 0.045036
vt 0.088999 0.580094
vt 0.073543 0.580037
vt 0.072634 0.824961
vt 0.088090 0.825018
vt 0.171349 0.865737
vt 0.248630 0.865526
vt 0.247741 0.538960
vt 0.170458 0.539171
vt 0.917645 0.004205
vt 0.919203 0.575696
vt 0.996485 0.575485
vt 0.994927 0.003994
vt 0.910616 0.575485
vt 0.909057 0.003994
vt 0.831774 0.004205
vt 0.833333 0.575696
vt 0.156906 0.866095
vt 0.158118 0.539529
vt 0.660644 0.575696
vt 0.663157 0.004208
vt 0.823081 0.003759
vt 0.824745 0.575250
vt 0.004727 0.538960
vt 0.003515 0.865525
vt 0.671857 0.575696
vt 0.670186 0.004206
vt 0.510262 0.003537
vt 0.507757 0.575024
vt 0.471232 0.688384
vt 0.471325 0.684004
vt 0.454606 0.682966
vt 0.454693 0.687887
vt 0.450449 0.687935
vt 0.450817 0.720362
vt 0.455061 0.720314
vt 0.455296 0.724901
vt 0.471377 0.724076
vt 0.471332 0.719782
vt 0.479871 0.688563
vt 0.479572 0.684253
vt 0.479528 0.724045
vt 0.479884 0.719773
vt 0.499475 0.720473
vt 0.504030 0.720704
vt 0.503644 0.688066
vt 0.499373 0.688117
vt 0.499204 0.683532
vt 0.499235 0.725075
vt 0.255737 0.749481
vt 0.304966 0.749631
vt 0.304991 0.741223
vt 0.255762 0.741073
vt 0.305017 0.732814
vt 0.255788 0.732665
vt 0.305042 0.724405
vt 0.255813 0.724256
vt 0.255660 0.774707
vt 0.304889 0.774857
vt 0.304915 0.766448
vt 0.255685 0.766298
vt 0.304940 0.758040
vt 0.255711 0.757890
vt 0.531844 0.688464
vt 0.531912 0.684083
vt 0.515187 0.683145
vt 0.515303 0.688065
vt 0.511060 0.688138
vt 0.511620 0.720563
vt 0.515864 0.720489
vt 0.516127 0.725075
vt 0.532202 0.724154
vt 0.532131 0.719861
vt 0.540485 0.688591
vt 0.540160 0.684283
vt 0.540353 0.724075
vt 0.540684 0.719801
vt 0.560278 0.720385
vt 0.564835 0.720589
vt 0.564255 0.687954
vt 0.559983 0.688029
vt 0.559788 0.683446
vt 0.560065 0.724988
vt 0.719578 0.720866
vt 0.768807 0.721015
vt 0.768832 0.712606
vt 0.719603 0.712457
vt 0.768858 0.704198
vt 0.719629 0.704049
vt 0.768884 0.695789
vt 0.719654 0.695640
vt 0.719501 0.746091
vt 0.768730 0.746241
vt 0.768756 0.737832
vt 0.719527 0.737682
vt 0.768781 0.729424
vt 0.719552 0.729274
s 1
usemtl door1
f 247/167/33 248/168/33 249/169/33
f 250/170/34 251/171/34 252/172/34
f 249/169/33 248/168/33 253/173/33
f 251/171/34 254/174/34 252/172/34
f 253/173/33 248/168/33 255/175/33
f 254/174/34 256/176/34 252/172/34
f 255/175/33 248/168/33 257/177/33
f 256/176/34 258/178/34 252/172/34
f 257/177/33 248/168/33 259/179/33
f 258/178/34 260/180/34 252/172/34
f 259/179/33 248/168/33 247/167/33
f 260/180/34 250/170/34 252/172/34
f 261/181/33 262/182/33 263/183/33
f 264/184/34 265/185/34 266/186/34
f 263/183/33 262/182/33 267/187/33
f 265/185/34 268/188/34 266/186/34
f 267/187/33 262/182/33 269/189/33
f 268/188/34 270/190/34 266/186/34
f 269/189/33 262/182/33 271/191/33
f 270/190/34 272/192/34 266/186/34
f 271/191/33 262/182/33 273/193/33
f 272/192/34 274/194/34 266/186/34
f 273/193/33 262/182/33 261/181/33
f 274/194/34 264/184/34 266/186/34
f 275/195/35 276/196/35 277/197/35
f 275/195/35 277/197/35 278/198/35
f 279/199/36 280/200/36 281/201/36
f 279/199/36 281/201/36 282/202/36
f 283/203/37 284/204/37 285/205/37
f 283/203/37 285/205/37 286/206/37
f 287/207/38 288/208/38 289/209/39
f 287/207/38 289/209/39 290/210/39
f 291/211/40 292/212/41 293/213/42
f 291/211/40 293/213/42 294/214/43
f 295/215/44 296/216/44 297/217/44
f 295/215/44 297/217/44 298/218/44
f 299/219/45 300/220/45 301/221/46
f 299/219/45 301/221/46 302/222/47
f 303/223/48 304/224/48 305/225/48
f 303/223/48 305/225/48 306/226/48
f 307/227/49 308/228/49 309/229/49
f 307/227/49 309/229/49 310/230/49
f 311/231/50 312/232/50 313/233/50
f 311/231/50 313/233/50 314/234/50
f 315/235/49 316/236/49 317/237/49
f 315/235/49 317/237/49 318/238/49
f 319/198/50 320/239/50 321/240/50
f 319/198/50 321/240/50 322/195/50
f 323/200/49 324/241/49 325/242/49
f 323/200/49 325/242/49 326/201/49
f 327/243/50 328/244/50 329/245/50
f 327/243/50 329/245/50 330/246/50
f 331/247/51 332/248/51 333/249/51
f 331/247/51 333/249/51 334/250/51
f 335/251/34 336/252/34 337/253/34
f 335/251/34 337/253/34 338/254/34
f 339/196/52 340/199/52 341/202/52
f 339/196/52 341/202/52 342/197/52
f 343/228/51 344/221/51 345/220/51
f 343/228/51 345/220/51 346/229/51
f 347/236/34 348/217/34 349/216/34
f 347/236/34 349/216/34 350/237/34
f 351/241/52 352/225/52 353/224/52
f 351/241/52 353/224/52 354/242/52
f 355/244/51 356/213/51 357/212/51
f 355/244/51 357/212/51 358/245/51
f 359/240/52 360/239/52 361/209/52
f 359/240/52 361/209/52 362/208/52
f 363/204/34 364/233/34 365/232/34
f 363/204/34 365/232/34 366/205/34
f 367/255/33 368/256/33 369/257/33
f 367/255/33 369/257/33 370/258/33
f 371/259/51 372/260/51 373/261/51
f 371/259/51 373/261/51 374/262/51
f 375/263/52 376/264/52 377/265/52
f 375/263/52 377/265/52 378/266/52
f 379/203/50 380/206/50 381/267/50
f 379/203/50 381/267/50 382/268/50
f 383/207/50 384/210/50 385/269/50
f 383/207/50 385/269/50 386/270/50
f 387/271/50 388/272/50 389/211/50
f 387/271/50 389/211/50 390/214/50
f 391/215/49 392/218/49 393/273/49
f 391/215/49 393/273/49 394/274/49
f 395/219/49 396/222/49 397/275/49
f 395/219/49 397/275/49 398/276/49
f 399/277/49 400/278/49 401/223/49
f 399/277/49 401/223/49 402/226/49
f 403/279/33 404/280/33 405/281/33
f 403/279/33 405/281/33 406/282/33
f 407/282/50 408/283/50 409/284/50
f 407/282/50 409/284/50 410/285/50
f 411/285/34 412/286/34 413/287/34
f 411/285/34 413/287/34 414/288/34
f 415/289/33 416/290/33 404/280/33
f 415/289/33 404/280/33 403/279/33
f 414/288/34 413/287/34 417/291/34
f 414/288/34 417/291/34 418/292/34
f 419/293/52 420/294/52 421/295/52
f 419/293/52 421/295/52 422/296/52
f 423/296/33 424/297/33 416/290/33
f 423/296/33 416/290/33 415/289/33
f 425/252/53 426/235/53 427/238/53
f 425/252/53 427/238/53 428/253/53
f 418/292/34 417/291/34 429/298/34
f 418/292/34 429/298/34 430/293/34
f 431/279/51 432/282/51 433/285/51
f 431/279/51 433/285/51 434/288/51
f 435/289/54 436/279/54 437/288/54
f 435/289/54 437/288/54 438/292/54
f 439/296/49 440/289/49 441/292/49
f 439/296/49 441/292/49 442/293/49
f 443/234/55 444/251/55 445/254/55
f 443/234/55 445/254/55 446/231/55
f 447/299/56 448/300/56 449/301/56
f 447/299/56 449/301/56 450/302/56
f 451/302/57 452/301/57 453/303/57
f 451/302/57 453/303/57 454/304/57
f 455/304/54 456/303/54 457/305/54
f 455/304/54 457/305/54 458/306/54
f 459/307/58 460/308/58 461/309/58
f 459/307/58 461/309/58 462/310/58
f 463/310/59 464/309/59 465/311/59
f 463/310/59 465/311/59 466/312/59
f 467/312/35 468/311/35 469/300/35
f 467/312/35 469/300/35 470/299/35
f 471/313/33 472/314/33 473/315/33
f 471/313/33 473/315/33 474/316/33
f 475/316/50 476/317/50 477/318/50
f 475/316/50 477/318/50 478/319/50
f 479/319/34 480/320/34 481/321/34
f 479/319/34 481/321/34 482/322/34
f 483/323/33 484/324/33 472/314/33
f 483/323/33 472/314/33 471/313/33
f 482/322/34 481/321/34 485/325/34
f 482/322/34 485/325/34 486/326/34
f 487/327/52 488/328/52 489/329/52
f 487/327/52 489/329/52 490/330/52
f 491/330/33 492/331/33 484/324/33
f 491/330/33 484/324/33 483/323/33
f 486/326/34 485/325/34 493/332/34
f 486/326/34 493/332/34 494/327/34
f 495/313/51 496/316/51 497/319/51
f 495/313/51 497/319/51 498/322/51
f 499/323/54 500/313/54 501/322/54
f 499/323/54 501/322/54 502/326/54
f 503/248/54 504/227/54 505/230/54
f 503/248/54 505/230/54 506/249/54
f 507/330/49 508/323/49 509/326/49
f 507/330/49 509/326/49 510/327/49
f 511/333/56 512/334/56 513/335/56
f 511/333/56 513/335/56 514/336/56
f 515/246/60 516/247/60 517/250/60
f 515/246/60 517/250/60 518/243/60
f 519/336/57 520/335/57 521/337/57
f 519/336/57 521/337/57 522/338/57
f 523/338/54 524/337/54 525/339/54
f 523/338/54 525/339/54 526/340/54
f 527/341/58 528/342/58 529/343/58
f 527/341/58 529/343/58 530/344/58
f 531/344/59 532/343/59 533/345/59
f 531/344/59 533/345/59 534/346/59
f 535/346/35 536/345/35 537/334/35
f 535/346/35 537/334/35 538/333/35
o handle_door1_0
v 0.733944 -0.122832 0.842017
v 0.728196 -0.124380 0.842803
v 0.739669 -0.112800 0.841234
v 0.716723 -0.112800 0.844373
v 0.728196 -0.101219 0.842803
v 0.733944 -0.102767 0.842017
v 0.738136 -0.106998 0.841444
v 0.722448 -0.102767 0.843589
v 0.718256 -0.118601 0.844163
v 0.718256 -0.106998 0.844163
v 0.722448 -0.122832 0.843589
v 0.760598 -0.092003 1.067930
v 0.763795 -0.092003 1.060652
v 0.751873 -0.088800 1.057934
v 0.760598 -0.133596 1.067930
v 0.751873 -0.136800 1.057934
v 0.763795 -0.133596 1.060652
v 0.492307 -0.122832 0.875080
v 0.488114 -0.118601 0.875653
v 0.486582 -0.112800 0.875863
v 0.527318 -0.133596 1.099849
v 0.522284 -0.133596 1.093698
v 0.533038 -0.136800 1.087877
v 0.533038 -0.088800 1.087877
v 0.522284 -0.092003 1.093698
v 0.527318 -0.092003 1.099849
v 0.507995 -0.118601 0.872933
v 0.503803 -0.122832 0.873506
v 0.498055 -0.124380 0.874292
v 0.503803 -0.102767 0.873506
v 0.507995 -0.106998 0.872933
v 0.509528 -0.112800 0.872723
v 0.492307 -0.102767 0.875080
v 0.498055 -0.101219 0.874292
v 0.488114 -0.106998 0.875653
v 0.738136 -0.118601 0.841444
v 0.776038 -0.100792 1.039042
v 0.772838 -0.100792 1.061917
v 0.776135 -0.112800 1.062378
v 0.779334 -0.112800 1.039503
v 0.766994 -0.092003 1.037777
v 0.754638 -0.088800 1.036049
v 0.742282 -0.092003 1.034321
v 0.741550 -0.092003 1.051578
v 0.733237 -0.100792 1.033056
v 0.733994 -0.100792 1.046926
v 0.729941 -0.112800 1.032595
v 0.731240 -0.112800 1.045230
v 0.733237 -0.124807 1.033056
v 0.733994 -0.124807 1.046926
v 0.731240 -0.112800 1.045230
v 0.729941 -0.112800 1.032595
v 0.742282 -0.133596 1.034321
v 0.741550 -0.133596 1.051578
v 0.754638 -0.136800 1.036049
v 0.766994 -0.133596 1.037777
v 0.776038 -0.124807 1.039042
v 0.772838 -0.124807 1.061917
v 0.766666 -0.100792 1.075971
v 0.749951 -0.100792 1.088584
v 0.752162 -0.112800 1.091514
v 0.768877 -0.112800 1.078901
v 0.743884 -0.092003 1.080544
v 0.735593 -0.088800 1.069558
v 0.727303 -0.092003 1.058572
v 0.733994 -0.100792 1.046926
v 0.721236 -0.100792 1.050532
v 0.731240 -0.112800 1.045230
v 0.719024 -0.112800 1.047601
v 0.733994 -0.124807 1.046926
v 0.721236 -0.124807 1.050532
v 0.719024 -0.112800 1.047601
v 0.731240 -0.112800 1.045230
v 0.727303 -0.133596 1.058572
v 0.735593 -0.136800 1.069558
v 0.743884 -0.133596 1.080544
v 0.766666 -0.124807 1.075971
v 0.749951 -0.124807 1.088584
v 0.501636 -0.112800 1.077499
v 0.510863 -0.112800 1.098676
v 0.513913 -0.100792 1.097346
v 0.504688 -0.100792 1.076170
v 0.513059 -0.092003 1.072523
v 0.524496 -0.088800 1.067538
v 0.541274 -0.092003 1.078981
v 0.535934 -0.092003 1.062554
v 0.547302 -0.100792 1.072470
v 0.544306 -0.100792 1.058908
v 0.549499 -0.112800 1.070096
v 0.547357 -0.112800 1.057578
v 0.547357 -0.112800 1.057578
v 0.549499 -0.112800 1.070096
v 0.547302 -0.124807 1.072470
v 0.544306 -0.124807 1.058908
v 0.541274 -0.133596 1.078981
v 0.535934 -0.133596 1.062554
v 0.524496 -0.136800 1.067538
v 0.513059 -0.133596 1.072523
v 0.513913 -0.124807 1.097346
v 0.504688 -0.124807 1.076170
v 0.522292 -0.112800 1.112641
v 0.541781 -0.112800 1.120301
v 0.543124 -0.100792 1.116883
v 0.523634 -0.100792 1.109224
v 0.546808 -0.092003 1.107509
v 0.551842 -0.088800 1.094700
v 0.556877 -0.092003 1.081891
v 0.560561 -0.100792 1.072517
v 0.547302 -0.100792 1.072470
v 0.561904 -0.112800 1.069100
v 0.549499 -0.112800 1.070096
v 0.549499 -0.112800 1.070096
v 0.561904 -0.112800 1.069100
v 0.560561 -0.124807 1.072517
v 0.547302 -0.124807 1.072470
v 0.556877 -0.133596 1.081891
v 0.551842 -0.136800 1.094700
v 0.546808 -0.133596 1.107509
v 0.543124 -0.124807 1.116883
v 0.523634 -0.124807 1.109224
v 0.750427 -0.100792 0.851873
v 0.753601 -0.112800 0.851438
v 0.739669 -0.112800 0.841234
v 0.738136 -0.106998 0.841444
v 0.741720 -0.092003 0.853064
v 0.733944 -0.102767 0.842017
v 0.729823 -0.088800 0.854693
v 0.728196 -0.101219 0.842803
v 0.717925 -0.092003 0.856320
v 0.722448 -0.102767 0.843589
v 0.709218 -0.100792 0.857512
v 0.718256 -0.106998 0.844163
v 0.706044 -0.112800 0.857946
v 0.716723 -0.112800 0.844373
v 0.709218 -0.124807 0.857512
v 0.718256 -0.118601 0.844163
v 0.717925 -0.133596 0.856320
v 0.722448 -0.122832 0.843589
v 0.729823 -0.136800 0.854693
v 0.728196 -0.124380 0.842803
v 0.741720 -0.133596 0.853064
v 0.733944 -0.122832 0.842017
v 0.750427 -0.124807 0.851873
v 0.738136 -0.118601 0.841444
v 0.753601 -0.112800 0.851438
v 0.750427 -0.100792 0.851873
v 0.741720 -0.092003 0.853064
v 0.729823 -0.088800 0.854693
v 0.717925 -0.092003 0.856320
v 0.709218 -0.100792 0.857512
v 0.706044 -0.112800 0.857946
v 0.706044 -0.112800 0.857946
v 0.709218 -0.124807 0.857512
v 0.717925 -0.133596 0.856320
v 0.729823 -0.136800 0.854693
v 0.741720 -0.133596 0.853064
v 0.750427 -0.124807 0.851873
v 0.674572 -0.112800 1.102130
v 0.674137 -0.100792 1.098958
v 0.672946 -0.092003 1.090250
v 0.671317 -0.088800 1.078352
v 0.669690 -0.092003 1.066456
v 0.618937 -0.124807 1.106511
v 0.619372 -0.112800 1.109684
v 0.617746 -0.133596 1.097803
v 0.616117 -0.136800 1.085905
v 0.614490 -0.133596 1.074008
v 0.613298 -0.124807 1.065301
v 0.612864 -0.112800 1.062127
v 0.613298 -0.100792 1.065301
v 0.612864 -0.112800 1.062127
v 0.614490 -0.092003 1.074008
v 0.616117 -0.088800 1.085905
v 0.617746 -0.092003 1.097803
v 0.618937 -0.100792 1.106511
v 0.475903 -0.112800 0.889435
v 0.479077 -0.124807 0.889002
v 0.487784 -0.133596 0.887810
v 0.499681 -0.136800 0.886182
v 0.511579 -0.133596 0.884555
v 0.520286 -0.124807 0.883363
v 0.523460 -0.112800 0.882929
v 0.523460 -0.112800 0.882929
v 0.520286 -0.100792 0.883363
v 0.511579 -0.092003 0.884555
v 0.499681 -0.088800 0.886182
v 0.487784 -0.092003 0.887810
v 0.479077 -0.100792 0.889002
v 0.488114 -0.118601 0.875653
v 0.479077 -0.124807 0.889002
v 0.475903 -0.112800 0.889435
v 0.486582 -0.112800 0.875863
v 0.492307 -0.122832 0.875080
v 0.487784 -0.133596 0.887810
v 0.498055 -0.124380 0.874292
v 0.499681 -0.136800 0.886182
v 0.503803 -0.122832 0.873506
v 0.511579 -0.133596 0.884555
v 0.507995 -0.118601 0.872933
v 0.520286 -0.124807 0.883363
v 0.509528 -0.112800 0.872723
v 0.523460 -0.112800 0.882929
v 0.507995 -0.106998 0.872933
v 0.520286 -0.100792 0.883363
v 0.503803 -0.102767 0.873506
v 0.511579 -0.092003 0.884555
v 0.498055 -0.101219 0.874292
v 0.499681 -0.088800 0.886182
v 0.492307 -0.102767 0.875080
v 0.487784 -0.092003 0.887810
v 0.488114 -0.106998 0.875653
v 0.479077 -0.100792 0.889002
v 0.674137 -0.124807 1.098958
v 0.672946 -0.133596 1.090250
v 0.671317 -0.136800 1.078352
v 0.669690 -0.133596 1.066456
v 0.668498 -0.124807 1.057748
v 0.668064 -0.112800 1.054574
v 0.668498 -0.100792 1.057748
v 0.668064 -0.112800 1.054574
vn -0.1354 -0.0001 -0.9908
vn -0.1355 -0.0000 -0.9908
vn -0.1357 -0.0001 -0.9907
vn -0.1355 -0.0001 -0.9908
vn -0.1355 0.0001 -0.9908
vn 0.3685 0.8845 0.2860
vn 0.4717 0.8715 0.1341
vn 0.0469 0.9988 0.0153
vn 0.3685 -0.8846 0.2859
vn 0.0460 -0.9988 0.0176
vn 0.4717 -0.8715 0.1341
vn -0.1357 -0.0000 -0.9908
vn -0.1354 0.0001 -0.9908
vn -0.1356 -0.0000 -0.9908
vn -0.2781 -0.8845 0.3745
vn -0.4183 -0.8715 0.2559
vn -0.0411 -0.9988 0.0274
vn -0.0396 0.9988 0.0294
vn -0.4184 0.8715 0.2559
vn -0.2781 0.8846 0.3744
vn -0.1355 -0.0002 -0.9908
vn 0.8606 0.5093 0.0007
vn 0.8278 0.5093 0.2354
vn 0.9620 -0.0000 0.2731
vn 1.0000 -0.0000 0.0013
vn 0.4905 0.8715 -0.0004
vn -0.0036 1.0000 0.0027
vn -0.5044 0.8630 0.0289
vn -0.3731 0.8925 -0.2533
vn -0.8681 0.4900 0.0793
vn -0.8765 0.4796 0.0410
vn -0.9943 0.0006 0.1070
vn -0.9969 0.0012 0.0784
vn -0.8698 -0.4869 0.0801
vn -0.8797 -0.4735 0.0427
vn -0.9969 0.0011 0.0785
vn -0.9943 0.0005 0.1070
vn -0.5080 -0.8608 0.0299
vn -0.3769 -0.8934 -0.2445
vn -0.0048 -1.0000 0.0030
vn 0.4905 -0.8714 -0.0004
vn 0.8606 -0.5093 0.0007
vn 0.8278 -0.5093 0.2354
vn 0.6655 0.5343 0.5212
vn 0.3186 0.5344 0.7829
vn 0.3801 -0.0000 0.9249
vn 0.7852 -0.0000 0.6192
vn 0.1726 0.8844 0.4337
vn 0.0013 0.9999 -0.0103
vn -0.1353 0.8628 -0.4871
vn -0.2498 0.4682 -0.8476
vn -0.1840 0.4850 -0.8549
vn -0.2314 -0.0014 -0.9729
vn -0.1839 -0.0007 -0.9829
vn -0.2529 -0.4788 -0.8407
vn -0.1855 -0.4904 -0.8515
vn -0.1839 -0.0009 -0.9829
vn -0.2315 -0.0015 -0.9728
vn -0.1361 -0.8669 -0.4796
vn 0.0015 -1.0000 -0.0077
vn 0.1726 -0.8844 0.4337
vn 0.6655 -0.5343 0.5212
vn 0.3186 -0.5344 0.7829
vn -0.9629 -0.0000 0.2699
vn -0.8533 -0.0000 0.5214
vn -0.7341 0.5093 0.4491
vn -0.8288 0.5093 0.2318
vn -0.4726 0.8714 0.1314
vn 0.0055 1.0000 0.0016
vn 0.2974 0.8934 -0.3367
vn 0.4974 0.8608 -0.1076
vn 0.8589 0.4735 -0.1952
vn 0.8593 0.4869 -0.1565
vn 0.9814 -0.0010 -0.1922
vn 0.9865 -0.0005 -0.1640
vn 0.9865 -0.0006 -0.1640
vn 0.9814 -0.0012 -0.1922
vn 0.8553 -0.4796 -0.1959
vn 0.8575 -0.4900 -0.1568
vn 0.2913 -0.8926 -0.3442
vn 0.4936 -0.8630 -0.1077
vn 0.0041 -1.0000 0.0016
vn -0.4726 -0.8714 0.1314
vn -0.7341 -0.5093 0.4491
vn -0.8288 -0.5093 0.2318
vn -0.5900 -0.0000 0.8074
vn -0.1177 -0.0000 0.9930
vn -0.0966 0.5343 0.8397
vn -0.5010 0.5344 0.6808
vn -0.0498 0.8844 0.4641
vn -0.0035 1.0000 -0.0070
vn 0.0022 0.8669 -0.4985
vn -0.0500 0.4904 -0.8701
vn 0.0178 0.4788 -0.8777
vn -0.0869 0.0009 -0.9962
vn -0.0384 0.0015 -0.9993
vn -0.0384 0.0014 -0.9993
vn -0.0869 0.0007 -0.9962
vn -0.0524 -0.4850 -0.8729
vn 0.0130 -0.4682 -0.8835
vn -0.0005 -0.8628 -0.5055
vn -0.0040 -0.9999 -0.0096
vn -0.0498 -0.8844 0.4641
vn -0.0966 -0.5344 0.8397
vn -0.5010 -0.5344 0.6808
vn 0.4987 0.3470 -0.7943
vn 0.5909 -0.0000 -0.8067
vn 0.2463 0.6018 -0.7597
vn -0.0975 0.6949 -0.7125
vn -0.0974 0.6949 -0.7125
vn -0.4413 0.6018 -0.6656
vn -0.6938 0.3470 -0.6311
vn -0.7859 -0.0000 -0.6183
vn -0.6938 -0.3470 -0.6311
vn -0.4413 -0.6018 -0.6656
vn -0.0975 -0.6949 -0.7125
vn -0.0975 -0.6948 -0.7125
vn 0.2463 -0.6018 -0.7597
vn 0.4987 -0.3470 -0.7943
vn 0.9908 -0.0000 -0.1356
vn 0.8583 0.4995 -0.1174
vn 0.4949 0.8663 -0.0677
vn -0.0000 1.0000 -0.0000
vn -0.4949 0.8663 0.0677
vn -0.8583 0.4995 0.1174
vn -0.9908 0.0001 0.1356
vn -0.9908 -0.0001 0.1356
vn -0.8583 -0.4995 0.1174
vn -0.4949 -0.8663 0.0677
vn -0.0000 -1.0000 -0.0000
vn 0.4949 -0.8663 -0.0677
vn 0.8583 -0.4995 -0.1174
vn 0.1356 -0.0000 0.9908
vn 0.1174 0.4995 0.8583
vn 0.0677 0.8663 0.4949
vn -0.0677 0.8663 -0.4949
vn 0.1174 -0.4995 0.8583
vn 0.0677 -0.8663 0.4949
vn -0.0677 -0.8663 -0.4950
vn -0.1174 -0.4995 -0.8583
vn -0.1356 -0.0001 -0.9908
vn -0.1174 0.4995 -0.8583
vn -0.1356 0.0002 -0.9908
vn -0.9908 -0.0000 0.1356
vn 0.9908 -0.0002 -0.1356
vn 0.9908 0.0002 -0.1356
vn -0.6938 -0.3471 -0.6311
vn -0.4414 -0.6018 -0.6656
vn 0.2464 -0.6018 -0.7597
vn 0.4987 -0.3470 -0.7942
vn 0.4988 -0.3470 -0.7942
vn 0.5910 -0.0000 -0.8067
vn 0.4988 0.3470 -0.7942
vn 0.2464 0.6018 -0.7597
vn -0.0677 -0.8663 -0.4949
vn -0.1175 -0.4995 -0.8583
vt 0.633752 0.696071
vt 0.635660 0.696012
vt 0.631127 0.693466
vt 0.638234 0.691497
vt 0.633699 0.688951
vt 0.632017 0.689880
vt 0.631077 0.691562
vt 0.635608 0.688891
vt 0.638284 0.693400
vt 0.637282 0.689827
vt 0.637338 0.695069
vt 0.424051 0.631871
vt 0.422090 0.631668
vt 0.423104 0.628151
vt 0.424097 0.643106
vt 0.423197 0.646842
vt 0.422145 0.643333
vt 0.605409 0.693395
vt 0.606345 0.695068
vt 0.608015 0.696019
vt 0.424078 0.563777
vt 0.422125 0.563556
vt 0.423166 0.560044
vt 0.423135 0.578735
vt 0.422109 0.575222
vt 0.424070 0.575012
vt 0.608080 0.688863
vt 0.606411 0.689808
vt 0.605468 0.691487
vt 0.612589 0.691539
vt 0.611653 0.689864
vt 0.609983 0.688913
vt 0.611600 0.695129
vt 0.612530 0.693448
vt 0.609918 0.696069
vt 0.632078 0.695135
vt 0.415822 0.634084
vt 0.421395 0.634693
vt 0.421159 0.637513
vt 0.415806 0.637538
vt 0.416036 0.630449
vt 0.416363 0.626425
vt 0.416751 0.621994
vt 0.423197 0.623794
vt 0.417039 0.617250
vt 0.423225 0.618359
vt 0.417216 0.612233
vt 0.422929 0.612670
vt 0.417234 0.657812
vt 0.423413 0.656647
vt 0.423169 0.662341
vt 0.417458 0.662831
vt 0.416902 0.653070
vt 0.423333 0.651207
vt 0.416472 0.648640
vt 0.416106 0.644620
vt 0.415856 0.640991
vt 0.421425 0.640331
vt 0.424667 0.634902
vt 0.429130 0.634454
vt 0.429122 0.637441
vt 0.424947 0.637493
vt 0.429151 0.631088
vt 0.429198 0.626988
vt 0.429232 0.622086
vt 0.429176 0.616721
vt 0.428513 0.611261
vt 0.429384 0.658231
vt 0.428772 0.663700
vt 0.429393 0.652865
vt 0.429319 0.647962
vt 0.429244 0.643858
vt 0.424717 0.640108
vt 0.429176 0.640405
vt 0.415806 0.569373
vt 0.421159 0.569381
vt 0.421404 0.572199
vt 0.415833 0.572827
vt 0.416059 0.576461
vt 0.416400 0.580484
vt 0.423243 0.583092
vt 0.416803 0.584914
vt 0.423289 0.588527
vt 0.417107 0.589656
vt 0.423012 0.594217
vt 0.417301 0.594673
vt 0.417373 0.544075
vt 0.423087 0.544545
vt 0.423349 0.550239
vt 0.417167 0.549093
vt 0.423288 0.555679
vt 0.416850 0.553838
vt 0.416435 0.558268
vt 0.416082 0.562290
vt 0.421415 0.566561
vt 0.415844 0.565919
vt 0.424947 0.569388
vt 0.429123 0.569426
vt 0.429140 0.572413
vt 0.424676 0.571980
vt 0.429172 0.575778
vt 0.429233 0.579878
vt 0.429284 0.584780
vt 0.429245 0.590145
vt 0.428600 0.595606
vt 0.428685 0.543167
vt 0.429315 0.548635
vt 0.429342 0.554001
vt 0.429284 0.558903
vt 0.429223 0.563008
vt 0.429167 0.566461
vt 0.424708 0.566774
vt 0.625349 0.689939
vt 0.625354 0.694993
vt 0.627846 0.685651
vt 0.632175 0.683160
vt 0.637228 0.683163
vt 0.641508 0.685656
vt 0.644002 0.689974
vt 0.644000 0.695025
vt 0.641506 0.699300
vt 0.637188 0.701793
vt 0.632136 0.701797
vt 0.627854 0.699310
vt 0.352491 0.637842
vt 0.352496 0.633312
vt 0.352536 0.628800
vt 0.352603 0.624314
vt 0.352686 0.619837
vt 0.352780 0.615336
vt 0.352881 0.610800
vt 0.353140 0.664879
vt 0.352996 0.660345
vt 0.352859 0.655845
vt 0.352733 0.651369
vt 0.352623 0.646883
vt 0.352539 0.642373
vt 0.454592 0.637347
vt 0.454342 0.632316
vt 0.453783 0.627283
vt 0.452976 0.622243
vt 0.452019 0.617196
vt 0.454380 0.564402
vt 0.454592 0.569434
vt 0.453858 0.559365
vt 0.453086 0.554317
vt 0.452163 0.549262
vt 0.451173 0.544149
vt 0.450156 0.538960
vt 0.451079 0.594701
vt 0.450046 0.599884
vt 0.452086 0.589594
vt 0.453026 0.584544
vt 0.453816 0.579501
vt 0.454359 0.574466
vt 0.352490 0.569280
vt 0.352523 0.564749
vt 0.352592 0.560239
vt 0.352687 0.555753
vt 0.352798 0.551276
vt 0.352919 0.546776
vt 0.353049 0.542241
vt 0.352970 0.596321
vt 0.352854 0.591786
vt 0.352746 0.587285
vt 0.352648 0.582808
vt 0.352566 0.578322
vt 0.352510 0.573811
vt 0.602170 0.699293
vt 0.606487 0.701793
vt 0.599683 0.695010
vt 0.599687 0.689959
vt 0.602180 0.685641
vt 0.606455 0.683147
vt 0.611507 0.683145
vt 0.615824 0.685638
vt 0.618317 0.689919
vt 0.618320 0.694971
vt 0.615830 0.699301
vt 0.611541 0.701797
vt 0.454397 0.642381
vt 0.453891 0.647420
vt 0.453136 0.652470
vt 0.452230 0.657528
vt 0.451256 0.662645
vt 0.450257 0.667836
vt 0.450995 0.612092
vt 0.449944 0.606913
s 1
usemtl door1
f 539/347/61 540/348/62 541/349/62
f 540/348/62 542/350/62 543/351/62
f 544/352/63 545/353/62 541/349/62
f 546/354/64 543/351/62 542/350/62
f 547/355/65 542/350/62 540/348/62
f 541/349/62 540/348/62 543/351/62
f 543/351/62 544/352/63 541/349/62
f 548/356/62 546/354/64 542/350/62
f 549/357/65 547/355/65 540/348/62
f 550/358/66 551/359/67 552/360/68
f 553/361/69 554/362/70 555/363/71
f 556/364/72 557/365/73 558/366/74
f 559/367/75 560/368/76 561/369/77
f 562/370/78 563/371/79 564/372/80
f 565/373/64 566/374/81 567/375/74
f 568/376/65 569/377/74 570/378/62
f 571/379/72 572/380/74 558/366/74
f 567/375/74 558/366/74 572/380/74
f 570/378/62 565/373/64 567/375/74
f 572/380/74 568/376/65 570/378/62
f 573/381/64 571/379/72 558/366/74
f 570/378/62 567/375/74 572/380/74
f 567/375/74 556/364/72 558/366/74
f 574/382/74 539/347/61 541/349/62
f 575/383/82 576/384/83 577/385/84
f 575/383/82 577/385/84 578/386/85
f 579/387/86 551/359/67 576/384/83
f 579/387/86 576/384/83 575/383/82
f 580/388/87 552/360/68 551/359/67
f 580/388/87 551/359/67 579/387/86
f 581/389/88 582/390/89 552/360/68
f 581/389/88 552/360/68 580/388/87
f 583/391/90 584/392/91 582/390/89
f 583/391/90 582/390/89 581/389/88
f 585/393/92 586/394/93 584/392/91
f 585/393/92 584/392/91 583/391/90
f 587/395/94 588/396/95 589/397/96
f 587/395/94 589/397/96 590/398/97
f 591/399/98 592/400/99 588/396/95
f 591/399/98 588/396/95 587/395/94
f 593/401/100 554/362/70 592/400/99
f 593/401/100 592/400/99 591/399/98
f 594/402/101 555/363/71 554/362/70
f 594/402/101 554/362/70 593/401/100
f 595/403/102 596/404/103 555/363/71
f 595/403/102 555/363/71 594/402/101
f 578/386/85 577/385/84 596/404/103
f 578/386/85 596/404/103 595/403/102
f 597/405/104 598/406/105 599/407/106
f 597/405/104 599/407/106 600/408/107
f 550/358/66 601/409/108 598/406/105
f 550/358/66 598/406/105 597/405/104
f 552/360/68 602/410/109 601/409/108
f 552/360/68 601/409/108 550/358/66
f 582/390/89 603/411/110 602/410/109
f 582/390/89 602/410/109 552/360/68
f 604/392/111 605/412/112 603/411/110
f 604/392/111 603/411/110 582/390/89
f 606/394/113 607/413/114 605/412/112
f 606/394/113 605/412/112 604/392/111
f 608/396/115 609/414/116 610/415/117
f 608/396/115 610/415/117 611/397/118
f 592/400/99 612/416/119 609/414/116
f 592/400/99 609/414/116 608/396/115
f 554/362/70 613/417/120 612/416/119
f 554/362/70 612/416/119 592/400/99
f 553/361/69 614/418/121 613/417/120
f 553/361/69 613/417/120 554/362/70
f 615/419/122 616/420/123 614/418/121
f 615/419/122 614/418/121 553/361/69
f 600/408/107 599/407/106 616/420/123
f 600/408/107 616/420/123 615/419/122
f 617/421/124 618/422/125 619/423/126
f 617/421/124 619/423/126 620/424/127
f 620/424/127 619/423/126 563/371/79
f 620/424/127 563/371/79 621/425/128
f 621/425/128 563/371/79 562/370/78
f 621/425/128 562/370/78 622/426/129
f 622/426/129 562/370/78 623/427/130
f 622/426/129 623/427/130 624/428/131
f 624/428/131 623/427/130 625/429/132
f 624/428/131 625/429/132 626/430/133
f 626/430/133 625/429/132 627/431/134
f 626/430/133 627/431/134 628/432/135
f 629/433/136 630/434/137 631/435/138
f 629/433/136 631/435/138 632/436/139
f 632/436/139 631/435/138 633/437/140
f 632/436/139 633/437/140 634/438/141
f 634/438/141 633/437/140 561/369/77
f 634/438/141 561/369/77 635/439/142
f 635/439/142 561/369/77 560/368/76
f 635/439/142 560/368/76 636/440/143
f 636/440/143 560/368/76 637/441/144
f 636/440/143 637/441/144 638/442/145
f 638/442/145 637/441/144 618/422/125
f 638/442/145 618/422/125 617/421/124
f 639/443/146 640/444/147 641/445/148
f 639/443/146 641/445/148 642/446/149
f 642/446/149 641/445/148 643/447/150
f 642/446/149 643/447/150 564/372/80
f 564/372/80 643/447/150 644/448/151
f 564/372/80 644/448/151 562/370/78
f 562/370/78 644/448/151 645/449/152
f 562/370/78 645/449/152 623/427/130
f 623/427/130 645/449/152 646/450/153
f 623/427/130 646/450/153 647/429/154
f 647/429/154 646/450/153 648/451/155
f 647/429/154 648/451/155 649/431/156
f 650/434/157 651/452/158 652/453/159
f 650/434/157 652/453/159 653/435/160
f 653/435/160 652/453/159 654/454/161
f 653/435/160 654/454/161 633/437/140
f 633/437/140 654/454/161 655/455/162
f 633/437/140 655/455/162 561/369/77
f 561/369/77 655/455/162 656/456/163
f 561/369/77 656/456/163 559/367/75
f 559/367/75 656/456/163 657/457/164
f 559/367/75 657/457/164 658/458/165
f 658/458/165 657/457/164 640/444/147
f 658/458/165 640/444/147 639/443/146
f 659/459/166 660/460/167 661/349/167
f 659/459/166 661/349/167 662/353/166
f 663/461/168 659/459/166 662/353/166
f 663/461/168 662/353/166 664/352/168
f 665/462/169 663/461/168 664/352/168
f 665/462/169 664/352/168 666/351/170
f 667/463/171 665/462/169 666/351/170
f 667/463/171 666/351/170 668/354/171
f 669/464/172 667/463/171 668/354/171
f 669/464/172 668/354/171 670/356/172
f 671/465/173 669/464/172 670/356/172
f 671/465/173 670/356/172 672/350/173
f 673/466/174 671/465/173 672/350/173
f 673/466/174 672/350/173 674/355/174
f 675/467/175 673/466/174 674/355/174
f 675/467/175 674/355/174 676/357/175
f 677/468/176 675/467/175 676/357/175
f 677/468/176 676/357/175 678/348/177
f 679/469/178 677/468/176 678/348/177
f 679/469/178 678/348/177 680/347/178
f 681/470/179 679/469/178 680/347/178
f 681/470/179 680/347/178 682/382/179
f 660/460/167 681/470/179 682/382/179
f 660/460/167 682/382/179 661/349/167
f 578/386/85 683/471/180 684/472/181
f 578/386/85 684/472/181 575/383/82
f 575/383/82 684/472/181 685/473/182
f 575/383/82 685/473/182 579/387/86
f 579/387/86 685/473/182 686/474/183
f 579/387/86 686/474/183 580/388/87
f 580/388/87 686/474/183 687/475/184
f 580/388/87 687/475/184 581/389/88
f 581/389/88 687/475/184 688/476/185
f 581/389/88 688/476/185 583/391/90
f 583/391/90 688/476/185 689/477/186
f 583/391/90 689/477/186 585/393/92
f 590/398/97 690/478/187 691/479/188
f 590/398/97 691/479/188 587/395/94
f 587/395/94 691/479/188 692/480/189
f 587/395/94 692/480/189 591/399/98
f 591/399/98 692/480/189 693/481/190
f 591/399/98 693/481/190 593/401/100
f 593/401/100 693/481/190 694/482/191
f 593/401/100 694/482/191 594/402/101
f 594/402/101 694/482/191 695/483/192
f 594/402/101 695/483/192 595/403/102
f 595/403/102 695/483/192 683/471/180
f 595/403/102 683/471/180 578/386/85
f 600/408/107 577/385/84 576/384/83
f 600/408/107 576/384/83 597/405/104
f 597/405/104 576/384/83 551/359/67
f 597/405/104 551/359/67 550/358/66
f 553/361/69 555/363/71 596/404/103
f 553/361/69 596/404/103 615/419/122
f 615/419/122 596/404/103 577/385/84
f 615/419/122 577/385/84 600/408/107
f 696/484/193 599/407/106 598/406/105
f 696/484/193 598/406/105 697/485/194
f 697/485/194 598/406/105 601/409/108
f 697/485/194 601/409/108 698/486/195
f 698/486/195 601/409/108 602/410/109
f 698/486/195 602/410/109 699/487/183
f 699/487/183 602/410/109 603/411/110
f 699/487/183 603/411/110 700/488/196
f 640/444/147 657/457/164 701/489/197
f 640/444/147 701/489/197 702/490/193
f 657/457/164 656/456/163 703/491/198
f 657/457/164 703/491/198 701/489/197
f 656/456/163 655/455/162 704/492/190
f 656/456/163 704/492/190 703/491/198
f 655/455/162 654/454/161 705/493/199
f 655/455/162 705/493/199 704/492/190
f 654/454/161 652/453/159 706/494/200
f 654/454/161 706/494/200 705/493/199
f 652/453/159 651/452/158 707/495/201
f 652/453/159 707/495/201 706/494/200
f 648/451/155 646/450/153 708/496/202
f 648/451/155 708/496/202 709/497/203
f 646/450/153 645/449/152 710/498/196
f 646/450/153 710/498/196 708/496/202
f 645/449/152 644/448/151 711/499/183
f 645/449/152 711/499/183 710/498/196
f 644/448/151 643/447/150 712/500/195
f 644/448/151 712/500/195 711/499/183
f 643/447/150 641/445/148 713/501/194
f 643/447/150 713/501/194 712/500/195
f 641/445/148 640/444/147 702/490/193
f 641/445/148 702/490/193 713/501/194
f 618/422/125 637/441/144 658/458/165
f 618/422/125 658/458/165 639/443/146
f 637/441/144 560/368/76 559/367/75
f 637/441/144 559/367/75 658/458/165
f 563/371/79 619/423/126 642/446/149
f 563/371/79 642/446/149 564/372/80
f 619/423/126 618/422/125 639/443/146
f 619/423/126 639/443/146 642/446/149
f 714/502/204 715/503/188 638/442/145
f 714/502/204 638/442/145 617/421/124
f 715/503/188 716/504/189 636/440/143
f 715/503/188 636/440/143 638/442/145
f 716/504/189 717/505/190 635/439/142
f 716/504/189 635/439/142 636/440/143
f 717/505/190 718/506/191 634/438/141
f 717/505/190 634/438/141 635/439/142
f 718/506/191 719/507/192 632/436/139
f 718/506/191 632/436/139 634/438/141
f 719/507/192 720/508/205 629/433/136
f 719/507/192 629/433/136 632/436/139
f 721/509/206 722/510/181 626/430/133
f 721/509/206 626/430/133 628/432/135
f 722/510/181 723/511/182 624/428/131
f 722/510/181 624/428/131 626/430/133
f 723/511/182 724/512/183 622/426/129
f 723/511/182 622/426/129 624/428/131
f 724/512/183 725/513/184 621/425/128
f 724/512/183 621/425/128 622/426/129
f 725/513/184 726/514/185 620/424/127
f 725/513/184 620/424/127 621/425/128
f 726/514/185 714/502/204 617/421/124
f 726/514/185 617/421/124 620/424/127
f 727/365/174 728/515/207 729/516/173
f 727/365/174 729/516/173 730/366/173
f 731/364/208 732/517/208 728/515/207
f 731/364/208 728/515/207 727/365/174
f 733/375/177 734/518/177 732/517/208
f 733/375/177 732/517/208 731/364/208
f 735/374/209 736/519/178 734/518/177
f 735/374/209 734/518/177 733/375/177
f 737/373/210 738/520/211 736/519/178
f 737/373/210 736/519/178 735/374/209
f 739/378/167 740/521/212 738/520/211
f 739/378/167 738/520/211 737/373/210
f 741/377/213 742/522/213 740/521/212
f 741/377/213 740/521/212 739/378/167
f 743/376/214 744/523/168 742/522/213
f 743/376/214 742/522/213 741/377/213
f 745/380/169 746/524/169 744/523/168
f 745/380/169 744/523/168 743/376/214
f 747/379/171 748/525/171 746/524/169
f 747/379/171 746/524/169 745/380/169
f 749/381/172 750/526/172 748/525/171
f 749/381/172 748/525/171 747/379/171
f 730/366/173 729/516/173 750/526/172
f 730/366/173 750/526/172 749/381/172
f 751/527/197 616/420/123 599/407/106
f 751/527/197 599/407/106 696/484/193
f 752/528/198 614/418/121 616/420/123
f 752/528/198 616/420/123 751/527/197
f 753/529/190 613/417/120 614/418/121
f 753/529/190 614/418/121 752/528/198
f 754/530/215 612/416/119 613/417/120
f 754/530/215 613/417/120 753/529/190
f 755/531/216 609/414/116 612/416/119
f 755/531/216 612/416/119 754/530/215
f 756/532/201 610/415/117 609/414/116
f 756/532/201 609/414/116 755/531/216
f 757/533/202 605/412/112 607/413/114
f 757/533/202 607/413/114 758/534/203
f 700/488/196 603/411/110 605/412/112
f 700/488/196 605/412/112 757/533/202
