# Blender 4.3.2
# www.blender.org
mtllib Obstacle_hole.mtl
o Cube.001
v 8.000000 8.000000 -8.000002
v 8.000000 -8.000002 -8.000000
v 8.000000 8.000002 8.000000
v 8.000000 -8.000000 8.000002
v -8.000000 8.000000 -8.000002
v -8.000000 -8.000002 -8.000000
v -8.000000 8.000002 8.000000
v -8.000000 -8.000000 8.000002
v 0.950505 -7.901545 -8.000000
v -0.918937 -7.901545 -8.000000
v 0.942227 -4.308434 -8.000000
v -0.932052 -4.322132 -8.000000
v 1.049188 -8.000002 -8.000000
v -1.017034 -8.000002 -8.000000
v 1.040455 -4.209256 -8.000000
v -1.030868 -4.224394 -8.000000
v 0.950505 -7.901545 -4.861253
v -0.918937 -7.901545 -4.861253
v 0.942227 -4.308434 -4.861253
v -0.932052 -4.322132 -4.861253
v 0.950505 -7.901544 2.301481
v -0.918937 -7.901544 2.301481
v 0.942227 -4.308433 2.301480
v -0.932052 -4.322131 2.301480
vn -0.0000 1.0000 -0.0000
vn -0.0000 -0.0000 1.0000
vn -1.0000 -0.0000 -0.0000
vn -0.0000 -1.0000 -0.0000
vn 1.0000 -0.0000 -0.0000
vn -0.0000 -0.0000 -1.0000
vn 0.3038 -0.3005 -0.9041
vn -0.7037 -0.7105 -0.0000
vn 0.7110 -0.7032 -0.0000
vn 0.3016 0.3027 -0.9041
vn -0.3015 0.3008 -0.9048
vn -0.2992 -0.3021 -0.9051
vn 0.7058 0.7084 -0.0000
vn 0.5804 -0.5741 -0.5775
vn 0.5762 0.5783 -0.5775
vn -0.7079 0.7063 -0.0000
vn -0.5747 -0.5802 -0.5771
vn -0.5781 0.5768 -0.5772
vt 0.625000 0.500000
vt 0.875000 0.750000
vt 0.625000 0.750000
vt 0.375000 0.750000
vt 0.625000 1.000000
vt 0.375000 1.000000
vt 0.375000 0.000000
vt 0.625000 0.250000
vt 0.375000 0.250000
vt 0.233718 0.500000
vt 0.266583 0.500000
vt 0.375000 0.500000
vt 0.434230 0.391257
vt 0.433994 0.358579
vt 0.432467 0.360137
vt 0.432681 0.389711
vt 0.376538 0.360279
vt 0.375000 0.391583
vt 0.375000 0.358718
vt 0.376538 0.390010
vt 0.875000 0.500000
vt 0.625000 0.000000
vt 0.125000 0.750000
vt 0.125000 0.500000
s 1
usemtl Material.003
f 1/1/1 7/2/1 3/3/1
f 4/4/2 7/5/2 8/6/2
f 8/7/3 5/8/3 6/9/3
f 14/10/4 13/11/4 4/4/4
f 2/12/5 3/3/5 4/4/5
f 5/8/6 15/13/6 16/14/6
f 12/15/7 19/16/8 20/15/9
f 10/17/10 13/18/6 14/19/6
f 9/20/11 15/13/6 13/18/6
f 11/16/12 16/14/6 15/13/6
f 12/15/7 14/19/6 16/14/6
f 18/17/13 24/15/14 22/17/15
f 9/20/11 18/17/13 17/20/16
f 10/17/10 20/15/9 18/17/13
f 11/16/12 17/20/16 19/16/8
f 22/17/15 23/16/17 21/20/18
f 19/16/8 21/20/18 23/16/17
f 20/15/9 23/16/17 24/15/14
f 17/20/16 22/17/15 21/20/18
f 1/1/1 5/21/1 7/2/1
f 4/4/2 3/3/2 7/5/2
f 8/7/3 7/22/3 5/8/3
f 8/23/4 6/24/4 14/10/4
f 13/11/4 2/12/4 4/4/4
f 8/23/4 14/10/4 4/4/4
f 2/12/5 1/1/5 3/3/5
f 14/19/6 6/9/6 16/14/6
f 6/9/6 5/8/6 16/14/6
f 5/8/6 1/1/6 15/13/6
f 1/1/6 2/12/6 15/13/6
f 2/12/6 13/18/6 15/13/6
f 12/15/7 11/16/12 19/16/8
f 10/17/10 9/20/11 13/18/6
f 9/20/11 11/16/12 15/13/6
f 11/16/12 12/15/7 16/14/6
f 12/15/7 10/17/10 14/19/6
f 18/17/13 20/15/9 24/15/14
f 9/20/11 10/17/10 18/17/13
f 10/17/10 12/15/7 20/15/9
f 11/16/12 9/20/11 17/20/16
f 22/17/15 24/15/14 23/16/17
f 19/16/8 17/20/16 21/20/18
f 20/15/9 19/16/8 23/16/17
f 17/20/16 18/17/13 22/17/15
