# Blender 4.3.2
# www.blender.org
mtllib Title.mtl
o Dimen
v 2.284400 0.535688 0.080000
v 2.284400 -0.000000 0.080000
v 2.155997 -0.000000 0.080000
v 1.966151 0.333333 0.080000
v 1.966151 -0.000000 0.080000
v 1.837012 -0.000000 0.080000
v 1.837012 0.535688 0.080000
v 1.966151 0.535688 0.080000
v 2.155629 0.202355 0.080000
v 2.155629 0.535688 0.080000
v 1.747608 0.323032 0.080000
v 1.747608 0.227005 0.080000
v 1.544518 0.227005 0.080000
v 1.544518 0.099338 0.080000
v 1.784400 0.099338 0.080000
v 1.784400 -0.000000 0.080000
v 1.415379 -0.000000 0.080000
v 1.415379 0.535688 0.080000
v 1.785136 0.535688 0.080000
v 1.785136 0.435982 0.080000
v 1.544518 0.435982 0.080000
v 1.544518 0.323032 0.080000
v 0.754967 0.535688 0.080000
v 0.924577 0.535688 0.080000
v 1.044150 0.162987 0.080000
v 1.163355 0.535688 0.080000
v 1.333333 0.535688 0.080000
v 1.333333 -0.000000 0.080000
v 1.203826 -0.000000 0.080000
v 1.203826 0.125092 0.080000
v 1.216336 0.381163 0.080000
v 1.086829 -0.000000 0.080000
v 1.001472 -0.000000 0.080000
v 0.871597 0.381531 0.080000
v 0.884106 0.125092 0.080000
v 0.884106 -0.000000 0.080000
v 0.754967 -0.000000 0.080000
v 0.665195 0.535688 0.080000
v 0.665195 -0.000000 0.080000
v 0.536424 -0.000000 0.080000
v 0.536424 0.535688 0.080000
v 0.216703 -0.000000 0.080000
v 0.040471 -0.000000 0.080000
v 0.040471 0.535688 0.080000
v 0.213024 0.535688 0.080000
v 0.223864 0.535497 0.080000
v 0.234533 0.534926 0.080000
v 0.245033 0.533974 0.080000
v 0.255363 0.532640 0.080000
v 0.265523 0.530926 0.080000
v 0.275514 0.528830 0.080000
v 0.285334 0.526354 0.080000
v 0.294985 0.523497 0.080000
v 0.304466 0.520258 0.080000
v 0.313777 0.516639 0.080000
v 0.322918 0.512639 0.080000
v 0.331890 0.508257 0.080000
v 0.340692 0.503495 0.080000
v 0.349262 0.498386 0.080000
v 0.357538 0.492963 0.080000
v 0.365520 0.487226 0.080000
v 0.373208 0.481176 0.080000
v 0.380602 0.474813 0.080000
v 0.387702 0.468136 0.080000
v 0.394509 0.461145 0.080000
v 0.401021 0.453842 0.080000
v 0.407240 0.446224 0.080000
v 0.413165 0.438293 0.080000
v 0.418796 0.430049 0.080000
v 0.424133 0.421491 0.080000
v 0.429176 0.412620 0.080000
v 0.433886 0.403508 0.080000
v 0.438224 0.394228 0.080000
v 0.442189 0.384781 0.080000
v 0.445782 0.375166 0.080000
v 0.449003 0.365384 0.080000
v 0.451852 0.355433 0.080000
v 0.454328 0.345316 0.080000
v 0.456432 0.335030 0.080000
v 0.458164 0.324577 0.080000
v 0.459524 0.313957 0.080000
v 0.460511 0.303168 0.080000
v 0.461126 0.292213 0.080000
v 0.461369 0.281089 0.080000
v 0.461369 0.256439 0.080000
v 0.461185 0.245208 0.080000
v 0.460633 0.234159 0.080000
v 0.459713 0.223290 0.080000
v 0.458425 0.212602 0.080000
v 0.456770 0.202095 0.080000
v 0.454746 0.191768 0.080000
v 0.452355 0.181622 0.080000
v 0.449595 0.171656 0.080000
v 0.446468 0.161872 0.080000
v 0.442973 0.152268 0.080000
v 0.439110 0.142845 0.080000
v 0.434879 0.133602 0.080000
v 0.430280 0.124540 0.080000
v 0.425346 0.115719 0.080000
v 0.420113 0.107198 0.080000
v 0.414579 0.098977 0.080000
v 0.408744 0.091057 0.080000
v 0.402610 0.083438 0.080000
v 0.396174 0.076119 0.080000
v 0.389439 0.069100 0.080000
v 0.382402 0.062382 0.080000
v 0.375066 0.055964 0.080000
v 0.367429 0.049846 0.080000
v 0.359491 0.044029 0.080000
v 0.351254 0.038513 0.080000
v 0.342715 0.033297 0.080000
v 0.333949 0.028423 0.080000
v 0.325029 0.023935 0.080000
v 0.315954 0.019833 0.080000
v 0.306725 0.016115 0.080000
v 0.297341 0.012783 0.080000
v 0.287802 0.009837 0.080000
v 0.278109 0.007276 0.080000
v 0.268261 0.005100 0.080000
v 0.258259 0.003309 0.080000
v 0.248102 0.001904 0.080000
v 0.237790 0.000884 0.080000
v 0.227324 0.000249 0.080000
v 0.213024 0.435982 0.080000
v 0.169610 0.435982 0.080000
v 0.169610 0.099338 0.080000
v 0.214496 0.099338 0.080000
v 0.222891 0.099572 0.080000
v 0.230980 0.100274 0.080000
v 0.238765 0.101444 0.080000
v 0.246246 0.103082 0.080000
v 0.253421 0.105189 0.080000
v 0.260292 0.107763 0.080000
v 0.266858 0.110805 0.080000
v 0.273119 0.114316 0.080000
v 0.279075 0.118294 0.080000
v 0.284727 0.122741 0.080000
v 0.290074 0.127655 0.080000
v 0.295116 0.133038 0.080000
v 0.299853 0.138889 0.080000
v 0.304261 0.145201 0.080000
v 0.308317 0.151968 0.080000
v 0.312020 0.159191 0.080000
v 0.315371 0.166868 0.080000
v 0.318368 0.175000 0.080000
v 0.321013 0.183588 0.080000
v 0.323306 0.192630 0.080000
v 0.325246 0.202127 0.080000
v 0.326833 0.212079 0.080000
v 0.328067 0.222487 0.080000
v 0.328949 0.233349 0.080000
v 0.329478 0.244666 0.080000
v 0.329654 0.256439 0.080000
v 0.329654 0.279617 0.080000
v 0.329478 0.291334 0.080000
v 0.328949 0.302598 0.080000
v 0.328067 0.313409 0.080000
v 0.326833 0.323767 0.080000
v 0.325246 0.333673 0.080000
v 0.323306 0.343126 0.080000
v 0.321013 0.352125 0.080000
v 0.318368 0.360672 0.080000
v 0.315371 0.368767 0.080000
v 0.312020 0.376408 0.080000
v 0.308317 0.383597 0.080000
v 0.304261 0.390332 0.080000
v 0.299853 0.396615 0.080000
v 0.295107 0.402439 0.080000
v 0.290039 0.407796 0.080000
v 0.284648 0.412688 0.080000
v 0.278936 0.417114 0.080000
v 0.272901 0.421074 0.080000
v 0.266544 0.424568 0.080000
v 0.259865 0.427596 0.080000
v 0.252864 0.430159 0.080000
v 0.245540 0.432255 0.080000
v 0.237895 0.433886 0.080000
v 0.229927 0.435051 0.080000
v 0.221637 0.435749 0.080000
v 2.284400 0.535688 -0.080000
v 2.284400 0.000000 -0.080000
v 2.155997 0.000000 -0.080000
v 1.966151 0.333333 -0.080000
v 1.966151 0.000000 -0.080000
v 1.837012 0.000000 -0.080000
v 1.837012 0.535688 -0.080000
v 1.966151 0.535688 -0.080000
v 2.155629 0.202355 -0.080000
v 2.155629 0.535688 -0.080000
v 1.747608 0.323032 -0.080000
v 1.747608 0.227005 -0.080000
v 1.544518 0.227005 -0.080000
v 1.544518 0.099338 -0.080000
v 1.784400 0.099338 -0.080000
v 1.784400 0.000000 -0.080000
v 1.415379 0.000000 -0.080000
v 1.415379 0.535688 -0.080000
v 1.785136 0.535688 -0.080000
v 1.785136 0.435982 -0.080000
v 1.544518 0.435982 -0.080000
v 1.544518 0.323032 -0.080000
v 0.754967 0.535688 -0.080000
v 0.924577 0.535688 -0.080000
v 1.044150 0.162987 -0.080000
v 1.163355 0.535688 -0.080000
v 1.333333 0.535688 -0.080000
v 1.333333 0.000000 -0.080000
v 1.203826 0.000000 -0.080000
v 1.203826 0.125092 -0.080000
v 1.216336 0.381163 -0.080000
v 1.086829 0.000000 -0.080000
v 1.001472 0.000000 -0.080000
v 0.871597 0.381531 -0.080000
v 0.884106 0.125092 -0.080000
v 0.884106 0.000000 -0.080000
v 0.754967 0.000000 -0.080000
v 0.665195 0.535688 -0.080000
v 0.665195 0.000000 -0.080000
v 0.536424 0.000000 -0.080000
v 0.536424 0.535688 -0.080000
v 0.216703 0.000000 -0.080000
v 0.040471 0.000000 -0.080000
v 0.040471 0.535688 -0.080000
v 0.213024 0.535688 -0.080000
v 0.223864 0.535497 -0.080000
v 0.234533 0.534926 -0.080000
v 0.245033 0.533974 -0.080000
v 0.255363 0.532640 -0.080000
v 0.265523 0.530926 -0.080000
v 0.275514 0.528830 -0.080000
v 0.285334 0.526354 -0.080000
v 0.294985 0.523497 -0.080000
v 0.304466 0.520258 -0.080000
v 0.313777 0.516639 -0.080000
v 0.322918 0.512639 -0.080000
v 0.331890 0.508257 -0.080000
v 0.340692 0.503495 -0.080000
v 0.349262 0.498386 -0.080000
v 0.357538 0.492963 -0.080000
v 0.365520 0.487226 -0.080000
v 0.373208 0.481176 -0.080000
v 0.380602 0.474813 -0.080000
v 0.387702 0.468136 -0.080000
v 0.394509 0.461145 -0.080000
v 0.401021 0.453842 -0.080000
v 0.407240 0.446224 -0.080000
v 0.413165 0.438293 -0.080000
v 0.418796 0.430049 -0.080000
v 0.424133 0.421491 -0.080000
v 0.429176 0.412620 -0.080000
v 0.433886 0.403508 -0.080000
v 0.438224 0.394228 -0.080000
v 0.442189 0.384781 -0.080000
v 0.445782 0.375166 -0.080000
v 0.449003 0.365384 -0.080000
v 0.451852 0.355433 -0.080000
v 0.454328 0.345316 -0.080000
v 0.456432 0.335030 -0.080000
v 0.458164 0.324577 -0.080000
v 0.459524 0.313957 -0.080000
v 0.460511 0.303168 -0.080000
v 0.461126 0.292213 -0.080000
v 0.461369 0.281089 -0.080000
v 0.461369 0.256439 -0.080000
v 0.461185 0.245208 -0.080000
v 0.460633 0.234159 -0.080000
v 0.459713 0.223290 -0.080000
v 0.458425 0.212602 -0.080000
v 0.456770 0.202095 -0.080000
v 0.454746 0.191768 -0.080000
v 0.452355 0.181622 -0.080000
v 0.449595 0.171656 -0.080000
v 0.446468 0.161872 -0.080000
v 0.442973 0.152268 -0.080000
v 0.439110 0.142845 -0.080000
v 0.434879 0.133602 -0.080000
v 0.430280 0.124540 -0.080000
v 0.425346 0.115719 -0.080000
v 0.420113 0.107198 -0.080000
v 0.414579 0.098977 -0.080000
v 0.408744 0.091057 -0.080000
v 0.402610 0.083438 -0.080000
v 0.396174 0.076119 -0.080000
v 0.389439 0.069100 -0.080000
v 0.382402 0.062382 -0.080000
v 0.375066 0.055964 -0.080000
v 0.367429 0.049846 -0.080000
v 0.359491 0.044029 -0.080000
v 0.351254 0.038513 -0.080000
v 0.342715 0.033297 -0.080000
v 0.333949 0.028423 -0.080000
v 0.325029 0.023935 -0.080000
v 0.315954 0.019833 -0.080000
v 0.306725 0.016115 -0.080000
v 0.297341 0.012784 -0.080000
v 0.287802 0.009837 -0.080000
v 0.278109 0.007276 -0.080000
v 0.268261 0.005100 -0.080000
v 0.258259 0.003309 -0.080000
v 0.248102 0.001904 -0.080000
v 0.237790 0.000884 -0.080000
v 0.227324 0.000249 -0.080000
v 0.213024 0.435982 -0.080000
v 0.169610 0.435982 -0.080000
v 0.169610 0.099338 -0.080000
v 0.214496 0.099338 -0.080000
v 0.222891 0.099572 -0.080000
v 0.230980 0.100274 -0.080000
v 0.238765 0.101444 -0.080000
v 0.246246 0.103082 -0.080000
v 0.253421 0.105189 -0.080000
v 0.260292 0.107763 -0.080000
v 0.266858 0.110805 -0.080000
v 0.273119 0.114316 -0.080000
v 0.279075 0.118294 -0.080000
v 0.284727 0.122741 -0.080000
v 0.290074 0.127655 -0.080000
v 0.295116 0.133038 -0.080000
v 0.299853 0.138889 -0.080000
v 0.304261 0.145201 -0.080000
v 0.308317 0.151968 -0.080000
v 0.312020 0.159191 -0.080000
v 0.315371 0.166868 -0.080000
v 0.318368 0.175000 -0.080000
v 0.321013 0.183588 -0.080000
v 0.323306 0.192630 -0.080000
v 0.325246 0.202127 -0.080000
v 0.326833 0.212079 -0.080000
v 0.328067 0.222487 -0.080000
v 0.328949 0.233349 -0.080000
v 0.329478 0.244666 -0.080000
v 0.329654 0.256439 -0.080000
v 0.329654 0.279617 -0.080000
v 0.329478 0.291334 -0.080000
v 0.328949 0.302598 -0.080000
v 0.328067 0.313409 -0.080000
v 0.326833 0.323767 -0.080000
v 0.325246 0.333673 -0.080000
v 0.323306 0.343126 -0.080000
v 0.321013 0.352125 -0.080000
v 0.318368 0.360672 -0.080000
v 0.315371 0.368767 -0.080000
v 0.312020 0.376408 -0.080000
v 0.308317 0.383597 -0.080000
v 0.304261 0.390332 -0.080000
v 0.299853 0.396615 -0.080000
v 0.295107 0.402439 -0.080000
v 0.290039 0.407796 -0.080000
v 0.284648 0.412688 -0.080000
v 0.278936 0.417114 -0.080000
v 0.272901 0.421074 -0.080000
v 0.266544 0.424568 -0.080000
v 0.259865 0.427596 -0.080000
v 0.252864 0.430159 -0.080000
v 0.245540 0.432255 -0.080000
v 0.237895 0.433886 -0.080000
v 0.229927 0.435051 -0.080000
v 0.221637 0.435749 -0.080000
v 0.216703 0.000000 -0.080000
v 0.216703 -0.000000 0.080000
v 0.040471 0.000000 -0.080000
v 0.040471 -0.000000 0.080000
v 0.040471 0.535688 -0.080000
v 0.040471 0.535688 0.080000
v 0.213024 0.535688 -0.080000
v 0.213024 0.535688 0.080000
v 0.223864 0.535497 -0.080000
v 0.223864 0.535497 0.080000
v 0.234533 0.534926 -0.080000
v 0.234533 0.534926 0.080000
v 0.245033 0.533974 -0.080000
v 0.245033 0.533974 0.080000
v 0.255363 0.532640 -0.080000
v 0.255363 0.532640 0.080000
v 0.265523 0.530926 -0.080000
v 0.265523 0.530926 0.080000
v 0.275514 0.528830 -0.080000
v 0.275514 0.528830 0.080000
v 0.285334 0.526354 -0.080000
v 0.285334 0.526354 0.080000
v 0.294985 0.523497 -0.080000
v 0.294985 0.523497 0.080000
v 0.304466 0.520258 -0.080000
v 0.304466 0.520258 0.080000
v 0.313777 0.516639 -0.080000
v 0.313777 0.516639 0.080000
v 0.322918 0.512639 -0.080000
v 0.322918 0.512639 0.080000
v 0.331890 0.508257 -0.080000
v 0.331890 0.508257 0.080000
v 0.340692 0.503495 -0.080000
v 0.340692 0.503495 0.080000
v 0.349262 0.498386 -0.080000
v 0.349262 0.498386 0.080000
v 0.357538 0.492963 -0.080000
v 0.357538 0.492963 0.080000
v 0.365520 0.487226 -0.080000
v 0.365520 0.487226 0.080000
v 0.373208 0.481176 -0.080000
v 0.373208 0.481176 0.080000
v 0.380602 0.474813 -0.080000
v 0.380602 0.474813 0.080000
v 0.387702 0.468136 -0.080000
v 0.387702 0.468136 0.080000
v 0.394509 0.461145 -0.080000
v 0.394509 0.461145 0.080000
v 0.401021 0.453842 -0.080000
v 0.401021 0.453842 0.080000
v 0.407240 0.446224 -0.080000
v 0.407240 0.446224 0.080000
v 0.413165 0.438293 -0.080000
v 0.413165 0.438293 0.080000
v 0.418796 0.430049 -0.080000
v 0.418796 0.430049 0.080000
v 0.424133 0.421491 -0.080000
v 0.424133 0.421491 0.080000
v 0.429176 0.412620 -0.080000
v 0.429176 0.412620 0.080000
v 0.433886 0.403508 -0.080000
v 0.433886 0.403508 0.080000
v 0.438224 0.394228 -0.080000
v 0.438224 0.394228 0.080000
v 0.442189 0.384781 -0.080000
v 0.442189 0.384781 0.080000
v 0.445782 0.375166 -0.080000
v 0.445782 0.375166 0.080000
v 0.449003 0.365384 -0.080000
v 0.449003 0.365384 0.080000
v 0.451852 0.355433 -0.080000
v 0.451852 0.355433 0.080000
v 0.454328 0.345316 -0.080000
v 0.454328 0.345316 0.080000
v 0.456432 0.335030 -0.080000
v 0.456432 0.335030 0.080000
v 0.458164 0.324577 -0.080000
v 0.458164 0.324577 0.080000
v 0.459524 0.313957 -0.080000
v 0.459524 0.313957 0.080000
v 0.460511 0.303168 -0.080000
v 0.460511 0.303168 0.080000
v 0.461126 0.292213 -0.080000
v 0.461126 0.292213 0.080000
v 0.461369 0.281089 -0.080000
v 0.461369 0.281089 0.080000
v 0.461369 0.256439 -0.080000
v 0.461369 0.256439 0.080000
v 0.461185 0.245208 -0.080000
v 0.461185 0.245208 0.080000
v 0.460633 0.234159 -0.080000
v 0.460633 0.234159 0.080000
v 0.459713 0.223290 -0.080000
v 0.459713 0.223290 0.080000
v 0.458425 0.212602 -0.080000
v 0.458425 0.212602 0.080000
v 0.456770 0.202095 -0.080000
v 0.456770 0.202095 0.080000
v 0.454746 0.191768 -0.080000
v 0.454746 0.191768 0.080000
v 0.452355 0.181622 -0.080000
v 0.452355 0.181622 0.080000
v 0.449595 0.171656 -0.080000
v 0.449595 0.171656 0.080000
v 0.446468 0.161872 -0.080000
v 0.446468 0.161872 0.080000
v 0.442973 0.152268 -0.080000
v 0.442973 0.152268 0.080000
v 0.439110 0.142845 -0.080000
v 0.439110 0.142845 0.080000
v 0.434879 0.133602 -0.080000
v 0.434879 0.133602 0.080000
v 0.430280 0.124540 -0.080000
v 0.430280 0.124540 0.080000
v 0.425346 0.115719 -0.080000
v 0.425346 0.115719 0.080000
v 0.420113 0.107198 -0.080000
v 0.420113 0.107198 0.080000
v 0.414579 0.098977 -0.080000
v 0.414579 0.098977 0.080000
v 0.408744 0.091057 -0.080000
v 0.408744 0.091057 0.080000
v 0.402610 0.083438 -0.080000
v 0.402610 0.083438 0.080000
v 0.396174 0.076119 -0.080000
v 0.396174 0.076119 0.080000
v 0.389439 0.069100 -0.080000
v 0.389439 0.069100 0.080000
v 0.382402 0.062382 -0.080000
v 0.382402 0.062382 0.080000
v 0.375066 0.055964 -0.080000
v 0.375066 0.055964 0.080000
v 0.367429 0.049846 -0.080000
v 0.367429 0.049846 0.080000
v 0.359491 0.044029 -0.080000
v 0.359491 0.044029 0.080000
v 0.351254 0.038513 -0.080000
v 0.351254 0.038513 0.080000
v 0.342715 0.033297 -0.080000
v 0.342715 0.033297 0.080000
v 0.333949 0.028423 -0.080000
v 0.333949 0.028423 0.080000
v 0.325029 0.023935 -0.080000
v 0.325029 0.023935 0.080000
v 0.315954 0.019833 -0.080000
v 0.315954 0.019833 0.080000
v 0.306725 0.016115 -0.080000
v 0.306725 0.016115 0.080000
v 0.297341 0.012784 -0.080000
v 0.297341 0.012783 0.080000
v 0.287802 0.009837 -0.080000
v 0.287802 0.009837 0.080000
v 0.278109 0.007276 -0.080000
v 0.278109 0.007276 0.080000
v 0.268261 0.005100 -0.080000
v 0.268261 0.005100 0.080000
v 0.258259 0.003309 -0.080000
v 0.258259 0.003309 0.080000
v 0.248102 0.001904 -0.080000
v 0.248102 0.001904 0.080000
v 0.237790 0.000884 -0.080000
v 0.237790 0.000884 0.080000
v 0.227324 0.000249 -0.080000
v 0.227324 0.000249 0.080000
v 0.213024 0.435982 -0.080000
v 0.213024 0.435982 0.080000
v 0.169610 0.435982 -0.080000
v 0.169610 0.435982 0.080000
v 0.169610 0.099338 -0.080000
v 0.169610 0.099338 0.080000
v 0.214496 0.099338 -0.080000
v 0.214496 0.099338 0.080000
v 0.222891 0.099572 -0.080000
v 0.222891 0.099572 0.080000
v 0.230980 0.100274 -0.080000
v 0.230980 0.100274 0.080000
v 0.238765 0.101444 -0.080000
v 0.238765 0.101444 0.080000
v 0.246246 0.103082 -0.080000
v 0.246246 0.103082 0.080000
v 0.253421 0.105189 -0.080000
v 0.253421 0.105189 0.080000
v 0.260292 0.107763 -0.080000
v 0.260292 0.107763 0.080000
v 0.266858 0.110805 -0.080000
v 0.266858 0.110805 0.080000
v 0.273119 0.114316 -0.080000
v 0.273119 0.114316 0.080000
v 0.279075 0.118294 -0.080000
v 0.279075 0.118294 0.080000
v 0.284727 0.122741 -0.080000
v 0.284727 0.122741 0.080000
v 0.290074 0.127655 -0.080000
v 0.290074 0.127655 0.080000
v 0.295116 0.133038 -0.080000
v 0.295116 0.133038 0.080000
v 0.299853 0.138889 -0.080000
v 0.299853 0.138889 0.080000
v 0.304261 0.145201 -0.080000
v 0.304261 0.145201 0.080000
v 0.308317 0.151968 -0.080000
v 0.308317 0.151968 0.080000
v 0.312020 0.159191 -0.080000
v 0.312020 0.159191 0.080000
v 0.315371 0.166868 -0.080000
v 0.315371 0.166868 0.080000
v 0.318368 0.175000 -0.080000
v 0.318368 0.175000 0.080000
v 0.321013 0.183588 -0.080000
v 0.321013 0.183588 0.080000
v 0.323306 0.192630 -0.080000
v 0.323306 0.192630 0.080000
v 0.325246 0.202127 -0.080000
v 0.325246 0.202127 0.080000
v 0.326833 0.212079 -0.080000
v 0.326833 0.212079 0.080000
v 0.328067 0.222487 -0.080000
v 0.328067 0.222487 0.080000
v 0.328949 0.233349 -0.080000
v 0.328949 0.233349 0.080000
v 0.329478 0.244666 -0.080000
v 0.329478 0.244666 0.080000
v 0.329654 0.256439 -0.080000
v 0.329654 0.256439 0.080000
v 0.329654 0.279617 -0.080000
v 0.329654 0.279617 0.080000
v 0.329478 0.291334 -0.080000
v 0.329478 0.291334 0.080000
v 0.328949 0.302598 -0.080000
v 0.328949 0.302598 0.080000
v 0.328067 0.313409 -0.080000
v 0.328067 0.313409 0.080000
v 0.326833 0.323767 -0.080000
v 0.326833 0.323767 0.080000
v 0.325246 0.333673 -0.080000
v 0.325246 0.333673 0.080000
v 0.323306 0.343126 -0.080000
v 0.323306 0.343126 0.080000
v 0.321013 0.352125 -0.080000
v 0.321013 0.352125 0.080000
v 0.318368 0.360672 -0.080000
v 0.318368 0.360672 0.080000
v 0.315371 0.368767 -0.080000
v 0.315371 0.368767 0.080000
v 0.312020 0.376408 -0.080000
v 0.312020 0.376408 0.080000
v 0.308317 0.383597 -0.080000
v 0.308317 0.383597 0.080000
v 0.304261 0.390332 -0.080000
v 0.304261 0.390332 0.080000
v 0.299853 0.396615 -0.080000
v 0.299853 0.396615 0.080000
v 0.295107 0.402439 -0.080000
v 0.295107 0.402439 0.080000
v 0.290039 0.407796 -0.080000
v 0.290039 0.407796 0.080000
v 0.284648 0.412688 -0.080000
v 0.284648 0.412688 0.080000
v 0.278936 0.417114 -0.080000
v 0.278936 0.417114 0.080000
v 0.272901 0.421074 -0.080000
v 0.272901 0.421074 0.080000
v 0.266544 0.424568 -0.080000
v 0.266544 0.424568 0.080000
v 0.259865 0.427596 -0.080000
v 0.259865 0.427596 0.080000
v 0.252864 0.430159 -0.080000
v 0.252864 0.430159 0.080000
v 0.245540 0.432255 -0.080000
v 0.245540 0.432255 0.080000
v 0.237895 0.433886 -0.080000
v 0.237895 0.433886 0.080000
v 0.229927 0.435051 -0.080000
v 0.229927 0.435051 0.080000
v 0.221637 0.435749 -0.080000
v 0.221637 0.435749 0.080000
v 0.665195 0.535688 -0.080000
v 0.665195 0.535688 0.080000
v 0.665195 0.000000 -0.080000
v 0.665195 -0.000000 0.080000
v 0.536424 0.000000 -0.080000
v 0.536424 -0.000000 0.080000
v 0.536424 0.535688 -0.080000
v 0.536424 0.535688 0.080000
v 0.754967 0.535688 -0.080000
v 0.754967 0.535688 0.080000
v 0.924577 0.535688 -0.080000
v 0.924577 0.535688 0.080000
v 1.044150 0.162987 -0.080000
v 1.044150 0.162987 0.080000
v 1.163355 0.535688 -0.080000
v 1.163355 0.535688 0.080000
v 1.333333 0.535688 -0.080000
v 1.333333 0.535688 0.080000
v 1.333333 0.000000 -0.080000
v 1.333333 -0.000000 0.080000
v 1.203826 0.000000 -0.080000
v 1.203826 -0.000000 0.080000
v 1.203826 0.125092 -0.080000
v 1.203826 0.125092 0.080000
v 1.216336 0.381163 -0.080000
v 1.216336 0.381163 0.080000
v 1.086829 0.000000 -0.080000
v 1.086829 -0.000000 0.080000
v 1.001472 0.000000 -0.080000
v 1.001472 -0.000000 0.080000
v 0.871597 0.381531 -0.080000
v 0.871597 0.381531 0.080000
v 0.884106 0.125092 -0.080000
v 0.884106 0.125092 0.080000
v 0.884106 0.000000 -0.080000
v 0.884106 -0.000000 0.080000
v 0.754967 0.000000 -0.080000
v 0.754967 -0.000000 0.080000
v 1.747608 0.323032 -0.080000
v 1.747608 0.323032 0.080000
v 1.747608 0.227005 -0.080000
v 1.747608 0.227005 0.080000
v 1.544518 0.227005 -0.080000
v 1.544518 0.227005 0.080000
v 1.544518 0.099338 -0.080000
v 1.544518 0.099338 0.080000
v 1.784400 0.099338 -0.080000
v 1.784400 0.099338 0.080000
v 1.784400 0.000000 -0.080000
v 1.784400 -0.000000 0.080000
v 1.415379 0.000000 -0.080000
v 1.415379 -0.000000 0.080000
v 1.415379 0.535688 -0.080000
v 1.415379 0.535688 0.080000
v 1.785136 0.535688 -0.080000
v 1.785136 0.535688 0.080000
v 1.785136 0.435982 -0.080000
v 1.785136 0.435982 0.080000
v 1.544518 0.435982 -0.080000
v 1.544518 0.435982 0.080000
v 1.544518 0.323032 -0.080000
v 1.544518 0.323032 0.080000
v 2.284400 0.535688 -0.080000
v 2.284400 0.535688 0.080000
v 2.284400 0.000000 -0.080000
v 2.284400 -0.000000 0.080000
v 2.155997 0.000000 -0.080000
v 2.155997 -0.000000 0.080000
v 1.966151 0.333333 -0.080000
v 1.966151 0.333333 0.080000
v 1.966151 0.000000 -0.080000
v 1.966151 -0.000000 0.080000
v 1.837012 0.000000 -0.080000
v 1.837012 -0.000000 0.080000
v 1.837012 0.535688 -0.080000
v 1.837012 0.535688 0.080000
v 1.966151 0.535688 -0.080000
v 1.966151 0.535688 0.080000
v 2.155629 0.202355 -0.080000
v 2.155629 0.202355 0.080000
v 2.155629 0.535688 -0.080000
v 2.155629 0.535688 0.080000
vn -0.0000 -0.0000 1.0000
vn -0.0000 -0.0000 -1.0000
vn 0.0117 -0.9999 -0.0000
vn -0.7071 -0.7071 -0.0000
vn -0.7071 0.7071 -0.0000
vn 0.0088 1.0000 -0.0000
vn 0.0355 0.9994 -0.0000
vn 0.0719 0.9974 -0.0000
vn 0.1092 0.9940 -0.0000
vn 0.1472 0.9891 -0.0000
vn 0.1859 0.9826 -0.0000
vn 0.2249 0.9744 -0.0000
vn 0.2643 0.9645 -0.0000
vn 0.3036 0.9528 -0.0000
vn 0.3428 0.9394 -0.0000
vn 0.3817 0.9243 -0.0000
vn 0.4200 0.9075 -0.0000
vn 0.4574 0.8892 -0.0000
vn 0.4941 0.8694 -0.0000
vn 0.5302 0.8479 -0.0000
vn 0.5660 0.8244 -0.0000
vn 0.6011 0.7991 -0.0000
vn 0.6355 0.7721 -0.0000
vn 0.6688 0.7434 -0.0000
vn 0.7009 0.7132 -0.0000
vn 0.7316 0.6817 -0.0000
vn 0.7607 0.6491 -0.0000
vn 0.7881 0.6156 -0.0000
vn 0.8136 0.5814 -0.0000
vn 0.8373 0.5467 -0.0000
vn 0.8591 0.5118 -0.0000
vn 0.8790 0.4768 -0.0000
vn 0.8973 0.4414 -0.0000
vn 0.9142 0.4053 -0.0000
vn 0.9296 0.3686 -0.0000
vn 0.9435 0.3315 -0.0000
vn 0.9558 0.2940 -0.0000
vn 0.9665 0.2565 -0.0000
vn 0.9757 0.2191 -0.0000
vn 0.9833 0.1820 -0.0000
vn 0.9894 0.1452 -0.0000
vn 0.9940 0.1091 -0.0000
vn 0.9973 0.0736 -0.0000
vn 0.9992 0.0389 -0.0000
vn 0.9999 0.0109 -0.0000
vn 1.0000 -0.0082 -0.0000
vn 0.9995 -0.0331 -0.0000
vn 0.9977 -0.0671 -0.0000
vn 0.9948 -0.1020 -0.0000
vn 0.9905 -0.1377 -0.0000
vn 0.9847 -0.1740 -0.0000
vn 0.9775 -0.2109 -0.0000
vn 0.9687 -0.2482 -0.0000
vn 0.9583 -0.2857 -0.0000
vn 0.9463 -0.3233 -0.0000
vn 0.9327 -0.3607 -0.0000
vn 0.9174 -0.3979 -0.0000
vn 0.9007 -0.4345 -0.0000
vn 0.8824 -0.4704 -0.0000
vn 0.8626 -0.5058 -0.0000
vn 0.8410 -0.5410 -0.0000
vn 0.8175 -0.5759 -0.0000
vn 0.7922 -0.6103 -0.0000
vn 0.7651 -0.6439 -0.0000
vn 0.7364 -0.6765 -0.0000
vn 0.7062 -0.7080 -0.0000
vn 0.6747 -0.7381 -0.0000
vn 0.6419 -0.7667 -0.0000
vn 0.6083 -0.7937 -0.0000
vn 0.5739 -0.8189 -0.0000
vn 0.5390 -0.8423 -0.0000
vn 0.5037 -0.8639 -0.0000
vn 0.4678 -0.8839 -0.0000
vn 0.4308 -0.9025 -0.0000
vn 0.3929 -0.9196 -0.0000
vn 0.3542 -0.9352 -0.0000
vn 0.3149 -0.9491 -0.0000
vn 0.2754 -0.9613 -0.0000
vn 0.2357 -0.9718 -0.0000
vn 0.1960 -0.9806 -0.0000
vn 0.1567 -0.9877 -0.0000
vn 0.1178 -0.9930 -0.0000
vn 0.0795 -0.9968 -0.0000
vn 0.0420 -0.9991 -0.0000
vn -0.0135 -0.9999 -0.0000
vn 0.7071 -0.7071 -0.0000
vn 0.7071 0.7071 -0.0000
vn -0.0139 0.9999 -0.0000
vn -0.0572 0.9984 -0.0000
vn -0.1176 0.9931 -0.0000
vn -0.1814 0.9834 -0.0000
vn -0.2479 0.9688 -0.0000
vn -0.3165 0.9486 -0.0000
vn -0.3859 0.9225 -0.0000
vn -0.4551 0.8905 -0.0000
vn -0.5226 0.8526 -0.0000
vn -0.5873 0.8093 -0.0000
vn -0.6480 0.7616 -0.0000
vn -0.7038 0.7104 -0.0000
vn -0.7540 0.6569 -0.0000
vn -0.7990 0.6013 -0.0000
vn -0.8393 0.5437 -0.0000
vn -0.8743 0.4854 -0.0000
vn -0.9036 0.4283 -0.0000
vn -0.9278 0.3731 -0.0000
vn -0.9473 0.3202 -0.0000
vn -0.9628 0.2701 -0.0000
vn -0.9748 0.2230 -0.0000
vn -0.9839 0.1788 -0.0000
vn -0.9905 0.1377 -0.0000
vn -0.9951 0.0994 -0.0000
vn -0.9980 0.0638 -0.0000
vn -0.9995 0.0308 -0.0000
vn -1.0000 0.0075 -0.0000
vn -1.0000 -0.0075 -0.0000
vn -0.9995 -0.0310 -0.0000
vn -0.9979 -0.0641 -0.0000
vn -0.9950 -0.0998 -0.0000
vn -0.9904 -0.1383 -0.0000
vn -0.9837 -0.1797 -0.0000
vn -0.9746 -0.2240 -0.0000
vn -0.9625 -0.2713 -0.0000
vn -0.9469 -0.3216 -0.0000
vn -0.9272 -0.3746 -0.0000
vn -0.9028 -0.4300 -0.0000
vn -0.8733 -0.4872 -0.0000
vn -0.8381 -0.5454 -0.0000
vn -0.7974 -0.6034 -0.0000
vn -0.7513 -0.6599 -0.0000
vn -0.6998 -0.7144 -0.0000
vn -0.6427 -0.7661 -0.0000
vn -0.5810 -0.8139 -0.0000
vn -0.5156 -0.8569 -0.0000
vn -0.4476 -0.8942 -0.0000
vn -0.3786 -0.9256 -0.0000
vn -0.3097 -0.9509 -0.0000
vn -0.2420 -0.9703 -0.0000
vn -0.1767 -0.9843 -0.0000
vn -0.1144 -0.9934 -0.0000
vn -0.0555 -0.9985 -0.0000
vn 0.5893 0.8079 -0.0000
vn -0.0004 1.0000 -0.0000
vn -0.5896 0.8077 -0.0000
vn -0.9997 0.0244 -0.0000
vn -0.1871 -0.9823 -0.0000
vn 0.5824 -0.8129 -0.0000
vn -0.5821 -0.8131 -0.0000
vn 0.1873 -0.9823 -0.0000
vn 0.9997 0.0244 -0.0000
vn -0.5025 -0.8646 -0.0000
vn 0.2560 -0.9667 -0.0000
vn 0.5029 0.8643 -0.0000
vn -0.2556 0.9668 -0.0000
vt 0.555556 0.000000
vt 0.777778 0.000000
vt 0.666667 0.000000
vt 0.333333 0.000000
vt 0.888889 0.000000
vt 0.000000 0.000000
vt 1.000000 0.000000
vt 0.111111 0.000000
vt 0.444444 0.000000
vt 0.222222 0.000000
vt 0.545455 0.000000
vt 0.909091 0.000000
vt 0.636364 0.000000
vt 0.727273 0.000000
vt 0.818182 0.000000
vt 0.181818 0.000000
vt 0.090909 0.000000
vt 0.272727 0.000000
vt 0.363636 0.000000
vt 0.454545 0.000000
vt 0.785714 0.000000
vt 0.071429 0.000000
vt 0.142857 0.000000
vt 0.285714 0.000000
vt 0.214286 0.000000
vt 0.571429 0.000000
vt 0.357143 0.000000
vt 0.857143 0.000000
vt 0.714286 0.000000
vt 0.642857 0.000000
vt 0.500000 0.000000
vt 0.928571 0.000000
vt 0.428571 0.000000
vt 0.007299 0.000000
vt 0.605839 0.000000
vt 0.014599 0.000000
vt 0.021898 0.000000
vt 0.029197 0.000000
vt 0.036496 0.000000
vt 0.043796 0.000000
vt 0.051095 0.000000
vt 0.058394 0.000000
vt 0.065693 0.000000
vt 0.072993 0.000000
vt 0.080292 0.000000
vt 0.087591 0.000000
vt 0.094891 0.000000
vt 0.102190 0.000000
vt 0.109489 0.000000
vt 0.116788 0.000000
vt 0.124088 0.000000
vt 0.131387 0.000000
vt 0.138686 0.000000
vt 0.145985 0.000000
vt 0.153285 0.000000
vt 0.160584 0.000000
vt 0.167883 0.000000
vt 0.175182 0.000000
vt 0.182482 0.000000
vt 0.189781 0.000000
vt 0.598540 0.000000
vt 0.197080 0.000000
vt 0.613139 0.000000
vt 0.992701 0.000000
vt 0.985401 0.000000
vt 0.978102 0.000000
vt 0.970803 0.000000
vt 0.963504 0.000000
vt 0.204380 0.000000
vt 0.956204 0.000000
vt 0.948905 0.000000
vt 0.211679 0.000000
vt 0.941606 0.000000
vt 0.934307 0.000000
vt 0.927007 0.000000
vt 0.218978 0.000000
vt 0.919708 0.000000
vt 0.226277 0.000000
vt 0.912409 0.000000
vt 0.905109 0.000000
vt 0.233577 0.000000
vt 0.897810 0.000000
vt 0.240876 0.000000
vt 0.890511 0.000000
vt 0.883212 0.000000
vt 0.248175 0.000000
vt 0.875912 0.000000
vt 0.255474 0.000000
vt 0.868613 0.000000
vt 0.262774 0.000000
vt 0.861314 0.000000
vt 0.270073 0.000000
vt 0.854015 0.000000
vt 0.277372 0.000000
vt 0.846715 0.000000
vt 0.284672 0.000000
vt 0.839416 0.000000
vt 0.291971 0.000000
vt 0.832117 0.000000
vt 0.299270 0.000000
vt 0.824818 0.000000
vt 0.306569 0.000000
vt 0.817518 0.000000
vt 0.313869 0.000000
vt 0.810219 0.000000
vt 0.802920 0.000000
vt 0.321168 0.000000
vt 0.328467 0.000000
vt 0.795620 0.000000
vt 0.335766 0.000000
vt 0.788321 0.000000
vt 0.343066 0.000000
vt 0.781022 0.000000
vt 0.350365 0.000000
vt 0.773723 0.000000
vt 0.766423 0.000000
vt 0.357664 0.000000
vt 0.759124 0.000000
vt 0.364964 0.000000
vt 0.751825 0.000000
vt 0.372263 0.000000
vt 0.744526 0.000000
vt 0.379562 0.000000
vt 0.737226 0.000000
vt 0.386861 0.000000
vt 0.729927 0.000000
vt 0.394161 0.000000
vt 0.722628 0.000000
vt 0.715328 0.000000
vt 0.401460 0.000000
vt 0.708029 0.000000
vt 0.408759 0.000000
vt 0.700730 0.000000
vt 0.693431 0.000000
vt 0.416058 0.000000
vt 0.686131 0.000000
vt 0.678832 0.000000
vt 0.423358 0.000000
vt 0.671533 0.000000
vt 0.664234 0.000000
vt 0.656934 0.000000
vt 0.430657 0.000000
vt 0.649635 0.000000
vt 0.642336 0.000000
vt 0.635036 0.000000
vt 0.627737 0.000000
vt 0.620438 0.000000
vt 0.437956 0.000000
vt 0.445255 0.000000
vt 0.452555 0.000000
vt 0.459854 0.000000
vt 0.467153 0.000000
vt 0.474453 0.000000
vt 0.481752 0.000000
vt 0.489051 0.000000
vt 0.496350 0.000000
vt 0.503650 0.000000
vt 0.510949 0.000000
vt 0.518248 0.000000
vt 0.525547 0.000000
vt 0.532847 0.000000
vt 0.540146 0.000000
vt 0.547445 0.000000
vt 0.554745 0.000000
vt 0.562044 0.000000
vt 0.569343 0.000000
vt 0.576642 0.000000
vt 0.583942 0.000000
vt 0.591241 0.000000
vt 0.000000 1.000000
vt 0.012195 1.000000
vt 0.012195 0.000000
vt 0.024390 1.000000
vt 0.024390 0.000000
vt 0.036585 1.000000
vt 0.036585 0.000000
vt 0.048780 1.000000
vt 0.048780 0.000000
vt 0.060976 1.000000
vt 0.060976 0.000000
vt 0.073171 1.000000
vt 0.073171 0.000000
vt 0.085366 1.000000
vt 0.085366 0.000000
vt 0.097561 1.000000
vt 0.097561 0.000000
vt 0.109756 1.000000
vt 0.109756 0.000000
vt 0.121951 1.000000
vt 0.121951 0.000000
vt 0.134146 1.000000
vt 0.134146 0.000000
vt 0.146341 1.000000
vt 0.146341 0.000000
vt 0.158537 1.000000
vt 0.158537 0.000000
vt 0.170732 1.000000
vt 0.170732 0.000000
vt 0.182927 1.000000
vt 0.182927 0.000000
vt 0.195122 1.000000
vt 0.195122 0.000000
vt 0.207317 1.000000
vt 0.207317 0.000000
vt 0.219512 1.000000
vt 0.219512 0.000000
vt 0.231707 1.000000
vt 0.231707 0.000000
vt 0.243902 1.000000
vt 0.243902 0.000000
vt 0.256098 1.000000
vt 0.256098 0.000000
vt 0.268293 1.000000
vt 0.268293 0.000000
vt 0.280488 1.000000
vt 0.280488 0.000000
vt 0.292683 1.000000
vt 0.292683 0.000000
vt 0.304878 1.000000
vt 0.304878 0.000000
vt 0.317073 1.000000
vt 0.317073 0.000000
vt 0.329268 1.000000
vt 0.329268 0.000000
vt 0.341463 1.000000
vt 0.341463 0.000000
vt 0.353659 1.000000
vt 0.353659 0.000000
vt 0.365854 1.000000
vt 0.365854 0.000000
vt 0.378049 1.000000
vt 0.378049 0.000000
vt 0.390244 1.000000
vt 0.390244 0.000000
vt 0.402439 1.000000
vt 0.402439 0.000000
vt 0.414634 1.000000
vt 0.414634 0.000000
vt 0.426829 1.000000
vt 0.426829 0.000000
vt 0.439024 1.000000
vt 0.439024 0.000000
vt 0.451219 1.000000
vt 0.451219 0.000000
vt 0.463415 1.000000
vt 0.463415 0.000000
vt 0.475610 1.000000
vt 0.475610 0.000000
vt 0.487805 1.000000
vt 0.487805 0.000000
vt 0.500000 1.000000
vt 0.512195 1.000000
vt 0.512195 0.000000
vt 0.524390 1.000000
vt 0.524390 0.000000
vt 0.536585 1.000000
vt 0.536585 0.000000
vt 0.548781 1.000000
vt 0.548781 0.000000
vt 0.560976 1.000000
vt 0.560976 0.000000
vt 0.573171 1.000000
vt 0.573171 0.000000
vt 0.585366 1.000000
vt 0.585366 0.000000
vt 0.597561 1.000000
vt 0.597561 0.000000
vt 0.609756 1.000000
vt 0.609756 0.000000
vt 0.621951 1.000000
vt 0.621951 0.000000
vt 0.634146 1.000000
vt 0.634146 0.000000
vt 0.646341 1.000000
vt 0.646341 0.000000
vt 0.658537 1.000000
vt 0.658537 0.000000
vt 0.670732 1.000000
vt 0.670732 0.000000
vt 0.682927 1.000000
vt 0.682927 0.000000
vt 0.695122 1.000000
vt 0.695122 0.000000
vt 0.707317 1.000000
vt 0.707317 0.000000
vt 0.719512 1.000000
vt 0.719512 0.000000
vt 0.731707 1.000000
vt 0.731707 0.000000
vt 0.743902 1.000000
vt 0.743902 0.000000
vt 0.756098 1.000000
vt 0.756098 0.000000
vt 0.768293 1.000000
vt 0.768293 0.000000
vt 0.780488 1.000000
vt 0.780488 0.000000
vt 0.792683 1.000000
vt 0.792683 0.000000
vt 0.804878 1.000000
vt 0.804878 0.000000
vt 0.817073 1.000000
vt 0.817073 0.000000
vt 0.829268 1.000000
vt 0.829268 0.000000
vt 0.841463 1.000000
vt 0.841463 0.000000
vt 0.853659 1.000000
vt 0.853659 0.000000
vt 0.865854 1.000000
vt 0.865854 0.000000
vt 0.878049 1.000000
vt 0.878049 0.000000
vt 0.890244 1.000000
vt 0.890244 0.000000
vt 0.902439 1.000000
vt 0.902439 0.000000
vt 0.914634 1.000000
vt 0.914634 0.000000
vt 0.926829 1.000000
vt 0.926829 0.000000
vt 0.939024 1.000000
vt 0.939024 0.000000
vt 0.951219 1.000000
vt 0.951219 0.000000
vt 0.963415 1.000000
vt 0.963415 0.000000
vt 0.975610 1.000000
vt 0.975610 0.000000
vt 0.987805 1.000000
vt 0.987805 0.000000
vt 1.000000 1.000000
vt 0.017857 1.000000
vt 0.017857 0.000000
vt 0.035714 1.000000
vt 0.035714 0.000000
vt 0.053571 1.000000
vt 0.053571 0.000000
vt 0.071429 1.000000
vt 0.089286 1.000000
vt 0.089286 0.000000
vt 0.107143 1.000000
vt 0.107143 0.000000
vt 0.125000 1.000000
vt 0.125000 0.000000
vt 0.142857 1.000000
vt 0.160714 1.000000
vt 0.160714 0.000000
vt 0.178571 1.000000
vt 0.178571 0.000000
vt 0.196429 1.000000
vt 0.196429 0.000000
vt 0.214286 1.000000
vt 0.232143 1.000000
vt 0.232143 0.000000
vt 0.250000 1.000000
vt 0.250000 0.000000
vt 0.267857 1.000000
vt 0.267857 0.000000
vt 0.285714 1.000000
vt 0.303571 1.000000
vt 0.303571 0.000000
vt 0.321429 1.000000
vt 0.321429 0.000000
vt 0.339286 1.000000
vt 0.339286 0.000000
vt 0.357143 1.000000
vt 0.375000 1.000000
vt 0.375000 0.000000
vt 0.392857 1.000000
vt 0.392857 0.000000
vt 0.410714 1.000000
vt 0.410714 0.000000
vt 0.428571 1.000000
vt 0.446429 1.000000
vt 0.446429 0.000000
vt 0.464286 1.000000
vt 0.464286 0.000000
vt 0.482143 1.000000
vt 0.482143 0.000000
vt 0.517857 1.000000
vt 0.517857 0.000000
vt 0.535714 1.000000
vt 0.535714 0.000000
vt 0.553571 1.000000
vt 0.553571 0.000000
vt 0.571429 1.000000
vt 0.589286 1.000000
vt 0.589286 0.000000
vt 0.607143 1.000000
vt 0.607143 0.000000
vt 0.625000 1.000000
vt 0.625000 0.000000
vt 0.642857 1.000000
vt 0.660714 1.000000
vt 0.660714 0.000000
vt 0.678571 1.000000
vt 0.678571 0.000000
vt 0.696429 1.000000
vt 0.696429 0.000000
vt 0.714286 1.000000
vt 0.732143 1.000000
vt 0.732143 0.000000
vt 0.750000 1.000000
vt 0.750000 0.000000
vt 0.767857 1.000000
vt 0.767857 0.000000
vt 0.785714 1.000000
vt 0.803571 1.000000
vt 0.803571 0.000000
vt 0.821429 1.000000
vt 0.821429 0.000000
vt 0.839286 1.000000
vt 0.839286 0.000000
vt 0.857143 1.000000
vt 0.875000 1.000000
vt 0.875000 0.000000
vt 0.892857 1.000000
vt 0.892857 0.000000
vt 0.910714 1.000000
vt 0.910714 0.000000
vt 0.928571 1.000000
vt 0.946429 1.000000
vt 0.946429 0.000000
vt 0.964286 1.000000
vt 0.964286 0.000000
vt 0.982143 1.000000
vt 0.982143 0.000000
vt 0.066667 1.000000
vt 0.066667 0.000000
vt 0.133333 1.000000
vt 0.133333 0.000000
vt 0.200000 1.000000
vt 0.200000 0.000000
vt 0.266667 1.000000
vt 0.266667 0.000000
vt 0.333333 1.000000
vt 0.400000 1.000000
vt 0.400000 0.000000
vt 0.466667 1.000000
vt 0.466667 0.000000
vt 0.533333 1.000000
vt 0.533333 0.000000
vt 0.600000 1.000000
vt 0.600000 0.000000
vt 0.666667 1.000000
vt 0.733333 1.000000
vt 0.733333 0.000000
vt 0.800000 1.000000
vt 0.800000 0.000000
vt 0.866667 1.000000
vt 0.866667 0.000000
vt 0.933333 1.000000
vt 0.933333 0.000000
vt 0.083333 1.000000
vt 0.083333 0.000000
vt 0.166667 1.000000
vt 0.166667 0.000000
vt 0.416667 1.000000
vt 0.416667 0.000000
vt 0.583333 1.000000
vt 0.583333 0.000000
vt 0.833333 1.000000
vt 0.833333 0.000000
vt 0.916667 1.000000
vt 0.916667 0.000000
vt 0.100000 1.000000
vt 0.100000 0.000000
vt 0.300000 1.000000
vt 0.300000 0.000000
vt 0.700000 1.000000
vt 0.700000 0.000000
vt 0.900000 1.000000
vt 0.900000 0.000000
s 0
usemtl Material.001
f 6/1/1 8/2/1 7/3/1
f 6/1/1 4/4/1 8/2/1
f 4/4/1 9/5/1 8/2/1
f 9/5/1 1/6/1 10/7/1
f 9/5/1 2/8/1 1/6/1
f 6/1/1 5/9/1 4/4/1
f 3/10/1 9/5/1 4/4/1
f 3/10/1 2/8/1 9/5/1
f 17/11/1 21/12/1 18/13/1
f 21/12/1 19/14/1 18/13/1
f 21/12/1 20/15/1 19/14/1
f 17/11/1 22/7/1 21/12/1
f 17/11/1 13/16/1 22/7/1
f 13/16/1 11/6/1 22/7/1
f 13/16/1 12/17/1 11/6/1
f 17/11/1 14/18/1 13/16/1
f 17/11/1 15/19/1 14/18/1
f 17/11/1 16/20/1 15/19/1
f 37/7/1 34/21/1 23/6/1
f 34/21/1 24/22/1 23/6/1
f 34/21/1 25/23/1 24/22/1
f 25/23/1 27/24/1 26/25/1
f 25/23/1 31/26/1 27/24/1
f 31/26/1 28/27/1 27/24/1
f 37/7/1 35/28/1 34/21/1
f 33/29/1 25/23/1 34/21/1
f 25/23/1 32/30/1 31/26/1
f 30/31/1 28/27/1 31/26/1
f 33/29/1 32/30/1 25/23/1
f 37/7/1 36/32/1 35/28/1
f 29/33/1 28/27/1 30/31/1
f 40/3/1 38/6/1 41/7/1
f 40/3/1 39/4/1 38/6/1
f 43/34/1 125/35/1 44/36/1
f 125/35/1 45/37/1 44/36/1
f 125/35/1 46/38/1 45/37/1
f 125/35/1 47/39/1 46/38/1
f 125/35/1 48/40/1 47/39/1
f 125/35/1 49/41/1 48/40/1
f 125/35/1 50/42/1 49/41/1
f 125/35/1 51/43/1 50/42/1
f 125/35/1 52/44/1 51/43/1
f 125/35/1 53/45/1 52/44/1
f 125/35/1 54/46/1 53/45/1
f 125/35/1 55/47/1 54/46/1
f 125/35/1 56/48/1 55/47/1
f 125/35/1 57/49/1 56/48/1
f 125/35/1 58/50/1 57/49/1
f 125/35/1 59/51/1 58/50/1
f 125/35/1 60/52/1 59/51/1
f 125/35/1 61/53/1 60/52/1
f 125/35/1 62/54/1 61/53/1
f 125/35/1 63/55/1 62/54/1
f 125/35/1 64/56/1 63/55/1
f 125/35/1 65/57/1 64/56/1
f 125/35/1 66/58/1 65/57/1
f 125/35/1 67/59/1 66/58/1
f 125/35/1 68/60/1 67/59/1
f 125/35/1 124/61/1 68/60/1
f 124/61/1 179/7/1 68/60/1
f 179/7/1 69/62/1 68/60/1
f 43/34/1 126/63/1 125/35/1
f 178/64/1 69/62/1 179/7/1
f 177/65/1 69/62/1 178/64/1
f 176/66/1 69/62/1 177/65/1
f 175/67/1 69/62/1 176/66/1
f 174/68/1 69/62/1 175/67/1
f 174/68/1 70/69/1 69/62/1
f 173/70/1 70/69/1 174/68/1
f 172/71/1 70/69/1 173/70/1
f 172/71/1 71/72/1 70/69/1
f 171/73/1 71/72/1 172/71/1
f 170/74/1 71/72/1 171/73/1
f 169/75/1 71/72/1 170/74/1
f 169/75/1 72/76/1 71/72/1
f 168/77/1 72/76/1 169/75/1
f 168/77/1 73/78/1 72/76/1
f 167/79/1 73/78/1 168/77/1
f 166/80/1 73/78/1 167/79/1
f 166/80/1 74/81/1 73/78/1
f 165/82/1 74/81/1 166/80/1
f 165/82/1 75/83/1 74/81/1
f 164/84/1 75/83/1 165/82/1
f 163/85/1 75/83/1 164/84/1
f 163/85/1 76/86/1 75/83/1
f 162/87/1 76/86/1 163/85/1
f 162/87/1 77/88/1 76/86/1
f 161/89/1 77/88/1 162/87/1
f 161/89/1 78/90/1 77/88/1
f 160/91/1 78/90/1 161/89/1
f 160/91/1 79/92/1 78/90/1
f 159/93/1 79/92/1 160/91/1
f 159/93/1 80/94/1 79/92/1
f 158/95/1 80/94/1 159/93/1
f 158/95/1 81/96/1 80/94/1
f 157/97/1 81/96/1 158/95/1
f 157/97/1 82/98/1 81/96/1
f 156/99/1 82/98/1 157/97/1
f 156/99/1 83/100/1 82/98/1
f 155/101/1 83/100/1 156/99/1
f 155/101/1 84/102/1 83/100/1
f 154/103/1 84/102/1 155/101/1
f 154/103/1 85/104/1 84/102/1
f 153/105/1 85/104/1 154/103/1
f 152/106/1 85/104/1 153/105/1
f 152/106/1 86/107/1 85/104/1
f 152/106/1 87/108/1 86/107/1
f 151/109/1 87/108/1 152/106/1
f 151/109/1 88/110/1 87/108/1
f 150/111/1 88/110/1 151/109/1
f 150/111/1 89/112/1 88/110/1
f 149/113/1 89/112/1 150/111/1
f 149/113/1 90/114/1 89/112/1
f 148/115/1 90/114/1 149/113/1
f 147/116/1 90/114/1 148/115/1
f 147/116/1 91/117/1 90/114/1
f 146/118/1 91/117/1 147/116/1
f 146/118/1 92/119/1 91/117/1
f 145/120/1 92/119/1 146/118/1
f 145/120/1 93/121/1 92/119/1
f 144/122/1 93/121/1 145/120/1
f 144/122/1 94/123/1 93/121/1
f 143/124/1 94/123/1 144/122/1
f 143/124/1 95/125/1 94/123/1
f 142/126/1 95/125/1 143/124/1
f 142/126/1 96/127/1 95/125/1
f 141/128/1 96/127/1 142/126/1
f 140/129/1 96/127/1 141/128/1
f 140/129/1 97/130/1 96/127/1
f 139/131/1 97/130/1 140/129/1
f 139/131/1 98/132/1 97/130/1
f 138/133/1 98/132/1 139/131/1
f 137/134/1 98/132/1 138/133/1
f 137/134/1 99/135/1 98/132/1
f 136/136/1 99/135/1 137/134/1
f 135/137/1 99/135/1 136/136/1
f 135/137/1 100/138/1 99/135/1
f 134/139/1 100/138/1 135/137/1
f 133/140/1 100/138/1 134/139/1
f 132/141/1 100/138/1 133/140/1
f 132/141/1 101/142/1 100/138/1
f 131/143/1 101/142/1 132/141/1
f 130/144/1 101/142/1 131/143/1
f 129/145/1 101/142/1 130/144/1
f 128/146/1 101/142/1 129/145/1
f 127/147/1 101/142/1 128/146/1
f 43/34/1 127/147/1 126/63/1
f 43/34/1 101/142/1 127/147/1
f 43/34/1 102/148/1 101/142/1
f 43/34/1 103/149/1 102/148/1
f 43/34/1 104/150/1 103/149/1
f 43/34/1 105/151/1 104/150/1
f 43/34/1 106/152/1 105/151/1
f 43/34/1 107/153/1 106/152/1
f 43/34/1 108/154/1 107/153/1
f 43/34/1 109/155/1 108/154/1
f 43/34/1 110/156/1 109/155/1
f 43/34/1 111/157/1 110/156/1
f 43/34/1 112/158/1 111/157/1
f 43/34/1 113/159/1 112/158/1
f 43/34/1 114/160/1 113/159/1
f 43/34/1 115/161/1 114/160/1
f 43/34/1 116/162/1 115/161/1
f 43/34/1 117/163/1 116/162/1
f 43/34/1 118/164/1 117/163/1
f 43/34/1 119/165/1 118/164/1
f 43/34/1 120/166/1 119/165/1
f 43/34/1 121/167/1 120/166/1
f 43/34/1 122/168/1 121/167/1
f 43/34/1 123/169/1 122/168/1
f 43/34/1 42/6/1 123/169/1
f 185/1/2 186/3/2 187/2/2
f 185/1/2 187/2/2 183/4/2
f 183/4/2 187/2/2 188/5/2
f 188/5/2 189/7/2 180/6/2
f 188/5/2 180/6/2 181/8/2
f 185/1/2 183/4/2 184/9/2
f 182/10/2 183/4/2 188/5/2
f 182/10/2 188/5/2 181/8/2
f 196/11/2 197/13/2 200/12/2
f 200/12/2 197/13/2 198/14/2
f 200/12/2 198/14/2 199/15/2
f 196/11/2 200/12/2 201/7/2
f 196/11/2 201/7/2 192/16/2
f 192/16/2 201/7/2 190/6/2
f 192/16/2 190/6/2 191/17/2
f 196/11/2 192/16/2 193/18/2
f 196/11/2 193/18/2 194/19/2
f 196/11/2 194/19/2 195/20/2
f 216/7/2 202/6/2 213/21/2
f 213/21/2 202/6/2 203/22/2
f 213/21/2 203/22/2 204/23/2
f 204/23/2 205/25/2 206/24/2
f 204/23/2 206/24/2 210/26/2
f 210/26/2 206/24/2 207/27/2
f 216/7/2 213/21/2 214/28/2
f 212/29/2 213/21/2 204/23/2
f 204/23/2 210/26/2 211/30/2
f 209/31/2 210/26/2 207/27/2
f 212/29/2 204/23/2 211/30/2
f 216/7/2 214/28/2 215/32/2
f 208/33/2 209/31/2 207/27/2
f 219/3/2 220/7/2 217/6/2
f 219/3/2 217/6/2 218/4/2
f 222/34/2 223/36/2 304/35/2
f 304/35/2 223/36/2 224/37/2
f 304/35/2 224/37/2 225/38/2
f 304/35/2 225/38/2 226/39/2
f 304/35/2 226/39/2 227/40/2
f 304/35/2 227/40/2 228/41/2
f 304/35/2 228/41/2 229/42/2
f 304/35/2 229/42/2 230/43/2
f 304/35/2 230/43/2 231/44/2
f 304/35/2 231/44/2 232/45/2
f 304/35/2 232/45/2 233/46/2
f 304/35/2 233/46/2 234/47/2
f 304/35/2 234/47/2 235/48/2
f 304/35/2 235/48/2 236/49/2
f 304/35/2 236/49/2 237/50/2
f 304/35/2 237/50/2 238/51/2
f 304/35/2 238/51/2 239/52/2
f 304/35/2 239/52/2 240/53/2
f 304/35/2 240/53/2 241/54/2
f 304/35/2 241/54/2 242/55/2
f 304/35/2 242/55/2 243/56/2
f 304/35/2 243/56/2 244/57/2
f 304/35/2 244/57/2 245/58/2
f 304/35/2 245/58/2 246/59/2
f 304/35/2 246/59/2 247/60/2
f 304/35/2 247/60/2 303/61/2
f 303/61/2 247/60/2 358/7/2
f 358/7/2 247/60/2 248/62/2
f 222/34/2 304/35/2 305/63/2
f 357/64/2 358/7/2 248/62/2
f 356/65/2 357/64/2 248/62/2
f 355/66/2 356/65/2 248/62/2
f 354/67/2 355/66/2 248/62/2
f 353/68/2 354/67/2 248/62/2
f 353/68/2 248/62/2 249/69/2
f 352/70/2 353/68/2 249/69/2
f 351/71/2 352/70/2 249/69/2
f 351/71/2 249/69/2 250/72/2
f 350/73/2 351/71/2 250/72/2
f 349/74/2 350/73/2 250/72/2
f 348/75/2 349/74/2 250/72/2
f 348/75/2 250/72/2 251/76/2
f 347/77/2 348/75/2 251/76/2
f 347/77/2 251/76/2 252/78/2
f 346/79/2 347/77/2 252/78/2
f 345/80/2 346/79/2 252/78/2
f 345/80/2 252/78/2 253/81/2
f 344/82/2 345/80/2 253/81/2
f 344/82/2 253/81/2 254/83/2
f 343/84/2 344/82/2 254/83/2
f 342/85/2 343/84/2 254/83/2
f 342/85/2 254/83/2 255/86/2
f 341/87/2 342/85/2 255/86/2
f 341/87/2 255/86/2 256/88/2
f 340/89/2 341/87/2 256/88/2
f 340/89/2 256/88/2 257/90/2
f 339/91/2 340/89/2 257/90/2
f 339/91/2 257/90/2 258/92/2
f 338/93/2 339/91/2 258/92/2
f 338/93/2 258/92/2 259/94/2
f 337/95/2 338/93/2 259/94/2
f 337/95/2 259/94/2 260/96/2
f 336/97/2 337/95/2 260/96/2
f 336/97/2 260/96/2 261/98/2
f 335/99/2 336/97/2 261/98/2
f 335/99/2 261/98/2 262/100/2
f 334/101/2 335/99/2 262/100/2
f 334/101/2 262/100/2 263/102/2
f 333/103/2 334/101/2 263/102/2
f 333/103/2 263/102/2 264/104/2
f 332/105/2 333/103/2 264/104/2
f 331/106/2 332/105/2 264/104/2
f 331/106/2 264/104/2 265/107/2
f 331/106/2 265/107/2 266/108/2
f 330/109/2 331/106/2 266/108/2
f 330/109/2 266/108/2 267/110/2
f 329/111/2 330/109/2 267/110/2
f 329/111/2 267/110/2 268/112/2
f 328/113/2 329/111/2 268/112/2
f 328/113/2 268/112/2 269/114/2
f 327/115/2 328/113/2 269/114/2
f 326/116/2 327/115/2 269/114/2
f 326/116/2 269/114/2 270/117/2
f 325/118/2 326/116/2 270/117/2
f 325/118/2 270/117/2 271/119/2
f 324/120/2 325/118/2 271/119/2
f 324/120/2 271/119/2 272/121/2
f 323/122/2 324/120/2 272/121/2
f 323/122/2 272/121/2 273/123/2
f 322/124/2 323/122/2 273/123/2
f 322/124/2 273/123/2 274/125/2
f 321/126/2 322/124/2 274/125/2
f 321/126/2 274/125/2 275/127/2
f 320/128/2 321/126/2 275/127/2
f 319/129/2 320/128/2 275/127/2
f 319/129/2 275/127/2 276/130/2
f 318/131/2 319/129/2 276/130/2
f 318/131/2 276/130/2 277/132/2
f 317/133/2 318/131/2 277/132/2
f 316/134/2 317/133/2 277/132/2
f 316/134/2 277/132/2 278/135/2
f 315/136/2 316/134/2 278/135/2
f 314/137/2 315/136/2 278/135/2
f 314/137/2 278/135/2 279/138/2
f 313/139/2 314/137/2 279/138/2
f 312/140/2 313/139/2 279/138/2
f 311/141/2 312/140/2 279/138/2
f 311/141/2 279/138/2 280/142/2
f 310/143/2 311/141/2 280/142/2
f 309/144/2 310/143/2 280/142/2
f 308/145/2 309/144/2 280/142/2
f 307/146/2 308/145/2 280/142/2
f 306/147/2 307/146/2 280/142/2
f 222/34/2 305/63/2 306/147/2
f 222/34/2 306/147/2 280/142/2
f 222/34/2 280/142/2 281/148/2
f 222/34/2 281/148/2 282/149/2
f 222/34/2 282/149/2 283/150/2
f 222/34/2 283/150/2 284/151/2
f 222/34/2 284/151/2 285/152/2
f 222/34/2 285/152/2 286/153/2
f 222/34/2 286/153/2 287/154/2
f 222/34/2 287/154/2 288/155/2
f 222/34/2 288/155/2 289/156/2
f 222/34/2 289/156/2 290/157/2
f 222/34/2 290/157/2 291/158/2
f 222/34/2 291/158/2 292/159/2
f 222/34/2 292/159/2 293/160/2
f 222/34/2 293/160/2 294/161/2
f 222/34/2 294/161/2 295/162/2
f 222/34/2 295/162/2 296/163/2
f 222/34/2 296/163/2 297/164/2
f 222/34/2 297/164/2 298/165/2
f 222/34/2 298/165/2 299/166/2
f 222/34/2 299/166/2 300/167/2
f 222/34/2 300/167/2 301/168/2
f 222/34/2 301/168/2 302/169/2
f 222/34/2 302/169/2 221/6/2
s 1
f 360/170/3 362/171/4 361/172/4 359/6/3
f 362/171/4 364/173/5 363/174/5 361/172/4
f 364/173/5 366/175/6 365/176/6 363/174/5
f 366/175/6 368/177/7 367/178/7 365/176/6
f 368/177/7 370/179/8 369/180/8 367/178/7
f 370/179/8 372/181/9 371/182/9 369/180/8
f 372/181/9 374/183/10 373/184/10 371/182/9
f 374/183/10 376/185/11 375/186/11 373/184/10
f 376/185/11 378/187/12 377/188/12 375/186/11
f 378/187/12 380/189/13 379/190/13 377/188/12
f 380/189/13 382/191/14 381/192/14 379/190/13
f 382/191/14 384/193/15 383/194/15 381/192/14
f 384/193/15 386/195/16 385/196/16 383/194/15
f 386/195/16 388/197/17 387/198/17 385/196/16
f 388/197/17 390/199/18 389/200/18 387/198/17
f 390/199/18 392/201/19 391/202/19 389/200/18
f 392/201/19 394/203/20 393/204/20 391/202/19
f 394/203/20 396/205/21 395/206/21 393/204/20
f 396/205/21 398/207/22 397/208/22 395/206/21
f 398/207/22 400/209/23 399/210/23 397/208/22
f 400/209/23 402/211/24 401/212/24 399/210/23
f 402/211/24 404/213/25 403/214/25 401/212/24
f 404/213/25 406/215/26 405/216/26 403/214/25
f 406/215/26 408/217/27 407/218/27 405/216/26
f 408/217/27 410/219/28 409/220/28 407/218/27
f 410/219/28 412/221/29 411/222/29 409/220/28
f 412/221/29 414/223/30 413/224/30 411/222/29
f 414/223/30 416/225/31 415/226/31 413/224/30
f 416/225/31 418/227/32 417/228/32 415/226/31
f 418/227/32 420/229/33 419/230/33 417/228/32
f 420/229/33 422/231/34 421/232/34 419/230/33
f 422/231/34 424/233/35 423/234/35 421/232/34
f 424/233/35 426/235/36 425/236/36 423/234/35
f 426/235/36 428/237/37 427/238/37 425/236/36
f 428/237/37 430/239/38 429/240/38 427/238/37
f 430/239/38 432/241/39 431/242/39 429/240/38
f 432/241/39 434/243/40 433/244/40 431/242/39
f 434/243/40 436/245/41 435/246/41 433/244/40
f 436/245/41 438/247/42 437/248/42 435/246/41
f 438/247/42 440/249/43 439/250/43 437/248/42
f 440/249/43 442/251/44 441/31/44 439/250/43
f 442/251/44 444/252/45 443/253/45 441/31/44
f 444/252/45 446/254/46 445/255/46 443/253/45
f 446/254/46 448/256/47 447/257/47 445/255/46
f 448/256/47 450/258/48 449/259/48 447/257/47
f 450/258/48 452/260/49 451/261/49 449/259/48
f 452/260/49 454/262/50 453/263/50 451/261/49
f 454/262/50 456/264/51 455/265/51 453/263/50
f 456/264/51 458/266/52 457/267/52 455/265/51
f 458/266/52 460/268/53 459/269/53 457/267/52
f 460/268/53 462/270/54 461/271/54 459/269/53
f 462/270/54 464/272/55 463/273/55 461/271/54
f 464/272/55 466/274/56 465/275/56 463/273/55
f 466/274/56 468/276/57 467/277/57 465/275/56
f 468/276/57 470/278/58 469/279/58 467/277/57
f 470/278/58 472/280/59 471/281/59 469/279/58
f 472/280/59 474/282/60 473/283/60 471/281/59
f 474/282/60 476/284/61 475/285/61 473/283/60
f 476/284/61 478/286/62 477/287/62 475/285/61
f 478/286/62 480/288/63 479/289/63 477/287/62
f 480/288/63 482/290/64 481/291/64 479/289/63
f 482/290/64 484/292/65 483/293/65 481/291/64
f 484/292/65 486/294/66 485/295/66 483/293/65
f 486/294/66 488/296/67 487/297/67 485/295/66
f 488/296/67 490/298/68 489/299/68 487/297/67
f 490/298/68 492/300/69 491/301/69 489/299/68
f 492/300/69 494/302/70 493/303/70 491/301/69
f 494/302/70 496/304/71 495/305/71 493/303/70
f 496/304/71 498/306/72 497/307/72 495/305/71
f 498/306/72 500/308/73 499/309/73 497/307/72
f 500/308/73 502/310/74 501/311/74 499/309/73
f 502/310/74 504/312/75 503/313/75 501/311/74
f 504/312/75 506/314/76 505/315/76 503/313/75
f 506/314/76 508/316/77 507/317/77 505/315/76
f 508/316/77 510/318/78 509/319/78 507/317/77
f 510/318/78 512/320/79 511/321/79 509/319/78
f 512/320/79 514/322/80 513/323/80 511/321/79
f 514/322/80 516/324/81 515/325/81 513/323/80
f 516/324/81 518/326/82 517/327/82 515/325/81
f 518/326/82 520/328/83 519/329/83 517/327/82
f 520/328/83 522/330/84 521/331/84 519/329/83
f 522/330/84 360/332/3 359/7/3 521/331/84
f 524/170/85 526/333/86 525/334/86 523/6/85
f 526/333/86 528/335/87 527/336/87 525/334/86
f 528/335/87 530/337/88 529/338/88 527/336/87
f 530/337/88 532/339/89 531/22/89 529/338/88
f 532/339/89 534/340/90 533/341/90 531/22/89
f 534/340/90 536/342/91 535/343/91 533/341/90
f 536/342/91 538/344/92 537/345/92 535/343/91
f 538/344/92 540/346/93 539/23/93 537/345/92
f 540/346/93 542/347/94 541/348/94 539/23/93
f 542/347/94 544/349/95 543/350/95 541/348/94
f 544/349/95 546/351/96 545/352/96 543/350/95
f 546/351/96 548/353/97 547/25/97 545/352/96
f 548/353/97 550/354/98 549/355/98 547/25/97
f 550/354/98 552/356/99 551/357/99 549/355/98
f 552/356/99 554/358/100 553/359/100 551/357/99
f 554/358/100 556/360/101 555/24/101 553/359/100
f 556/360/101 558/361/102 557/362/102 555/24/101
f 558/361/102 560/363/103 559/364/103 557/362/102
f 560/363/103 562/365/104 561/366/104 559/364/103
f 562/365/104 564/367/105 563/27/105 561/366/104
f 564/367/105 566/368/106 565/369/106 563/27/105
f 566/368/106 568/370/107 567/371/107 565/369/106
f 568/370/107 570/372/108 569/373/108 567/371/107
f 570/372/108 572/374/109 571/33/109 569/373/108
f 572/374/109 574/375/110 573/376/110 571/33/109
f 574/375/110 576/377/111 575/378/111 573/376/110
f 576/377/111 578/379/112 577/380/112 575/378/111
f 578/379/112 580/251/113 579/31/113 577/380/112
f 580/251/113 582/381/114 581/382/114 579/31/113
f 582/381/114 584/383/115 583/384/115 581/382/114
f 584/383/115 586/385/116 585/386/116 583/384/115
f 586/385/116 588/387/117 587/26/117 585/386/116
f 588/387/117 590/388/118 589/389/118 587/26/117
f 590/388/118 592/390/119 591/391/119 589/389/118
f 592/390/119 594/392/120 593/393/120 591/391/119
f 594/392/120 596/394/121 595/30/121 593/393/120
f 596/394/121 598/395/122 597/396/122 595/30/121
f 598/395/122 600/397/123 599/398/123 597/396/122
f 600/397/123 602/399/124 601/400/124 599/398/123
f 602/399/124 604/401/125 603/29/125 601/400/124
f 604/401/125 606/402/126 605/403/126 603/29/125
f 606/402/126 608/404/127 607/405/127 605/403/126
f 608/404/127 610/406/128 609/407/128 607/405/127
f 610/406/128 612/408/129 611/21/129 609/407/128
f 612/408/129 614/409/130 613/410/130 611/21/129
f 614/409/130 616/411/131 615/412/131 613/410/130
f 616/411/131 618/413/132 617/414/132 615/412/131
f 618/413/132 620/415/133 619/28/133 617/414/132
f 620/415/133 622/416/134 621/417/134 619/28/133
f 622/416/134 624/418/135 623/419/135 621/417/134
f 624/418/135 626/420/136 625/421/136 623/419/135
f 626/420/136 628/422/137 627/32/137 625/421/136
f 628/422/137 630/423/138 629/424/138 627/32/137
f 630/423/138 632/425/139 631/426/139 629/424/138
f 632/425/139 634/427/140 633/428/140 631/426/139
f 634/427/140 524/332/85 523/7/85 633/428/140
f 636/170/87 638/356/86 637/357/86 635/6/87
f 638/356/86 640/251/4 639/31/4 637/357/86
f 640/251/4 642/404/5 641/405/5 639/31/4
f 642/404/5 636/332/87 635/7/87 641/405/5
f 644/170/5 646/429/141 645/430/141 643/6/5
f 646/429/141 648/431/142 647/432/142 645/430/141
f 648/431/142 650/433/143 649/434/143 647/432/142
f 650/433/143 652/435/87 651/436/87 649/434/143
f 652/435/87 654/437/86 653/4/86 651/436/87
f 654/437/86 656/438/4 655/439/4 653/4/86
f 656/438/4 658/440/144 657/441/144 655/439/4
f 658/440/144 660/442/145 659/443/145 657/441/144
f 660/442/145 662/444/146 661/445/146 659/443/145
f 662/444/146 664/446/147 663/3/147 661/445/146
f 664/446/147 666/447/148 665/448/148 663/3/147
f 666/447/148 668/449/149 667/450/149 665/448/148
f 668/449/149 670/451/86 669/452/86 667/450/149
f 670/451/86 672/453/4 671/454/4 669/452/86
f 672/453/4 644/332/5 643/7/5 671/454/4
f 674/170/87 676/455/86 675/456/86 673/6/87
f 676/455/86 678/457/86 677/458/86 675/456/86
f 678/457/86 680/356/87 679/357/87 677/458/86
f 680/356/87 682/437/87 681/4/87 679/357/87
f 682/437/87 684/459/86 683/460/86 681/4/87
f 684/459/86 686/251/4 685/31/4 683/460/86
f 686/251/4 688/461/5 687/462/5 685/31/4
f 688/461/5 690/446/87 689/3/87 687/462/5
f 690/446/87 692/404/86 691/405/86 689/3/87
f 692/404/86 694/463/86 693/464/86 691/405/86
f 694/463/86 696/465/87 695/466/87 693/464/86
f 696/465/87 674/332/87 673/7/87 695/466/87
f 698/170/87 700/467/86 699/468/86 697/6/87
f 700/467/86 702/433/150 701/434/150 699/468/86
f 702/433/150 704/469/151 703/470/151 701/434/150
f 704/469/151 706/438/86 705/439/86 703/470/151
f 706/438/86 708/251/4 707/31/4 705/439/86
f 708/251/4 710/444/5 709/445/5 707/31/4
f 710/444/5 712/471/152 711/472/152 709/445/5
f 712/471/152 714/449/153 713/450/153 711/472/152
f 714/449/153 716/473/5 715/474/5 713/450/153
f 716/473/5 698/332/87 697/7/87 715/474/5
