# Blender 4.3.2
# www.blender.org
mtllib closeddoor.mtl
o frame_door1_0
v 0.486618 -0.722475 0.042161
v 0.467299 -0.722475 0.047338
v 0.481441 -0.722475 0.061480
v 0.486618 -0.839570 0.042161
v 0.481441 -0.839570 0.061480
v 0.467299 -0.839570 0.047338
v 0.462123 -0.722475 0.066656
v 0.462123 -0.839570 0.066656
v 0.447981 -0.722475 0.052514
v 0.447981 -0.839570 0.052514
v 0.453157 -0.722475 0.033195
v 0.453157 -0.839570 0.033195
v 0.472475 -0.722475 0.028019
v 0.472475 -0.839570 0.028019
v 0.486618 0.395317 0.042161
v 0.467299 0.395317 0.047338
v 0.481441 0.395317 0.061480
v 0.486618 0.278223 0.042161
v 0.481441 0.278223 0.061480
v 0.467299 0.278223 0.047338
v 0.462123 0.395317 0.066656
v 0.462123 0.278223 0.066656
v 0.447981 0.395317 0.052514
v 0.447981 0.278223 0.052514
v 0.453157 0.395317 0.033195
v 0.453157 0.278223 0.033195
v 0.472475 0.395317 0.028019
v 0.472475 0.278223 0.028019
v -0.485385 0.985957 -0.040000
v -0.475385 0.975957 -0.030000
v -0.475385 -1.083051 -0.030000
v -0.485385 -1.083051 -0.040000
v -0.475385 0.975957 0.030000
v -0.485385 0.985957 0.040000
v -0.485385 -1.083051 0.040000
v -0.475385 -1.083051 0.030000
v 0.538158 1.038824 -0.150000
v 0.528205 1.028777 -0.140000
v -0.528205 1.028777 -0.140000
v -0.538158 1.038824 -0.150000
v -0.538158 1.038824 -0.150000
v -0.528205 1.028777 -0.140000
v -0.528205 -1.083051 -0.140000
v -0.538205 -1.083051 -0.150000
v 0.538205 -1.083051 -0.150000
v 0.528205 -1.083051 -0.140000
v 0.528205 1.028777 -0.140000
v 0.538158 1.038824 -0.150000
v -0.538158 1.038824 0.150000
v -0.528205 1.028777 0.140000
v 0.528205 1.028777 0.140000
v 0.538158 1.038824 0.150000
v 0.538158 1.038824 0.150000
v 0.528205 1.028777 0.140000
v 0.528205 -1.083051 0.140000
v 0.538205 -1.083051 0.150000
v -0.538205 -1.083051 0.150000
v -0.528205 -1.083051 0.140000
v -0.528205 1.028777 0.140000
v -0.538158 1.038824 0.150000
v 0.485384 -1.083051 0.040000
v 0.528205 -1.083051 0.040000
v 0.528205 1.028777 0.040000
v 0.485384 0.985957 0.040000
v -0.485385 0.985957 -0.040000
v -0.528205 1.028777 -0.040000
v 0.528205 1.028777 -0.040000
v 0.485384 0.985957 -0.040000
v 0.485384 0.985957 0.040000
v 0.528205 1.028777 0.040000
v -0.528205 1.028777 0.040000
v -0.485385 0.985957 0.040000
v -0.485385 -1.083051 -0.040000
v -0.528205 -1.083051 -0.040000
v -0.528205 1.028777 -0.040000
v -0.485385 0.985957 -0.040000
v -0.485385 0.985957 0.040000
v -0.528205 1.028777 0.040000
v -0.528205 -1.083051 0.040000
v -0.485385 -1.083051 0.040000
v 0.485384 0.985957 -0.040000
v 0.528205 1.028777 -0.040000
v 0.528205 -1.083051 -0.040000
v 0.485384 -1.083051 -0.040000
v 0.475384 -1.083051 -0.030000
v 0.475384 -1.083051 0.030000
v 0.475384 0.975957 0.030000
v 0.475384 0.975957 -0.030000
v 0.475384 0.975957 -0.030000
v 0.475384 0.975957 0.030000
v -0.475385 0.975957 0.030000
v -0.475385 0.975957 -0.030000
v -0.475385 0.975957 -0.030000
v -0.475385 0.975957 0.030000
v -0.475385 -1.083051 0.030000
v -0.475385 -1.083051 -0.030000
v 0.528205 -1.083051 0.040000
v 0.528205 -1.083051 0.140000
v 0.528205 1.028777 0.140000
v 0.528205 1.028777 0.040000
v 0.528205 1.028777 0.040000
v 0.528205 1.028777 0.140000
v -0.528205 1.028777 0.140000
v -0.528205 1.028777 0.040000
v -0.528205 1.028777 0.040000
v -0.528205 1.028777 0.140000
v -0.528205 -1.083051 0.140000
v -0.528205 -1.083051 0.040000
v 0.528205 1.028777 -0.040000
v 0.528205 1.028777 -0.140000
v 0.528205 -1.083051 -0.140000
v 0.528205 -1.083051 -0.040000
v -0.528205 1.028777 -0.040000
v -0.528205 -1.083051 -0.040000
v -0.528205 -1.083051 -0.140000
v -0.528205 1.028777 -0.140000
v 0.528205 1.028777 -0.140000
v 0.528205 1.028777 -0.040000
v -0.528205 1.028777 -0.040000
v -0.528205 1.028777 -0.140000
v 0.633846 1.135411 0.150000
v 0.633846 1.135411 -0.150000
v -0.633846 1.135411 -0.150000
v -0.633846 1.135411 0.150000
v -0.633846 -1.083051 0.150000
v -0.633846 1.135411 0.150000
v -0.633846 1.135411 -0.150000
v -0.633846 -1.083051 -0.150000
v 0.633846 -1.083051 -0.150000
v 0.633846 1.135411 -0.150000
v 0.633846 1.135411 0.150000
v 0.633846 -1.083051 0.150000
v 0.538158 1.038824 -0.150000
v -0.538158 1.038824 -0.150000
v -0.633846 1.135411 -0.150000
v 0.633846 1.135411 -0.150000
v -0.538158 1.038824 -0.150000
v -0.538205 -1.083051 -0.150000
v -0.633846 -1.083051 -0.150000
v -0.633846 1.135411 -0.150000
v 0.633846 1.135411 -0.150000
v 0.633846 -1.083051 -0.150000
v 0.538205 -1.083051 -0.150000
v 0.538158 1.038824 -0.150000
v -0.538158 1.038824 0.150000
v 0.538158 1.038824 0.150000
v 0.633846 1.135411 0.150000
v -0.633846 1.135411 0.150000
v 0.538158 1.038824 0.150000
v 0.538205 -1.083051 0.150000
v 0.633846 -1.083051 0.150000
v 0.633846 1.135411 0.150000
v -0.633846 1.135411 0.150000
v -0.633846 -1.083051 0.150000
v -0.538205 -1.083051 0.150000
v -0.538158 1.038824 0.150000
v 0.465384 -0.739765 0.034142
v 0.475384 -0.739765 0.030000
v 0.475384 -0.739765 -0.005052
v 0.465384 -0.739765 -0.005052
v 0.465384 -0.739765 -0.005052
v 0.475384 -0.739765 -0.005052
v 0.475384 -0.816172 -0.005052
v 0.465384 -0.816172 -0.005052
v 0.465384 -0.816172 -0.005052
v 0.475384 -0.816172 -0.005052
v 0.475384 -0.816172 0.030000
v 0.465384 -0.816172 0.034142
v 0.481242 -0.739765 0.050000
v 0.485384 -0.739765 0.040000
v 0.485384 -0.816172 0.040000
v 0.481242 -0.816172 0.050000
v 0.528205 -0.816172 0.050000
v 0.528205 -0.816172 0.040000
v 0.528205 -0.739765 0.040000
v 0.528205 -0.739765 0.050000
v 0.528205 -0.739765 0.050000
v 0.528205 -0.739765 0.040000
v 0.475384 0.975957 0.030000
v 0.485384 0.985957 0.040000
v -0.485385 0.985957 0.040000
v -0.475385 0.975957 0.030000
v 0.528205 -0.816172 0.040000
v 0.528205 -0.816172 0.050000
v 0.465384 -0.739765 0.034142
v 0.465384 -0.739765 -0.005052
v 0.465384 -0.816172 -0.005052
v 0.465384 -0.816172 0.034142
v 0.481242 -0.739765 0.050000
v 0.465384 -0.739765 0.034142
v 0.465384 -0.816172 0.034142
v 0.481242 -0.816172 0.050000
v 0.528205 -0.739765 0.050000
v 0.481242 -0.739765 0.050000
v 0.481242 -0.816172 0.050000
v 0.528205 -0.816172 0.050000
v 0.485384 0.985957 -0.040000
v 0.475384 0.975957 -0.030000
v -0.475385 0.975957 -0.030000
v -0.485385 0.985957 -0.040000
v 0.486618 -0.839570 0.042161
v 0.486618 -0.722475 0.042161
v 0.481441 -0.722475 0.061480
v 0.481441 -0.839570 0.061480
v 0.481441 -0.839570 0.061480
v 0.481441 -0.722475 0.061480
v 0.462123 -0.722475 0.066656
v 0.462123 -0.839570 0.066656
v 0.462123 -0.839570 0.066656
v 0.462123 -0.722475 0.066656
v 0.447981 -0.722475 0.052514
v 0.447981 -0.839570 0.052514
v 0.447981 -0.839570 0.052514
v 0.447981 -0.722475 0.052514
v 0.453157 -0.722475 0.033195
v 0.453157 -0.839570 0.033195
v 0.453157 -0.839570 0.033195
v 0.453157 -0.722475 0.033195
v 0.472475 -0.722475 0.028019
v 0.472475 -0.839570 0.028019
v 0.472475 -0.839570 0.028019
v 0.472475 -0.722475 0.028019
v 0.486618 -0.722475 0.042161
v 0.486618 -0.839570 0.042161
v 0.465384 0.378028 0.034142
v 0.475384 0.378028 0.030000
v 0.475384 0.378028 -0.005052
v 0.465384 0.378028 -0.005052
v 0.465384 0.378028 -0.005052
v 0.475384 0.378028 -0.005052
v 0.475384 0.301620 -0.005052
v 0.465384 0.301620 -0.005052
v 0.465384 0.301620 -0.005052
v 0.475384 0.301620 -0.005052
v 0.475384 0.301620 0.030000
v 0.465384 0.301620 0.034142
v 0.481242 0.378028 0.050000
v 0.485384 0.378028 0.040000
v 0.485384 0.301620 0.040000
v 0.481242 0.301620 0.050000
v 0.528205 0.301620 0.050000
v 0.528205 0.301620 0.040000
v 0.528205 0.378028 0.040000
v 0.528205 0.378028 0.050000
v 0.528205 0.378028 0.050000
v 0.528205 0.378028 0.040000
v 0.528205 0.301620 0.040000
v 0.528205 0.301620 0.050000
v 0.465384 0.378028 0.034142
v 0.465384 0.378028 -0.005052
v 0.465384 0.301620 -0.005052
v 0.465384 0.301620 0.034142
v 0.481242 0.378028 0.050000
v 0.465384 0.378028 0.034142
v 0.465384 0.301620 0.034142
v 0.481242 0.301620 0.050000
v 0.475384 -1.083051 0.030000
v 0.485384 -1.083051 0.040000
v 0.485384 0.985957 0.040000
v 0.475384 0.975957 0.030000
v 0.528205 0.378028 0.050000
v 0.481242 0.378028 0.050000
v 0.481242 0.301620 0.050000
v 0.528205 0.301620 0.050000
v 0.486618 0.278223 0.042161
v 0.486618 0.395317 0.042161
v 0.481441 0.395317 0.061480
v 0.481441 0.278223 0.061480
v 0.485384 -1.083051 -0.040000
v 0.475384 -1.083051 -0.030000
v 0.475384 0.975957 -0.030000
v 0.485384 0.985957 -0.040000
v 0.481441 0.278223 0.061480
v 0.481441 0.395317 0.061480
v 0.462123 0.395317 0.066656
v 0.462123 0.278223 0.066656
v 0.462123 0.278223 0.066656
v 0.462123 0.395317 0.066656
v 0.447981 0.395317 0.052514
v 0.447981 0.278223 0.052514
v 0.447981 0.278223 0.052514
v 0.447981 0.395317 0.052514
v 0.453157 0.395317 0.033195
v 0.453157 0.278223 0.033195
v 0.453157 0.278223 0.033195
v 0.453157 0.395317 0.033195
v 0.472475 0.395317 0.028019
v 0.472475 0.278223 0.028019
v 0.472475 0.278223 0.028019
v 0.472475 0.395317 0.028019
v 0.486618 0.395317 0.042161
v 0.486618 0.278223 0.042161
vn -0.0000 1.0000 -0.0000
vn -0.0000 -1.0000 -0.0000
vn 0.7071 -0.0000 -0.7071
vn 0.7071 -0.0000 0.7071
vn -0.0000 -0.7054 -0.7088
vn 0.7079 -0.0000 -0.7063
vn -0.7079 -0.0000 -0.7064
vn -0.7080 -0.0000 -0.7062
vn -0.7079 -0.0000 -0.7063
vn -0.0000 -0.7054 0.7088
vn -0.7079 -0.0000 0.7063
vn -0.7080 -0.0000 0.7063
vn 0.7080 -0.0000 0.7062
vn 0.7079 -0.0000 0.7063
vn -0.0000 -0.0000 1.0000
vn -0.0000 -0.0000 -1.0000
vn -1.0000 -0.0000 -0.0000
vn 1.0000 -0.0000 -0.0000
vn -0.0000 -0.7071 0.7071
vn -0.7071 -0.0000 0.7071
vn -0.0000 -0.7071 -0.7071
vn 0.9659 -0.0000 0.2588
vn 0.2588 -0.0000 0.9659
vn -0.9659 -0.0000 -0.2588
vn -0.2588 -0.0000 -0.9659
vn -0.7071 -0.0000 -0.7071
vt 0.478467 0.633194
vt 0.470058 0.633194
vt 0.474263 0.640476
vt 0.478467 0.611601
vt 0.474263 0.604318
vt 0.470058 0.611601
vt 0.465854 0.640476
vt 0.465854 0.604318
vt 0.461650 0.633194
vt 0.461650 0.611601
vt 0.465854 0.625912
vt 0.465854 0.618883
vt 0.474263 0.625912
vt 0.474263 0.618883
vt 0.478467 0.654787
vt 0.470058 0.654787
vt 0.474263 0.662069
vt 0.478467 0.590007
vt 0.474263 0.582725
vt 0.470058 0.590007
vt 0.465854 0.662069
vt 0.465854 0.582725
vt 0.461650 0.654787
vt 0.461650 0.590007
vt 0.465854 0.647505
vt 0.465854 0.597289
vt 0.474263 0.647505
vt 0.474263 0.597289
vt 0.597912 0.042422
vt 0.594257 0.044982
vt 0.591929 0.575393
vt 0.595572 0.575409
vt 0.578801 0.044915
vt 0.575169 0.042323
vt 0.572829 0.575310
vt 0.576472 0.575325
vt 0.133146 0.564087
vt 0.129484 0.566637
vt 0.128474 0.838775
vt 0.132116 0.841353
vt 0.638398 0.028981
vt 0.634752 0.031553
vt 0.632363 0.575571
vt 0.636006 0.575587
vt 0.800107 0.575322
vt 0.796464 0.575332
vt 0.794877 0.031311
vt 0.798504 0.028712
vt 0.028488 0.840968
vt 0.032149 0.838418
vt 0.033159 0.566280
vt 0.029517 0.563702
vt 0.694909 0.029015
vt 0.698551 0.031592
vt 0.700138 0.575613
vt 0.696495 0.575624
vt 0.532395 0.575132
vt 0.536038 0.575148
vt 0.538426 0.031130
vt 0.534803 0.028526
vt 0.736930 0.575505
vt 0.725899 0.575538
vt 0.724312 0.031517
vt 0.735375 0.042516
vt 0.091724 0.827608
vt 0.102714 0.838680
vt 0.103724 0.566541
vt 0.092652 0.577531
vt 0.069909 0.577447
vt 0.058920 0.566375
vt 0.057909 0.838513
vt 0.068981 0.827523
vt 0.606603 0.575458
vt 0.608991 0.031440
vt 0.564187 0.031243
vt 0.561799 0.575261
vt 0.758117 0.042449
vt 0.769116 0.031386
vt 0.770703 0.575407
vt 0.759672 0.575439
vt 0.756029 0.575450
vt 0.740573 0.575495
vt 0.739025 0.045081
vt 0.754482 0.045036
vt 0.088999 0.580094
vt 0.073543 0.580037
vt 0.072634 0.824961
vt 0.088090 0.825018
vt 0.171349 0.865737
vt 0.248630 0.865526
vt 0.247741 0.538960
vt 0.170458 0.539171
vt 0.917645 0.004205
vt 0.919203 0.575696
vt 0.996485 0.575485
vt 0.994927 0.003994
vt 0.910616 0.575485
vt 0.909057 0.003994
vt 0.831774 0.004205
vt 0.833333 0.575696
vt 0.156906 0.866095
vt 0.158118 0.539529
vt 0.660644 0.575696
vt 0.663157 0.004208
vt 0.823081 0.003759
vt 0.824745 0.575250
vt 0.004727 0.538960
vt 0.003515 0.865525
vt 0.671857 0.575696
vt 0.670186 0.004206
vt 0.510262 0.003537
vt 0.507757 0.575024
vt 0.471232 0.688384
vt 0.471325 0.684004
vt 0.454606 0.682966
vt 0.454693 0.687887
vt 0.450449 0.687935
vt 0.450817 0.720362
vt 0.455061 0.720314
vt 0.455296 0.724901
vt 0.471377 0.724076
vt 0.471332 0.719782
vt 0.479871 0.688563
vt 0.479572 0.684253
vt 0.479528 0.724045
vt 0.479884 0.719773
vt 0.499475 0.720473
vt 0.504030 0.720704
vt 0.503644 0.688066
vt 0.499373 0.688117
vt 0.499204 0.683532
vt 0.499235 0.725075
vt 0.255737 0.749481
vt 0.304966 0.749631
vt 0.304991 0.741223
vt 0.255762 0.741073
vt 0.305017 0.732814
vt 0.255788 0.732665
vt 0.305042 0.724405
vt 0.255813 0.724256
vt 0.255660 0.774707
vt 0.304889 0.774857
vt 0.304915 0.766448
vt 0.255685 0.766298
vt 0.304940 0.758040
vt 0.255711 0.757890
vt 0.531844 0.688464
vt 0.531912 0.684083
vt 0.515187 0.683145
vt 0.515303 0.688065
vt 0.511060 0.688138
vt 0.511620 0.720563
vt 0.515864 0.720489
vt 0.516127 0.725075
vt 0.532202 0.724154
vt 0.532131 0.719861
vt 0.540485 0.688591
vt 0.540160 0.684283
vt 0.540353 0.724075
vt 0.540684 0.719801
vt 0.560278 0.720385
vt 0.564835 0.720589
vt 0.564255 0.687954
vt 0.559983 0.688029
vt 0.559788 0.683446
vt 0.560065 0.724988
vt 0.719578 0.720866
vt 0.768807 0.721015
vt 0.768832 0.712606
vt 0.719603 0.712457
vt 0.768858 0.704198
vt 0.719629 0.704049
vt 0.768884 0.695789
vt 0.719654 0.695640
vt 0.719501 0.746091
vt 0.768730 0.746241
vt 0.768756 0.737832
vt 0.719527 0.737682
vt 0.768781 0.729424
vt 0.719552 0.729274
s 0
usemtl door1
f 1/1/1 2/2/1 3/3/1
f 4/4/2 5/5/2 6/6/2
f 3/3/1 2/2/1 7/7/1
f 5/5/2 8/8/2 6/6/2
f 7/7/1 2/2/1 9/9/1
f 8/8/2 10/10/2 6/6/2
f 9/9/1 2/2/1 11/11/1
f 10/10/2 12/12/2 6/6/2
f 11/11/1 2/2/1 13/13/1
f 12/12/2 14/14/2 6/6/2
f 13/13/1 2/2/1 1/1/1
f 14/14/2 4/4/2 6/6/2
f 15/15/1 16/16/1 17/17/1
f 18/18/2 19/19/2 20/20/2
f 17/17/1 16/16/1 21/21/1
f 19/19/2 22/22/2 20/20/2
f 21/21/1 16/16/1 23/23/1
f 22/22/2 24/24/2 20/20/2
f 23/23/1 16/16/1 25/25/1
f 24/24/2 26/26/2 20/20/2
f 25/25/1 16/16/1 27/27/1
f 26/26/2 28/28/2 20/20/2
f 27/27/1 16/16/1 15/15/1
f 28/28/2 18/18/2 20/20/2
f 29/29/3 30/30/3 31/31/3
f 29/29/3 31/31/3 32/32/3
f 33/33/4 34/34/4 35/35/4
f 33/33/4 35/35/4 36/36/4
f 37/37/5 38/38/5 39/39/5
f 37/37/5 39/39/5 40/40/5
s 1
f 41/41/6 42/42/6 43/43/6
f 41/41/6 43/43/6 44/44/6
f 45/45/7 46/46/7 47/47/8
f 45/45/7 47/47/8 48/48/9
s 0
f 49/49/10 50/50/10 51/51/10
f 49/49/10 51/51/10 52/52/10
s 1
f 53/53/11 54/54/11 55/55/12
f 53/53/11 55/55/12 56/56/11
f 57/57/13 58/58/14 59/59/14
f 57/57/13 59/59/14 60/60/14
s 0
f 61/61/15 62/62/15 63/63/15
f 61/61/15 63/63/15 64/64/15
f 65/65/16 66/66/16 67/67/16
f 65/65/16 67/67/16 68/68/16
f 69/69/15 70/70/15 71/71/15
f 69/69/15 71/71/15 72/72/15
f 73/32/16 74/73/16 75/74/16
f 73/32/16 75/74/16 76/29/16
f 77/34/15 78/75/15 79/76/15
f 77/34/15 79/76/15 80/35/15
f 81/77/16 82/78/16 83/79/16
f 81/77/16 83/79/16 84/80/16
f 85/81/17 86/82/17 87/83/17
f 85/81/17 87/83/17 88/84/17
f 89/85/2 90/86/2 91/87/2
f 89/85/2 91/87/2 92/88/2
f 93/30/18 94/33/18 95/36/18
f 93/30/18 95/36/18 96/31/18
f 97/62/17 98/55/17 99/54/17
f 97/62/17 99/54/17 100/63/17
f 101/70/2 102/51/2 103/50/2
f 101/70/2 103/50/2 104/71/2
f 105/75/18 106/59/18 107/58/18
f 105/75/18 107/58/18 108/76/18
f 109/78/17 110/47/17 111/46/17
f 109/78/17 111/46/17 112/79/17
f 113/74/18 114/73/18 115/43/18
f 113/74/18 115/43/18 116/42/18
f 117/38/2 118/67/2 119/66/2
f 117/38/2 119/66/2 120/39/2
f 121/89/1 122/90/1 123/91/1
f 121/89/1 123/91/1 124/92/1
f 125/93/17 126/94/17 127/95/17
f 125/93/17 127/95/17 128/96/17
f 129/97/18 130/98/18 131/99/18
f 129/97/18 131/99/18 132/100/18
f 133/37/16 134/40/16 135/101/16
f 133/37/16 135/101/16 136/102/16
f 137/41/16 138/44/16 139/103/16
f 137/41/16 139/103/16 140/104/16
f 141/105/16 142/106/16 143/45/16
f 141/105/16 143/45/16 144/48/16
f 145/49/15 146/52/15 147/107/15
f 145/49/15 147/107/15 148/108/15
f 149/53/15 150/56/15 151/109/15
f 149/53/15 151/109/15 152/110/15
f 153/111/15 154/112/15 155/57/15
f 153/111/15 155/57/15 156/60/15
f 157/113/1 158/114/1 159/115/1
f 157/113/1 159/115/1 160/116/1
f 161/116/16 162/117/16 163/118/16
f 161/116/16 163/118/16 164/119/16
f 165/119/2 166/120/2 167/121/2
f 165/119/2 167/121/2 168/122/2
f 169/123/1 170/124/1 158/114/1
f 169/123/1 158/114/1 157/113/1
f 168/122/2 167/121/2 171/125/2
f 168/122/2 171/125/2 172/126/2
f 173/127/18 174/128/18 175/129/18
f 173/127/18 175/129/18 176/130/18
f 177/130/1 178/131/1 170/124/1
f 177/130/1 170/124/1 169/123/1
f 179/86/19 180/69/19 181/72/19
f 179/86/19 181/72/19 182/87/19
f 172/126/2 171/125/2 183/132/2
f 172/126/2 183/132/2 184/127/2
f 185/113/17 186/116/17 187/119/17
f 185/113/17 187/119/17 188/122/17
f 189/123/20 190/113/20 191/122/20
f 189/123/20 191/122/20 192/126/20
f 193/130/15 194/123/15 195/126/15
f 193/130/15 195/126/15 196/127/15
f 197/68/21 198/85/21 199/88/21
f 197/68/21 199/88/21 200/65/21
f 201/133/22 202/134/22 203/135/22
f 201/133/22 203/135/22 204/136/22
f 205/136/23 206/135/23 207/137/23
f 205/136/23 207/137/23 208/138/23
f 209/138/20 210/137/20 211/139/20
f 209/138/20 211/139/20 212/140/20
f 213/141/24 214/142/24 215/143/24
f 213/141/24 215/143/24 216/144/24
f 217/144/25 218/143/25 219/145/25
f 217/144/25 219/145/25 220/146/25
f 221/146/3 222/145/3 223/134/3
f 221/146/3 223/134/3 224/133/3
f 225/147/1 226/148/1 227/149/1
f 225/147/1 227/149/1 228/150/1
f 229/150/16 230/151/16 231/152/16
f 229/150/16 231/152/16 232/153/16
f 233/153/2 234/154/2 235/155/2
f 233/153/2 235/155/2 236/156/2
f 237/157/1 238/158/1 226/148/1
f 237/157/1 226/148/1 225/147/1
f 236/156/2 235/155/2 239/159/2
f 236/156/2 239/159/2 240/160/2
f 241/161/18 242/162/18 243/163/18
f 241/161/18 243/163/18 244/164/18
f 245/164/1 246/165/1 238/158/1
f 245/164/1 238/158/1 237/157/1
f 240/160/2 239/159/2 247/166/2
f 240/160/2 247/166/2 248/161/2
f 249/147/17 250/150/17 251/153/17
f 249/147/17 251/153/17 252/156/17
f 253/157/20 254/147/20 255/156/20
f 253/157/20 255/156/20 256/160/20
f 257/82/20 258/61/20 259/64/20
f 257/82/20 259/64/20 260/83/20
f 261/164/15 262/157/15 263/160/15
f 261/164/15 263/160/15 264/161/15
f 265/167/22 266/168/22 267/169/22
f 265/167/22 267/169/22 268/170/22
f 269/80/26 270/81/26 271/84/26
f 269/80/26 271/84/26 272/77/26
f 273/170/23 274/169/23 275/171/23
f 273/170/23 275/171/23 276/172/23
f 277/172/20 278/171/20 279/173/20
f 277/172/20 279/173/20 280/174/20
f 281/175/24 282/176/24 283/177/24
f 281/175/24 283/177/24 284/178/24
f 285/178/25 286/177/25 287/179/25
f 285/178/25 287/179/25 288/180/25
f 289/180/3 290/179/3 291/168/3
f 289/180/3 291/168/3 292/167/3
o door_door1_0
v -0.475384 0.975957 0.025586
v -0.334286 0.462892 0.025586
v -0.334286 0.786722 0.025586
v -0.475384 -1.074945 0.025586
v 0.477614 -0.717575 -0.022299
v 0.477614 -0.717575 0.033895
v 0.469653 -0.717575 0.031214
v 0.483990 -0.620039 0.042865
v 0.483990 -0.737133 0.042865
v 0.477614 -0.717575 0.033895
v 0.469653 -0.717575 0.031214
v 0.455080 -0.737133 0.035119
v 0.455080 -0.620039 0.035119
v 0.477614 -0.620085 -0.022299
v 0.469653 -0.620085 -0.022299
v 0.469653 -0.620085 0.031214
v 0.469653 -0.620085 -0.022299
v 0.469653 -0.717575 -0.022299
v 0.469653 -0.717575 0.031214
v 0.471771 -0.737133 0.030646
v 0.483990 -0.737133 0.042865
v 0.467299 -0.737133 0.047338
v 0.469653 -0.620085 -0.022299
v 0.477614 -0.620085 -0.022299
v 0.477614 -0.717575 -0.022299
v 0.455080 -0.737133 0.035119
v 0.477614 -0.717575 -0.022299
v 0.477614 -0.620085 -0.022299
v 0.477614 -0.620085 0.033895
v 0.450608 -0.737133 0.051810
v 0.462827 -0.737133 0.064029
v 0.479518 -0.737133 0.059556
v 0.477614 -0.620085 0.033895
v 0.479518 -0.620039 0.059556
v 0.483990 -0.620039 0.042865
v 0.462827 -0.620039 0.064029
v 0.455080 -0.620039 0.035119
v 0.450608 -0.620039 0.051810
v 0.471771 -0.737133 0.030646
v 0.471771 -0.737133 0.030646
v 0.469653 -0.717575 0.031214
v 0.469653 -0.620085 0.031214
v 0.469653 -0.620085 0.031214
v 0.469653 -0.717575 -0.022299
v 0.469653 -0.717575 -0.022299
v 0.477614 0.396028 -0.022299
v 0.477614 0.396028 0.033895
v 0.469653 0.396028 0.031214
v 0.483990 0.493564 0.042865
v 0.483990 0.376470 0.042865
v 0.477614 0.396028 0.033895
v 0.469653 0.396028 0.031214
v 0.455080 0.376470 0.035119
v 0.455080 0.493564 0.035119
v 0.477614 0.493517 -0.022299
v 0.469653 0.493517 -0.022299
v 0.469653 0.493517 0.031214
v 0.469653 0.493517 -0.022299
v 0.469653 0.396028 -0.022299
v 0.469653 0.396028 0.031214
v 0.471771 0.376470 0.030646
v 0.483990 0.376470 0.042865
v 0.467299 0.376470 0.047338
v 0.469653 0.493517 -0.022299
v 0.477614 0.493517 -0.022299
v 0.477614 0.396028 -0.022299
v 0.455080 0.376470 0.035119
v 0.477614 0.396028 -0.022299
v 0.477614 0.493517 -0.022299
v 0.477614 0.493517 0.033895
v 0.450608 0.376470 0.051810
v 0.462827 0.376470 0.064029
v 0.479518 0.376470 0.059556
v 0.477614 0.493517 0.033895
v 0.479518 0.493564 0.059556
v 0.483990 0.493564 0.042865
v 0.462827 0.493564 0.064029
v 0.455080 0.493564 0.035119
v 0.450608 0.493564 0.051810
v 0.471771 0.376470 0.030646
v 0.471771 0.376470 0.030646
v 0.469653 0.396028 0.031214
v 0.469653 0.493517 0.031214
v 0.469653 0.493517 0.031214
v 0.469653 0.396028 -0.022299
v 0.469653 0.396028 -0.022299
v 0.475384 0.975957 -0.024414
v 0.334286 0.786722 -0.024414
v -0.334286 0.786722 -0.024414
v -0.475384 0.975957 -0.024414
v -0.475384 -1.074945 -0.024414
v -0.334286 0.462892 -0.024414
v 0.475384 -1.074945 -0.024414
v 0.334286 0.462892 -0.024414
v 0.334286 0.462892 0.025586
v 0.475384 -1.074945 0.025586
v 0.475384 0.975957 0.025586
v 0.334286 0.786722 0.025586
v 0.475384 0.975957 0.025586
v 0.475384 0.975957 -0.024414
v -0.475384 0.975957 -0.024414
v -0.475384 0.975957 0.025586
v 0.475384 -1.074945 0.025586
v 0.475384 -1.074945 -0.024414
v 0.475384 0.975957 -0.024414
v 0.475384 0.975957 0.025586
v -0.475384 -1.074945 0.025586
v -0.475384 -1.074945 -0.024414
v 0.475384 -1.074945 -0.024414
v 0.475384 -1.074945 0.025586
v -0.475384 0.975957 0.025586
v -0.475384 0.975957 -0.024414
v -0.475384 -1.074945 -0.024414
v -0.475384 -1.074945 0.025586
v 0.450608 -0.737133 0.051810
v 0.450608 -0.620039 0.051810
v 0.455080 -0.620039 0.035119
v 0.455080 -0.737133 0.035119
v 0.483990 -0.737133 0.042865
v 0.483990 -0.620039 0.042865
v 0.479518 -0.620039 0.059556
v 0.479518 -0.737133 0.059556
v 0.462827 -0.737133 0.064029
v 0.462827 -0.620039 0.064029
v 0.450608 -0.620039 0.051810
v 0.450608 -0.737133 0.051810
v 0.479518 -0.737133 0.059556
v 0.479518 -0.620039 0.059556
v 0.462827 -0.620039 0.064029
v 0.462827 -0.737133 0.064029
v -0.470110 -0.082986 0.015290
v -0.470110 -0.082986 -0.015290
v -0.479532 -0.082986 -0.015290
v -0.479532 -0.082986 0.015290
v -0.479532 -0.230986 0.015290
v -0.479532 -0.082986 0.015290
v -0.479532 -0.082986 -0.015290
v -0.479532 -0.230986 -0.015290
v 0.450608 0.376470 0.051810
v 0.450608 0.493564 0.051810
v 0.455080 0.493564 0.035119
v 0.455080 0.376470 0.035119
v 0.483990 0.376470 0.042865
v 0.483990 0.493564 0.042865
v 0.479518 0.493564 0.059556
v 0.479518 0.376470 0.059556
v 0.462827 0.376470 0.064029
v 0.462827 0.493564 0.064029
v 0.450608 0.493564 0.051810
v 0.450608 0.376470 0.051810
v 0.479518 0.376470 0.059556
v 0.479518 0.493564 0.059556
v 0.462827 0.493564 0.064029
v 0.462827 0.376470 0.064029
v -0.479532 -0.230986 -0.015290
v -0.479532 -0.082986 -0.015290
v -0.470110 -0.082986 -0.015290
v -0.470110 -0.230986 -0.015290
v -0.470110 -0.230986 -0.015290
v -0.470110 -0.230986 0.015290
v -0.479532 -0.230986 0.015290
v -0.479532 -0.230986 -0.015290
v 0.334286 0.462892 0.014490
v 0.334286 0.462892 0.025586
v 0.334286 0.786722 0.025586
v 0.334286 0.786722 0.014490
v -0.334286 0.786722 0.014490
v -0.334286 0.462892 0.014490
v 0.334286 0.462892 0.014490
v 0.334286 0.786722 0.014490
v -0.334286 0.786722 0.014490
v -0.334286 0.786722 0.025586
v -0.334286 0.462892 0.025586
v -0.334286 0.462892 0.014490
v 0.334286 0.786722 0.014490
v 0.334286 0.786722 0.025586
v -0.334286 0.786722 0.025586
v -0.334286 0.786722 0.014490
v -0.334286 0.462892 0.014490
v -0.334286 0.462892 0.025586
v 0.334286 0.462892 0.025586
v 0.334286 0.462892 0.014490
v 0.334286 0.786722 -0.014490
v 0.334286 0.786722 -0.024414
v 0.334286 0.462892 -0.024414
v 0.334286 0.462892 -0.014490
v -0.334286 0.786722 -0.014490
v 0.334286 0.786722 -0.014490
v 0.334286 0.462892 -0.014490
v -0.334286 0.462892 -0.014490
v -0.334286 0.462892 -0.014490
v -0.334286 0.462892 -0.024414
v -0.334286 0.786722 -0.024414
v -0.334286 0.786722 -0.014490
v -0.334286 0.786722 -0.014490
v -0.334286 0.786722 -0.024414
v 0.334286 0.786722 -0.024414
v 0.334286 0.786722 -0.014490
v 0.334286 0.462892 -0.014490
v 0.334286 0.462892 -0.024414
v -0.334286 0.462892 -0.024414
v -0.334286 0.462892 -0.014490
v -0.470110 -0.230986 0.015290
v -0.470110 -0.082986 0.015290
v -0.479532 -0.082986 0.015290
v -0.479532 -0.230986 0.015290
v -0.420626 -0.052763 -0.022653
v -0.354412 -0.052763 -0.022653
v -0.354412 -0.052763 -0.038446
v -0.420626 -0.052763 -0.038446
v -0.420626 -0.052763 -0.022653
v -0.420626 -0.052763 -0.038446
v -0.420626 -0.272763 -0.038446
v -0.420626 -0.272763 -0.022653
v -0.420626 -0.272763 -0.038446
v -0.354412 -0.272763 -0.038446
v -0.354412 -0.272763 -0.022653
v -0.420626 -0.272763 -0.022653
v -0.354412 -0.052763 -0.038446
v -0.354412 -0.052763 -0.022653
v -0.354412 -0.272763 -0.022653
v -0.354412 -0.272763 -0.038446
v -0.420626 -0.052763 -0.038446
v -0.354412 -0.052763 -0.038446
v -0.354412 -0.272763 -0.038446
v -0.420626 -0.272763 -0.038446
v -0.354412 -0.052763 0.038446
v -0.354412 -0.052763 0.022653
v -0.420626 -0.052763 0.022653
v -0.420626 -0.052763 0.038446
v -0.420626 -0.272763 0.038446
v -0.420626 -0.052763 0.038446
v -0.420626 -0.052763 0.022653
v -0.420626 -0.272763 0.022653
v -0.354412 -0.272763 0.022653
v -0.354412 -0.272763 0.038446
v -0.420626 -0.272763 0.038446
v -0.420626 -0.272763 0.022653
v -0.354412 -0.272763 0.022653
v -0.354412 -0.052763 0.022653
v -0.354412 -0.052763 0.038446
v -0.354412 -0.272763 0.038446
v -0.354412 -0.272763 0.038446
v -0.354412 -0.052763 0.038446
v -0.420626 -0.052763 0.038446
v -0.420626 -0.272763 0.038446
vn -0.0000 -0.0000 1.0000
vn -0.0000 -1.0000 -0.0000
vn 0.8151 -0.0000 -0.5794
vn 0.7630 -0.0469 -0.6447
vn 0.7927 -0.0068 -0.6095
vn -0.1183 0.0160 -0.9929
vn -0.2588 -0.0000 -0.9659
vn -0.0000 1.0000 -0.0000
vn 0.0006 1.0000 -0.0018
vn -1.0000 -0.0000 -0.0000
vn -0.0000 -0.0000 -1.0000
vn 1.0000 -0.0000 -0.0000
vn 0.9795 0.0005 -0.2016
vn -0.0002 1.0000 -0.0014
vn -0.0029 1.0000 -0.0016
vn -0.0053 1.0000 -0.0014
vn 0.0004 1.0000 -0.0013
vn 0.0019 1.0000 -0.0023
vn 0.0014 1.0000 -0.0005
vn 0.2803 -0.0116 -0.9598
vn 0.2803 -0.0115 -0.9598
vn -0.9659 -0.0000 -0.2588
vn 0.9659 -0.0000 0.2588
vn -0.7071 -0.0000 0.7071
vn 0.2588 -0.0000 0.9659
vt 0.255802 0.003537
vt 0.292114 0.135716
vt 0.292137 0.052295
vt 0.255660 0.531865
vt 0.680034 0.585508
vt 0.678773 0.608575
vt 0.676677 0.606154
vt 0.719840 0.614490
vt 0.671459 0.614281
vt 0.678449 0.650223
vt 0.670500 0.643525
vt 0.720170 0.643829
vt 0.488760 0.575696
vt 0.485518 0.574865
vt 0.491103 0.553071
vt 0.720237 0.673339
vt 0.678302 0.673358
vt 0.640369 0.721410
vt 0.644002 0.715118
vt 0.636737 0.715118
vt 0.720354 0.582725
vt 0.720360 0.586291
vt 0.633104 0.721410
vt 0.719796 0.609840
vt 0.629472 0.715118
vt 0.633104 0.708827
vt 0.640369 0.708827
vt 0.494625 0.552810
vt 0.498079 0.542558
vt 0.498158 0.549823
vt 0.491748 0.538994
vt 0.485576 0.549960
vt 0.485496 0.542695
vt 0.670512 0.607893
vt 0.670186 0.650791
vt 0.720227 0.650321
vt 0.678515 0.583843
vt 0.440352 0.715690
vt 0.417276 0.716788
vt 0.419682 0.718901
vt 0.411652 0.675680
vt 0.411518 0.724061
vt 0.375626 0.716817
vt 0.382268 0.724813
vt 0.382316 0.675142
vt 0.469068 0.575696
vt 0.465826 0.574865
vt 0.471412 0.553071
vt 0.352807 0.674866
vt 0.352491 0.716800
vt 0.614687 0.721410
vt 0.618320 0.715118
vt 0.611055 0.715118
vt 0.443420 0.675391
vt 0.439854 0.675359
vt 0.607422 0.721410
vt 0.416301 0.675757
vt 0.603790 0.715118
vt 0.607422 0.708827
vt 0.614687 0.708827
vt 0.474934 0.552810
vt 0.478388 0.542557
vt 0.478467 0.549822
vt 0.472057 0.538994
vt 0.465884 0.549959
vt 0.465805 0.542695
vt 0.417899 0.725052
vt 0.375000 0.725075
vt 0.375825 0.675040
vt 0.442006 0.717220
vt 0.248630 0.003602
vt 0.212265 0.052338
vt 0.040035 0.052276
vt 0.003704 0.003515
vt 0.003515 0.531843
vt 0.040005 0.135697
vt 0.248440 0.531931
vt 0.212235 0.135759
vt 0.464344 0.135762
vt 0.500586 0.531931
vt 0.500728 0.003603
vt 0.464367 0.052341
vt 0.776816 0.886006
vt 0.776766 0.873124
vt 0.531771 0.874009
vt 0.531820 0.886891
vt 0.531941 0.909593
vt 0.531892 0.896713
vt 0.003524 0.898616
vt 0.003571 0.911499
vt 0.776816 0.908707
vt 0.776774 0.895832
vt 0.003515 0.875925
vt 0.003556 0.888802
vt 0.670708 0.636130
vt 0.720126 0.636442
vt 0.719964 0.621766
vt 0.671191 0.621501
vt 0.670940 0.628787
vt 0.720058 0.629085
vt 0.588693 0.683147
vt 0.575837 0.683145
vt 0.575836 0.687106
vt 0.588692 0.687108
vt 0.588681 0.749331
vt 0.575825 0.749329
vt 0.389664 0.724657
vt 0.389703 0.675239
vt 0.404377 0.675505
vt 0.404296 0.724278
vt 0.397009 0.724477
vt 0.397058 0.675359
vt 0.571875 0.687105
vt 0.571864 0.749328
vt 0.575824 0.753290
vt 0.588681 0.753292
vt 0.341939 0.541819
vt 0.341928 0.538960
vt 0.258507 0.539281
vt 0.258518 0.542140
vt 0.259181 0.714368
vt 0.342602 0.714047
vt 0.259192 0.717227
vt 0.342613 0.716905
vt 0.255660 0.542151
vt 0.256323 0.714379
vt 0.345460 0.714036
vt 0.344797 0.541808
vt 0.488372 0.585282
vt 0.485815 0.585272
vt 0.485496 0.668692
vt 0.488053 0.668702
vt 0.660600 0.585940
vt 0.660281 0.669360
vt 0.662838 0.669370
vt 0.663157 0.585950
vt 0.660610 0.583383
vt 0.488382 0.582725
vt 0.488043 0.671259
vt 0.660272 0.671917
vt 0.592642 0.749332
vt 0.592653 0.687109
vt 0.704885 0.680450
vt 0.677047 0.680388
vt 0.677032 0.687028
vt 0.704870 0.687090
vt 0.711510 0.687104
vt 0.704664 0.779583
vt 0.711304 0.779598
vt 0.676826 0.779521
vt 0.676811 0.786161
vt 0.704650 0.786223
vt 0.670392 0.687013
vt 0.670186 0.779506
vt 0.734029 0.589478
vt 0.734002 0.582838
vt 0.761840 0.582725
vt 0.761867 0.589365
vt 0.762244 0.681858
vt 0.768507 0.589338
vt 0.768884 0.681830
vt 0.734433 0.688611
vt 0.734406 0.681971
vt 0.762271 0.688498
vt 0.727766 0.681998
vt 0.727389 0.589505
s 0
usemtl door1
f 293/181/27 294/182/27 295/183/27
f 294/182/27 293/181/27 296/184/27
f 297/185/28 298/186/28 299/187/28
s 1
f 300/188/29 301/189/30 302/186/31
f 303/190/32 304/191/33 305/192/33
f 306/193/34 307/194/34 308/195/35
s 0
f 309/196/36 310/197/36 311/190/36
f 312/198/28 313/199/28 314/200/28
f 315/201/37 316/202/37 317/185/37
f 318/203/28 312/198/28 314/200/28
s 1
f 319/185/38 320/202/38 321/204/39
s 0
f 322/205/28 318/203/28 314/200/28
f 323/206/28 322/205/28 314/200/28
f 313/199/28 324/207/28 314/200/28
f 324/207/28 323/206/28 314/200/28
s 1
f 325/208/40 326/209/41 327/210/42
f 328/211/43 326/209/41 325/208/40
f 329/212/44 330/213/45 325/208/40
f 330/213/45 328/211/43 325/208/40
f 308/195/35 329/212/44 325/208/40
f 325/208/40 306/193/34 308/195/35
f 302/186/31 301/189/30 331/214/46
f 332/215/47 304/191/33 303/190/32
f 333/187/32 302/186/31 331/214/46
f 321/204/39 300/188/29 302/186/31
f 334/216/33 303/190/32 305/192/33
s 0
f 335/216/36 309/196/36 311/190/36
f 336/217/37 315/201/37 317/185/37
s 1
f 302/186/31 319/185/38 321/204/39
s 0
f 337/217/28 297/185/28 299/187/28
f 338/218/28 339/219/28 340/220/28
s 1
f 341/221/29 342/222/30 343/219/31
f 344/223/32 345/224/33 346/225/33
f 347/226/34 348/227/34 349/228/35
s 0
f 350/229/36 351/230/36 352/223/36
f 353/231/28 354/232/28 355/233/28
f 356/234/37 357/235/37 358/218/37
f 359/236/28 353/231/28 355/233/28
s 1
f 360/218/38 361/235/38 362/237/39
s 0
f 363/238/28 359/236/28 355/233/28
f 364/239/28 363/238/28 355/233/28
f 354/232/28 365/240/28 355/233/28
f 365/240/28 364/239/28 355/233/28
s 1
f 366/241/40 367/242/41 368/243/42
f 369/244/43 367/242/41 366/241/40
f 370/245/44 371/246/45 366/241/40
f 371/246/45 369/244/43 366/241/40
f 349/228/35 370/245/44 366/241/40
f 366/241/40 347/226/34 349/228/35
f 343/219/31 342/222/30 372/247/46
f 373/248/47 345/224/33 344/223/32
f 374/220/32 343/219/31 372/247/46
f 362/237/39 341/221/29 343/219/31
f 375/249/33 344/223/32 346/225/33
s 0
f 376/249/36 350/229/36 352/223/36
f 377/250/37 356/234/37 358/218/37
s 1
f 343/219/31 360/218/38 362/237/39
s 0
f 378/250/28 338/218/28 340/220/28
f 379/251/37 380/252/37 381/253/37
f 379/251/37 381/253/37 382/254/37
f 383/255/37 382/254/37 381/253/37
f 383/255/37 381/253/37 384/256/37
f 385/257/37 383/255/37 384/256/37
f 385/257/37 384/256/37 386/258/37
f 386/258/37 380/252/37 379/251/37
f 386/258/37 379/251/37 385/257/37
f 387/259/27 294/182/27 296/184/27
f 387/259/27 296/184/27 388/260/27
f 389/261/27 293/181/27 295/183/27
f 389/261/27 295/183/27 390/262/27
f 388/260/27 389/261/27 390/262/27
f 388/260/27 390/262/27 387/259/27
f 391/263/34 392/264/34 393/265/34
f 391/263/34 393/265/34 394/266/34
f 395/267/38 396/268/38 397/269/38
f 395/267/38 397/269/38 398/270/38
f 399/271/28 400/272/28 401/268/28
f 399/271/28 401/268/28 402/267/28
f 403/266/36 404/265/36 405/273/36
f 403/266/36 405/273/36 406/274/36
f 407/275/48 408/276/48 409/192/48
f 407/275/48 409/192/48 410/191/48
f 411/189/49 412/188/49 413/277/49
f 411/189/49 413/277/49 414/278/49
f 415/279/50 416/280/50 417/276/50
f 415/279/50 417/276/50 418/275/50
f 419/278/51 420/277/51 421/280/51
f 419/278/51 421/280/51 422/279/51
f 423/281/34 424/282/34 425/283/34
f 423/281/34 425/283/34 426/284/34
f 427/285/36 428/284/36 429/283/36
f 427/285/36 429/283/36 430/286/36
f 431/287/48 432/288/48 433/225/48
f 431/287/48 433/225/48 434/224/48
f 435/222/49 436/221/49 437/289/49
f 435/222/49 437/289/49 438/290/49
f 439/291/50 440/292/50 441/288/50
f 439/291/50 441/288/50 442/287/50
f 443/290/51 444/289/51 445/292/51
f 443/290/51 445/292/51 446/291/51
f 447/286/37 448/283/37 449/293/37
f 447/286/37 449/293/37 450/294/37
f 451/295/28 452/296/28 453/285/28
f 451/295/28 453/285/28 454/286/28
f 455/297/36 456/298/36 457/299/36
f 455/297/36 457/299/36 458/300/36
f 459/301/27 460/302/27 461/297/27
f 459/301/27 461/297/27 462/300/27
f 463/301/38 464/303/38 465/304/38
f 463/301/38 465/304/38 466/302/38
f 467/300/28 468/305/28 469/306/28
f 467/300/28 469/306/28 470/301/28
f 471/302/34 472/307/34 473/308/34
f 471/302/34 473/308/34 474/297/34
f 475/309/36 476/310/36 477/311/36
f 475/309/36 477/311/36 478/312/36
f 479/313/37 480/309/37 481/312/37
f 479/313/37 481/312/37 482/314/37
f 483/314/38 484/315/38 485/316/38
f 483/314/38 485/316/38 486/313/38
f 487/313/28 488/317/28 489/318/28
f 487/313/28 489/318/28 490/309/28
f 491/312/34 492/319/34 493/320/34
f 491/312/34 493/320/34 494/314/34
f 495/321/27 496/322/27 497/284/27
f 495/321/27 497/284/27 498/285/27
f 499/323/34 500/324/34 501/325/34
f 499/323/34 501/325/34 502/326/34
f 503/327/36 504/326/36 505/328/36
f 503/327/36 505/328/36 506/329/36
f 507/328/28 508/330/28 509/331/28
f 507/328/28 509/331/28 510/332/28
f 511/325/38 512/333/38 513/334/38
f 511/325/38 513/334/38 514/330/38
f 515/326/37 516/325/37 517/330/37
f 515/326/37 517/330/37 518/328/37
f 519/335/34 520/336/34 521/337/34
f 519/335/34 521/337/34 522/338/34
f 523/339/36 524/338/36 525/340/36
f 523/339/36 525/340/36 526/341/36
f 527/342/28 528/343/28 529/339/28
f 527/342/28 529/339/28 530/344/28
f 531/345/38 532/346/38 533/335/38
f 531/345/38 533/335/38 534/343/38
f 535/343/27 536/335/27 537/338/27
f 535/343/27 537/338/27 538/339/27
o handle_door1_0
v -0.200568 -0.102360 0.101620
v -0.200568 -0.103650 0.096786
v -0.200568 -0.094000 0.106436
v -0.200568 -0.094000 0.087135
v -0.200568 -0.084349 0.096786
v -0.200568 -0.085639 0.101620
v -0.200568 -0.089165 0.105146
v -0.200568 -0.085639 0.091951
v -0.200568 -0.098834 0.088425
v -0.200568 -0.089165 0.088425
v -0.200568 -0.102360 0.091951
v -0.390102 -0.076669 0.098106
v -0.384455 -0.076669 0.101567
v -0.380864 -0.074000 0.092031
v -0.390102 -0.111330 0.098106
v -0.380864 -0.114000 0.092031
v -0.384455 -0.111330 0.101567
v -0.200568 -0.102360 -0.101620
v -0.200568 -0.098834 -0.105146
v -0.200568 -0.094000 -0.106436
v -0.390102 -0.111330 -0.098106
v -0.384455 -0.111330 -0.101567
v -0.380864 -0.114000 -0.092031
v -0.380864 -0.074000 -0.092031
v -0.384455 -0.076669 -0.101567
v -0.390102 -0.076669 -0.098106
v -0.200568 -0.098834 -0.088425
v -0.200568 -0.102360 -0.091951
v -0.200568 -0.103650 -0.096786
v -0.200568 -0.085639 -0.091951
v -0.200568 -0.089165 -0.088425
v -0.200568 -0.094000 -0.087135
v -0.200568 -0.085639 -0.101620
v -0.200568 -0.084349 -0.096786
v -0.200568 -0.089165 -0.105146
v -0.200568 -0.098834 0.105146
v -0.367995 -0.083993 0.114116
v -0.386521 -0.083993 0.108890
v -0.387274 -0.094000 0.111560
v -0.368748 -0.094000 0.116786
v -0.365929 -0.076669 0.106792
v -0.363107 -0.074000 0.096786
v -0.360284 -0.076669 0.086779
v -0.374449 -0.076669 0.084226
v -0.358218 -0.083993 0.079455
v -0.369755 -0.083993 0.078513
v -0.357465 -0.094000 0.076786
v -0.368043 -0.094000 0.076431
v -0.358218 -0.104006 0.079455
v -0.369755 -0.104006 0.078513
v -0.368043 -0.094000 0.076431
v -0.357465 -0.094000 0.076786
v -0.360284 -0.111330 0.086779
v -0.374449 -0.111330 0.084226
v -0.363107 -0.114000 0.096786
v -0.365929 -0.111330 0.106792
v -0.367995 -0.104006 0.114116
v -0.386521 -0.104006 0.108890
v -0.397426 -0.083993 0.102207
v -0.405952 -0.083993 0.086981
v -0.408622 -0.094000 0.088476
v -0.400096 -0.094000 0.103702
v -0.398628 -0.076669 0.082880
v -0.388622 -0.074000 0.077276
v -0.378615 -0.076669 0.071673
v -0.369755 -0.083993 0.078513
v -0.371291 -0.083993 0.067572
v -0.368043 -0.094000 0.076431
v -0.368622 -0.094000 0.066077
v -0.369755 -0.104006 0.078513
v -0.371291 -0.104006 0.067572
v -0.368622 -0.094000 0.066077
v -0.368043 -0.094000 0.076431
v -0.378615 -0.111330 0.071673
v -0.388622 -0.114000 0.077276
v -0.398628 -0.111330 0.082880
v -0.397426 -0.104006 0.102207
v -0.405952 -0.104006 0.086981
v -0.368748 -0.094000 -0.116786
v -0.387274 -0.094000 -0.111560
v -0.386521 -0.083993 -0.108890
v -0.367995 -0.083993 -0.114116
v -0.365929 -0.076669 -0.106792
v -0.363107 -0.074000 -0.096786
v -0.374449 -0.076669 -0.084226
v -0.360284 -0.076669 -0.086779
v -0.369755 -0.083993 -0.078513
v -0.358218 -0.083993 -0.079455
v -0.368043 -0.094000 -0.076431
v -0.357465 -0.094000 -0.076786
v -0.357465 -0.094000 -0.076786
v -0.368043 -0.094000 -0.076431
v -0.369755 -0.104006 -0.078513
v -0.358218 -0.104006 -0.079455
v -0.374449 -0.111330 -0.084226
v -0.360284 -0.111330 -0.086779
v -0.363107 -0.114000 -0.096786
v -0.365929 -0.111330 -0.106792
v -0.386521 -0.104006 -0.108890
v -0.367995 -0.104006 -0.114116
v -0.400096 -0.094000 -0.103702
v -0.408622 -0.094000 -0.088476
v -0.405952 -0.083993 -0.086981
v -0.397426 -0.083993 -0.102207
v -0.398628 -0.076669 -0.082880
v -0.388622 -0.074000 -0.077276
v -0.378615 -0.076669 -0.071673
v -0.371291 -0.083993 -0.067572
v -0.369755 -0.083993 -0.078513
v -0.368622 -0.094000 -0.066077
v -0.368043 -0.094000 -0.076431
v -0.368043 -0.094000 -0.076431
v -0.368622 -0.094000 -0.066077
v -0.371291 -0.104006 -0.067572
v -0.369755 -0.104006 -0.078513
v -0.378615 -0.111330 -0.071673
v -0.388622 -0.114000 -0.077276
v -0.398628 -0.111330 -0.082880
v -0.405952 -0.104006 -0.086981
v -0.397426 -0.104006 -0.102207
v -0.210568 -0.083993 0.114116
v -0.210568 -0.094000 0.116786
v -0.200568 -0.094000 0.106436
v -0.200568 -0.089165 0.105146
v -0.210568 -0.076669 0.106792
v -0.200568 -0.085639 0.101620
v -0.210568 -0.074000 0.096786
v -0.200568 -0.084349 0.096786
v -0.210568 -0.076669 0.086779
v -0.200568 -0.085639 0.091951
v -0.210568 -0.083993 0.079455
v -0.200568 -0.089165 0.088425
v -0.210568 -0.094000 0.076786
v -0.200568 -0.094000 0.087135
v -0.210568 -0.104006 0.079455
v -0.200568 -0.098834 0.088425
v -0.210568 -0.111330 0.086779
v -0.200568 -0.102360 0.091951
v -0.210568 -0.114000 0.096786
v -0.200568 -0.103650 0.096786
v -0.210568 -0.111330 0.106792
v -0.200568 -0.102360 0.101620
v -0.210568 -0.104006 0.114116
v -0.200568 -0.098834 0.105146
v -0.210568 -0.094000 0.116786
v -0.210568 -0.083993 0.114116
v -0.210568 -0.076669 0.106792
v -0.210568 -0.074000 0.096786
v -0.210568 -0.076669 0.086779
v -0.210568 -0.083993 0.079455
v -0.210568 -0.094000 0.076786
v -0.210568 -0.094000 0.076786
v -0.210568 -0.104006 0.079455
v -0.210568 -0.111330 0.086779
v -0.210568 -0.114000 0.096786
v -0.210568 -0.111330 0.106792
v -0.210568 -0.104006 0.114116
v -0.408622 -0.094000 0.023214
v -0.405952 -0.083993 0.023214
v -0.398628 -0.076669 0.023214
v -0.388622 -0.074000 0.023214
v -0.378615 -0.076669 0.023214
v -0.405952 -0.104006 -0.023214
v -0.408622 -0.094000 -0.023214
v -0.398628 -0.111330 -0.023214
v -0.388622 -0.114000 -0.023214
v -0.378615 -0.111330 -0.023214
v -0.371291 -0.104006 -0.023214
v -0.368622 -0.094000 -0.023214
v -0.371291 -0.083993 -0.023214
v -0.368622 -0.094000 -0.023214
v -0.378615 -0.076669 -0.023214
v -0.388622 -0.074000 -0.023214
v -0.398628 -0.076669 -0.023214
v -0.405952 -0.083993 -0.023214
v -0.210568 -0.094000 -0.116786
v -0.210568 -0.104006 -0.114116
v -0.210568 -0.111330 -0.106792
v -0.210568 -0.114000 -0.096786
v -0.210568 -0.111330 -0.086779
v -0.210568 -0.104006 -0.079455
v -0.210568 -0.094000 -0.076786
v -0.210568 -0.094000 -0.076786
v -0.210568 -0.083993 -0.079455
v -0.210568 -0.076669 -0.086779
v -0.210568 -0.074000 -0.096786
v -0.210568 -0.076669 -0.106792
v -0.210568 -0.083993 -0.114116
v -0.200568 -0.098834 -0.105146
v -0.210568 -0.104006 -0.114116
v -0.210568 -0.094000 -0.116786
v -0.200568 -0.094000 -0.106436
v -0.200568 -0.102360 -0.101620
v -0.210568 -0.111330 -0.106792
v -0.200568 -0.103650 -0.096786
v -0.210568 -0.114000 -0.096786
v -0.200568 -0.102360 -0.091951
v -0.210568 -0.111330 -0.086779
v -0.200568 -0.098834 -0.088425
v -0.210568 -0.104006 -0.079455
v -0.200568 -0.094000 -0.087135
v -0.210568 -0.094000 -0.076786
v -0.200568 -0.089165 -0.088425
v -0.210568 -0.083993 -0.079455
v -0.200568 -0.085639 -0.091951
v -0.210568 -0.076669 -0.086779
v -0.200568 -0.084349 -0.096786
v -0.210568 -0.074000 -0.096786
v -0.200568 -0.085639 -0.101620
v -0.210568 -0.076669 -0.106792
v -0.200568 -0.089165 -0.105146
v -0.210568 -0.083993 -0.114116
v -0.405952 -0.104006 0.023214
v -0.398628 -0.111330 0.023214
v -0.388622 -0.114000 0.023214
v -0.378615 -0.111330 0.023214
v -0.371291 -0.104006 0.023214
v -0.368622 -0.094000 0.023214
v -0.371291 -0.083993 0.023214
v -0.368622 -0.094000 0.023214
vn 1.0000 -0.0000 -0.0000
vn -0.3333 0.8845 0.3263
vn -0.1968 0.8715 0.4492
vn -0.0216 0.9988 0.0444
vn -0.3333 -0.8846 0.3263
vn -0.0237 -0.9988 0.0432
vn -0.1968 -0.8715 0.4492
vn -0.3333 -0.8845 -0.3263
vn -0.1968 -0.8715 -0.4492
vn -0.0216 -0.9988 -0.0444
vn -0.0237 0.9988 -0.0432
vn -0.1968 0.8715 -0.4492
vn -0.3332 0.8846 -0.3263
vn -0.1174 0.5093 0.8525
vn -0.3455 0.5093 0.7882
vn -0.4010 -0.0000 0.9161
vn -0.1369 -0.0000 0.9906
vn -0.0661 0.8715 0.4860
vn -0.0022 1.0000 -0.0039
vn 0.0398 0.8630 -0.5037
vn 0.3015 0.8925 -0.3353
vn 0.0391 0.4900 -0.8709
vn 0.0782 0.4796 -0.8740
vn 0.0288 0.0006 -0.9996
vn 0.0574 0.0012 -0.9983
vn 0.0385 -0.4869 -0.8726
vn 0.0769 -0.4735 -0.8774
vn 0.0574 0.0011 -0.9983
vn 0.0392 -0.8608 -0.5074
vn 0.2933 -0.8934 -0.3403
vn -0.0023 -1.0000 -0.0052
vn -0.0661 -0.8714 0.4860
vn -0.1174 -0.5093 0.8525
vn -0.3455 -0.5093 0.7882
vn -0.6066 0.5343 0.5887
vn -0.8189 0.5344 0.2095
vn -0.9679 -0.0000 0.2512
vn -0.7200 -0.0000 0.6940
vn -0.4531 0.8844 0.1122
vn 0.0100 0.9999 0.0027
vn 0.5009 0.8628 -0.0680
vn 0.8736 0.4682 -0.1326
vn 0.8720 0.4850 -0.0664
vn 0.9952 -0.0014 -0.0974
vn 0.9988 -0.0007 -0.0489
vn 0.8672 -0.4788 -0.1366
vn 0.8688 -0.4904 -0.0684
vn 0.9988 -0.0008 -0.0490
vn 0.9952 -0.0015 -0.0974
vn 0.4936 -0.8669 -0.0698
vn 0.0074 -1.0000 0.0025
vn -0.4530 -0.8844 0.1122
vn -0.6066 -0.5343 0.5887
vn -0.8189 -0.5344 0.2095
vn -0.1369 -0.0000 -0.9906
vn -0.4009 -0.0000 -0.9161
vn -0.3454 0.5093 -0.7882
vn -0.1174 0.5093 -0.8525
vn -0.0661 0.8714 -0.4860
vn -0.0023 1.0000 0.0052
vn 0.2933 0.8934 0.3403
vn 0.0392 0.8608 0.5074
vn 0.0769 0.4735 0.8774
vn 0.0385 0.4869 0.8726
vn 0.0574 -0.0011 0.9983
vn 0.0288 -0.0005 0.9996
vn 0.0288 -0.0006 0.9996
vn 0.0574 -0.0012 0.9983
vn 0.0782 -0.4796 0.8740
vn 0.0391 -0.4900 0.8709
vn 0.3015 -0.8925 0.3353
vn 0.0398 -0.8630 0.5037
vn -0.0022 -1.0000 0.0039
vn -0.0661 -0.8715 -0.4860
vn -0.3454 -0.5093 -0.7882
vn -0.1174 -0.5093 -0.8525
vn -0.7200 -0.0000 -0.6940
vn -0.9679 -0.0000 -0.2512
vn -0.8189 0.5343 -0.2095
vn -0.6065 0.5344 -0.5887
vn -0.4530 0.8844 -0.1122
vn 0.0074 1.0000 -0.0025
vn 0.4936 0.8669 0.0698
vn 0.8688 0.4904 0.0684
vn 0.8672 0.4788 0.1366
vn 0.9988 0.0008 0.0489
vn 0.9952 0.0015 0.0974
vn 0.9952 0.0014 0.0974
vn 0.9988 0.0007 0.0489
vn 0.8720 -0.4850 0.0664
vn 0.8736 -0.4682 0.1326
vn 0.5009 -0.8628 0.0680
vn 0.0100 -0.9999 -0.0027
vn -0.4531 -0.8844 -0.1122
vn -0.8189 -0.5344 -0.2095
vn -0.6066 -0.5344 -0.5887
vn 0.7193 0.3470 0.6018
vn 0.7192 -0.0000 0.6949
vn 0.7193 0.6018 0.3470
vn 0.7192 0.6949 -0.0000
vn 0.7193 0.6018 -0.3470
vn 0.7193 0.3470 -0.6018
vn 0.7192 -0.0000 -0.6949
vn 0.7193 -0.3470 -0.6018
vn 0.7193 -0.6018 -0.3470
vn 0.7192 -0.6949 -0.0000
vn 0.7193 -0.6018 0.3470
vn 0.7193 -0.3470 0.6018
vn -0.0000 -0.0000 1.0000
vn -0.0000 0.4995 0.8663
vn -0.0000 0.8663 0.4995
vn -0.0000 1.0000 -0.0000
vn -0.0000 0.8663 -0.4995
vn -0.0000 0.4995 -0.8663
vn -0.0000 0.0001 -1.0000
vn -0.0000 -0.0001 -1.0000
vn -0.0000 -0.4995 -0.8663
vn -0.0000 -0.8663 -0.4995
vn -0.0000 -1.0000 -0.0000
vn -0.0000 -0.8663 0.4995
vn -0.0000 -0.4995 0.8663
vn -1.0000 -0.0000 -0.0000
vn -0.8663 0.4995 -0.0000
vn -0.4995 0.8663 -0.0000
vn 0.4995 0.8663 -0.0000
vn -0.8663 -0.4995 -0.0000
vn -0.4995 -0.8663 -0.0000
vn 0.4995 -0.8663 -0.0000
vn 0.8663 -0.4995 -0.0000
vn 1.0000 -0.0001 -0.0000
vn 0.8663 0.4995 -0.0000
vn 1.0000 0.0001 -0.0000
vn -0.0000 -0.0000 -1.0000
vn -0.0000 -0.0001 1.0000
vn -0.0000 0.0001 1.0000
vt 0.633752 0.696071
vt 0.635660 0.696012
vt 0.631127 0.693466
vt 0.638234 0.691497
vt 0.633699 0.688951
vt 0.632017 0.689880
vt 0.631077 0.691562
vt 0.635608 0.688891
vt 0.638284 0.693400
vt 0.637282 0.689827
vt 0.637338 0.695069
vt 0.424051 0.631871
vt 0.422090 0.631668
vt 0.423104 0.628151
vt 0.424097 0.643106
vt 0.423197 0.646842
vt 0.422145 0.643333
vt 0.605409 0.693395
vt 0.606345 0.695068
vt 0.608015 0.696019
vt 0.424078 0.563777
vt 0.422125 0.563556
vt 0.423166 0.560044
vt 0.423135 0.578735
vt 0.422109 0.575222
vt 0.424070 0.575012
vt 0.608080 0.688863
vt 0.606411 0.689808
vt 0.605468 0.691487
vt 0.612589 0.691539
vt 0.611653 0.689864
vt 0.609983 0.688913
vt 0.611600 0.695129
vt 0.612530 0.693448
vt 0.609918 0.696069
vt 0.632078 0.695135
vt 0.415822 0.634084
vt 0.421395 0.634693
vt 0.421159 0.637513
vt 0.415806 0.637538
vt 0.416036 0.630449
vt 0.416363 0.626425
vt 0.416751 0.621994
vt 0.423197 0.623794
vt 0.417039 0.617250
vt 0.423225 0.618359
vt 0.417216 0.612233
vt 0.422929 0.612670
vt 0.417234 0.657812
vt 0.423413 0.656647
vt 0.423169 0.662341
vt 0.417458 0.662831
vt 0.416902 0.653070
vt 0.423333 0.651207
vt 0.416472 0.648640
vt 0.416106 0.644620
vt 0.415856 0.640991
vt 0.421425 0.640331
vt 0.424667 0.634902
vt 0.429130 0.634454
vt 0.429122 0.637441
vt 0.424947 0.637493
vt 0.429151 0.631088
vt 0.429198 0.626988
vt 0.429232 0.622086
vt 0.429176 0.616721
vt 0.428513 0.611261
vt 0.429384 0.658231
vt 0.428772 0.663700
vt 0.429393 0.652865
vt 0.429319 0.647962
vt 0.429244 0.643858
vt 0.424717 0.640108
vt 0.429176 0.640405
vt 0.415806 0.569373
vt 0.421159 0.569381
vt 0.421404 0.572199
vt 0.415833 0.572827
vt 0.416059 0.576461
vt 0.416400 0.580484
vt 0.423243 0.583092
vt 0.416803 0.584914
vt 0.423289 0.588527
vt 0.417107 0.589656
vt 0.423012 0.594217
vt 0.417301 0.594673
vt 0.417373 0.544075
vt 0.423087 0.544545
vt 0.423349 0.550239
vt 0.417167 0.549093
vt 0.423288 0.555679
vt 0.416850 0.553838
vt 0.416435 0.558268
vt 0.416082 0.562290
vt 0.421415 0.566561
vt 0.415844 0.565919
vt 0.424947 0.569388
vt 0.429123 0.569426
vt 0.429140 0.572413
vt 0.424676 0.571980
vt 0.429172 0.575778
vt 0.429233 0.579878
vt 0.429284 0.584780
vt 0.429245 0.590145
vt 0.428600 0.595606
vt 0.428685 0.543167
vt 0.429315 0.548635
vt 0.429342 0.554001
vt 0.429284 0.558903
vt 0.429223 0.563008
vt 0.429167 0.566461
vt 0.424708 0.566774
vt 0.625349 0.689939
vt 0.625354 0.694993
vt 0.627846 0.685651
vt 0.632175 0.683160
vt 0.637228 0.683163
vt 0.641508 0.685656
vt 0.644002 0.689974
vt 0.644000 0.695025
vt 0.641506 0.699300
vt 0.637188 0.701793
vt 0.632136 0.701797
vt 0.627854 0.699310
vt 0.352491 0.637842
vt 0.352496 0.633312
vt 0.352536 0.628800
vt 0.352603 0.624314
vt 0.352686 0.619837
vt 0.352780 0.615336
vt 0.352881 0.610800
vt 0.353140 0.664879
vt 0.352996 0.660345
vt 0.352859 0.655845
vt 0.352733 0.651369
vt 0.352623 0.646883
vt 0.352539 0.642373
vt 0.454592 0.637347
vt 0.454342 0.632316
vt 0.453783 0.627283
vt 0.452976 0.622243
vt 0.452019 0.617196
vt 0.454380 0.564402
vt 0.454592 0.569434
vt 0.453858 0.559365
vt 0.453086 0.554317
vt 0.452163 0.549262
vt 0.451173 0.544149
vt 0.450156 0.538960
vt 0.451079 0.594701
vt 0.450046 0.599884
vt 0.452086 0.589594
vt 0.453026 0.584544
vt 0.453816 0.579501
vt 0.454359 0.574466
vt 0.352490 0.569280
vt 0.352523 0.564749
vt 0.352592 0.560239
vt 0.352687 0.555753
vt 0.352798 0.551276
vt 0.352919 0.546776
vt 0.353049 0.542241
vt 0.352970 0.596321
vt 0.352854 0.591786
vt 0.352746 0.587285
vt 0.352648 0.582808
vt 0.352566 0.578322
vt 0.352510 0.573811
vt 0.602170 0.699293
vt 0.606487 0.701793
vt 0.599683 0.695010
vt 0.599687 0.689959
vt 0.602180 0.685641
vt 0.606455 0.683147
vt 0.611507 0.683145
vt 0.615824 0.685638
vt 0.618317 0.689919
vt 0.618320 0.694971
vt 0.615830 0.699301
vt 0.611541 0.701797
vt 0.454397 0.642381
vt 0.453891 0.647420
vt 0.453136 0.652470
vt 0.452230 0.657528
vt 0.451256 0.662645
vt 0.450257 0.667836
vt 0.450995 0.612092
vt 0.449944 0.606913
s 0
usemtl door1
f 539/347/52 540/348/52 541/349/52
f 540/348/52 542/350/52 543/351/52
f 544/352/52 545/353/52 541/349/52
f 546/354/52 543/351/52 542/350/52
f 547/355/52 542/350/52 540/348/52
f 541/349/52 540/348/52 543/351/52
f 543/351/52 544/352/52 541/349/52
f 548/356/52 546/354/52 542/350/52
f 549/357/52 547/355/52 540/348/52
s 1
f 550/358/53 551/359/54 552/360/55
f 553/361/56 554/362/57 555/363/58
s 0
f 556/364/52 557/365/52 558/366/52
s 1
f 559/367/59 560/368/60 561/369/61
f 562/370/62 563/371/63 564/372/64
s 0
f 565/373/52 566/374/52 567/375/52
f 568/376/52 569/377/52 570/378/52
f 571/379/52 572/380/52 558/366/52
f 567/375/52 558/366/52 572/380/52
f 570/378/52 565/373/52 567/375/52
f 572/380/52 568/376/52 570/378/52
f 573/381/52 571/379/52 558/366/52
f 570/378/52 567/375/52 572/380/52
f 567/375/52 556/364/52 558/366/52
f 574/382/52 539/347/52 541/349/52
s 1
f 575/383/65 576/384/66 577/385/67
f 575/383/65 577/385/67 578/386/68
f 579/387/69 551/359/54 576/384/66
f 579/387/69 576/384/66 575/383/65
f 580/388/70 552/360/55 551/359/54
f 580/388/70 551/359/54 579/387/69
f 581/389/71 582/390/72 552/360/55
f 581/389/71 552/360/55 580/388/70
f 583/391/73 584/392/74 582/390/72
f 583/391/73 582/390/72 581/389/71
f 585/393/75 586/394/76 584/392/74
f 585/393/75 584/392/74 583/391/73
f 587/395/77 588/396/78 589/397/79
f 587/395/77 589/397/79 590/398/75
f 591/399/80 592/400/81 588/396/78
f 591/399/80 588/396/78 587/395/77
f 593/401/82 554/362/57 592/400/81
f 593/401/82 592/400/81 591/399/80
f 594/402/83 555/363/58 554/362/57
f 594/402/83 554/362/57 593/401/82
f 595/403/84 596/404/85 555/363/58
f 595/403/84 555/363/58 594/402/83
f 578/386/68 577/385/67 596/404/85
f 578/386/68 596/404/85 595/403/84
f 597/405/86 598/406/87 599/407/88
f 597/405/86 599/407/88 600/408/89
f 550/358/53 601/409/90 598/406/87
f 550/358/53 598/406/87 597/405/86
f 552/360/55 602/410/91 601/409/90
f 552/360/55 601/409/90 550/358/53
f 582/390/72 603/411/92 602/410/91
f 582/390/72 602/410/91 552/360/55
f 604/392/93 605/412/94 603/411/92
f 604/392/93 603/411/92 582/390/72
f 606/394/95 607/413/96 605/412/94
f 606/394/95 605/412/94 604/392/93
f 608/396/97 609/414/98 610/415/99
f 608/396/97 610/415/99 611/397/100
f 592/400/81 612/416/101 609/414/98
f 592/400/81 609/414/98 608/396/97
f 554/362/57 613/417/102 612/416/101
f 554/362/57 612/416/101 592/400/81
f 553/361/56 614/418/103 613/417/102
f 553/361/56 613/417/102 554/362/57
f 615/419/104 616/420/105 614/418/103
f 615/419/104 614/418/103 553/361/56
f 600/408/89 599/407/88 616/420/105
f 600/408/89 616/420/105 615/419/104
f 617/421/106 618/422/107 619/423/108
f 617/421/106 619/423/108 620/424/109
f 620/424/109 619/423/108 563/371/63
f 620/424/109 563/371/63 621/425/110
f 621/425/110 563/371/63 562/370/62
f 621/425/110 562/370/62 622/426/111
f 622/426/111 562/370/62 623/427/112
f 622/426/111 623/427/112 624/428/113
f 624/428/113 623/427/112 625/429/114
f 624/428/113 625/429/114 626/430/115
f 626/430/115 625/429/114 627/431/116
f 626/430/115 627/431/116 628/432/117
f 629/433/118 630/434/119 631/435/120
f 629/433/118 631/435/120 632/436/121
f 632/436/121 631/435/120 633/437/122
f 632/436/121 633/437/122 634/438/123
f 634/438/123 633/437/122 561/369/61
f 634/438/123 561/369/61 635/439/124
f 635/439/124 561/369/61 560/368/60
f 635/439/124 560/368/60 636/440/125
f 636/440/125 560/368/60 637/441/126
f 636/440/125 637/441/126 638/442/127
f 638/442/127 637/441/126 618/422/107
f 638/442/127 618/422/107 617/421/106
f 639/443/128 640/444/129 641/445/130
f 639/443/128 641/445/130 642/446/131
f 642/446/131 641/445/130 643/447/132
f 642/446/131 643/447/132 564/372/64
f 564/372/64 643/447/132 644/448/133
f 564/372/64 644/448/133 562/370/62
f 562/370/62 644/448/133 645/449/134
f 562/370/62 645/449/134 623/427/112
f 623/427/112 645/449/134 646/450/135
f 623/427/112 646/450/135 647/429/136
f 647/429/136 646/450/135 648/451/137
f 647/429/136 648/451/137 649/431/138
f 650/434/139 651/452/140 652/453/141
f 650/434/139 652/453/141 653/435/142
f 653/435/142 652/453/141 654/454/143
f 653/435/142 654/454/143 633/437/122
f 633/437/122 654/454/143 655/455/144
f 633/437/122 655/455/144 561/369/61
f 561/369/61 655/455/144 656/456/145
f 561/369/61 656/456/145 559/367/59
f 559/367/59 656/456/145 657/457/146
f 559/367/59 657/457/146 658/458/147
f 658/458/147 657/457/146 640/444/129
f 658/458/147 640/444/129 639/443/128
f 659/459/148 660/460/149 661/349/149
f 659/459/148 661/349/149 662/353/148
f 663/461/150 659/459/148 662/353/148
f 663/461/150 662/353/148 664/352/150
f 665/462/151 663/461/150 664/352/150
f 665/462/151 664/352/150 666/351/151
f 667/463/152 665/462/151 666/351/151
f 667/463/152 666/351/151 668/354/152
f 669/464/153 667/463/152 668/354/152
f 669/464/153 668/354/152 670/356/153
f 671/465/154 669/464/153 670/356/153
f 671/465/154 670/356/153 672/350/154
f 673/466/155 671/465/154 672/350/154
f 673/466/155 672/350/154 674/355/155
f 675/467/156 673/466/155 674/355/155
f 675/467/156 674/355/155 676/357/156
f 677/468/157 675/467/156 676/357/156
f 677/468/157 676/357/156 678/348/157
f 679/469/158 677/468/157 678/348/157
f 679/469/158 678/348/157 680/347/158
f 681/470/159 679/469/158 680/347/158
f 681/470/159 680/347/158 682/382/159
f 660/460/149 681/470/159 682/382/159
f 660/460/149 682/382/159 661/349/149
f 578/386/68 683/471/160 684/472/161
f 578/386/68 684/472/161 575/383/65
f 575/383/65 684/472/161 685/473/162
f 575/383/65 685/473/162 579/387/69
f 579/387/69 685/473/162 686/474/163
f 579/387/69 686/474/163 580/388/70
f 580/388/70 686/474/163 687/475/164
f 580/388/70 687/475/164 581/389/71
f 581/389/71 687/475/164 688/476/165
f 581/389/71 688/476/165 583/391/73
f 583/391/73 688/476/165 689/477/166
f 583/391/73 689/477/166 585/393/75
f 590/398/75 690/478/167 691/479/168
f 590/398/75 691/479/168 587/395/77
f 587/395/77 691/479/168 692/480/169
f 587/395/77 692/480/169 591/399/80
f 591/399/80 692/480/169 693/481/170
f 591/399/80 693/481/170 593/401/82
f 593/401/82 693/481/170 694/482/171
f 593/401/82 694/482/171 594/402/83
f 594/402/83 694/482/171 695/483/172
f 594/402/83 695/483/172 595/403/84
f 595/403/84 695/483/172 683/471/160
f 595/403/84 683/471/160 578/386/68
f 600/408/89 577/385/67 576/384/66
f 600/408/89 576/384/66 597/405/86
f 597/405/86 576/384/66 551/359/54
f 597/405/86 551/359/54 550/358/53
f 553/361/56 555/363/58 596/404/85
f 553/361/56 596/404/85 615/419/104
f 615/419/104 596/404/85 577/385/67
f 615/419/104 577/385/67 600/408/89
f 696/484/173 599/407/88 598/406/87
f 696/484/173 598/406/87 697/485/174
f 697/485/174 598/406/87 601/409/90
f 697/485/174 601/409/90 698/486/175
f 698/486/175 601/409/90 602/410/91
f 698/486/175 602/410/91 699/487/163
f 699/487/163 602/410/91 603/411/92
f 699/487/163 603/411/92 700/488/176
f 640/444/129 657/457/146 701/489/177
f 640/444/129 701/489/177 702/490/173
f 657/457/146 656/456/145 703/491/178
f 657/457/146 703/491/178 701/489/177
f 656/456/145 655/455/144 704/492/170
f 656/456/145 704/492/170 703/491/178
f 655/455/144 654/454/143 705/493/179
f 655/455/144 705/493/179 704/492/170
f 654/454/143 652/453/141 706/494/180
f 654/454/143 706/494/180 705/493/179
f 652/453/141 651/452/140 707/495/181
f 652/453/141 707/495/181 706/494/180
f 648/451/137 646/450/135 708/496/182
f 648/451/137 708/496/182 709/497/183
f 646/450/135 645/449/134 710/498/176
f 646/450/135 710/498/176 708/496/182
f 645/449/134 644/448/133 711/499/163
f 645/449/134 711/499/163 710/498/176
f 644/448/133 643/447/132 712/500/175
f 644/448/133 712/500/175 711/499/163
f 643/447/132 641/445/130 713/501/174
f 643/447/132 713/501/174 712/500/175
f 641/445/130 640/444/129 702/490/173
f 641/445/130 702/490/173 713/501/174
f 618/422/107 637/441/126 658/458/147
f 618/422/107 658/458/147 639/443/128
f 637/441/126 560/368/60 559/367/59
f 637/441/126 559/367/59 658/458/147
f 563/371/63 619/423/108 642/446/131
f 563/371/63 642/446/131 564/372/64
f 619/423/108 618/422/107 639/443/128
f 619/423/108 639/443/128 642/446/131
f 714/502/184 715/503/168 638/442/127
f 714/502/184 638/442/127 617/421/106
f 715/503/168 716/504/169 636/440/125
f 715/503/168 636/440/125 638/442/127
f 716/504/169 717/505/170 635/439/124
f 716/504/169 635/439/124 636/440/125
f 717/505/170 718/506/171 634/438/123
f 717/505/170 634/438/123 635/439/124
f 718/506/171 719/507/172 632/436/121
f 718/506/171 632/436/121 634/438/123
f 719/507/172 720/508/185 629/433/118
f 719/507/172 629/433/118 632/436/121
f 721/509/186 722/510/161 626/430/115
f 721/509/186 626/430/115 628/432/117
f 722/510/161 723/511/162 624/428/113
f 722/510/161 624/428/113 626/430/115
f 723/511/162 724/512/163 622/426/111
f 723/511/162 622/426/111 624/428/113
f 724/512/163 725/513/164 621/425/110
f 724/512/163 621/425/110 622/426/111
f 725/513/164 726/514/165 620/424/109
f 725/513/164 620/424/109 621/425/110
f 726/514/165 714/502/184 617/421/106
f 726/514/165 617/421/106 620/424/109
f 727/365/155 728/515/155 729/516/154
f 727/365/155 729/516/154 730/366/154
f 731/364/156 732/517/156 728/515/155
f 731/364/156 728/515/155 727/365/155
f 733/375/157 734/518/157 732/517/156
f 733/375/157 732/517/156 731/364/156
f 735/374/158 736/519/158 734/518/157
f 735/374/158 734/518/157 733/375/157
f 737/373/159 738/520/159 736/519/158
f 737/373/159 736/519/158 735/374/158
f 739/378/149 740/521/149 738/520/159
f 739/378/149 738/520/159 737/373/159
f 741/377/148 742/522/148 740/521/149
f 741/377/148 740/521/149 739/378/149
f 743/376/150 744/523/150 742/522/148
f 743/376/150 742/522/148 741/377/148
f 745/380/151 746/524/151 744/523/150
f 745/380/151 744/523/150 743/376/150
f 747/379/152 748/525/152 746/524/151
f 747/379/152 746/524/151 745/380/151
f 749/381/153 750/526/153 748/525/152
f 749/381/153 748/525/152 747/379/152
f 730/366/154 729/516/154 750/526/153
f 730/366/154 750/526/153 749/381/153
f 751/527/177 616/420/105 599/407/88
f 751/527/177 599/407/88 696/484/173
f 752/528/178 614/418/103 616/420/105
f 752/528/178 616/420/105 751/527/177
f 753/529/170 613/417/102 614/418/103
f 753/529/170 614/418/103 752/528/178
f 754/530/179 612/416/101 613/417/102
f 754/530/179 613/417/102 753/529/170
f 755/531/180 609/414/98 612/416/101
f 755/531/180 612/416/101 754/530/179
f 756/532/181 610/415/99 609/414/98
f 756/532/181 609/414/98 755/531/180
f 757/533/182 605/412/94 607/413/96
f 757/533/182 607/413/96 758/534/183
f 700/488/176 603/411/92 605/412/94
f 700/488/176 605/412/94 757/533/182
